<svg preserveAspectRatio="none" width="100%" height="100%" overflow="visible" style="display: block;" viewBox="0 0 58.2588 49.1777" fill="none" xmlns="http://www.w3.org/2000/svg">
<path id="Union" d="M31.5381 0C36.0596 4.08281e-05 39.7246 2.84686 39.7246 6.3584C39.7246 6.38482 39.7221 6.41116 39.7217 6.4375C40.3506 6.27742 41.0234 6.18945 41.7227 6.18945C45.2185 6.18955 48.0527 8.35591 48.0527 11.0283C48.0527 13.7008 45.2186 15.8671 41.7227 15.8672C41.5085 15.8672 41.2966 15.8587 41.0879 15.8428C40.6886 15.8377 40.1906 15.7842 39.584 15.6709C29.159 13.7238 27.7685 14.4887 29.7939 20.9873C31.8123 27.4628 29.1606 29.1294 25.501 31.4287L25.4609 31.4531C22.4788 33.3269 21.7473 34.8861 21.6348 35.6738C21.5249 36.4439 21.8882 36.7309 23.0977 36.377C24.7013 35.9076 29.7936 31.2285 30.7783 34.9141C31.3247 36.9594 30.2584 41.1348 29.0947 44.6094L29.1748 44.3955C31.0129 42.0698 36.0337 37.6693 42.5381 37.5342C49.0426 37.3991 48.9249 41.1545 48.0527 43.0488C51.7008 44.0147 58.7655 44.3421 57.8428 37.9277C59.0525 42.1478 57.8431 48.9003 51.2881 48.9004C42.2857 48.9004 39.2188 44.9534 36.0117 44.3711C34.0142 44.0086 30.9467 44.0572 27.627 48.5586H22.7324L22.7256 48.4609C22.6949 48.2047 22.5402 47.7711 22.0283 47.5742C21.2965 47.2937 19.2989 49.1777 16.0078 49.1777C12.3231 49.1776 13.0262 46.4588 12.8857 45.4082C11.6479 46.2241 10.3758 47.5742 6.18945 47.5742C0.956856 47.5742 0.506886 42.7076 0.506836 41.1318C3.32029 48.5305 10.297 42.9506 17.2178 42.4258C21.9318 42.0683 23.5044 45.3407 23.7383 47.1133C26.5028 43.0929 30.3922 36.974 29.54 35.5049C28.7241 34.0984 26.2583 36.3773 25.208 37.165C24.448 37.7349 19.9855 40.3996 19.1592 37.165C18.1464 33.1982 23.6041 30.7218 25.4609 29.709C27.3177 28.6962 30.469 26.9519 27.7686 23.2666C25.0677 19.5811 22.3101 17.9778 18.1182 17.2744C14.9377 16.7408 11.5563 17.8767 9.87988 18.6914C9.85923 18.7021 9.8382 18.7121 9.81738 18.7227C9.74927 18.7563 9.68403 18.789 9.62207 18.8213L9.61914 18.8203C8.66054 19.2669 7.53475 19.5244 6.33008 19.5244C2.83409 19.5244 0 17.358 0 14.6855C0.000223152 12.0132 2.83423 9.84671 6.33008 9.84668C7.20554 9.84668 8.03952 9.98287 8.79785 10.2285C8.49408 9.56361 8.32717 8.84833 8.32715 8.10254C8.32715 4.59098 11.9931 1.74414 16.5146 1.74414C19.5233 1.74417 22.1514 3.00576 23.5742 4.88379C24.4307 2.08349 27.6704 0 31.5381 0Z" fill="var(--fill-0, #FE45EE)"/>
</svg>
