<svg preserveAspectRatio="none" width="100%" height="100%" overflow="visible" style="display: block;" viewBox="0 0 45.0167 38" fill="none" xmlns="http://www.w3.org/2000/svg">
<path id="Union" d="M24.3701 0C27.8639 3.52242e-05 30.6963 2.1997 30.6963 4.91309C30.6963 4.93331 30.6937 4.95347 30.6934 4.97363C31.1793 4.84997 31.699 4.78224 32.2393 4.78223C34.9405 4.78223 37.1307 6.45655 37.1309 8.52148C37.1309 10.5866 34.9407 12.2607 32.2393 12.2607C32.0784 12.2607 31.9195 12.2538 31.7627 12.2422C31.452 12.2394 31.0633 12.1972 30.5879 12.1084C22.5324 10.6039 21.4574 11.1954 23.0225 16.2168C24.582 21.2205 22.5329 22.5084 19.7051 24.2852L19.6748 24.3047C17.3704 25.7526 16.8047 26.9568 16.7178 27.5654C16.6329 28.1604 16.914 28.3819 17.8486 28.1084C19.0882 27.7451 23.0224 24.131 23.7832 26.9785C24.201 28.5434 23.3992 31.7221 22.5107 34.3906L22.543 34.3047C23.9632 32.5076 27.8431 29.1074 32.8691 29.0029C37.8951 28.8986 37.8038 31.7999 37.1299 33.2637C39.9487 34.01 45.4082 34.264 44.6953 29.3076C45.63 32.5685 44.695 37.7861 39.6299 37.7861C32.674 37.786 30.3043 34.7361 27.8262 34.2861C26.2827 34.006 23.9129 34.0442 21.3477 37.5225V37.5215H17.5654C17.5829 37.4967 17.6004 37.4715 17.6182 37.4463L17.5645 37.5215C17.5644 37.3475 17.4734 36.9346 17.0215 36.7607C16.4563 36.5434 14.9126 38 12.3691 38C9.52141 38 10.0647 35.8985 9.95605 35.0869C8.99956 35.7174 8.01691 36.7607 4.78223 36.7607C0.738735 36.7607 0.390625 32.9996 0.390625 31.7822C2.56451 37.4996 7.95594 33.1879 13.3037 32.7822C16.946 32.506 18.1609 35.0345 18.3418 36.4043C20.478 33.2977 23.4846 28.5698 22.8262 27.4346C22.1956 26.3482 20.29 28.1091 19.4785 28.7178C18.8905 29.1585 15.4432 31.2166 14.8047 28.7178C14.0221 25.6525 18.24 23.7387 19.6748 22.9561C21.1096 22.1734 23.5434 20.8258 21.457 17.9785C19.3701 15.1307 17.2391 13.8911 14 13.3477C11.544 12.9357 8.93284 13.812 7.63672 14.4414C7.6112 14.4547 7.58544 14.4676 7.55957 14.4805C7.51669 14.5018 7.47516 14.5223 7.43555 14.543L7.43359 14.542C6.69276 14.8873 5.82272 15.0869 4.8916 15.0869C2.1902 15.0869 0 13.4127 0 11.3477C6.30385e-05 9.28263 2.19024 7.6084 4.8916 7.6084C5.5682 7.60843 6.21279 7.71342 6.79883 7.90332C6.56414 7.38956 6.43555 6.83699 6.43555 6.26074C6.43557 3.54735 9.26792 1.34766 12.7617 1.34766C15.0864 1.34777 17.1174 2.32232 18.2168 3.77344C18.8788 1.60983 21.3817 0 24.3701 0Z" fill="var(--fill-0, #FE45EE)"/>
</svg>
