<svg preserveAspectRatio="none" width="100%" height="100%" overflow="visible" style="display: block;" viewBox="0 0 357.527 264.881" fill="none" xmlns="http://www.w3.org/2000/svg">
<g id="Group 301">
<g id="Hanoi&#226;&#128;&#153;s Voice memorial">
<path d="M15.7777 76.059H3.71035C3.43294 76.059 3.29424 75.8857 3.29424 75.5389L3.39827 2.3548C3.39827 2.07739 3.57165 1.93868 3.91841 1.93868H15.7777C16.1244 1.93868 16.2978 2.07739 16.2978 2.3548L16.1938 31.3268H32.1622V2.3548C32.1622 2.07739 32.3009 1.93868 32.5783 1.93868H44.4375C44.7843 1.93868 44.9577 2.07739 44.9577 2.3548L45.1657 75.5389C45.1657 75.8857 44.9924 76.059 44.6456 76.059H32.6823C32.3355 76.059 32.1622 75.8857 32.1622 75.5389V44.2263H16.1938V75.5389C16.1938 75.8857 16.0551 76.059 15.7777 76.059Z" fill="white"/>
<path d="M49.0914 75.5389L62.303 2.3548C62.3723 2.07739 62.5457 1.93868 62.8231 1.93868H78.2714C78.5488 1.93868 78.7222 2.07739 78.7915 2.3548L91.483 75.5389C91.5177 75.8857 91.379 76.059 91.0669 76.059H79.2597C78.9129 76.059 78.7222 75.8857 78.6875 75.5389L77.5432 67.7368H63.0312L61.8869 75.5389C61.8522 75.8857 61.6788 76.059 61.3667 76.059H49.5075C49.2301 76.059 49.0914 75.8857 49.0914 75.5389ZM71.0414 26.4374L70.4172 22.4843L69.9491 26.4374L65.1638 56.3456H75.4106L71.0414 26.4374Z" fill="white"/>
<path d="M108.568 76.059H97.9053C97.3505 76.059 97.0731 75.8163 97.0731 75.3308L96.9691 2.77091C96.9691 2.21609 97.2465 1.93868 97.8013 1.93868H107.424L125.421 43.9142L124.901 2.77091C124.901 2.21609 125.213 1.93868 125.837 1.93868H136.396C136.812 1.93868 137.02 2.21609 137.02 2.77091L137.124 75.4349C137.124 75.851 136.951 76.059 136.604 76.059H127.241L108.776 36.8403L109.557 75.2268C109.557 75.7816 109.227 76.059 108.568 76.059Z" fill="white"/>
<path d="M164.924 77.0993C161.145 77.0993 157.66 76.1284 154.469 74.1865C151.314 72.2447 148.765 69.6613 146.823 66.4364C144.916 63.1768 143.963 59.6052 143.963 55.7215L144.067 21.9642C144.067 18.0111 145.02 14.4568 146.927 11.3013C148.8 8.11104 151.331 5.56234 154.521 3.65515C157.712 1.71329 161.179 0.742353 164.924 0.742353C168.808 0.742353 172.293 1.69595 175.379 3.60314C178.5 5.51033 180.997 8.07637 182.869 11.3013C184.776 14.4915 185.73 18.0458 185.73 21.9642L185.834 55.7215C185.834 59.6052 184.898 63.1595 183.025 66.3844C181.118 69.6439 178.587 72.2447 175.431 74.1865C172.276 76.1284 168.773 77.0993 164.924 77.0993ZM164.924 64.2518C167.074 64.2518 168.947 63.3849 170.542 61.6511C172.137 59.8826 172.934 57.9061 172.934 55.7215L172.83 21.9642C172.83 19.6062 172.085 17.6123 170.594 15.9825C169.103 14.3528 167.213 13.5379 164.924 13.5379C162.74 13.5379 160.867 14.3354 159.307 15.9305C157.746 17.5256 156.966 19.5368 156.966 21.9642V55.7215C156.966 58.0448 157.746 60.056 159.307 61.7551C160.867 63.4196 162.74 64.2518 164.924 64.2518Z" fill="white"/>
<path d="M205.312 76.059H193.245C192.898 76.059 192.724 75.8857 192.724 75.5389L192.828 2.3548C192.828 2.07739 192.967 1.93868 193.245 1.93868H205.208C205.485 1.93868 205.624 2.07739 205.624 2.3548L205.728 75.5389C205.728 75.8857 205.589 76.059 205.312 76.059Z" fill="white"/>
<path d="M227.069 1.17178C226.43 3.65737 225.613 6.35601 224.619 9.2677C223.625 12.1794 222.524 15.0911 221.317 18.0028C220.181 20.8434 219.044 23.5421 217.908 26.0987H210.984C211.481 24.1102 211.978 21.9797 212.475 19.7072C213.043 17.4346 213.541 15.1621 213.967 12.8896C214.464 10.546 214.89 8.27346 215.245 6.07194C215.671 3.87042 216.026 1.84644 216.31 0H226.324L227.069 1.17178Z" fill="white"/>
<path d="M249.469 77.0993C245.689 77.0993 242.204 76.1284 239.014 74.1865C235.859 72.2447 233.327 69.6613 231.42 66.4364C229.548 63.1768 228.611 59.6052 228.611 55.7215V50.8321C228.611 50.4507 228.785 50.26 229.132 50.26H241.095C241.372 50.26 241.511 50.4507 241.511 50.8321V55.7215C241.511 58.0448 242.291 60.056 243.852 61.7551C245.412 63.4196 247.285 64.2518 249.469 64.2518C251.688 64.2518 253.578 63.4022 255.139 61.7031C256.699 59.9693 257.479 57.9754 257.479 55.7215C257.479 53.1207 255.78 50.8494 252.382 48.9076C251.827 48.5608 251.099 48.1447 250.197 47.6592C249.33 47.1391 248.29 46.5496 247.076 45.8908C245.863 45.2319 244.684 44.5904 243.539 43.9662C242.395 43.3074 241.286 42.6832 240.211 42.0937C236.327 39.8051 233.431 36.9443 231.524 33.5114C229.652 30.0437 228.715 26.16 228.715 21.8602C228.715 17.9071 229.686 14.3354 231.628 11.1452C233.57 7.98968 236.101 5.49299 239.222 3.65515C242.378 1.78264 245.793 0.846381 249.469 0.846381C253.249 0.846381 256.716 1.78264 259.872 3.65515C263.028 5.56234 265.542 8.09371 267.414 11.2492C269.321 14.4048 270.275 17.9417 270.275 21.8602V30.5986C270.275 30.876 270.136 31.0147 269.859 31.0147H257.895C257.618 31.0147 257.479 30.876 257.479 30.5986L257.375 21.8602C257.375 19.3635 256.595 17.3349 255.035 15.7745C253.474 14.2141 251.619 13.4338 249.469 13.4338C247.285 13.4338 245.412 14.2661 243.852 15.9305C242.291 17.595 241.511 19.5715 241.511 21.8602C241.511 24.1835 241.996 26.1253 242.967 27.6858C243.973 29.2462 245.793 30.7373 248.429 32.159C248.706 32.2977 249.348 32.6444 250.353 33.1993C251.359 33.7541 252.469 34.3783 253.682 35.0718C254.931 35.7306 256.058 36.3375 257.063 36.8923C258.069 37.4124 258.676 37.7245 258.884 37.8285C262.421 39.8051 265.212 42.2324 267.258 45.1105C269.339 47.9887 270.379 51.5256 270.379 55.7215C270.379 59.7786 269.443 63.4196 267.57 66.6445C265.663 69.8693 263.132 72.418 259.976 74.2906C256.82 76.1631 253.318 77.0993 249.469 77.0993Z" fill="white"/>
<path d="M28.1571 169.95H15.2575C14.9454 169.95 14.7721 169.776 14.7374 169.43L0.0173381 96.2455C-0.0520143 95.9681 0.0866905 95.8293 0.433452 95.8293H12.5008C12.7782 95.8293 12.9516 95.9681 13.0209 96.2455L21.7593 145.035L30.2897 96.2455C30.359 95.9681 30.5324 95.8293 30.8098 95.8293H42.7211C43.1025 95.8293 43.2412 95.9681 43.1372 96.2455L28.6772 169.43C28.6425 169.776 28.4692 169.95 28.1571 169.95Z" fill="white"/>
<path d="M65.7359 170.99C61.9562 170.99 58.4713 170.019 55.2811 168.077C52.1255 166.135 49.5768 163.552 47.635 160.327C45.7278 157.068 44.7742 153.496 44.7742 149.612L44.8782 115.855C44.8782 111.902 45.8318 108.347 47.739 105.192C49.6115 102.002 52.1429 99.453 55.3331 97.5458C58.5233 95.604 61.9909 94.633 65.7359 94.633C69.6197 94.633 73.1046 95.5866 76.1908 97.4938C79.3117 99.401 81.8083 101.967 83.6809 105.192C85.5881 108.382 86.5416 111.936 86.5416 115.855L86.6457 149.612C86.6457 153.496 85.7094 157.05 83.8369 160.275C81.9297 163.535 79.3984 166.135 76.2428 168.077C73.0873 170.019 69.585 170.99 65.7359 170.99ZM65.7359 158.142C67.8859 158.142 69.7584 157.276 71.3535 155.542C72.9486 153.773 73.7461 151.797 73.7461 149.612L73.6421 115.855C73.6421 113.497 72.8966 111.503 71.4055 109.873C69.9144 108.243 68.0246 107.429 65.7359 107.429C63.5513 107.429 61.6788 108.226 60.1184 109.821C58.558 111.416 57.7777 113.428 57.7777 115.855V149.612C57.7777 151.935 58.558 153.947 60.1184 155.646C61.6788 157.31 63.5513 158.142 65.7359 158.142Z" fill="white"/>
<path d="M106.124 169.95H94.0563C93.7095 169.95 93.5361 169.776 93.5361 169.43L93.6401 96.2455C93.6401 95.9681 93.7789 95.8293 94.0563 95.8293H106.02C106.297 95.8293 106.436 95.9681 106.436 96.2455L106.54 169.43C106.54 169.776 106.401 169.95 106.124 169.95Z" fill="white"/>
<path d="M134.34 170.99C130.491 170.99 126.971 170.019 123.781 168.077C120.625 166.135 118.111 163.535 116.239 160.275C114.401 156.981 113.482 153.322 113.482 149.3L113.586 116.063C113.586 112.11 114.488 108.538 116.291 105.348C118.094 102.123 120.573 99.5397 123.729 97.5978C126.919 95.6213 130.456 94.633 134.34 94.633C138.293 94.633 141.813 95.5866 144.899 97.4938C148.02 99.401 150.499 101.984 152.337 105.244C154.209 108.469 155.146 112.075 155.146 116.063V120.952C155.146 121.23 155.007 121.368 154.729 121.368H142.766C142.489 121.368 142.35 121.23 142.35 120.952V116.063C142.35 113.705 141.587 111.676 140.061 109.977C138.536 108.278 136.628 107.429 134.34 107.429C131.808 107.429 129.867 108.295 128.514 110.029C127.162 111.763 126.486 113.774 126.486 116.063V149.3C126.486 151.901 127.249 154.033 128.774 155.698C130.3 157.328 132.155 158.142 134.34 158.142C136.628 158.142 138.536 157.241 140.061 155.438C141.587 153.6 142.35 151.554 142.35 149.3V144.359C142.35 144.081 142.489 143.943 142.766 143.943H154.833C155.111 143.943 155.25 144.081 155.25 144.359V149.3C155.25 153.288 154.313 156.929 152.441 160.223C150.534 163.483 148.02 166.101 144.899 168.077C141.778 170.019 138.258 170.99 134.34 170.99Z" fill="white"/>
<path d="M196.678 169.95H162.244C161.967 169.95 161.828 169.776 161.828 169.43L161.932 96.2455C161.932 95.9681 162.071 95.8293 162.348 95.8293H196.573C196.851 95.8293 196.99 96.0027 196.99 96.3495V108.261C196.99 108.538 196.851 108.677 196.573 108.677H174.728V125.321H196.573C196.851 125.321 196.99 125.46 196.99 125.738L197.094 137.805C197.094 138.082 196.955 138.221 196.678 138.221H174.728V156.842H196.678C196.955 156.842 197.094 157.015 197.094 157.362V169.534C197.094 169.811 196.955 169.95 196.678 169.95Z" fill="white"/>
<path d="M15.7777 263.84H3.71035C3.43294 263.84 3.29424 263.667 3.29424 263.32L3.5023 190.136C3.5023 189.859 3.641 189.72 3.91841 189.72H16.922C17.1994 189.72 17.4421 189.859 17.6502 190.136L27.3769 204.18L37.0515 190.136C37.2596 189.859 37.5196 189.72 37.8317 189.72H50.8873C51.1994 189.72 51.3554 189.859 51.3554 190.136L51.5635 263.32C51.5635 263.667 51.4248 263.84 51.1474 263.84H39.0801C38.8027 263.84 38.664 263.667 38.664 263.32L38.5599 208.965L27.3769 225.194L16.2978 208.965L16.1938 263.32C16.1938 263.667 16.0551 263.84 15.7777 263.84Z" fill="white"/>
<path d="M94.1877 263.84H59.7543C59.4769 263.84 59.3382 263.667 59.3382 263.32L59.4422 190.136C59.4422 189.859 59.5809 189.72 59.8583 189.72H94.0837C94.3611 189.72 94.4998 189.893 94.4998 190.24V202.151C94.4998 202.429 94.3611 202.568 94.0837 202.568H72.2377V219.212H94.0837C94.3611 219.212 94.4998 219.351 94.4998 219.628L94.6039 231.696C94.6039 231.973 94.4652 232.112 94.1877 232.112H72.2377V250.733H94.1877C94.4652 250.733 94.6039 250.906 94.6039 251.253V263.424C94.6039 263.702 94.4652 263.84 94.1877 263.84Z" fill="white"/>
<path d="M115.382 263.84H103.315C103.037 263.84 102.899 263.667 102.899 263.32L103.107 190.136C103.107 189.859 103.245 189.72 103.523 189.72H116.526C116.804 189.72 117.047 189.859 117.255 190.136L126.981 204.18L136.656 190.136C136.864 189.859 137.124 189.72 137.436 189.72H150.492C150.804 189.72 150.96 189.859 150.96 190.136L151.168 263.32C151.168 263.667 151.029 263.84 150.752 263.84H138.685C138.407 263.84 138.268 263.667 138.268 263.32L138.164 208.965L126.981 225.194L115.902 208.965L115.798 263.32C115.798 263.667 115.66 263.84 115.382 263.84Z" fill="white"/>
<path d="M178.656 264.881C174.876 264.881 171.391 263.91 168.201 261.968C165.046 260.026 162.497 257.443 160.555 254.218C158.648 250.958 157.694 247.387 157.694 243.503L157.798 209.746C157.798 205.792 158.752 202.238 160.659 199.083C162.532 195.892 165.063 193.344 168.253 191.436C171.443 189.495 174.911 188.524 178.656 188.524C182.54 188.524 186.025 189.477 189.111 191.384C192.232 193.292 194.728 195.858 196.601 199.083C198.508 202.273 199.462 205.827 199.462 209.746L199.566 243.503C199.566 247.387 198.63 250.941 196.757 254.166C194.85 257.425 192.318 260.026 189.163 261.968C186.007 263.91 182.505 264.881 178.656 264.881ZM178.656 252.033C180.806 252.033 182.678 251.166 184.274 249.432C185.869 247.664 186.666 245.687 186.666 243.503L186.562 209.746C186.562 207.388 185.817 205.394 184.326 203.764C182.835 202.134 180.945 201.319 178.656 201.319C176.471 201.319 174.599 202.117 173.039 203.712C171.478 205.307 170.698 207.318 170.698 209.746V243.503C170.698 245.826 171.478 247.837 173.039 249.536C174.599 251.201 176.471 252.033 178.656 252.033Z" fill="white"/>
<path d="M218.94 263.84H206.872C206.595 263.84 206.456 263.667 206.456 263.32L206.664 190.136C206.664 189.859 206.803 189.72 207.08 189.72H228.614C232.463 189.72 236 190.656 239.225 192.529C242.45 194.401 245.016 196.915 246.923 200.071C248.865 203.226 249.836 206.798 249.836 210.786C249.836 213.387 249.437 215.745 248.64 217.86C247.842 219.975 246.906 221.761 245.831 223.217C244.791 224.674 243.837 225.749 242.97 226.442C246.819 230.707 248.744 235.718 248.744 241.474L248.848 263.32C248.848 263.667 248.674 263.84 248.328 263.84H236.26C235.983 263.84 235.844 263.736 235.844 263.528V241.474C235.844 238.908 234.943 236.689 233.14 234.816C231.336 232.944 229.117 232.008 226.482 232.008H219.46L219.356 263.32C219.356 263.667 219.217 263.84 218.94 263.84ZM228.614 202.464H219.46V219.212H228.614C230.799 219.212 232.741 218.397 234.44 216.767C236.174 215.138 237.041 213.144 237.041 210.786C237.041 208.532 236.208 206.59 234.544 204.96C232.879 203.296 230.903 202.464 228.614 202.464Z" fill="white"/>
<path d="M269.262 263.84H257.195C256.848 263.84 256.675 263.667 256.675 263.32L256.779 190.136C256.779 189.859 256.917 189.72 257.195 189.72H269.158C269.435 189.72 269.574 189.859 269.574 190.136L269.678 263.32C269.678 263.667 269.539 263.84 269.262 263.84Z" fill="white"/>
<path d="M274.28 263.32L287.492 190.136C287.561 189.859 287.734 189.72 288.012 189.72H303.46C303.737 189.72 303.911 189.859 303.98 190.136L316.672 263.32C316.706 263.667 316.568 263.84 316.255 263.84H304.448C304.101 263.84 303.911 263.667 303.876 263.32L302.732 255.518H288.22L287.075 263.32C287.041 263.667 286.867 263.84 286.555 263.84H274.696C274.419 263.84 274.28 263.667 274.28 263.32ZM296.23 214.219L295.606 210.266L295.138 214.219L290.352 244.127H300.599L296.23 214.219Z" fill="white"/>
<path d="M357.007 263.84H322.574C322.296 263.84 322.158 263.667 322.158 263.32L322.262 190.24C322.262 189.893 322.435 189.72 322.782 189.72H334.641C334.988 189.72 335.161 189.893 335.161 190.24L335.057 250.733H357.007C357.354 250.733 357.527 250.906 357.527 251.253V263.32C357.527 263.667 357.354 263.84 357.007 263.84Z" fill="white"/>
</g>
<g id="Group 31">
<path id="Subtract" d="M252.93 92.0715C274.435 92.0715 291.869 109.506 291.869 131.011C291.869 152.516 274.435 169.949 252.93 169.949C231.425 169.949 213.991 152.516 213.991 131.011C213.991 109.506 231.425 92.0717 252.93 92.0715ZM252.93 140.746C251.581 140.746 250.287 141.282 249.333 142.236C248.379 143.189 247.843 144.483 247.843 145.832C247.843 146.664 248.089 148.786 248.344 150.904C248.609 153.116 248.918 155.582 249.119 157.456C249.164 158.403 249.559 159.302 250.231 159.975C250.947 160.69 251.918 161.092 252.93 161.092C253.941 161.092 254.912 160.69 255.627 159.975C256.3 159.302 256.696 158.403 256.74 157.456C256.942 155.582 257.249 153.116 257.515 150.904C257.769 148.786 258.017 146.664 258.017 145.832C258.016 144.483 257.48 143.189 256.526 142.236C255.573 141.282 254.279 140.746 252.93 140.746ZM252.93 105.182C247.473 105.182 242.161 106.936 237.778 110.187C233.396 113.437 230.175 118.011 228.591 123.233C227.007 128.454 227.145 134.047 228.983 139.184C230.822 144.321 234.263 148.731 238.8 151.762C239.967 152.542 241.547 152.228 242.327 151.061C243.107 149.893 242.794 148.313 241.626 147.532C237.997 145.107 235.243 141.58 233.772 137.47C232.302 133.36 232.192 128.886 233.459 124.709C234.726 120.532 237.303 116.873 240.809 114.273C244.315 111.672 248.565 110.269 252.93 110.269C257.294 110.269 261.544 111.673 265.05 114.273C268.556 116.873 271.132 120.532 272.399 124.709C273.666 128.886 273.556 133.36 272.086 137.47C270.615 141.58 267.862 145.107 264.232 147.532C263.065 148.313 262.751 149.893 263.531 151.061C264.312 152.228 265.891 152.542 267.059 151.762C271.595 148.731 275.038 144.321 276.876 139.184C278.714 134.047 278.851 128.454 277.268 123.233C275.684 118.011 272.463 113.437 268.08 110.187C263.698 106.937 258.386 105.182 252.93 105.182ZM252.931 115.313C250.097 115.313 247.318 116.101 244.907 117.591C242.497 119.081 240.549 121.214 239.281 123.748C238.014 126.283 237.478 129.12 237.732 131.943C237.987 134.765 239.022 137.462 240.723 139.729C241.565 140.852 243.16 141.079 244.283 140.237C245.406 139.394 245.635 137.799 244.792 136.676C243.659 135.165 242.968 133.368 242.798 131.487C242.628 129.605 242.986 127.712 243.831 126.023C244.676 124.333 245.975 122.912 247.582 121.919C249.189 120.926 251.041 120.4 252.931 120.4C254.82 120.4 256.671 120.926 258.278 121.919C259.885 122.912 261.184 124.333 262.029 126.023C262.874 127.712 263.232 129.605 263.062 131.487C262.893 133.368 262.203 135.165 261.069 136.676C260.227 137.799 260.454 139.394 261.577 140.237C262.701 141.079 264.296 140.852 265.139 139.729C266.839 137.462 267.874 134.765 268.129 131.943C268.383 129.12 267.846 126.283 266.579 123.748C265.312 121.214 263.364 119.081 260.953 117.591C258.543 116.101 255.764 115.313 252.931 115.313ZM252.93 125.487C250.121 125.487 247.843 127.764 247.843 130.573C247.843 133.383 250.121 135.66 252.93 135.66C255.739 135.66 258.017 133.383 258.017 130.573C258.016 127.764 255.739 125.487 252.93 125.487Z" fill="var(--fill-0, white)"/>
</g>
</g>
</svg>
