<svg preserveAspectRatio="none" width="100%" height="100%" overflow="visible" style="display: block;" viewBox="0 0 332.748 363.972" fill="none" xmlns="http://www.w3.org/2000/svg">
<g id="Union">
<path fill-rule="evenodd" clip-rule="evenodd" d="M79.6719 333.893C81.2018 333.893 82.5748 334.268 83.7906 335.02C85.02 335.771 86.0033 336.782 86.741 338.052C87.4923 339.309 87.8682 340.709 87.8682 342.253L87.909 355.551C87.909 357.081 87.5401 358.481 86.8025 359.751C86.0512 361.035 85.0541 362.06 83.811 362.825C82.5679 363.59 81.1881 363.972 79.6719 363.972C78.183 363.972 76.8102 363.59 75.5535 362.825C74.3104 362.06 73.3062 361.042 72.5412 359.772C71.7899 358.488 71.4144 357.081 71.4143 355.551L71.4551 342.253C71.4551 340.696 71.831 339.295 72.5823 338.052C73.32 336.796 74.3171 335.791 75.5739 335.04C76.8306 334.275 78.1966 333.893 79.6719 333.893ZM79.6719 338.933C78.8113 338.933 78.0736 339.247 77.4589 339.876C76.8442 340.504 76.5369 341.297 76.5369 342.253V355.551C76.537 356.466 76.8442 357.259 77.4589 357.928C78.0736 358.584 78.8113 358.911 79.6719 358.911C80.5188 358.911 81.2565 358.57 81.8848 357.887C82.5131 357.19 82.8275 356.412 82.8275 355.551L82.7864 342.253C82.7864 341.324 82.4926 340.538 81.9052 339.896C81.3178 339.254 80.5734 338.933 79.6719 338.933Z" fill="white"/>
<path d="M107.621 333.893C109.178 333.893 110.565 334.268 111.78 335.02C113.01 335.771 113.986 336.789 114.71 338.073C115.448 339.343 115.817 340.764 115.817 342.335V344.261C115.817 344.37 115.762 344.425 115.653 344.425H110.94C110.831 344.425 110.777 344.37 110.776 344.261V342.335C110.776 341.406 110.476 340.607 109.875 339.937C109.274 339.268 108.522 338.933 107.621 338.933C106.624 338.933 105.859 339.275 105.326 339.958C104.793 340.641 104.527 341.433 104.527 342.335V355.428C104.527 356.453 104.827 357.293 105.428 357.948C106.029 358.59 106.76 358.911 107.621 358.911C108.522 358.911 109.274 358.556 109.875 357.846C110.476 357.122 110.776 356.316 110.776 355.428V353.482C110.776 353.372 110.831 353.317 110.94 353.317H115.694C115.803 353.317 115.858 353.372 115.858 353.482V355.428C115.858 356.999 115.489 358.433 114.751 359.731C114 361.015 113.01 362.047 111.78 362.825C110.551 363.59 109.164 363.972 107.621 363.972C106.105 363.972 104.718 363.59 103.461 362.825C102.218 362.06 101.228 361.035 100.49 359.751C99.7662 358.454 99.4041 357.013 99.4041 355.428L99.4452 342.335C99.4452 340.778 99.8002 339.37 100.511 338.114C101.221 336.843 102.198 335.826 103.441 335.061C104.698 334.282 106.091 333.893 107.621 333.893Z" fill="white"/>
<path fill-rule="evenodd" clip-rule="evenodd" d="M217.9 333.893C219.43 333.893 220.803 334.268 222.019 335.02C223.248 335.771 224.231 336.782 224.969 338.052C225.72 339.309 226.096 340.709 226.096 342.253L226.137 355.551C226.137 357.081 225.768 358.481 225.031 359.751C224.279 361.035 223.282 362.06 222.039 362.825C220.796 363.59 219.416 363.972 217.9 363.972C216.411 363.972 215.038 363.59 213.782 362.825C212.538 362.06 211.534 361.042 210.769 359.772C210.018 358.488 209.642 357.081 209.642 355.551L209.684 342.253C209.684 340.696 210.059 339.295 210.81 338.052C211.548 336.796 212.545 335.791 213.802 335.04C215.059 334.275 216.425 333.893 217.9 333.893ZM217.9 338.933C217.039 338.933 216.302 339.247 215.687 339.876C215.072 340.504 214.765 341.297 214.765 342.253V355.551C214.765 356.466 215.072 357.259 215.687 357.928C216.302 358.584 217.039 358.911 217.9 358.911C218.747 358.911 219.484 358.57 220.113 357.887C220.741 357.19 221.056 356.412 221.056 355.551L221.014 342.253C221.014 341.324 220.721 340.538 220.134 339.896C219.546 339.254 218.801 338.933 217.9 338.933Z" fill="white"/>
<path d="M58.2388 334.364C58.3481 334.364 58.4164 334.419 58.4437 334.528L61.8862 353.748L65.2468 334.528C65.2741 334.419 65.3424 334.364 65.4517 334.364H70.1437C70.294 334.364 70.3488 334.419 70.3079 334.528L64.6116 363.358C64.598 363.494 64.5296 363.563 64.4067 363.563H59.3249C59.202 363.563 59.1336 363.494 59.12 363.358L53.3211 334.528C53.2938 334.419 53.3487 334.364 53.4853 334.364H58.2388Z" fill="white"/>
<path d="M96.0027 334.364C96.112 334.364 96.1665 334.419 96.1665 334.528L96.2076 363.358C96.2076 363.494 96.153 363.563 96.0438 363.563H91.2899C91.1533 363.563 91.085 363.494 91.085 363.358L91.1262 334.528C91.1262 334.419 91.1807 334.364 91.2899 334.364H96.0027Z" fill="white"/>
<path d="M132.599 334.364C132.708 334.364 132.762 334.432 132.762 334.569V339.261C132.762 339.37 132.708 339.425 132.599 339.425H123.992V345.982H132.599C132.708 345.982 132.762 346.037 132.762 346.146L132.804 350.899C132.804 351.009 132.749 351.064 132.639 351.064H123.992V358.399H132.639C132.749 358.399 132.804 358.468 132.804 358.604V363.399C132.804 363.508 132.749 363.563 132.639 363.563H119.075C118.966 363.563 118.911 363.494 118.911 363.358L118.952 334.528C118.952 334.419 119.007 334.364 119.116 334.364H132.599Z" fill="white"/>
<path d="M152.802 334.364C152.911 334.364 153.007 334.419 153.089 334.528L156.921 340.06L160.732 334.528C160.814 334.419 160.916 334.364 161.039 334.364H166.182C166.305 334.364 166.367 334.419 166.367 334.528L166.449 363.358C166.449 363.494 166.394 363.562 166.285 363.563H161.531C161.422 363.563 161.367 363.494 161.367 363.358L161.326 341.945L156.921 348.338L152.556 341.945L152.515 363.358C152.515 363.494 152.46 363.563 152.351 363.563H147.598C147.488 363.563 147.434 363.494 147.434 363.358L147.515 334.528C147.515 334.419 147.57 334.364 147.68 334.364H152.802Z" fill="white"/>
<path d="M183.661 334.364C183.77 334.364 183.825 334.432 183.825 334.569V339.261C183.825 339.37 183.77 339.425 183.661 339.425H175.055V345.982H183.661C183.77 345.982 183.825 346.037 183.825 346.146L183.866 350.899C183.866 351.009 183.811 351.064 183.701 351.064H175.055V358.399H183.701C183.811 358.399 183.866 358.468 183.866 358.604V363.399C183.866 363.508 183.811 363.563 183.701 363.563H170.137C170.028 363.563 169.973 363.494 169.973 363.358L170.014 334.528C170.014 334.419 170.069 334.364 170.178 334.364H183.661Z" fill="white"/>
<path d="M192.963 334.364C193.072 334.364 193.168 334.419 193.25 334.528L197.082 340.06L200.893 334.528C200.975 334.419 201.077 334.364 201.2 334.364H206.343C206.466 334.364 206.528 334.419 206.528 334.528L206.61 363.358C206.61 363.494 206.555 363.563 206.446 363.563H201.692C201.583 363.563 201.528 363.494 201.528 363.358L201.487 341.945L197.082 348.338L192.717 341.945L192.676 363.358C192.676 363.494 192.622 363.563 192.512 363.563H187.759C187.649 363.563 187.595 363.494 187.595 363.358L187.677 334.528C187.677 334.419 187.731 334.364 187.841 334.364H192.963Z" fill="white"/>
<path fill-rule="evenodd" clip-rule="evenodd" d="M238.042 334.364C239.558 334.364 240.952 334.733 242.222 335.471C243.492 336.208 244.504 337.198 245.255 338.441C246.02 339.684 246.402 341.092 246.402 342.662C246.402 343.687 246.245 344.616 245.931 345.449C245.617 346.283 245.248 346.986 244.824 347.56C244.414 348.133 244.039 348.557 243.697 348.83C245.214 350.51 245.972 352.484 245.972 354.752L246.013 363.358C246.013 363.494 245.944 363.563 245.808 363.563H241.054C240.945 363.563 240.89 363.522 240.89 363.44V354.752C240.89 353.741 240.535 352.867 239.825 352.129C239.114 351.391 238.24 351.023 237.202 351.023H234.436L234.395 363.358C234.395 363.494 234.34 363.563 234.231 363.563H229.477C229.368 363.563 229.313 363.494 229.313 363.358L229.395 334.528C229.395 334.419 229.45 334.364 229.559 334.364H238.042ZM234.436 345.982H238.042C238.902 345.982 239.667 345.661 240.337 345.019C241.02 344.377 241.361 343.591 241.361 342.662C241.361 341.775 241.034 341.009 240.378 340.368C239.722 339.712 238.943 339.384 238.042 339.384H234.436V345.982Z" fill="white"/>
<path d="M254.475 334.364C254.585 334.364 254.639 334.419 254.639 334.528L254.68 363.358C254.68 363.494 254.625 363.563 254.516 363.563H249.763C249.626 363.563 249.558 363.494 249.558 363.358L249.599 334.528C249.599 334.419 249.653 334.364 249.763 334.364H254.475Z" fill="white"/>
<path fill-rule="evenodd" clip-rule="evenodd" d="M268.45 334.364C268.559 334.364 268.628 334.419 268.655 334.528L273.654 363.358C273.668 363.494 273.613 363.563 273.49 363.563H268.839C268.702 363.563 268.627 363.494 268.614 363.358L268.163 360.284H262.446L261.995 363.358C261.982 363.494 261.913 363.563 261.79 363.563H257.119C257.009 363.563 256.954 363.494 256.954 363.358L262.159 334.528C262.187 334.419 262.255 334.364 262.364 334.364H268.45ZM265.171 344.015L263.286 355.797H267.323L265.601 344.015L265.356 342.457L265.171 344.015Z" fill="white"/>
<path d="M281.195 334.364C281.331 334.364 281.4 334.432 281.4 334.569L281.359 358.399H290.006C290.142 358.399 290.211 358.468 290.211 358.604V363.358C290.211 363.494 290.142 363.563 290.006 363.563H276.441C276.332 363.563 276.277 363.494 276.277 363.358L276.318 334.569C276.318 334.432 276.386 334.364 276.523 334.364H281.195Z" fill="white"/>
<path d="M100.165 324.823H82.6778V266.853L70.8017 273.443L70.802 324.824H53.3144V195.456L70.802 185.435L70.8017 254.725L82.6778 247.808V178.296L100.165 168.35V324.823Z" fill="white"/>
<path fill-rule="evenodd" clip-rule="evenodd" d="M159.205 324.824H142.05V232.702L126.478 241.343V324.824H109.328V163.185L159.205 134.299V324.824ZM126.478 173.129V222.679L142.05 213.61V164.106L126.478 173.129Z" fill="white"/>
<path d="M190.009 146.238L206.118 196.016V155.477L223.15 165.279V324.824H206.118V237.1L185.362 187.476V324.824H168.367V133.68L190.009 146.238Z" fill="white"/>
<path d="M293.02 205.901V236.13L275.736 226.221V215.101L263.442 207.756V238.944L289.906 254.171V324.823H240.091V270.155L257.215 278.312V309.334H272.651V264.342L246.321 249.342V178.945L293.02 205.901Z" fill="white"/>
<path d="M46.5831 227.266L35.7144 205.528L46.5831 199.285V227.266Z" fill="white"/>
<path d="M241.759 176.887L230.89 198.625V170.644L241.759 176.887Z" fill="white"/>
<path d="M294.532 175.011L317.548 135.946L332.748 144.901L301.096 198.625L301.025 198.583L301.027 198.625L164.482 118.076L31.6522 196.198L31.648 196.191L31.6438 196.194L31.6389 196.176L0 142.475L15.1998 133.519L38.1931 172.546L164.482 98.339L294.532 175.011Z" fill="white"/>
<path d="M284.019 137.19L292.637 122.564L307.836 131.52L290.563 160.838L275.363 151.883L275.405 151.81L164.565 86.5997L54.1348 151.37L42.1853 158.411L24.9117 129.092L40.1115 120.137L48.1799 133.831L164.565 66.8629L284.019 137.19Z" fill="white"/>
<path fill-rule="evenodd" clip-rule="evenodd" d="M164.482 0C181.265 2.81974e-05 194.87 13.605 194.87 30.3876C194.87 47.1701 181.265 60.7751 164.482 60.7751C147.7 60.7751 134.095 47.1701 134.095 30.3876C134.095 13.605 147.7 0 164.482 0ZM164.483 37.9843C163.43 37.9843 162.42 38.4026 161.676 39.147C160.931 39.8914 160.513 40.9012 160.513 41.954C160.513 42.6034 160.706 44.2581 160.904 45.9117C161.112 47.6391 161.352 49.5654 161.509 51.0287C161.545 51.766 161.853 52.4659 162.377 52.9904C162.936 53.5487 163.693 53.8624 164.483 53.8624C165.272 53.8624 166.03 53.5486 166.588 52.9904C167.112 52.4659 167.421 51.7661 167.456 51.0287C167.613 49.5654 167.854 47.6391 168.061 45.9117C168.259 44.2581 168.452 42.6034 168.452 41.954C168.452 40.9012 168.034 39.8914 167.289 39.147C166.545 38.4027 165.535 37.9843 164.483 37.9843ZM164.482 10.2304C160.224 10.2304 156.078 11.6 152.658 14.1365C149.238 16.673 146.725 20.2423 145.489 24.317C144.253 28.3917 144.36 32.7559 145.794 36.765C147.229 40.7741 149.915 44.2157 153.455 46.5813C154.367 47.1902 155.599 46.9448 156.208 46.0334C156.817 45.1219 156.572 43.8895 155.66 43.2805C152.828 41.388 150.68 38.6348 149.532 35.4276C148.384 32.2203 148.298 28.7289 149.287 25.4692C150.276 22.2094 152.287 19.3541 155.023 17.3249C157.759 15.2957 161.075 14.2001 164.482 14.2001C167.888 14.2001 171.204 15.2957 173.94 17.3249C176.676 19.3541 178.687 22.2095 179.676 25.4692C180.665 28.7289 180.579 32.2203 179.432 35.4276C178.284 38.6348 176.135 41.388 173.303 43.2805C172.392 43.8894 172.146 45.122 172.755 46.0334C173.364 46.9448 174.597 47.1903 175.508 46.5813C179.049 44.2158 181.734 40.7741 183.169 36.765C184.604 32.7559 184.711 28.3917 183.475 24.317C182.239 20.2424 179.725 16.673 176.305 14.1365C172.885 11.6 168.74 10.2304 164.482 10.2304ZM164.483 18.1364C162.272 18.1365 160.104 18.7524 158.222 19.915C156.341 21.0777 154.821 22.7414 153.832 24.7195C152.843 26.6975 152.424 28.9119 152.623 31.1144C152.821 33.317 153.629 35.421 154.956 37.1903C155.614 38.0672 156.858 38.2447 157.735 37.5871C158.612 36.9294 158.789 35.6855 158.132 34.8086C157.247 33.6291 156.708 32.2264 156.576 30.758C156.444 29.2897 156.723 27.8135 157.382 26.4948C158.041 25.1762 159.055 24.0668 160.309 23.2917C161.563 22.5166 163.009 22.1062 164.483 22.1061C165.957 22.1062 167.403 22.5167 168.657 23.2917C169.911 24.0668 170.925 25.1762 171.584 26.4948C172.243 27.8135 172.523 29.2897 172.39 30.758C172.258 32.2265 171.719 33.6291 170.834 34.8086C170.177 35.6855 170.355 36.9294 171.231 37.5871C172.108 38.2448 173.352 38.0671 174.01 37.1903C175.337 35.421 176.145 33.3171 176.343 31.1144C176.542 28.9119 176.124 26.6975 175.135 24.7195C174.146 22.7414 172.625 21.0777 170.744 19.915C168.863 18.7523 166.695 18.1365 164.483 18.1364ZM164.483 26.0766C162.29 26.0766 160.513 27.854 160.513 30.0463C160.513 32.2385 162.291 34.0156 164.483 34.0156C166.675 34.0155 168.452 32.2384 168.452 30.0463C168.452 27.854 166.675 26.0767 164.483 26.0766Z" fill="white"/>
</g>
</svg>
