<svg preserveAspectRatio="none" width="100%" height="100%" overflow="visible" style="display: block;" viewBox="0 0 697 235" fill="none" xmlns="http://www.w3.org/2000/svg">
<g id="Frame 14851">
<g id="Union">
<path fill-rule="evenodd" clip-rule="evenodd" d="M50.0926 216.088C51.0545 216.088 51.9178 216.324 52.6822 216.796C53.4551 217.269 54.0734 217.904 54.5372 218.703C55.0096 219.493 55.2459 220.374 55.2459 221.344L55.2716 229.705C55.2716 230.667 55.0396 231.547 54.5759 232.346C54.1035 233.153 53.4766 233.798 52.695 234.279C51.9134 234.76 51.0459 235 50.0926 235C49.1565 235 48.2933 234.76 47.5032 234.279C46.7217 233.798 46.0903 233.158 45.6093 232.359C45.1369 231.552 44.9008 230.667 44.9008 229.705L44.9264 221.344C44.9264 220.365 45.1628 219.485 45.6352 218.703C46.0989 217.913 46.7259 217.282 47.516 216.809C48.3062 216.328 49.165 216.088 50.0926 216.088ZM50.0926 219.257C49.5515 219.257 49.0877 219.454 48.7012 219.85C48.3147 220.245 48.1216 220.743 48.1216 221.344V229.705C48.1216 230.281 48.3148 230.779 48.7012 231.2C49.0877 231.612 49.5515 231.818 50.0926 231.818C50.6251 231.818 51.0889 231.603 51.484 231.174C51.879 230.736 52.0767 230.246 52.0767 229.705L52.0508 221.344C52.0508 220.76 51.8661 220.266 51.4968 219.862C51.1275 219.459 50.6594 219.257 50.0926 219.257Z" fill="#262626"/>
<path d="M67.6651 216.088C68.6442 216.088 69.516 216.324 70.2803 216.796C71.0533 217.269 71.6673 217.909 72.1225 218.716C72.5863 219.515 72.8182 220.408 72.8182 221.396V222.607C72.8182 222.675 72.7839 222.71 72.7153 222.71H69.7522C69.6835 222.71 69.6492 222.675 69.6492 222.607V221.396C69.6492 220.812 69.4602 220.309 69.0823 219.888C68.7044 219.467 68.232 219.257 67.6651 219.257C67.0382 219.257 66.5572 219.472 66.2222 219.901C65.8873 220.33 65.7197 220.829 65.7197 221.396V229.628C65.7197 230.272 65.9087 230.8 66.2866 231.212C66.6645 231.616 67.124 231.818 67.6651 231.818C68.232 231.818 68.7044 231.595 69.0823 231.148C69.4602 230.693 69.6492 230.186 69.6492 229.628V228.404C69.6492 228.335 69.6835 228.301 69.7522 228.301H72.7411C72.8098 228.301 72.8441 228.335 72.8441 228.404V229.628C72.8441 230.616 72.6122 231.517 72.1484 232.333C71.676 233.141 71.0533 233.789 70.2803 234.279C69.5074 234.76 68.6356 235 67.6651 235C66.7118 235 65.84 234.76 65.0499 234.279C64.2683 233.798 63.6456 233.153 63.1818 232.346C62.7266 231.53 62.4989 230.624 62.4989 229.628L62.5248 221.396C62.5248 220.417 62.748 219.532 63.1946 218.742C63.6412 217.943 64.2555 217.303 65.0371 216.822C65.8272 216.333 66.7032 216.088 67.6651 216.088Z" fill="#262626"/>
<path fill-rule="evenodd" clip-rule="evenodd" d="M137.002 216.088C137.964 216.088 138.827 216.324 139.591 216.796C140.364 217.269 140.982 217.904 141.446 218.703C141.919 219.493 142.155 220.374 142.155 221.344L142.181 229.705C142.181 230.667 141.949 231.547 141.485 232.346C141.013 233.153 140.386 233.798 139.604 234.279C138.822 234.76 137.955 235 137.002 235C136.065 235 135.202 234.76 134.412 234.279C133.631 233.798 132.999 233.158 132.518 232.359C132.046 231.552 131.81 230.667 131.81 229.705L131.836 221.344C131.836 220.365 132.072 219.485 132.544 218.703C133.008 217.913 133.635 217.282 134.425 216.809C135.215 216.328 136.074 216.088 137.002 216.088ZM137.002 219.257C136.461 219.257 135.997 219.455 135.61 219.85C135.224 220.245 135.031 220.743 135.031 221.344V229.705C135.031 230.281 135.224 230.779 135.61 231.2C135.997 231.612 136.461 231.818 137.002 231.818C137.534 231.818 137.998 231.603 138.393 231.174C138.788 230.736 138.986 230.246 138.986 229.705L138.96 221.344C138.96 220.76 138.775 220.266 138.406 219.862C138.037 219.459 137.568 219.257 137.002 219.257Z" fill="#262626"/>
<path d="M36.6169 216.384C36.6856 216.384 36.7285 216.418 36.7457 216.487L38.9101 228.572L41.023 216.487C41.0402 216.418 41.0831 216.384 41.1519 216.384H44.1019C44.1964 216.384 44.2309 216.418 44.2051 216.487L40.6237 234.613C40.6151 234.699 40.5721 234.742 40.4948 234.742H37.2997C37.2224 234.742 37.1795 234.699 37.1709 234.613L33.5249 216.487C33.5078 216.418 33.5423 216.384 33.6281 216.384H36.6169Z" fill="#262626"/>
<path d="M60.3604 216.384C60.4291 216.384 60.4634 216.418 60.4634 216.487L60.4892 234.613C60.4892 234.699 60.4549 234.742 60.3862 234.742H57.3973C57.3114 234.742 57.2685 234.699 57.2685 234.613L57.2943 216.487C57.2943 216.418 57.3286 216.384 57.3973 216.384H60.3604Z" fill="#262626"/>
<path d="M83.3696 216.384C83.4383 216.384 83.4726 216.427 83.4726 216.513V219.463C83.4726 219.532 83.4383 219.566 83.3696 219.566H77.9585V223.689H83.3696C83.4383 223.689 83.4726 223.723 83.4726 223.792L83.4984 226.781C83.4984 226.849 83.4639 226.884 83.3952 226.884H77.9585V231.496H83.3952C83.4639 231.496 83.4984 231.539 83.4984 231.625V234.639C83.4984 234.708 83.4639 234.742 83.3952 234.742H74.8666C74.798 234.742 74.7636 234.699 74.7636 234.613L74.7895 216.487C74.7895 216.418 74.8238 216.384 74.8925 216.384H83.3696Z" fill="#262626"/>
<path d="M96.0723 216.384C96.141 216.384 96.2011 216.418 96.2526 216.487L98.6617 219.966L101.058 216.487C101.109 216.418 101.174 216.384 101.251 216.384H104.485C104.562 216.384 104.601 216.418 104.601 216.487L104.652 234.613C104.652 234.699 104.618 234.742 104.549 234.742H101.56C101.492 234.742 101.457 234.699 101.457 234.613L101.432 221.151L98.6617 225.17L95.9176 221.151L95.8919 234.613C95.8919 234.699 95.8574 234.742 95.7887 234.742H92.8C92.7313 234.742 92.6968 234.699 92.6968 234.613L92.7483 216.487C92.7483 216.418 92.7828 216.384 92.8515 216.384H96.0723Z" fill="#262626"/>
<path d="M115.474 216.384C115.543 216.384 115.577 216.427 115.577 216.513V219.463C115.577 219.532 115.543 219.566 115.474 219.566H110.063V223.689H115.474C115.543 223.689 115.577 223.723 115.577 223.792L115.603 226.781C115.603 226.849 115.569 226.884 115.5 226.884H110.063V231.496H115.5C115.569 231.496 115.603 231.539 115.603 231.625V234.639C115.603 234.708 115.569 234.742 115.5 234.742H106.971C106.903 234.742 106.868 234.699 106.868 234.613L106.894 216.487C106.894 216.418 106.928 216.384 106.997 216.384H115.474Z" fill="#262626"/>
<path d="M121.323 216.384C121.392 216.384 121.452 216.418 121.503 216.487L123.912 219.966L126.309 216.487C126.36 216.418 126.425 216.384 126.502 216.384H129.736C129.813 216.384 129.852 216.418 129.852 216.487L129.903 234.613C129.903 234.699 129.869 234.742 129.8 234.742H126.811C126.742 234.742 126.708 234.699 126.708 234.613L126.682 221.151L123.912 225.17L121.168 221.151L121.143 234.613C121.143 234.699 121.108 234.742 121.039 234.742H118.051C117.982 234.742 117.948 234.699 117.948 234.613L117.999 216.487C117.999 216.418 118.034 216.384 118.102 216.384H121.323Z" fill="#262626"/>
<path fill-rule="evenodd" clip-rule="evenodd" d="M149.666 216.384C150.619 216.384 151.495 216.616 152.294 217.08C153.093 217.544 153.728 218.166 154.201 218.948C154.682 219.729 154.922 220.614 154.922 221.602C154.922 222.246 154.823 222.83 154.626 223.354C154.428 223.878 154.196 224.32 153.93 224.681C153.672 225.041 153.436 225.308 153.221 225.48C154.175 226.536 154.651 227.777 154.651 229.203L154.677 234.613C154.677 234.699 154.634 234.742 154.548 234.742H151.56C151.491 234.742 151.456 234.717 151.456 234.665V229.203C151.456 228.567 151.233 228.017 150.787 227.554C150.34 227.09 149.79 226.858 149.137 226.858H147.398L147.373 234.613C147.373 234.699 147.338 234.742 147.269 234.742H144.281C144.212 234.742 144.177 234.699 144.177 234.613L144.229 216.487C144.229 216.418 144.263 216.384 144.332 216.384H149.666ZM147.398 223.689H149.666C150.207 223.689 150.688 223.487 151.108 223.083C151.538 222.68 151.753 222.186 151.753 221.602C151.753 221.043 151.547 220.562 151.134 220.159C150.722 219.747 150.232 219.54 149.666 219.54H147.398V223.689Z" fill="#262626"/>
<path d="M159.998 216.384C160.067 216.384 160.101 216.418 160.101 216.487L160.127 234.613C160.127 234.699 160.092 234.742 160.024 234.742H157.035C156.949 234.742 156.906 234.699 156.906 234.613L156.932 216.487C156.932 216.418 156.966 216.384 157.035 216.384H159.998Z" fill="#262626"/>
<path fill-rule="evenodd" clip-rule="evenodd" d="M168.784 216.384C168.853 216.384 168.896 216.418 168.913 216.487L172.056 234.613C172.065 234.699 172.031 234.742 171.953 234.742H169.029C168.943 234.742 168.896 234.699 168.887 234.613L168.604 232.681H165.009L164.726 234.613C164.717 234.699 164.674 234.742 164.597 234.742H161.66C161.591 234.742 161.557 234.699 161.557 234.613L164.829 216.487C164.846 216.418 164.889 216.384 164.958 216.384H168.784ZM166.723 222.452L165.538 229.86H168.075L166.993 222.452L166.839 221.473L166.723 222.452Z" fill="#262626"/>
<path d="M176.797 216.384C176.883 216.384 176.926 216.427 176.926 216.513L176.9 231.496H182.337C182.423 231.496 182.466 231.539 182.466 231.625V234.613C182.466 234.699 182.423 234.742 182.337 234.742H173.808C173.74 234.742 173.706 234.699 173.706 234.613L173.731 216.513C173.731 216.427 173.774 216.384 173.86 216.384H176.797Z" fill="#262626"/>
<path d="M62.9776 210.386H51.9825V173.938L44.5156 178.081L44.5158 210.386H33.5207V129.048L44.5158 122.747L44.5156 166.312L51.9825 161.963V118.259L62.9776 112.005V210.386Z" fill="#262626"/>
<path fill-rule="evenodd" clip-rule="evenodd" d="M100.098 210.386H89.3119V152.466L79.5216 157.899V210.386H68.7383V108.758L100.098 90.596V210.386ZM79.5216 115.01V146.163L89.3119 140.461V109.336L79.5216 115.01Z" fill="#262626"/>
<path d="M119.466 98.1023L129.594 129.4V103.911L140.303 110.074V210.386H129.594V155.231L116.544 124.03V210.386H105.859V90.2068L119.466 98.1023Z" fill="#262626"/>
<path d="M184.232 135.615V154.621L173.365 148.391V141.399L165.635 136.781V156.39L182.275 165.964V210.386H150.954V176.014L161.72 181.142V200.647H171.426V172.359L154.871 162.928V118.666L184.232 135.615Z" fill="#262626"/>
<path d="M29.2885 149.048L22.4549 135.38L29.2885 131.455V149.048Z" fill="#262626"/>
<path d="M152.003 117.373L145.169 131.04V113.447L152.003 117.373Z" fill="#262626"/>
<path d="M185.183 116.193L199.654 91.6314L209.211 97.2618L189.31 131.04L189.265 131.014L189.267 131.04L103.416 80.3958L19.9009 129.514L19.8983 129.51L19.8956 129.511L19.8925 129.5L0 95.7363L9.55664 90.1059L24.0134 114.643L103.416 67.9866L185.183 116.193Z" fill="#262626"/>
<path d="M178.573 92.4135L183.991 83.2177L193.548 88.8484L182.687 107.282L173.13 101.651L173.157 101.606L103.468 60.6057L34.0365 101.329L26.5234 105.756L15.6629 87.3224L25.2196 81.6917L30.2925 90.3019L103.468 48.1964L178.573 92.4135Z" fill="#262626"/>
<path fill-rule="evenodd" clip-rule="evenodd" d="M103.416 6.15729C113.968 6.15731 122.522 14.7113 122.522 25.2631C122.522 35.8148 113.968 44.3688 103.416 44.3688C92.8641 44.3688 84.3101 35.8148 84.3101 25.2631C84.3101 14.7112 92.8641 6.15729 103.416 6.15729ZM103.416 30.0394C102.754 30.0394 102.12 30.3024 101.651 30.7704C101.183 31.2385 100.92 31.8734 100.92 32.5353C100.92 32.9436 101.042 33.984 101.166 35.0237C101.297 36.1097 101.448 37.3208 101.547 38.2409C101.569 38.7045 101.763 39.1445 102.093 39.4743C102.444 39.8253 102.92 40.0225 103.416 40.0225C103.913 40.0225 104.389 39.8253 104.74 39.4743C105.07 39.1445 105.263 38.7045 105.286 38.2409C105.385 37.3208 105.536 36.1098 105.666 35.0237C105.791 33.984 105.912 32.9436 105.912 32.5353C105.912 31.8734 105.649 31.2385 105.181 30.7704C104.713 30.3024 104.078 30.0394 103.416 30.0394ZM103.416 12.5895C100.738 12.5895 98.1322 13.4506 95.9819 15.0454C93.8316 16.6402 92.2512 18.8844 91.4741 21.4463C90.697 24.0082 90.7642 26.7521 91.6661 29.2728C92.568 31.7934 94.2569 33.9573 96.4829 35.4447C97.0559 35.8275 97.8308 35.6732 98.2137 35.1001C98.5965 34.5271 98.4424 33.7522 97.8694 33.3693C96.0886 32.1795 94.7377 30.4484 94.0161 28.4319C93.2946 26.4154 93.2406 24.2202 93.8623 22.1707C94.484 20.1212 95.7485 18.3259 97.4687 17.0501C99.189 15.7742 101.274 15.0854 103.416 15.0854C105.557 15.0854 107.642 15.7742 109.363 17.0501C111.083 18.3259 112.347 20.1212 112.969 22.1707C113.591 24.2202 113.537 26.4154 112.815 28.4319C112.094 30.4484 110.743 32.1795 108.962 33.3693C108.389 33.7522 108.235 34.5271 108.617 35.1001C109 35.6732 109.775 35.8275 110.348 35.4447C112.574 33.9573 114.263 31.7934 115.165 29.2728C116.067 26.7521 116.134 24.0082 115.357 21.4463C114.58 18.8844 113 16.6402 110.849 15.0454C108.699 13.4506 106.093 12.5895 103.416 12.5895ZM103.417 17.5603C102.026 17.5603 100.663 17.9476 99.4802 18.6786C98.2974 19.4096 97.3414 20.4556 96.7196 21.6993C96.0978 22.943 95.8345 24.3353 95.9593 25.7201C96.0842 27.1049 96.5923 28.4278 97.4265 29.5402C97.84 30.0915 98.6223 30.2031 99.1737 29.7897C99.725 29.3761 99.8367 28.594 99.4232 28.0427C98.867 27.3011 98.5283 26.4192 98.4451 25.496C98.3618 24.5728 98.5373 23.6446 98.9518 22.8156C99.3664 21.9865 100.004 21.289 100.792 20.8016C101.581 20.3143 102.49 20.0562 103.417 20.0562C104.344 20.0562 105.252 20.3143 106.041 20.8016C106.829 21.289 107.467 21.9865 107.881 22.8156C108.296 23.6447 108.471 24.5728 108.388 25.496C108.305 26.4192 107.966 27.3011 107.41 28.0427C106.996 28.594 107.108 29.3762 107.659 29.7897C108.211 30.2032 108.993 30.0915 109.406 29.5402C110.241 28.4278 110.749 27.1049 110.874 25.7201C110.998 24.3352 110.735 22.943 110.114 21.6993C109.492 20.4556 108.536 19.4096 107.353 18.6786C106.17 17.9476 104.807 17.5603 103.417 17.5603ZM103.416 22.5526C102.038 22.5526 100.92 23.6701 100.92 25.0485C100.92 26.4268 102.038 27.5442 103.416 27.5442C104.795 27.5441 105.912 26.4268 105.912 25.0485C105.912 23.6701 104.795 22.5526 103.416 22.5526Z" fill="#262626"/>
</g>
<g id="Union_2">
<path fill-rule="evenodd" clip-rule="evenodd" d="M293.987 216.088C294.949 216.088 295.812 216.324 296.577 216.796C297.35 217.269 297.968 217.904 298.432 218.703C298.904 219.493 299.141 220.374 299.141 221.344L299.166 229.705C299.166 230.667 298.934 231.547 298.471 232.346C297.998 233.153 297.371 233.798 296.59 234.279C295.808 234.76 294.941 235 293.987 235C293.051 235 292.188 234.76 291.398 234.279C290.616 233.798 289.985 233.158 289.504 232.359C289.032 231.552 288.795 230.667 288.795 229.705L288.821 221.344C288.821 220.365 289.057 219.485 289.53 218.703C289.994 217.913 290.62 217.282 291.411 216.809C292.201 216.328 293.06 216.088 293.987 216.088ZM293.987 219.257C293.446 219.257 292.982 219.454 292.596 219.85C292.209 220.245 292.016 220.743 292.016 221.344V229.705C292.016 230.281 292.209 230.779 292.596 231.2C292.982 231.612 293.446 231.818 293.987 231.818C294.52 231.818 294.984 231.603 295.379 231.174C295.774 230.736 295.971 230.246 295.971 229.705L295.945 221.344C295.945 220.76 295.761 220.266 295.391 219.862C295.022 219.459 294.554 219.257 293.987 219.257Z" fill="white"/>
<path d="M311.56 216.088C312.539 216.088 313.411 216.324 314.175 216.796C314.948 217.269 315.562 217.909 316.017 218.716C316.481 219.515 316.713 220.408 316.713 221.396V222.607C316.713 222.675 316.679 222.71 316.61 222.71H313.647C313.578 222.71 313.544 222.675 313.544 222.607V221.396C313.544 220.812 313.355 220.309 312.977 219.888C312.599 219.467 312.127 219.257 311.56 219.257C310.933 219.257 310.452 219.472 310.117 219.901C309.782 220.33 309.614 220.829 309.614 221.396V229.628C309.614 230.272 309.803 230.8 310.181 231.212C310.559 231.616 311.019 231.818 311.56 231.818C312.127 231.818 312.599 231.595 312.977 231.148C313.355 230.693 313.544 230.186 313.544 229.628V228.404C313.544 228.335 313.578 228.301 313.647 228.301H316.636C316.704 228.301 316.739 228.335 316.739 228.404V229.628C316.739 230.616 316.507 231.517 316.043 232.333C315.571 233.141 314.948 233.789 314.175 234.279C313.402 234.76 312.53 235 311.56 235C310.606 235 309.735 234.76 308.944 234.279C308.163 233.798 307.54 233.153 307.076 232.346C306.621 231.53 306.394 230.624 306.394 229.628L306.419 221.396C306.419 220.417 306.643 219.532 307.089 218.742C307.536 217.943 308.15 217.303 308.932 216.822C309.722 216.333 310.598 216.088 311.56 216.088Z" fill="white"/>
<path fill-rule="evenodd" clip-rule="evenodd" d="M380.896 216.088C381.858 216.088 382.721 216.324 383.486 216.796C384.259 217.269 384.877 217.904 385.341 218.703C385.813 219.493 386.05 220.374 386.05 221.344L386.075 229.705C386.075 230.667 385.843 231.547 385.38 232.346C384.907 233.153 384.28 233.798 383.499 234.279C382.717 234.76 381.85 235 380.896 235C379.96 235 379.097 234.76 378.307 234.279C377.525 233.798 376.894 233.158 376.413 232.359C375.941 231.552 375.704 230.667 375.704 229.705L375.73 221.344C375.73 220.365 375.966 219.485 376.439 218.703C376.903 217.913 377.529 217.282 378.32 216.809C379.11 216.328 379.969 216.088 380.896 216.088ZM380.896 219.257C380.355 219.257 379.891 219.455 379.505 219.85C379.118 220.245 378.925 220.743 378.925 221.344V229.705C378.925 230.281 379.118 230.779 379.505 231.2C379.891 231.612 380.355 231.818 380.896 231.818C381.429 231.818 381.893 231.603 382.288 231.174C382.683 230.736 382.88 230.246 382.88 229.705L382.854 221.344C382.854 220.76 382.67 220.266 382.301 219.862C381.931 219.459 381.463 219.257 380.896 219.257Z" fill="white"/>
<path d="M280.511 216.384C280.58 216.384 280.623 216.418 280.64 216.487L282.805 228.572L284.918 216.487C284.935 216.418 284.978 216.384 285.046 216.384H287.997C288.091 216.384 288.125 216.418 288.1 216.487L284.518 234.613C284.51 234.699 284.467 234.742 284.389 234.742H281.194C281.117 234.742 281.074 234.699 281.066 234.613L277.42 216.487C277.402 216.418 277.437 216.384 277.523 216.384H280.511Z" fill="white"/>
<path d="M304.255 216.384C304.324 216.384 304.358 216.418 304.358 216.487L304.384 234.613C304.384 234.699 304.35 234.742 304.281 234.742H301.292C301.206 234.742 301.163 234.699 301.163 234.613L301.189 216.487C301.189 216.418 301.223 216.384 301.292 216.384H304.255Z" fill="white"/>
<path d="M327.264 216.384C327.333 216.384 327.367 216.427 327.367 216.513V219.463C327.367 219.532 327.333 219.566 327.264 219.566H321.853V223.689H327.264C327.333 223.689 327.367 223.723 327.367 223.792L327.393 226.781C327.393 226.849 327.359 226.884 327.29 226.884H321.853V231.496H327.29C327.359 231.496 327.393 231.539 327.393 231.625V234.639C327.393 234.708 327.359 234.742 327.29 234.742H318.761C318.693 234.742 318.658 234.699 318.658 234.613L318.684 216.487C318.684 216.418 318.718 216.384 318.787 216.384H327.264Z" fill="white"/>
<path d="M339.967 216.384C340.036 216.384 340.096 216.418 340.147 216.487L342.556 219.966L344.953 216.487C345.004 216.418 345.069 216.384 345.146 216.384H348.379C348.457 216.384 348.495 216.418 348.495 216.487L348.547 234.613C348.547 234.699 348.513 234.742 348.444 234.742H345.455C345.386 234.742 345.352 234.699 345.352 234.613L345.326 221.151L342.556 225.17L339.812 221.151L339.787 234.613C339.787 234.699 339.752 234.742 339.683 234.742H336.695C336.626 234.742 336.591 234.699 336.591 234.613L336.643 216.487C336.643 216.418 336.677 216.384 336.746 216.384H339.967Z" fill="white"/>
<path d="M359.369 216.384C359.437 216.384 359.472 216.427 359.472 216.513V219.463C359.472 219.532 359.437 219.566 359.369 219.566H353.958V223.689H359.369C359.437 223.689 359.472 223.723 359.472 223.792L359.498 226.781C359.498 226.849 359.463 226.884 359.394 226.884H353.958V231.496H359.394C359.463 231.496 359.498 231.539 359.498 231.625V234.639C359.498 234.708 359.463 234.742 359.394 234.742H350.866C350.797 234.742 350.763 234.699 350.763 234.613L350.789 216.487C350.789 216.418 350.823 216.384 350.892 216.384H359.369Z" fill="white"/>
<path d="M365.218 216.384C365.286 216.384 365.346 216.418 365.398 216.487L367.807 219.966L370.203 216.487C370.255 216.418 370.319 216.384 370.397 216.384H373.63C373.707 216.384 373.746 216.418 373.746 216.487L373.798 234.613C373.798 234.699 373.763 234.742 373.695 234.742H370.706C370.637 234.742 370.603 234.699 370.603 234.613L370.577 221.151L367.807 225.17L365.063 221.151L365.037 234.613C365.037 234.699 365.003 234.742 364.934 234.742H361.945C361.877 234.742 361.842 234.699 361.842 234.613L361.894 216.487C361.894 216.418 361.928 216.384 361.997 216.384H365.218Z" fill="white"/>
<path fill-rule="evenodd" clip-rule="evenodd" d="M393.56 216.384C394.514 216.384 395.39 216.616 396.189 217.08C396.987 217.544 397.623 218.166 398.095 218.948C398.576 219.729 398.817 220.614 398.817 221.602C398.817 222.246 398.718 222.83 398.52 223.354C398.323 223.878 398.091 224.32 397.825 224.681C397.567 225.041 397.331 225.308 397.116 225.48C398.069 226.536 398.546 227.777 398.546 229.203L398.572 234.613C398.572 234.699 398.529 234.742 398.443 234.742H395.454C395.385 234.742 395.351 234.717 395.351 234.665V229.203C395.351 228.567 395.128 228.017 394.681 227.554C394.235 227.09 393.685 226.858 393.032 226.858H391.293L391.267 234.613C391.267 234.699 391.233 234.742 391.164 234.742H388.175C388.107 234.742 388.072 234.699 388.072 234.613L388.124 216.487C388.124 216.418 388.158 216.384 388.227 216.384H393.56ZM391.293 223.689H393.56C394.101 223.689 394.582 223.487 395.003 223.083C395.433 222.68 395.647 222.186 395.647 221.602C395.647 221.043 395.441 220.562 395.029 220.159C394.617 219.747 394.127 219.54 393.56 219.54H391.293V223.689Z" fill="white"/>
<path d="M403.893 216.384C403.961 216.384 403.996 216.418 403.996 216.487L404.021 234.613C404.021 234.699 403.987 234.742 403.918 234.742H400.929C400.844 234.742 400.801 234.699 400.801 234.613L400.826 216.487C400.826 216.418 400.861 216.384 400.929 216.384H403.893Z" fill="white"/>
<path fill-rule="evenodd" clip-rule="evenodd" d="M412.679 216.384C412.747 216.384 412.791 216.418 412.808 216.487L415.951 234.613C415.96 234.699 415.925 234.742 415.848 234.742H412.923C412.838 234.742 412.79 234.699 412.782 234.613L412.498 232.681H408.904L408.621 234.613C408.612 234.699 408.569 234.742 408.492 234.742H405.554C405.486 234.742 405.451 234.699 405.451 234.613L408.724 216.487C408.741 216.418 408.784 216.384 408.853 216.384H412.679ZM410.617 222.452L409.432 229.86H411.97L410.888 222.452L410.733 221.473L410.617 222.452Z" fill="white"/>
<path d="M420.692 216.384C420.778 216.384 420.821 216.427 420.821 216.513L420.795 231.496H426.232C426.318 231.496 426.361 231.539 426.361 231.625V234.613C426.361 234.699 426.318 234.742 426.232 234.742H417.703C417.634 234.742 417.6 234.699 417.6 234.613L417.626 216.513C417.626 216.427 417.669 216.384 417.755 216.384H420.692Z" fill="white"/>
<path d="M306.872 210.386H295.877V173.938L288.41 178.081L288.41 210.386H277.415V129.048L288.41 122.747L288.41 166.312L295.877 161.963V118.259L306.872 112.005V210.386Z" fill="white"/>
<path fill-rule="evenodd" clip-rule="evenodd" d="M343.993 210.386H333.206V152.466L323.416 157.899V210.386H312.633V108.758L343.993 90.596V210.386ZM323.416 115.01V146.163L333.206 140.461V109.336L323.416 115.01Z" fill="white"/>
<path d="M363.36 98.1023L373.489 129.4V103.911L384.197 110.074V210.386H373.489V155.231L360.438 124.03V210.386H349.753V90.2068L363.36 98.1023Z" fill="white"/>
<path d="M428.127 135.615V154.621L417.26 148.391V141.399L409.53 136.781V156.39L426.169 165.964V210.386H394.848V176.014L405.615 181.142V200.647H415.32V172.359L398.766 162.928V118.666L428.127 135.615Z" fill="white"/>
<path d="M273.183 149.048L266.35 135.38L273.183 131.455V149.048Z" fill="white"/>
<path d="M395.897 117.373L389.064 131.04V113.447L395.897 117.373Z" fill="white"/>
<path d="M429.077 116.193L443.549 91.6314L453.105 97.2618L433.204 131.04L433.16 131.014L433.161 131.04L347.311 80.3958L263.796 129.514L263.793 129.51L263.79 129.511L263.787 129.5L243.895 95.7363L253.451 90.1059L267.908 114.643L347.311 67.9866L429.077 116.193Z" fill="white"/>
<path d="M422.468 92.4135L427.886 83.2177L437.442 88.8484L426.582 107.282L417.025 101.651L417.052 101.606L347.363 60.6057L277.931 101.329L270.418 105.756L259.558 87.3224L269.114 81.6917L274.187 90.3019L347.363 48.1964L422.468 92.4135Z" fill="white"/>
<path fill-rule="evenodd" clip-rule="evenodd" d="M347.311 6.15729C357.862 6.15731 366.416 14.7113 366.416 25.2631C366.416 35.8148 357.862 44.3688 347.311 44.3688C336.759 44.3688 328.205 35.8148 328.205 25.2631C328.205 14.7112 336.759 6.15729 347.311 6.15729ZM347.311 30.0394C346.649 30.0394 346.014 30.3024 345.546 30.7704C345.078 31.2385 344.815 31.8734 344.815 32.5353C344.815 32.9436 344.936 33.984 345.061 35.0237C345.191 36.1097 345.343 37.3208 345.441 38.2409C345.464 38.7045 345.658 39.1445 345.987 39.4743C346.338 39.8253 346.815 40.0225 347.311 40.0225C347.807 40.0225 348.283 39.8253 348.634 39.4743C348.964 39.1445 349.158 38.7045 349.18 38.2409C349.279 37.3208 349.43 36.1098 349.561 35.0237C349.685 33.984 349.807 32.9436 349.807 32.5353C349.807 31.8734 349.544 31.2385 349.076 30.7704C348.608 30.3024 347.973 30.0394 347.311 30.0394ZM347.31 12.5895C344.633 12.5895 342.027 13.4506 339.877 15.0454C337.726 16.6402 336.146 18.8844 335.369 21.4463C334.592 24.0082 334.659 26.7521 335.561 29.2728C336.463 31.7934 338.151 33.9573 340.378 35.4447C340.951 35.8275 341.725 35.6732 342.108 35.1001C342.491 34.5271 342.337 33.7522 341.764 33.3693C339.983 32.1795 338.632 30.4484 337.911 28.4319C337.189 26.4154 337.135 24.2202 337.757 22.1707C338.379 20.1212 339.643 18.3259 341.363 17.0501C343.084 15.7742 345.169 15.0854 347.31 15.0854C349.452 15.0854 351.537 15.7742 353.257 17.0501C354.977 18.3259 356.242 20.1212 356.864 22.1707C357.485 24.2202 357.431 26.4154 356.71 28.4319C355.988 30.4484 354.637 32.1795 352.857 33.3693C352.284 33.7522 352.129 34.5271 352.512 35.1001C352.895 35.6732 353.67 35.8275 354.243 35.4447C356.469 33.9573 358.158 31.7934 359.06 29.2728C359.962 26.7521 360.029 24.0082 359.252 21.4463C358.475 18.8844 356.894 16.6402 354.744 15.0454C352.594 13.4506 349.987 12.5895 347.31 12.5895ZM347.311 17.5603C345.921 17.5603 344.558 17.9476 343.375 18.6786C342.192 19.4096 341.236 20.4556 340.614 21.6993C339.992 22.943 339.729 24.3353 339.854 25.7201C339.979 27.1049 340.487 28.4278 341.321 29.5402C341.735 30.0915 342.517 30.2031 343.068 29.7897C343.62 29.3761 343.731 28.594 343.318 28.0427C342.762 27.3011 342.423 26.4192 342.34 25.496C342.256 24.5728 342.432 23.6446 342.846 22.8156C343.261 21.9865 343.898 21.289 344.687 20.8016C345.475 20.3143 346.384 20.0562 347.311 20.0562C348.238 20.0562 349.147 20.3143 349.935 20.8016C350.724 21.289 351.361 21.9865 351.776 22.8156C352.19 23.6447 352.366 24.5728 352.283 25.496C352.199 26.4192 351.86 27.3011 351.304 28.0427C350.891 28.594 351.003 29.3762 351.554 29.7897C352.105 30.2032 352.887 30.0915 353.301 29.5402C354.135 28.4278 354.643 27.1049 354.768 25.7201C354.893 24.3352 354.63 22.943 354.008 21.6993C353.386 20.4556 352.43 19.4096 351.248 18.6786C350.065 17.9476 348.702 17.5603 347.311 17.5603ZM347.311 22.5526C345.933 22.5526 344.815 23.6701 344.815 25.0485C344.815 26.4268 345.933 27.5442 347.311 27.5442C348.689 27.5441 349.807 26.4268 349.807 25.0485C349.807 23.6701 348.689 22.5526 347.311 22.5526Z" fill="white"/>
</g>
<g id="Union_3">
<path fill-rule="evenodd" clip-rule="evenodd" d="M537.882 216.088C538.844 216.088 539.707 216.324 540.471 216.796C541.244 217.269 541.863 217.904 542.326 218.703C542.799 219.493 543.035 220.374 543.035 221.344L543.061 229.705C543.061 230.667 542.829 231.547 542.365 232.346C541.893 233.153 541.266 233.798 540.484 234.279C539.703 234.76 538.835 235 537.882 235C536.946 235 536.083 234.76 535.292 234.279C534.511 233.798 533.88 233.158 533.399 232.359C532.926 231.552 532.69 230.667 532.69 229.705L532.716 221.344C532.716 220.365 532.952 219.485 533.424 218.703C533.888 217.913 534.515 217.282 535.305 216.809C536.095 216.328 536.954 216.088 537.882 216.088ZM537.882 219.257C537.341 219.257 536.877 219.454 536.49 219.85C536.104 220.245 535.911 220.743 535.911 221.344V229.705C535.911 230.281 536.104 230.779 536.49 231.2C536.877 231.612 537.341 231.818 537.882 231.818C538.414 231.818 538.878 231.603 539.273 231.174C539.668 230.736 539.866 230.246 539.866 229.705L539.84 221.344C539.84 220.76 539.655 220.266 539.286 219.862C538.917 219.459 538.449 219.257 537.882 219.257Z" fill="var(--fill-0, #0642F6)"/>
<path d="M555.454 216.088C556.433 216.088 557.305 216.324 558.07 216.796C558.843 217.269 559.457 217.909 559.912 218.716C560.376 219.515 560.607 220.408 560.607 221.396V222.607C560.607 222.675 560.573 222.71 560.504 222.71H557.541C557.473 222.71 557.438 222.675 557.438 222.607V221.396C557.438 220.812 557.249 220.309 556.872 219.888C556.494 219.467 556.021 219.257 555.454 219.257C554.827 219.257 554.346 219.472 554.011 219.901C553.677 220.33 553.509 220.829 553.509 221.396V229.628C553.509 230.272 553.698 230.8 554.076 231.212C554.454 231.616 554.913 231.818 555.454 231.818C556.021 231.818 556.494 231.595 556.872 231.148C557.249 230.693 557.438 230.186 557.438 229.628V228.404C557.438 228.335 557.473 228.301 557.541 228.301H560.53C560.599 228.301 560.633 228.335 560.633 228.404V229.628C560.633 230.616 560.401 231.517 559.938 232.333C559.465 233.141 558.843 233.789 558.07 234.279C557.297 234.76 556.425 235 555.454 235C554.501 235 553.629 234.76 552.839 234.279C552.058 233.798 551.435 233.153 550.971 232.346C550.516 231.53 550.288 230.624 550.288 229.628L550.314 221.396C550.314 220.417 550.537 219.532 550.984 218.742C551.43 217.943 552.045 217.303 552.826 216.822C553.616 216.333 554.492 216.088 555.454 216.088Z" fill="var(--fill-0, #0642F6)"/>
<path fill-rule="evenodd" clip-rule="evenodd" d="M624.791 216.088C625.753 216.088 626.616 216.324 627.38 216.796C628.153 217.269 628.772 217.904 629.235 218.703C629.708 219.493 629.944 220.374 629.944 221.344L629.97 229.705C629.97 230.667 629.738 231.547 629.274 232.346C628.802 233.153 628.175 233.798 627.393 234.279C626.612 234.76 625.744 235 624.791 235C623.855 235 622.992 234.76 622.201 234.279C621.42 233.798 620.789 233.158 620.308 232.359C619.835 231.552 619.599 230.667 619.599 229.705L619.625 221.344C619.625 220.365 619.861 219.485 620.333 218.703C620.797 217.913 621.424 217.282 622.214 216.809C623.004 216.328 623.863 216.088 624.791 216.088ZM624.791 219.257C624.25 219.257 623.786 219.455 623.399 219.85C623.013 220.245 622.82 220.743 622.82 221.344V229.705C622.82 230.281 623.013 230.779 623.399 231.2C623.786 231.612 624.25 231.818 624.791 231.818C625.323 231.818 625.787 231.603 626.182 231.174C626.577 230.736 626.775 230.246 626.775 229.705L626.749 221.344C626.749 220.76 626.565 220.266 626.195 219.862C625.826 219.459 625.358 219.257 624.791 219.257Z" fill="var(--fill-0, #0642F6)"/>
<path d="M524.406 216.384C524.475 216.384 524.518 216.418 524.535 216.487L526.699 228.572L528.812 216.487C528.829 216.418 528.872 216.384 528.941 216.384H531.891C531.986 216.384 532.02 216.418 531.994 216.487L528.413 234.613C528.404 234.699 528.361 234.742 528.284 234.742H525.089C525.012 234.742 524.969 234.699 524.96 234.613L521.314 216.487C521.297 216.418 521.331 216.384 521.417 216.384H524.406Z" fill="var(--fill-0, #0642F6)"/>
<path d="M548.15 216.384C548.218 216.384 548.253 216.418 548.253 216.487L548.278 234.613C548.278 234.699 548.244 234.742 548.175 234.742H545.187C545.101 234.742 545.058 234.699 545.058 234.613L545.084 216.487C545.084 216.418 545.118 216.384 545.187 216.384H548.15Z" fill="var(--fill-0, #0642F6)"/>
<path d="M571.159 216.384C571.227 216.384 571.262 216.427 571.262 216.513V219.463C571.262 219.532 571.227 219.566 571.159 219.566H565.748V223.689H571.159C571.227 223.689 571.262 223.723 571.262 223.792L571.288 226.781C571.288 226.849 571.253 226.884 571.184 226.884H565.748V231.496H571.184C571.253 231.496 571.288 231.539 571.288 231.625V234.639C571.288 234.708 571.253 234.742 571.184 234.742H562.656C562.587 234.742 562.553 234.699 562.553 234.613L562.579 216.487C562.579 216.418 562.613 216.384 562.682 216.384H571.159Z" fill="var(--fill-0, #0642F6)"/>
<path d="M583.862 216.384C583.93 216.384 583.99 216.418 584.042 216.487L586.451 219.966L588.847 216.487C588.899 216.418 588.963 216.384 589.041 216.384H592.274C592.351 216.384 592.39 216.418 592.39 216.487L592.442 234.613C592.442 234.699 592.407 234.742 592.339 234.742H589.35C589.281 234.742 589.246 234.699 589.246 234.613L589.221 221.151L586.451 225.17L583.707 221.151L583.681 234.613C583.681 234.699 583.647 234.742 583.578 234.742H580.589C580.521 234.742 580.486 234.699 580.486 234.613L580.538 216.487C580.538 216.418 580.572 216.384 580.641 216.384H583.862Z" fill="var(--fill-0, #0642F6)"/>
<path d="M603.263 216.384C603.332 216.384 603.366 216.427 603.366 216.513V219.463C603.366 219.532 603.332 219.566 603.263 219.566H597.852V223.689H603.263C603.332 223.689 603.366 223.723 603.366 223.792L603.392 226.781C603.392 226.849 603.358 226.884 603.289 226.884H597.852V231.496H603.289C603.358 231.496 603.392 231.539 603.392 231.625V234.639C603.392 234.708 603.358 234.742 603.289 234.742H594.76C594.692 234.742 594.657 234.699 594.657 234.613L594.683 216.487C594.683 216.418 594.718 216.384 594.786 216.384H603.263Z" fill="var(--fill-0, #0642F6)"/>
<path d="M609.112 216.384C609.181 216.384 609.241 216.418 609.293 216.487L611.702 219.966L614.098 216.487C614.15 216.418 614.214 216.384 614.291 216.384H617.525C617.602 216.384 617.641 216.418 617.641 216.487L617.692 234.613C617.692 234.699 617.658 234.742 617.589 234.742H614.6C614.532 234.742 614.497 234.699 614.497 234.613L614.472 221.151L611.702 225.17L608.958 221.151L608.932 234.613C608.932 234.699 608.897 234.742 608.829 234.742H605.84C605.771 234.742 605.737 234.699 605.737 234.613L605.788 216.487C605.788 216.418 605.823 216.384 605.891 216.384H609.112Z" fill="var(--fill-0, #0642F6)"/>
<path fill-rule="evenodd" clip-rule="evenodd" d="M637.455 216.384C638.408 216.384 639.284 216.616 640.083 217.08C640.882 217.544 641.518 218.166 641.99 218.948C642.471 219.729 642.711 220.614 642.711 221.602C642.711 222.246 642.612 222.83 642.415 223.354C642.217 223.878 641.985 224.32 641.719 224.681C641.461 225.041 641.225 225.308 641.011 225.48C641.964 226.536 642.441 227.777 642.441 229.203L642.466 234.613C642.466 234.699 642.423 234.742 642.337 234.742H639.349C639.28 234.742 639.246 234.717 639.246 234.665V229.203C639.246 228.567 639.022 228.017 638.576 227.554C638.129 227.09 637.579 226.858 636.927 226.858H635.187L635.162 234.613C635.162 234.699 635.127 234.742 635.059 234.742H632.07C632.001 234.742 631.967 234.699 631.967 234.613L632.018 216.487C632.018 216.418 632.053 216.384 632.121 216.384H637.455ZM635.187 223.689H637.455C637.996 223.689 638.477 223.487 638.898 223.083C639.327 222.68 639.542 222.186 639.542 221.602C639.542 221.043 639.336 220.562 638.924 220.159C638.511 219.747 638.022 219.54 637.455 219.54H635.187V223.689Z" fill="var(--fill-0, #0642F6)"/>
<path d="M647.787 216.384C647.856 216.384 647.89 216.418 647.89 216.487L647.916 234.613C647.916 234.699 647.882 234.742 647.813 234.742H644.824C644.738 234.742 644.695 234.699 644.695 234.613L644.721 216.487C644.721 216.418 644.755 216.384 644.824 216.384H647.787Z" fill="var(--fill-0, #0642F6)"/>
<path fill-rule="evenodd" clip-rule="evenodd" d="M656.573 216.384C656.642 216.384 656.685 216.418 656.702 216.487L659.846 234.613C659.854 234.699 659.82 234.742 659.743 234.742H656.818C656.732 234.742 656.685 234.699 656.676 234.613L656.393 232.681H652.799L652.515 234.613C652.507 234.699 652.464 234.742 652.386 234.742H649.449C649.38 234.742 649.346 234.699 649.346 234.613L652.618 216.487C652.636 216.418 652.678 216.384 652.747 216.384H656.573ZM654.512 222.452L653.327 229.86H655.865L654.783 222.452L654.628 221.473L654.512 222.452Z" fill="var(--fill-0, #0642F6)"/>
<path d="M664.587 216.384C664.673 216.384 664.716 216.427 664.716 216.513L664.69 231.496H670.126C670.212 231.496 670.255 231.539 670.255 231.625V234.613C670.255 234.699 670.212 234.742 670.126 234.742H661.598C661.529 234.742 661.495 234.699 661.495 234.613L661.52 216.513C661.52 216.427 661.563 216.384 661.649 216.384H664.587Z" fill="var(--fill-0, #0642F6)"/>
<path d="M550.767 210.386H539.772V173.938L532.305 178.081L532.305 210.386H521.31V129.048L532.305 122.747L532.305 166.312L539.772 161.963V118.259L550.767 112.005V210.386Z" fill="var(--fill-0, #0642F6)"/>
<path fill-rule="evenodd" clip-rule="evenodd" d="M587.887 210.386H577.101V152.466L567.311 157.899V210.386H556.527V108.758L587.887 90.596V210.386ZM567.311 115.01V146.163L577.101 140.461V109.336L567.311 115.01Z" fill="var(--fill-0, #0642F6)"/>
<path d="M607.255 98.1023L617.383 129.4V103.911L628.092 110.074V210.386H617.383V155.231L604.333 124.03V210.386H593.648V90.2068L607.255 98.1023Z" fill="var(--fill-0, #0642F6)"/>
<path d="M672.022 135.615V154.621L661.154 148.391V141.399L653.425 136.781V156.39L670.064 165.964V210.386H638.743V176.014L649.51 181.142V200.647H659.215V172.359L642.66 162.928V118.666L672.022 135.615Z" fill="var(--fill-0, #0642F6)"/>
<path d="M517.078 149.048L510.244 135.38L517.078 131.455V149.048Z" fill="var(--fill-0, #0642F6)"/>
<path d="M639.792 117.373L632.958 131.04V113.447L639.792 117.373Z" fill="var(--fill-0, #0642F6)"/>
<path d="M672.972 116.193L687.443 91.6314L697 97.2618L677.099 131.04L677.054 131.014L677.056 131.04L591.205 80.3958L507.69 129.514L507.687 129.51L507.685 129.511L507.682 129.5L487.789 95.7363L497.346 90.1059L511.803 114.643L591.205 67.9866L672.972 116.193Z" fill="var(--fill-0, #0642F6)"/>
<path d="M666.362 92.4135L671.78 83.2177L681.337 88.8484L670.477 107.282L660.92 101.651L660.946 101.606L591.257 60.6057L521.826 101.329L514.313 105.756L503.452 87.3224L513.009 81.6917L518.082 90.3019L591.257 48.1964L666.362 92.4135Z" fill="var(--fill-0, #0642F6)"/>
<path fill-rule="evenodd" clip-rule="evenodd" d="M591.205 6.15729C601.757 6.15731 610.311 14.7113 610.311 25.2631C610.311 35.8148 601.757 44.3688 591.205 44.3688C580.653 44.3688 572.099 35.8148 572.099 25.2631C572.099 14.7112 580.653 6.15729 591.205 6.15729ZM591.206 30.0394C590.544 30.0394 589.909 30.3024 589.441 30.7704C588.973 31.2385 588.71 31.8734 588.71 32.5353C588.71 32.9436 588.831 33.984 588.956 35.0237C589.086 36.1097 589.237 37.3208 589.336 38.2409C589.358 38.7045 589.552 39.1445 589.882 39.4743C590.233 39.8253 590.709 40.0225 591.206 40.0225C591.702 40.0225 592.178 39.8253 592.529 39.4743C592.859 39.1445 593.053 38.7045 593.075 38.2409C593.174 37.3208 593.325 36.1098 593.455 35.0237C593.58 33.984 593.701 32.9436 593.701 32.5353C593.701 31.8734 593.438 31.2385 592.97 30.7704C592.502 30.3024 591.867 30.0394 591.206 30.0394ZM591.205 12.5895C588.528 12.5895 585.921 13.4506 583.771 15.0454C581.621 16.6402 580.04 18.8844 579.263 21.4463C578.486 24.0082 578.553 26.7521 579.455 29.2728C580.357 31.7934 582.046 33.9573 584.272 35.4447C584.845 35.8275 585.62 35.6732 586.003 35.1001C586.386 34.5271 586.232 33.7522 585.659 33.3693C583.878 32.1795 582.527 30.4484 581.805 28.4319C581.084 26.4154 581.03 24.2202 581.652 22.1707C582.273 20.1212 583.538 18.3259 585.258 17.0501C586.978 15.7742 589.063 15.0854 591.205 15.0854C593.347 15.0854 595.432 15.7742 597.152 17.0501C598.872 18.3259 600.137 20.1212 600.758 22.1707C601.38 24.2202 601.326 26.4154 600.604 28.4319C599.883 30.4484 598.532 32.1795 596.751 33.3693C596.178 33.7522 596.024 34.5271 596.407 35.1001C596.79 35.6732 597.565 35.8275 598.138 35.4447C600.364 33.9573 602.052 31.7934 602.954 29.2728C603.856 26.7521 603.924 24.0082 603.147 21.4463C602.369 18.8844 600.789 16.6402 598.639 15.0454C596.488 13.4506 593.882 12.5895 591.205 12.5895ZM591.206 17.5603C589.815 17.5603 588.452 17.9476 587.269 18.6786C586.087 19.4096 585.131 20.4556 584.509 21.6993C583.887 22.943 583.624 24.3353 583.749 25.7201C583.873 27.1049 584.382 28.4278 585.216 29.5402C585.629 30.0915 586.412 30.2031 586.963 29.7897C587.514 29.3761 587.626 28.594 587.212 28.0427C586.656 27.3011 586.318 26.4192 586.234 25.496C586.151 24.5728 586.327 23.6446 586.741 22.8156C587.156 21.9865 587.793 21.289 588.581 20.8016C589.37 20.3143 590.279 20.0562 591.206 20.0562C592.133 20.0562 593.042 20.3143 593.83 20.8016C594.619 21.289 595.256 21.9865 595.67 22.8156C596.085 23.6447 596.26 24.5728 596.177 25.496C596.094 26.4192 595.755 27.3011 595.199 28.0427C594.786 28.594 594.897 29.3762 595.449 29.7897C596 30.2032 596.782 30.0915 597.196 29.5402C598.03 28.4278 598.538 27.1049 598.663 25.7201C598.788 24.3352 598.525 22.943 597.903 21.6993C597.281 20.4556 596.325 19.4096 595.142 18.6786C593.959 17.9476 592.596 17.5603 591.206 17.5603ZM591.206 22.5526C589.827 22.5526 588.71 23.6701 588.71 25.0485C588.71 26.4268 589.827 27.5442 591.206 27.5442C592.584 27.5441 593.701 26.4268 593.701 25.0485C593.701 23.6701 592.584 22.5526 591.206 22.5526Z" fill="var(--fill-0, #0642F6)"/>
</g>
</g>
</svg>
