<svg width="450" height="450" viewBox="0 0 450 450" fill="none" xmlns="http://www.w3.org/2000/svg">
<rect x="0.5" y="0.5" width="449" height="449" fill="#EAEAEA"/>
<rect x="0.5" y="0.5" width="449" height="449" stroke="#262626"/>
<path d="M151.3 188.519L150.919 185.918C150.336 181.939 146.638 179.185 142.659 179.768L63.2716 191.393C59.2923 191.976 56.5388 195.674 57.1215 199.653L68.7464 279.04C69.329 283.02 73.0273 285.773 77.0066 285.19L156.394 273.566C159.157 273.161 161.33 271.254 162.204 268.793C161.579 268.475 160.906 268.132 160.195 267.767C159.66 269.61 158.094 271.066 156.071 271.362L76.6839 282.987C73.9216 283.391 71.3544 281.48 70.9499 278.718L59.3251 199.33C58.9206 196.568 60.832 194.001 63.5943 193.596L142.981 181.972C145.744 181.567 148.311 183.479 148.715 186.241L149.844 193.951L151.3 188.519Z" fill="#262626"/>
<path fill-rule="evenodd" clip-rule="evenodd" d="M144.228 214.91L141.417 195.71C141.045 193.169 138.683 191.411 136.142 191.783L73.293 200.986C70.7518 201.358 68.9934 203.72 69.3655 206.261L78.5686 269.11C78.9408 271.651 81.3025 273.41 83.8437 273.037L146.693 263.834C147.895 263.658 148.923 263.036 149.632 262.161C146.159 260.241 142.759 258.261 140.089 256.497C136.506 255.262 134.438 251.446 135.434 247.729L144.228 214.91ZM104.292 226.125L101.951 226.467L102.767 232.043L121.181 229.347C120.777 229.759 120.356 230.17 119.916 230.583C119.184 231.259 118.437 231.885 117.676 232.459L115.32 232.804L115.938 237.026L101.376 239.158L102.201 244.788L116.762 242.656L117.737 249.314C117.79 249.675 117.734 249.923 117.57 250.058C117.405 250.192 117.091 250.312 116.627 250.417L112.296 251.051C111.281 251.163 110.283 251.272 109.303 251.379C109.863 252.181 110.429 253.149 111 254.282C111.608 255.409 112.034 256.434 112.28 257.357C114.481 257.035 116.386 256.7 117.994 256.354C119.602 256.008 120.967 255.513 122.09 254.87C123.212 254.226 123.903 253.406 124.162 252.41C124.427 251.45 124.441 250.157 124.203 248.533L123.204 241.713L136.575 239.755L135.751 234.125L122.38 236.083L122.238 235.114C123.187 234.464 124.1 233.775 124.977 233.048C126.519 231.754 127.925 230.405 129.195 229.003C130.5 227.595 131.64 226.193 132.615 224.797L128.111 222.36L126.689 222.845L126.21 222.915C126.638 222.103 127.094 221.207 127.578 220.226C128.141 219.038 128.714 217.793 129.298 216.491C129.881 215.189 130.449 213.908 131.002 212.647L123.88 211.589C123.667 212.653 123.377 213.819 123.01 215.089C122.679 216.354 122.31 217.607 121.902 218.846C121.488 220.049 121.079 221.16 120.675 222.177L124.925 223.103L105.944 225.883L109.933 223.584C109.439 222.477 108.723 221.236 107.785 219.862C106.846 218.489 105.869 217.231 104.854 216.089L99.6804 218.893C100.665 220.076 101.616 221.411 102.534 222.898C103.29 224.101 103.876 225.176 104.292 226.125ZM129.973 208.264L124.928 203.639C123.228 204.367 121.289 205.094 119.109 205.818C116.961 206.502 114.647 207.191 112.168 207.885C109.726 208.575 107.206 209.239 104.608 209.877C102.042 210.474 99.5058 211.03 97.0008 211.544C97.4312 212.218 97.9036 213.052 98.4177 214.046C98.9318 215.04 99.2831 215.928 99.4716 216.712C102.013 216.192 104.641 215.641 107.358 215.059C109.856 214.489 112.335 213.891 114.794 213.265L109.62 215.779C110.465 217.019 111.259 218.414 112.002 219.964C112.74 221.478 113.283 222.799 113.633 223.927L119.132 221.076C118.746 219.953 118.151 218.658 117.346 217.191C116.579 215.721 115.744 214.409 114.839 213.253C115.033 213.204 115.227 213.154 115.421 213.104C118.116 212.378 120.695 211.613 123.158 210.81C125.621 210.007 127.892 209.159 129.973 208.264ZM87.1826 209.443L84.3615 214.722C85.5542 215.063 86.8143 215.487 88.1417 215.993C89.5052 216.494 90.7812 217.026 91.9695 217.589C93.1579 218.152 94.1244 218.711 94.8691 219.266L97.8274 213.414C97.0466 212.864 96.0313 212.35 94.7813 211.869C93.5674 211.383 92.284 210.926 90.9311 210.498C89.6142 210.064 88.3647 209.712 87.1826 209.443ZM86.129 224.527L83.3858 229.96C84.6093 230.26 85.8822 230.645 87.2043 231.115C88.5625 231.58 89.8539 232.091 91.0783 232.649C92.2975 233.171 93.2767 233.691 94.0162 234.209L96.9587 228.249C96.1471 227.741 95.1163 227.247 93.8663 226.766C92.6164 226.286 91.3176 225.849 89.9699 225.457C88.6222 225.065 87.3419 224.754 86.129 224.527ZM90.631 250.74C89.8284 252.811 89.0971 254.614 88.4371 256.148L94.6997 259.268C95.4512 257.351 96.1715 255.347 96.8605 253.256C97.5857 251.159 98.2694 249.032 98.9118 246.873C99.5902 244.71 100.222 242.608 100.809 240.569L95.1876 237.3C94.5611 239.567 93.847 241.864 93.0453 244.194C92.2383 246.487 91.4336 248.669 90.631 250.74Z" fill="#262626"/>
<path d="M144.255 142.105C144.813 140.896 146.393 140.803 146.858 142.105H146.765C147.464 144.06 147.375 146.225 147.288 148.364C147.259 149.073 147.23 149.779 147.23 150.474C147.23 151.37 147.245 152.267 147.261 153.161V153.188C147.299 155.439 147.336 157.676 147.137 159.865C146.951 162.004 144.069 162.004 143.79 159.865C143.51 157.491 143.546 155.117 143.581 152.782V152.777C143.592 152.004 143.604 151.236 143.604 150.474C143.604 149.92 143.588 149.348 143.572 148.765V148.75C143.51 146.497 143.443 144.096 144.255 142.105Z" fill="#262626"/>
<path d="M157.272 142.752C157.923 141.636 159.504 141.729 159.783 143.124L159.876 143.217C160.231 145.347 159.773 147.531 159.329 149.645C159.192 150.3 159.056 150.948 158.946 151.586C158.848 152.232 158.754 152.882 158.66 153.534C158.308 155.978 157.952 158.442 157.365 160.791C156.9 162.837 154.111 162.372 154.111 160.233C154.204 157.072 154.762 154.003 155.319 150.935C155.429 150.301 155.518 149.642 155.607 148.973C155.9 146.798 156.205 144.53 157.272 142.752Z" fill="#262626"/>
<path d="M172.428 146.195C172.428 144.8 170.848 144.428 170.011 145.358C168.716 146.926 168.07 148.993 167.452 150.974C167.226 151.695 167.004 152.406 166.756 153.076C165.733 156.052 164.71 159.027 164.06 162.003C163.688 164.048 166.384 165.071 167.221 163.026C168.202 160.686 168.938 158.286 169.678 155.873C169.849 155.313 170.021 154.753 170.197 154.192C170.411 153.526 170.661 152.854 170.914 152.176C171.65 150.203 172.405 148.178 172.335 146.102L172.428 146.195Z" fill="#262626"/>
<path d="M182.099 150.009C183.122 149.173 184.61 149.823 184.424 151.218C184.153 153.179 183.096 155.041 182.075 156.841C181.692 157.516 181.313 158.183 180.983 158.843C180.685 159.44 180.391 160.04 180.097 160.641L180.096 160.642L180.096 160.644C179.014 162.854 177.928 165.073 176.613 167.119C176.344 167.532 176.012 167.784 175.665 167.906L173.923 167.439C173.534 167.006 173.361 166.357 173.637 165.631C174.444 163.481 175.492 161.477 176.539 159.478L176.541 159.473C176.942 158.707 177.343 157.942 177.729 157.169C177.96 156.707 178.187 156.225 178.419 155.735L178.42 155.732L178.421 155.73L178.421 155.729C179.4 153.655 180.446 151.437 182.099 150.009Z" fill="#262626"/>
<path d="M192.267 270.496C192.324 270.78 192.462 271.072 192.699 271.357C193.955 272.912 195.403 274.313 196.846 275.709C197.646 276.483 198.445 277.256 199.208 278.052C199.693 278.537 200.167 279.051 200.644 279.568C202.085 281.132 203.552 282.723 205.438 283.631L205.345 283.724C206.554 284.282 207.67 283.073 207.205 281.864C206.346 279.931 204.714 278.328 203.16 276.801C202.696 276.346 202.239 275.897 201.812 275.448C201.685 275.316 201.559 275.184 201.432 275.051L201.182 274.789C200.357 273.925 199.527 273.056 198.671 272.212L192.267 270.496Z" fill="#262626"/>
<path d="M240.285 222.69L342.21 196.839C341.467 195.157 340.845 193.395 340.357 191.562C339.908 189.874 339.588 188.182 339.39 186.496L242.482 214.493L240.285 222.69Z" fill="#262626"/>
<path d="M212.633 177.811C213.102 177.356 213.531 176.865 213.9 176.323C214.644 175.207 213.621 173.906 212.412 174.278C210.815 174.663 209.382 175.57 208.014 176.574L212.633 177.811Z" fill="#262626"/>
<path d="M198.374 173.991C198.833 173.522 199.296 173.058 199.767 172.607C200.252 172.122 200.766 171.648 201.283 171.171C202.846 169.73 204.438 168.263 205.346 166.377L205.439 166.47C205.997 165.261 204.788 164.145 203.579 164.61C201.646 165.469 200.043 167.101 198.516 168.655C198.061 169.119 197.612 169.576 197.163 170.003C196.944 170.213 196.724 170.423 196.504 170.633C195.732 171.37 194.956 172.111 194.197 172.872L198.374 173.991Z" fill="#262626"/>
<path d="M186.845 170.902C187.662 169.84 188.435 168.734 189.208 167.628C189.807 166.77 190.406 165.913 191.026 165.076C191.457 164.468 191.936 163.867 192.42 163.259L192.422 163.257C193.714 161.636 195.042 159.97 195.583 158.009C195.955 156.707 194.653 155.777 193.537 156.521C191.754 157.662 190.463 159.515 189.203 161.323C188.82 161.872 188.441 162.417 188.051 162.937C187.803 163.272 187.553 163.607 187.303 163.942L187.302 163.943C185.85 165.891 184.387 167.853 183.171 169.917L186.845 170.902Z" fill="#262626"/>
<path d="M195.397 292.182C196.512 292.926 197.814 291.903 197.442 290.694C196.943 288.624 195.566 286.828 194.238 285.095C193.836 284.571 193.439 284.053 193.072 283.534C192.891 283.277 192.71 283.019 192.529 282.761L192.525 282.756C190.937 280.49 189.318 278.181 187.4 276.095C185.912 274.515 183.587 276.095 184.703 278.048C185.938 280.155 187.4 282.091 188.867 284.034C189.278 284.578 189.689 285.124 190.096 285.673C190.457 286.182 190.808 286.716 191.163 287.254C192.362 289.077 193.602 290.962 195.397 292.182Z" fill="#262626"/>
<path d="M186.655 297.759C186.748 299.061 185.354 299.898 184.331 298.968H184.424C182.872 297.487 181.962 295.47 181.086 293.528L181.085 293.527L181.085 293.525L181.084 293.524C180.806 292.907 180.531 292.297 180.239 291.715C179.938 291.151 179.634 290.59 179.33 290.031C178.131 287.827 176.945 285.646 176.055 283.346C175.218 281.394 177.822 280.092 179.031 281.858C180.486 283.926 181.626 286.247 182.762 288.559L182.768 288.572C183.009 289.063 183.25 289.553 183.494 290.041C183.738 290.53 184.002 291.027 184.269 291.531C185.323 293.516 186.433 295.608 186.655 297.759Z" fill="#262626"/>
<path d="M172.336 303.902C173.173 305.018 174.66 304.46 174.753 303.065C174.901 300.922 174.109 298.661 173.358 296.516C173.164 295.963 172.972 295.417 172.801 294.883C172.633 294.345 172.468 293.804 172.302 293.262C171.553 290.807 170.799 288.334 169.732 286.049C168.802 284.096 166.106 284.933 166.571 287.072C167.005 289.117 167.686 291.081 168.368 293.044C168.709 294.025 169.05 295.007 169.36 295.998C169.57 296.653 169.757 297.33 169.946 298.014C170.507 300.05 171.083 302.138 172.336 303.809V303.902Z" fill="#262626"/>
<path d="M162.107 306.595C161.828 307.804 160.247 308.176 159.596 306.967V307.06C158.646 305.295 158.389 303.182 158.139 301.121C158.046 300.359 157.955 299.605 157.829 298.877C157.702 298.034 157.56 297.184 157.417 296.33L157.417 296.329C157.042 294.077 156.662 291.804 156.528 289.579C156.342 287.347 159.224 286.975 159.782 289.021C160.47 291.467 160.844 294.039 161.213 296.581L161.215 296.592C161.294 297.139 161.374 297.684 161.456 298.227C161.548 298.897 161.675 299.585 161.804 300.282C162.193 302.386 162.596 304.57 162.107 306.595Z" fill="#262626"/>
<path d="M146.672 307.895C147.137 309.196 148.718 309.103 149.276 307.895C150.087 305.903 150.021 303.503 149.959 301.249V301.245C149.942 300.659 149.926 300.082 149.926 299.526C149.926 298.763 149.938 297.994 149.95 297.222C149.984 294.885 150.02 292.51 149.74 290.134C149.462 287.996 146.579 287.996 146.393 290.134C146.194 292.324 146.232 294.561 146.27 296.812C146.285 297.715 146.3 298.62 146.3 299.526C146.3 300.22 146.271 300.926 146.242 301.635C146.155 303.774 146.067 305.939 146.765 307.895H146.672Z" fill="#262626"/>
<path d="M136.257 307.246C135.606 308.362 134.025 308.269 133.746 306.874L133.653 306.781C133.298 304.651 133.757 302.467 134.2 300.353C134.337 299.698 134.473 299.05 134.583 298.412C134.681 297.767 134.775 297.117 134.869 296.465L134.869 296.464C135.221 294.02 135.577 291.556 136.164 289.207C136.629 287.161 139.418 287.626 139.418 289.765C139.326 292.926 138.768 295.995 138.21 299.063C138.1 299.697 138.012 300.356 137.922 301.024C137.629 303.199 137.324 305.468 136.257 307.246Z" fill="#262626"/>
<path d="M121.008 303.898C121.008 305.293 122.589 305.665 123.426 304.735C124.721 303.167 125.366 301.1 125.985 299.119C126.21 298.398 126.432 297.687 126.68 297.017C127.703 294.041 128.726 291.066 129.377 288.09C129.749 286.045 127.052 285.022 126.215 287.068C125.234 289.407 124.498 291.807 123.759 294.219L123.758 294.221C123.586 294.781 123.415 295.341 123.24 295.901C123.026 296.567 122.775 297.239 122.522 297.917C121.787 299.89 121.032 301.915 121.101 303.991L121.008 303.898Z" fill="#262626"/>
<path d="M111.337 300.091C110.314 300.928 108.827 300.277 109.013 298.882C109.283 296.921 110.34 295.059 111.361 293.259C111.745 292.584 112.123 291.917 112.453 291.257C112.752 290.66 113.046 290.059 113.34 289.457C114.422 287.247 115.508 285.028 116.823 282.981C118.032 281.122 120.543 282.517 119.799 284.469C118.993 286.619 117.944 288.623 116.898 290.622C116.496 291.39 116.095 292.157 115.708 292.931C115.476 293.394 115.248 293.878 115.016 294.37L115.015 294.372C114.036 296.446 112.99 298.663 111.337 300.091Z" fill="#262626"/>
<path d="M97.9474 292.091C97.5754 293.393 98.8772 294.322 99.9931 293.579C101.776 292.437 103.067 290.585 104.327 288.777C104.709 288.228 105.09 287.682 105.479 287.163C105.727 286.829 105.976 286.495 106.225 286.16L106.228 286.157C107.648 284.252 109.079 282.332 110.278 280.318L105.326 281.043C104.99 281.516 104.657 281.993 104.324 282.469L104.322 282.472C103.723 283.329 103.124 284.187 102.504 285.024C102.072 285.633 101.593 286.235 101.108 286.843C99.816 288.464 98.4883 290.13 97.9474 292.091Z" fill="#262626"/>
<path d="M89.8212 187.505C88.4052 186.562 87.0266 185.534 85.6555 184.512C85.32 184.261 84.9848 184.012 84.6497 183.763C84.1299 183.373 83.5848 182.994 83.0357 182.611C81.2274 181.351 79.3749 180.06 78.2337 178.277C77.4898 177.161 78.4196 175.86 79.7214 176.231C81.6823 176.772 83.3482 178.1 84.9694 179.392C85.5775 179.877 86.1796 180.357 86.7884 180.788C87.6253 181.408 88.4828 182.007 89.3403 182.606C91.0554 183.805 92.7705 185.003 94.3203 186.367C94.4804 186.5 94.6091 186.642 94.7092 186.789L89.8212 187.505Z" fill="#262626"/>
<path d="M77.8683 189.255L72.1675 190.09C72.0128 189.939 71.865 189.782 71.7247 189.62C70.8878 188.597 71.5387 187.109 72.9335 187.295C74.6454 187.531 76.2824 188.367 77.8683 189.255Z" fill="#262626"/>
<path d="M88.2749 283.54L93.7148 282.744C92.5684 283.849 91.3455 284.871 89.9502 285.491C88.7414 285.956 87.5326 284.84 88.0905 283.631L88.1835 283.724C88.2132 283.662 88.2437 283.601 88.2749 283.54Z" fill="#262626"/>
<path d="M86.3243 168.234C85.8594 167.025 86.9752 165.816 88.184 166.374L88.091 166.467C89.9777 167.375 91.4443 168.966 92.8854 170.53C93.362 171.047 93.8358 171.561 94.3211 172.046C95.0842 172.842 95.8828 173.615 96.6831 174.389C98.1258 175.785 99.5741 177.186 100.83 178.741C102.225 180.415 100.179 182.367 98.5055 181.066C96.2412 179.388 94.2795 177.333 92.3474 175.309C92.1372 175.088 91.9273 174.869 91.7175 174.65C91.2901 174.201 90.8333 173.752 90.3696 173.297C88.8154 171.77 87.1837 170.167 86.3243 168.234Z" fill="#262626"/>
<path d="M98.0406 157.915C96.9247 157.171 95.6229 158.194 95.9949 159.403C96.4946 161.473 97.8712 163.269 99.1991 165.002C99.6008 165.526 99.998 166.044 100.365 166.563C100.547 166.821 100.729 167.081 100.912 167.341C102.5 169.607 104.119 171.917 106.037 174.002C107.525 175.582 109.85 174.002 108.734 172.049C107.499 169.943 106.037 168.006 104.57 166.063C104.159 165.519 103.748 164.974 103.341 164.424C102.98 163.915 102.629 163.382 102.275 162.843C101.075 161.02 99.8348 159.135 98.0406 157.915Z" fill="#262626"/>
<path d="M106.873 152.334C106.78 151.033 108.175 150.196 109.197 151.126H109.104C110.656 152.607 111.566 154.623 112.442 156.566C112.721 157.184 112.997 157.795 113.289 158.378C113.59 158.943 113.895 159.503 114.199 160.062C115.397 162.267 116.583 164.448 117.473 166.747C118.31 168.7 115.706 170.002 114.498 168.235C113.042 166.167 111.903 163.847 110.767 161.534C110.523 161.039 110.28 160.544 110.034 160.052C109.79 159.563 109.526 159.067 109.259 158.563C108.205 156.578 107.095 154.485 106.873 152.334Z" fill="#262626"/>
<path d="M121.193 146.196C120.356 145.081 118.868 145.638 118.775 147.033C118.628 149.177 119.42 151.437 120.171 153.582C120.365 154.136 120.556 154.682 120.728 155.216C120.896 155.754 121.061 156.294 121.226 156.836C121.976 159.291 122.73 161.764 123.797 164.05C124.727 166.002 127.423 165.165 126.958 163.027C126.524 160.981 125.842 159.018 125.16 157.055C124.819 156.074 124.479 155.092 124.169 154.1C123.958 153.446 123.772 152.768 123.583 152.085C123.022 150.048 122.446 147.96 121.193 146.289V146.196Z" fill="#262626"/>
<path d="M131.329 143.499C131.608 142.29 133.189 141.918 133.84 143.127V143.034C134.79 144.799 135.047 146.912 135.297 148.973C135.389 149.734 135.481 150.489 135.606 151.216C135.734 152.06 135.876 152.911 136.019 153.765C136.394 156.016 136.773 158.29 136.908 160.515C137.094 162.747 134.212 163.119 133.654 161.073C132.966 158.627 132.592 156.055 132.223 153.513L132.222 153.512L132.222 153.51C132.142 152.961 132.063 152.413 131.98 151.867C131.887 151.197 131.76 150.508 131.632 149.812C131.243 147.708 130.84 145.524 131.329 143.499Z" fill="#262626"/>
<path d="M348.225 195.314L354.585 193.701C353.664 192.051 352.931 190.26 352.423 188.35C351.944 186.549 351.69 184.741 351.645 182.956L345.347 184.775C345.49 186.509 345.788 188.254 346.251 189.994C346.748 191.861 347.413 193.638 348.225 195.314Z" fill="#262626"/>
<path d="M380.847 187.04L360.785 192.128C359.688 190.546 358.841 188.75 358.317 186.781C357.817 184.905 357.65 183.018 357.78 181.183L377.698 175.429C380.938 174.493 384.314 176.402 385.181 179.661C386.043 182.899 384.094 186.217 380.847 187.04Z" fill="#262626"/>
<path d="M195.053 222.755L197.29 214.405L204.319 216.288L202.081 224.638L195.053 222.755Z" fill="#262626"/>
<path fill-rule="evenodd" clip-rule="evenodd" d="M164.543 167.231L242.042 187.997C244.739 188.72 246.339 191.492 245.617 194.188L234.591 235.337L225.255 236.328L234.991 199.995C235.655 197.514 234.183 194.964 231.702 194.299L170.347 177.859C167.867 177.194 165.317 178.667 164.652 181.147L148.212 242.502C147.547 244.983 149.019 247.533 151.5 248.198L212.855 264.638C215.336 265.302 217.886 263.83 218.551 261.349L222.268 247.476C218.145 247.27 213.785 247.092 209.473 246.938L209.441 247.057L208.925 246.919C201.521 246.658 194.291 246.465 188.67 246.315C186.425 246.255 184.437 246.202 182.798 246.154L347.624 234.118C347.186 232.331 346.881 230.488 346.721 228.598C346.573 226.857 346.553 225.135 346.653 223.441L236.964 235.085L247.768 194.765C248.809 190.88 246.503 186.887 242.619 185.846L165.119 165.08C161.234 164.039 157.241 166.345 156.2 170.229L135.434 247.729C134.393 251.614 136.699 255.607 140.584 256.648L218.083 277.414C221.968 278.455 225.961 276.149 227.002 272.265L233.458 248.169C232.728 248.111 231.973 248.055 231.198 248.001L224.851 271.688C224.128 274.385 221.356 275.985 218.66 275.263L141.16 254.497C138.463 253.774 136.863 251.002 137.586 248.306L158.352 170.806C159.074 168.109 161.846 166.509 164.543 167.231ZM185.249 240.575L202.812 238.711L177.949 232.049L183.656 210.752L190.843 212.678L186.439 229.113L192.886 230.84L193.467 228.673L200.495 230.557L199.929 232.671L206.376 234.398L210.766 218.016L218.64 220.126L220.268 214.048L212.394 211.939L215.552 200.154L209.105 198.426L205.947 210.211L198.919 208.328L202.218 196.015L195.771 194.287L192.471 206.6L185.284 204.674L188.272 193.524L181.772 191.782L178.784 202.933L171.174 200.894L169.546 206.971L177.156 209.01L168.901 239.819L175.401 241.561L176.307 238.179L185.249 240.575Z" fill="#262626"/>
<path d="M360.356 233.188L353.813 233.666C353.306 231.874 352.961 230.007 352.798 228.082C352.646 226.288 352.657 224.518 352.819 222.787L359.338 222.095C359.071 223.861 359.005 225.686 359.162 227.543C359.329 229.512 359.738 231.403 360.356 233.188Z" fill="#262626"/>
<path d="M366.736 232.722L387.378 231.215C390.719 230.971 393.218 228.044 392.934 224.706C392.649 221.346 389.658 218.876 386.305 219.232L365.688 221.42C365.24 223.205 365.075 225.092 365.239 227.028C365.411 229.057 365.931 230.973 366.736 232.722Z" fill="#262626"/>
</svg>
