<svg width="450" height="450" viewBox="0 0 450 450" fill="none" xmlns="http://www.w3.org/2000/svg">
<rect x="0.5" y="0.5" width="449" height="449" fill="#EAEAEA"/>
<rect x="0.5" y="0.5" width="449" height="449" stroke="#262626"/>
<path d="M51.6543 218.949H61.2143V220.471H53.4297V225.075H60.2388V226.558H53.4297V231.182H61.2143V232.704H51.6543V218.949Z" fill="#262626"/>
<path d="M74.2059 229.036C74.2059 231.624 72.45 232.918 68.9382 232.918C66.8571 232.918 65.2703 232.457 64.1777 231.533C63.0981 230.597 62.5584 229.263 62.5584 227.534H64.3533C64.3533 230.122 65.8946 231.416 68.9772 231.416C70.1608 231.416 71.0258 231.228 71.5721 230.85C72.1314 230.473 72.411 229.901 72.411 229.133C72.411 227.989 71.6436 227.221 70.1088 226.831L66.2653 225.836C64.2232 225.303 63.2022 224.152 63.2022 222.383C63.2022 221.199 63.6184 220.295 64.4508 219.671C65.2833 219.047 66.4929 218.734 68.0797 218.734C69.9267 218.734 71.3379 219.157 72.3135 220.003C73.302 220.835 73.7962 221.999 73.7962 223.495H71.9818C71.9818 221.31 70.6811 220.217 68.0797 220.217C66.0247 220.217 64.9971 220.913 64.9971 222.305C64.9971 223.345 65.693 224.048 67.0847 224.412L70.8892 225.368C71.9948 225.654 72.8207 226.109 73.367 226.734C73.9263 227.345 74.2059 228.112 74.2059 229.036Z" fill="#262626"/>
<path d="M86.3326 218.949V220.471H81.6111V232.704H79.8357V220.471H75.0947V218.949H86.3326Z" fill="#262626"/>
<path d="M352.8 225.544C352.8 223.202 353.34 221.485 354.42 220.393C355.512 219.287 356.95 218.734 358.732 218.734C360.253 218.734 361.469 219.138 362.38 219.944C363.29 220.751 363.746 221.902 363.746 223.397C363.746 225.466 362.842 227.156 361.034 228.47C359.226 229.771 356.865 230.675 353.952 231.182H363.746V232.704H352.996V229.875C353.984 229.797 355.181 229.524 356.585 229.055C357.99 228.587 359.239 227.878 360.331 226.929C361.424 225.979 361.97 224.802 361.97 223.397C361.97 222.383 361.691 221.609 361.131 221.076C360.585 220.529 359.785 220.256 358.732 220.256C355.948 220.256 354.556 222.019 354.556 225.544H352.8Z" fill="#262626"/>
<path d="M374.187 217.505L366.226 234.908L364.9 234.304L372.86 216.92L374.187 217.505Z" fill="#262626"/>
<path d="M374.254 225.544C374.254 223.202 374.794 221.485 375.873 220.393C376.966 219.287 378.403 218.734 380.185 218.734C381.707 218.734 382.923 219.138 383.834 219.944C384.744 220.751 385.199 221.902 385.199 223.397C385.199 225.466 384.295 227.156 382.487 228.47C380.679 229.771 378.319 230.675 375.405 231.182H385.199V232.704H374.449V229.875C375.438 229.797 376.634 229.524 378.039 229.055C379.444 228.587 380.692 227.878 381.785 226.929C382.878 225.979 383.424 224.802 383.424 223.397C383.424 222.383 383.144 221.609 382.585 221.076C382.039 220.529 381.239 220.256 380.185 220.256C377.402 220.256 376.01 222.019 376.01 225.544H374.254Z" fill="#262626"/>
<path d="M387.401 225.544C387.401 223.202 387.94 221.485 389.02 220.393C390.112 219.287 391.55 218.734 393.332 218.734C394.853 218.734 396.07 219.138 396.98 219.944C397.891 220.751 398.346 221.902 398.346 223.397C398.346 225.466 397.442 227.156 395.634 228.47C393.826 229.771 391.465 230.675 388.552 231.182H398.346V232.704H387.596V229.875C388.584 229.797 389.781 229.524 391.186 229.055C392.59 228.587 393.839 227.878 394.931 226.929C396.024 225.979 396.57 224.802 396.57 223.397C396.57 222.383 396.291 221.609 395.731 221.076C395.185 220.529 394.385 220.256 393.332 220.256C390.548 220.256 389.156 222.019 389.156 225.544H387.401Z" fill="#262626"/>
<path d="M115.29 213.506C114.817 209.724 113.871 206.06 113.517 202.278C112.689 193.65 120.136 185.967 128.527 185.494C132.191 185.258 136.328 186.322 139.165 188.804C142.474 191.995 142.947 196.605 144.129 200.859C145.074 204.405 147.793 207.833 150.866 209.724C161.621 216.461 161.503 199.796 162.449 194.004C163.394 187.858 165.876 182.421 172.495 181.121C176.868 180.294 181.714 182.303 184.314 185.967C187.269 190.222 187.033 196.014 186.087 201.096C185.023 206.296 183.369 211.379 183.842 216.579C184.314 222.489 187.506 227.807 191.524 232.181C194.124 235.017 197.079 237.499 199.561 240.572C202.161 243.527 204.171 246.955 204.407 250.855C204.643 255.11 202.752 259.365 200.034 262.793C197.788 265.629 195.07 267.993 191.76 269.411C186.915 271.421 181.241 270.948 176.75 268.229C172.377 265.393 169.422 260.429 169.186 255.228C168.949 251.564 170.013 247.9 171.077 244.354C172.14 240.809 173.204 237.145 173.086 233.481C172.85 229.699 171.195 225.916 167.885 224.143C165.64 222.843 162.212 223.08 161.148 225.444C160.321 226.98 160.912 228.753 161.267 230.408C162.212 233.717 163.04 237.145 162.449 240.572C161.739 243.882 159.494 247.191 156.066 247.9C152.402 248.728 148.502 246.009 146.847 242.582C145.074 239.036 145.074 235.017 145.192 231.235C145.311 225.916 146.374 216.106 138.574 215.988C135.382 215.87 131.955 218.825 130.3 221.307C128.173 224.498 128.882 228.28 131.127 231.235C132.309 232.89 133.846 234.308 135.264 235.845C138.101 238.918 140.701 242.463 141.765 246.482C143.065 250.973 142.001 256.41 139.756 260.547C136.683 266.22 129.946 268.82 123.681 268.111C116.59 267.402 111.389 262.32 109.853 255.465C108.671 250.146 108.907 244.591 110.089 239.272C111.389 233.008 114.226 227.335 115.29 221.07C115.762 218.47 115.644 215.988 115.29 213.506Z" fill="#262626"/>
<path d="M334.324 250.354C335.33 255.869 333.706 261.751 330.172 266.119C326.735 270.272 320.47 273.793 314.951 271.943C310.82 270.462 306.895 268.815 303.165 266.738C299.866 264.855 296.185 262.669 294.36 259.249C293.673 257.9 293.348 256.325 292.661 254.977C291.336 252.171 288.019 251.188 285.085 251.936C281.791 252.91 280.475 255.817 277.954 257.66C273.479 260.953 267.244 258.39 264.235 254.433C263.068 252.997 262.313 251.228 262.241 249.379C261.909 243.521 266.598 238.896 270.857 235.505C275.781 231.507 281.93 229.101 285.198 223.315C287.881 218.821 288.723 213.234 287.366 208.208C287.238 207.632 287.002 207.006 286.874 206.429C286.029 203.711 285.134 201.101 285.022 198.196C284.642 192.444 286.41 184.812 291.677 181.488C296.427 178.448 303.988 178.368 308.805 181.197C313.132 183.675 313.129 187.696 312.343 192.011C312.042 193.821 311.85 195.679 312.703 197.233C313.498 198.631 315.123 199.626 316.728 200.093C321.543 201.494 326.696 200.714 331.521 202.379C336.131 203.947 339.845 208.353 340.772 213.183C341.788 218.963 337.521 223.518 332.172 224.729C327.821 225.743 323.398 224.909 318.996 224.603C317.88 224.487 316.765 224.372 315.778 224.833C314.527 225.304 313.667 226.342 313.239 227.576C310.873 234.808 320.188 236.3 324.612 238.562C329.576 241.069 333.415 244.623 334.324 250.354ZM317.075 215.949C319.48 215.221 319.553 211.622 317.702 210.265C315.146 208.459 311.636 209.335 309.285 207.363C307.699 205.996 306.12 203.465 303.753 203.821C301.543 204.117 301.058 206.622 302.126 208.274C303.695 210.541 306.446 211.916 308.922 213.037C311.027 214.119 314.406 216.687 317.075 215.949ZM316.99 256.26C320.178 255.237 318.44 251.337 316.795 249.814C315.1 248.398 311.86 246.672 309.503 247.292C308.301 247.655 307.226 248.596 307.013 249.927C306.091 254.829 313.226 257.41 316.99 256.26Z" fill="#262626"/>
<path d="M209.755 236.738C194.937 229.756 188.61 212.626 194.336 197.345C196.09 192.67 199.195 188.107 202.549 184.488C205.332 181.595 208.786 179.007 212.683 178.043C223.461 175.284 226.448 184.743 231.921 191.48C235.266 195.388 240.072 198.056 245.24 198.437C255.928 199.293 268.126 190.766 276.961 200.411C283.199 207.102 280.978 216.796 275.052 222.989C269.697 228.455 261.947 233.029 253.19 236.204C239.701 241.123 223.146 242.961 209.755 236.738ZM221.991 210.277C219.726 210.297 218.334 212.685 218.683 214.661C219.303 217.964 222.362 219.662 225.586 220.275C227.607 220.691 229.638 220.607 231.231 220.281C233.355 219.847 238.408 218.315 237.225 215.237C236.494 213.284 233.91 213.094 232.145 213.123C229.795 212.995 227.882 213.11 225.729 211.78C224.566 210.967 223.404 210.153 221.991 210.277Z" fill="#262626"/>
</svg>
