<svg width="450" height="450" viewBox="0 0 450 450" fill="none" xmlns="http://www.w3.org/2000/svg">
<rect x="0.5" y="0.5" width="449" height="449" fill="#EAEAEA"/>
<rect x="0.5" y="0.5" width="449" height="449" stroke="#262626"/>
<path d="M148.427 294.679C148.542 294.857 148.657 295.025 148.772 295.193C157.443 302.844 168.354 309.172 180.972 313.559C180.91 313.422 180.857 313.275 180.794 313.139C168.103 308.742 157.139 302.371 148.427 294.679Z" fill="#262626"/>
<path d="M224.388 319.708C224.378 319.844 224.357 319.97 224.346 320.096C238.022 319.687 251.133 317.021 262.83 312.466C262.913 312.33 262.997 312.183 263.07 312.047C251.311 316.622 238.127 319.309 224.388 319.718V319.708Z" fill="#262626"/>
<path d="M181.894 313.515C181.946 313.662 182.009 313.799 182.062 313.935C187.402 315.73 193.046 317.178 198.952 318.227C207.099 319.676 215.225 320.284 223.163 320.127C223.173 320.001 223.194 319.875 223.205 319.739C215.215 319.896 207.047 319.287 198.858 317.829C192.931 316.769 187.255 315.32 181.884 313.515H181.894Z" fill="#262626"/>
<path d="M263.824 312.067C269.992 309.59 275.741 306.589 280.966 303.126C281.563 302.653 282.16 302.16 282.757 301.677C277.123 305.581 270.84 308.929 264.076 311.647C263.992 311.794 263.908 311.931 263.824 312.077V312.067Z" fill="#262626"/>
<path d="M294.182 292.19C295.637 290.669 297.019 289.094 298.307 287.468L299.501 285.936C297.993 287.919 296.349 289.829 294.59 291.655C294.454 291.834 294.318 292.012 294.182 292.18V292.19Z" fill="#262626"/>
<path d="M291.616 294.573C291.134 295.077 290.653 295.57 290.16 296.063C291.312 295.024 292.433 293.975 293.511 292.883C293.647 292.705 293.784 292.537 293.92 292.359C293.176 293.114 292.401 293.849 291.616 294.583V294.573Z" fill="#262626"/>
<path d="M146.479 293.093C146.992 293.576 147.505 294.059 148.029 294.531C147.914 294.363 147.788 294.185 147.683 294.017C146.751 293.167 145.84 292.306 144.961 291.424C145.463 291.991 145.966 292.537 146.479 293.093Z" fill="#262626"/>
<path d="M119.902 231.658C120.405 234.344 121.106 237.01 121.996 239.623C122.017 239.34 122.038 239.056 122.059 238.763C121.064 235.835 120.3 232.844 119.787 229.811C119.818 230.419 119.86 231.038 119.891 231.647L119.902 231.658Z" fill="#262626"/>
<path d="M225.582 296.377C225.582 296.671 225.571 296.965 225.561 297.259C240.493 296.818 254.808 293.901 267.573 288.937C267.573 288.643 267.573 288.349 267.573 288.055C254.808 293.019 240.493 295.937 225.571 296.377H225.582Z" fill="#262626"/>
<path d="M301.072 266.679C292.464 275.41 281.354 282.536 268.673 287.626C268.673 287.92 268.673 288.214 268.673 288.507C281.354 283.418 292.475 276.292 301.082 267.56C301.082 267.266 301.082 266.983 301.062 266.689L301.072 266.679Z" fill="#262626"/>
<path d="M179.454 289.651C179.444 289.945 179.433 290.239 179.412 290.533C185.245 292.495 191.402 294.069 197.853 295.213C206.743 296.798 215.613 297.459 224.294 297.291C224.294 296.997 224.304 296.703 224.315 296.41C215.644 296.588 206.775 295.927 197.895 294.342C191.455 293.198 185.297 291.624 179.465 289.661L179.454 289.651Z" fill="#262626"/>
<path d="M122.31 240.525C126.09 251.083 132.939 260.926 142.259 269.364C142.28 269.07 142.29 268.787 142.311 268.493C132.991 260.066 126.153 250.233 122.373 239.675C122.352 239.958 122.331 240.252 122.31 240.535V240.525Z" fill="#262626"/>
<path d="M143.118 269.207C143.097 269.49 143.076 269.784 143.065 270.068C152.532 278.421 164.448 285.337 178.229 290.112C178.239 289.818 178.25 289.535 178.271 289.231C164.501 284.445 152.584 277.54 143.128 269.197L143.118 269.207Z" fill="#262626"/>
<path d="M119.221 215.926L119.074 217.794C119.074 217.909 119.064 218.035 119.054 218.15C119.064 217.92 119.085 217.689 119.106 217.458C119.137 216.944 119.169 216.44 119.211 215.926H119.221Z" fill="#262626"/>
<path d="M301.794 265.922C301.794 266.216 301.805 266.499 301.815 266.793C309.009 259.289 314.381 250.621 317.355 241.071C317.46 240.452 317.554 239.822 317.638 239.203C317.607 239.318 317.575 239.434 317.544 239.549C314.612 249.372 309.156 258.261 301.794 265.932V265.922Z" fill="#262626"/>
<path d="M133.421 210.143C136.792 219.567 142.908 228.362 151.233 235.886C151.379 235.561 151.526 235.236 151.673 234.91C143.4 227.428 137.327 218.696 133.976 209.324C133.787 209.597 133.609 209.87 133.421 210.143Z" fill="#262626"/>
<path d="M132.279 179.699C129.462 189.784 129.923 199.869 133.138 209.336C133.316 209.063 133.504 208.8 133.693 208.527C130.489 199.124 130.028 189.102 132.834 179.08C132.646 179.289 132.457 179.499 132.279 179.709V179.699Z" fill="#262626"/>
<path d="M132.541 178.827C132.73 178.618 132.908 178.408 133.096 178.208C134.018 175.112 135.232 172.121 136.698 169.246C136.342 169.781 135.986 170.316 135.641 170.862C134.405 173.433 133.358 176.088 132.541 178.827Z" fill="#262626"/>
<path d="M292.6 233.305C284.956 241.061 275.092 247.378 263.845 251.891C263.929 252.248 264.013 252.605 264.096 252.972C275.416 248.438 285.343 242.068 293.029 234.271C292.893 233.945 292.747 233.631 292.6 233.305Z" fill="#262626"/>
<path d="M152.385 235.552C152.238 235.877 152.092 236.202 151.945 236.528C160.396 243.979 171.035 250.15 183.329 254.421C183.412 254.064 183.486 253.697 183.569 253.329C171.339 249.079 160.773 242.95 152.374 235.541L152.385 235.552Z" fill="#262626"/>
<path d="M147.358 154.491L146.887 154.963C146.018 155.855 145.191 156.768 144.385 157.692C144.542 157.524 144.699 157.366 144.866 157.198C145.673 156.275 146.5 155.372 147.358 154.491Z" fill="#262626"/>
<path d="M295.292 159.329L293.899 157.754C295.668 159.706 297.292 161.732 298.779 163.799C299.208 164.366 299.648 164.933 300.067 165.51C298.621 163.39 297.03 161.312 295.292 159.318V159.329Z" fill="#262626"/>
<path d="M184.637 253.696C184.554 254.064 184.48 254.42 184.397 254.788C189.601 256.54 195.109 257.947 200.858 258.965C208.796 260.381 216.712 260.969 224.461 260.822C224.461 260.444 224.461 260.077 224.461 259.689C216.764 259.846 208.89 259.258 201.005 257.852C195.287 256.834 189.821 255.438 184.648 253.696H184.637Z" fill="#262626"/>
<path d="M293.25 232.633C293.396 232.948 293.543 233.274 293.689 233.588C300.266 226.735 305.135 218.791 307.753 210.028C308.151 208.706 308.486 207.404 308.769 206.082C308.591 205.82 308.423 205.557 308.235 205.295C307.952 206.596 307.617 207.908 307.229 209.209C304.622 217.93 299.784 225.812 293.25 232.633Z" fill="#262626"/>
<path d="M144.269 157.902C144.102 158.07 143.945 158.227 143.777 158.395C142.761 159.602 141.798 160.83 140.887 162.089C141.327 161.533 141.777 160.987 142.227 160.442C142.887 159.581 143.557 158.731 144.259 157.891L144.269 157.902Z" fill="#262626"/>
<path d="M225.592 259.667C225.592 260.045 225.603 260.423 225.613 260.79C238.943 260.402 251.719 257.789 263.123 253.35C263.039 252.993 262.955 252.636 262.871 252.269C251.541 256.676 238.839 259.269 225.592 259.657V259.667Z" fill="#262626"/>
<path d="M147.358 154.491L148.406 153.431C148.05 153.777 147.704 154.134 147.358 154.491Z" fill="#262626"/>
<path d="M308.412 204.445C308.59 204.707 308.768 204.97 308.936 205.232C310.905 195.22 309.69 185.282 305.815 176.036C305.763 175.942 305.711 175.858 305.658 175.763C305.522 175.595 305.376 175.428 305.24 175.26C309.135 184.495 310.371 194.433 308.402 204.435L308.412 204.445Z" fill="#262626"/>
<path d="M304.957 174.535C304.915 174.461 304.873 174.388 304.831 174.314C304.852 174.367 304.884 174.419 304.904 174.472C304.925 174.493 304.936 174.514 304.957 174.535Z" fill="#262626"/>
<path d="M280.474 158.73C277.615 152.245 272.882 146.263 266.651 141.225C266.432 141.215 266.212 141.194 265.981 141.194C272.118 146.158 276.778 152.056 279.594 158.447C279.888 158.541 280.181 158.636 280.464 158.741L280.474 158.73Z" fill="#262626"/>
<path d="M159.254 161.354C159.558 161.238 159.862 161.133 160.176 161.018C161.715 155.865 164.385 151.122 167.946 146.903C167.674 146.934 167.412 146.976 167.139 147.018C163.527 151.3 160.825 156.107 159.254 161.343V161.354Z" fill="#262626"/>
<path d="M213.361 126.134C213.319 126.071 213.277 126.008 213.236 125.945C204 126.617 195.224 128.81 187.486 132.253C187.653 132.284 187.821 132.316 187.988 132.347C195.612 128.957 204.261 126.806 213.361 126.134Z" fill="#262626"/>
<path d="M282.045 179.258C282.349 179.457 282.652 179.667 282.956 179.866C284.338 172.804 283.469 165.793 280.725 159.276C280.432 159.171 280.15 159.077 279.856 158.972C282.568 165.394 283.427 172.3 282.055 179.258H282.045Z" fill="#262626"/>
<path d="M271.5 198.862C271.751 199.167 272.003 199.46 272.244 199.765C276.851 194.958 280.275 189.386 282.108 183.236C282.38 182.312 282.621 181.399 282.82 180.476C282.516 180.266 282.223 180.066 281.919 179.857C281.731 180.759 281.49 181.672 281.218 182.585C279.406 188.641 276.045 194.129 271.5 198.862Z" fill="#262626"/>
<path d="M186.826 132.547C179.15 136.062 172.532 140.817 167.548 146.536C167.809 146.494 168.082 146.452 168.344 146.421C173.244 140.775 179.768 136.094 187.329 132.641C187.161 132.61 186.983 132.578 186.816 132.547H186.826Z" fill="#262626"/>
<path d="M265.458 140.764C265.678 140.764 265.898 140.785 266.118 140.796C259.803 135.811 251.991 131.781 243.069 129.136C242.965 129.178 242.86 129.23 242.755 129.283C251.541 131.886 259.238 135.853 265.458 140.775V140.764Z" fill="#262626"/>
<path d="M159.872 183.319C162.239 189.93 166.522 196.091 172.365 201.369C172.606 201.055 172.847 200.75 173.087 200.446C167.339 195.251 163.118 189.175 160.783 182.668C160.48 182.888 160.176 183.098 159.872 183.329V183.319Z" fill="#262626"/>
<path d="M196.01 213.501C195.884 213.869 195.758 214.247 195.633 214.624C199.287 215.852 203.141 216.839 207.172 217.563C212.733 218.549 218.293 218.969 223.728 218.854C223.718 218.465 223.707 218.067 223.697 217.678C218.346 217.783 212.869 217.374 207.392 216.398C203.424 215.684 199.622 214.719 196.02 213.512L196.01 213.501Z" fill="#262626"/>
<path d="M173.59 200.888C173.349 201.192 173.108 201.507 172.878 201.822C178.805 207.048 186.261 211.382 194.889 214.373C195.025 213.995 195.151 213.628 195.287 213.261C186.784 210.312 179.433 206.04 173.6 200.898L173.59 200.888Z" fill="#262626"/>
<path d="M242.001 129.052C242.106 128.999 242.211 128.947 242.305 128.905C239.697 128.159 236.985 127.53 234.2 127.037C227.393 125.819 220.597 125.473 214.031 125.893C214.063 125.956 214.105 126.019 214.136 126.082C220.608 125.672 227.31 126.019 234.011 127.215C236.765 127.698 239.425 128.317 242.001 129.052Z" fill="#262626"/>
<path d="M224.472 217.648C224.482 218.047 224.503 218.435 224.514 218.823C233.854 218.55 242.818 216.724 250.818 213.607C250.672 213.24 250.525 212.873 250.389 212.505C242.514 215.57 233.687 217.375 224.472 217.648Z" fill="#262626"/>
<path d="M159.076 161.974C157.097 169.047 157.422 176.12 159.684 182.753C159.987 182.533 160.291 182.323 160.595 182.102C158.375 175.564 158.05 168.596 159.998 161.627C159.684 161.743 159.38 161.848 159.076 161.963V161.974Z" fill="#262626"/>
<path d="M271.05 199.324C265.741 204.718 258.882 209.115 251.059 212.253C251.206 212.62 251.353 212.988 251.499 213.344C259.437 210.165 266.4 205.694 271.793 200.226C271.542 199.922 271.301 199.628 271.05 199.324Z" fill="#262626"/>
<path d="M218.252 142.129C218.199 141.898 218.157 141.667 218.105 141.447C214.513 141.709 211.1 142.559 208.084 143.902C208.293 144.091 208.503 144.28 208.712 144.469C211.571 143.199 214.827 142.391 218.241 142.139L218.252 142.129Z" fill="#262626"/>
<path d="M197.099 155.226C197.486 155.226 197.874 155.226 198.261 155.236C198.837 153.295 199.842 151.521 201.183 149.936C200.848 149.842 200.502 149.747 200.167 149.653C198.764 151.322 197.706 153.19 197.099 155.226Z" fill="#262626"/>
<path d="M197.026 155.466C196.251 158.215 196.387 160.965 197.266 163.547C197.654 163.421 198.031 163.284 198.418 163.158C197.581 160.703 197.465 158.079 198.188 155.466C197.801 155.466 197.413 155.466 197.026 155.466Z" fill="#262626"/>
<path d="M197.34 163.768C198.261 166.34 199.926 168.743 202.199 170.789C202.502 170.537 202.806 170.296 203.12 170.055C200.963 168.103 199.371 165.815 198.502 163.37C198.115 163.506 197.727 163.632 197.35 163.768H197.34Z" fill="#262626"/>
<path d="M239.928 169.634C237.928 171.659 235.352 173.307 232.42 174.493C232.608 174.818 232.807 175.143 232.996 175.458C236.085 174.22 238.786 172.488 240.891 170.358C240.567 170.116 240.252 169.875 239.928 169.634Z" fill="#262626"/>
<path d="M244.263 154.207C243.153 151.678 241.31 149.359 238.891 147.396C238.608 147.522 238.315 147.648 238.033 147.785C240.336 149.653 242.085 151.857 243.143 154.27C243.52 154.249 243.886 154.228 244.263 154.207Z" fill="#262626"/>
<path d="M240.095 169.456C240.42 169.687 240.745 169.929 241.069 170.17C242.86 168.302 244.19 166.14 244.902 163.747C245.007 163.391 245.101 163.034 245.174 162.677C244.787 162.561 244.399 162.446 244.012 162.331C243.939 162.677 243.855 163.013 243.75 163.359C243.069 165.636 241.802 167.693 240.095 169.477V169.456Z" fill="#262626"/>
<path d="M237.823 147.628C238.106 147.491 238.388 147.365 238.671 147.229C236.21 145.287 233.174 143.724 229.707 142.695C229.571 142.895 229.425 143.104 229.289 143.314C232.598 144.29 235.488 145.781 237.823 147.628Z" fill="#262626"/>
<path d="M207.832 144.016C204.848 145.381 202.272 147.228 200.335 149.463C200.67 149.558 201.005 149.652 201.34 149.757C203.183 147.637 205.633 145.874 208.471 144.573C208.251 144.384 208.042 144.205 207.822 144.016H207.832Z" fill="#262626"/>
<path d="M244.054 162.088C244.441 162.204 244.829 162.309 245.227 162.424C245.771 159.675 245.425 156.946 244.357 154.417C243.98 154.427 243.603 154.448 243.226 154.469C244.242 156.883 244.567 159.475 244.054 162.088Z" fill="#262626"/>
<path d="M229.006 143.23C229.142 143.02 229.278 142.81 229.414 142.6C228.399 142.307 227.341 142.065 226.262 141.876C223.613 141.404 220.974 141.268 218.409 141.425C218.451 141.656 218.492 141.876 218.545 142.107C220.974 141.95 223.487 142.076 226.011 142.527C227.037 142.716 228.043 142.947 229.006 143.22V143.23Z" fill="#262626"/>
<path d="M222.419 176.519C222.44 176.876 222.461 177.233 222.482 177.59C226.116 177.485 229.603 176.771 232.713 175.564C232.525 175.239 232.336 174.914 232.148 174.588C229.184 175.743 225.875 176.415 222.409 176.519H222.419Z" fill="#262626"/>
<path d="M211.728 174.954C211.571 175.28 211.414 175.616 211.257 175.941C212.681 176.424 214.178 176.801 215.749 177.085C217.917 177.473 220.074 177.63 222.189 177.589C222.168 177.232 222.158 176.875 222.137 176.518C220.126 176.56 218.074 176.403 216.011 176.035C214.524 175.762 213.089 175.406 211.738 174.954H211.728Z" fill="#262626"/>
<path d="M203.308 170.211C203.005 170.463 202.701 170.715 202.397 170.956C204.701 172.992 207.602 174.671 210.963 175.836C211.12 175.511 211.288 175.175 211.455 174.85C208.262 173.748 205.497 172.142 203.308 170.2V170.211Z" fill="#262626"/>
<path d="M295.857 289.84C301.344 283.313 306.088 275.977 309.899 267.886C314.507 258.094 317.397 247.925 318.695 237.735C318.695 237.798 318.695 237.861 318.695 237.934C318.622 240.789 318.297 243.559 317.722 246.256L318.078 244.546C318.559 242.09 318.832 239.561 318.894 236.979C318.894 236.685 318.894 236.391 318.894 236.098C318.978 235.331 319.051 234.565 319.125 233.799C319.177 233.159 319.229 232.508 319.271 231.868C320.476 214.111 316.915 196.48 309.239 180.759C310.318 182.512 311.25 184.338 312.056 186.238L311.459 184.842C310.653 183.005 309.711 181.242 308.643 179.542C306.182 174.662 303.313 169.971 300.066 165.521C299.647 164.944 299.218 164.377 298.778 163.811C293.825 157.325 288.045 151.396 281.5 146.201C281.835 146.442 282.16 146.683 282.474 146.946L281.982 146.547L281.531 146.19C281.207 145.928 280.861 145.687 280.526 145.445C274.872 141.079 268.672 137.238 261.949 134.069C245.991 126.523 229.048 123.574 212.607 124.666H212.597L211.644 124.729C211.644 124.729 211.665 124.729 211.675 124.729C200.638 125.568 189.852 128.223 179.737 132.558C179.192 132.726 178.658 132.904 178.145 133.135L177.192 133.565C177.705 133.334 178.239 133.145 178.784 132.967C166.689 138.288 155.61 146.012 146.332 155.845C145.829 156.286 145.348 156.737 144.876 157.21C144.709 157.377 144.552 157.535 144.395 157.703C143.997 158.112 143.609 158.542 143.232 158.973L142.342 160.012C142.813 159.455 143.295 158.92 143.787 158.395C143.955 158.228 144.112 158.06 144.28 157.902C144.657 157.524 145.044 157.157 145.442 156.8C144.353 157.986 143.285 159.204 142.248 160.442C141.798 160.988 141.347 161.533 140.908 162.09C136.091 168.124 131.881 174.809 128.446 182.113C127.001 185.188 125.724 188.295 124.614 191.422C124.027 192.828 123.504 194.266 123.064 195.746L122.582 197.425C122.991 195.966 123.472 194.539 124.027 193.143C121.347 201.15 119.734 209.305 119.127 217.449C119.106 217.679 119.085 217.91 119.074 218.141C116.352 258.241 137.934 297.753 176.396 315.93C202.711 328.366 231.697 328.335 256.714 318.228C256.578 318.291 256.441 318.354 256.305 318.407L257.269 318.029C257.447 317.955 257.614 317.871 257.782 317.798C269.772 312.792 280.819 305.456 290.181 296.064C290.673 295.57 291.155 295.077 291.637 294.573C292.747 293.409 293.836 292.212 294.904 290.995C294.59 291.457 294.275 291.908 293.94 292.359C293.804 292.538 293.668 292.716 293.532 292.884C292.862 293.734 292.15 294.552 291.396 295.319L292.338 294.343C292.987 293.66 293.616 292.936 294.202 292.191C294.338 292.013 294.474 291.845 294.611 291.666C295.05 291.079 295.48 290.47 295.878 289.84H295.857ZM282.757 301.678C282.17 302.172 281.573 302.654 280.966 303.127C274.872 307.965 268.274 312.036 261.3 315.3C262.211 314.387 263.059 313.327 263.813 312.068C263.897 311.921 263.981 311.785 264.065 311.638C266.787 306.894 268.4 299.831 268.63 290.46C268.641 289.809 268.651 289.158 268.662 288.487C268.662 288.193 268.662 287.899 268.662 287.605C268.609 277.289 266.976 265.44 264.086 252.952C264.002 252.595 263.918 252.238 263.834 251.871C260.871 239.34 256.651 226.201 251.499 213.324C251.352 212.957 251.206 212.6 251.059 212.233C245.855 199.366 239.729 186.815 232.985 175.439C232.796 175.113 232.597 174.788 232.409 174.473C228.775 168.407 224.974 162.688 221.047 157.461C224.89 162.73 228.608 168.481 232.158 174.578C232.346 174.903 232.535 175.229 232.723 175.554C239.31 186.983 245.3 199.608 250.389 212.505C250.536 212.873 250.682 213.24 250.818 213.607C255.855 226.526 259.97 239.708 262.871 252.27C262.955 252.627 263.039 252.994 263.122 253.351C265.95 265.871 267.541 277.73 267.583 288.046C267.583 288.34 267.583 288.634 267.583 288.927C267.583 289.589 267.573 290.25 267.552 290.9C267.321 300.272 265.74 307.314 263.07 312.036C262.986 312.183 262.913 312.32 262.829 312.456C262.054 313.758 261.196 314.849 260.253 315.773C257.803 316.885 255.31 317.903 252.787 318.816C243.383 322.195 233.477 324.168 223.403 324.599C223.749 323.832 224.063 322.321 224.346 320.075C224.356 319.949 224.377 319.823 224.388 319.687C224.901 315.395 225.299 308.584 225.519 299.212C225.54 298.561 225.55 297.9 225.561 297.239C225.561 296.945 225.571 296.651 225.581 296.358C225.791 285.989 225.791 273.815 225.602 260.77C225.602 260.403 225.592 260.025 225.581 259.647C225.393 246.561 225.026 232.634 224.513 218.813C224.492 218.425 224.482 218.026 224.471 217.638C223.948 203.827 223.278 190.163 222.492 177.58C222.471 177.223 222.45 176.866 222.429 176.509C222 169.793 221.539 163.391 221.058 157.472C221.445 163.401 221.801 169.803 222.136 176.52C222.157 176.876 222.168 177.233 222.189 177.59C222.806 190.173 223.309 203.858 223.697 217.669C223.707 218.068 223.717 218.456 223.728 218.844C224.105 232.666 224.356 246.592 224.471 259.689C224.471 260.067 224.471 260.445 224.471 260.823C224.576 273.868 224.524 286.041 224.314 296.41C224.314 296.704 224.304 296.998 224.293 297.292C224.283 297.963 224.262 298.614 224.241 299.265C224.011 308.636 223.655 315.447 223.204 319.74C223.194 319.876 223.173 320.002 223.162 320.128C222.922 322.395 222.639 323.895 222.346 324.661C210.073 325.071 197.57 323.182 185.465 318.795C184.135 317.725 182.983 316.108 182.061 313.936C181.998 313.8 181.946 313.653 181.894 313.516C180.04 308.878 179.119 301.878 179.349 292.506C179.37 291.855 179.391 291.194 179.412 290.533C179.422 290.239 179.433 289.945 179.454 289.652C179.936 279.325 181.684 267.403 184.407 254.788C184.491 254.421 184.564 254.064 184.648 253.697C187.433 241.04 191.182 227.712 195.633 214.615C195.758 214.248 195.884 213.87 196.009 213.492C200.491 200.416 205.675 187.591 211.256 175.942C211.413 175.607 211.57 175.281 211.727 174.956C214.733 168.733 217.853 162.866 221.047 157.472C217.759 162.835 214.544 168.67 211.455 174.862C211.288 175.187 211.131 175.523 210.963 175.848C205.214 187.445 199.894 200.216 195.276 213.251C195.14 213.629 195.015 213.996 194.879 214.363C190.302 227.408 186.438 240.705 183.58 253.33C183.496 253.697 183.412 254.054 183.339 254.421C180.543 267.015 178.752 278.926 178.26 289.242C178.25 289.536 178.239 289.83 178.218 290.124C178.187 290.785 178.166 291.446 178.155 292.097C177.925 301.468 178.878 308.479 180.794 313.139C180.857 313.286 180.91 313.422 180.972 313.559C181.915 315.71 183.077 317.326 184.428 318.417C181.841 317.441 179.276 316.371 176.742 315.174C166.364 310.273 157.233 303.798 149.484 296.179C149.243 295.864 149.002 295.539 148.772 295.203C148.657 295.035 148.541 294.857 148.426 294.689C144.709 289.001 142.761 281.413 142.992 272.052C143.012 271.401 143.033 270.751 143.075 270.09C143.096 269.796 143.107 269.512 143.128 269.229C143.829 259.028 146.95 247.872 151.966 236.549C152.112 236.223 152.259 235.898 152.406 235.573C157.526 224.228 164.532 212.726 172.888 201.843C173.129 201.539 173.37 201.224 173.6 200.909C182.04 190.047 191.81 179.825 202.408 170.989C202.711 170.737 203.015 170.485 203.319 170.244C209.026 165.553 214.974 161.261 221.058 157.503C214.9 161.208 208.9 165.437 203.13 170.086C202.827 170.328 202.523 170.58 202.209 170.821C191.496 179.553 181.621 189.69 173.098 200.468C172.857 200.773 172.616 201.077 172.375 201.392C163.935 212.212 156.856 223.64 151.683 234.933C151.536 235.258 151.39 235.583 151.243 235.909C146.185 247.19 143.033 258.315 142.332 268.515C142.311 268.809 142.29 269.093 142.279 269.386C142.238 270.048 142.217 270.698 142.196 271.349C141.965 280.71 143.944 288.319 147.704 294.049C147.819 294.227 147.934 294.395 148.049 294.563C148.217 294.815 148.395 295.046 148.573 295.277C147.871 294.563 147.18 293.849 146.489 293.115C145.976 292.569 145.473 292.013 144.971 291.446C136.394 281.823 129.839 270.677 125.556 258.713C124.341 255.324 123.315 251.86 122.467 248.345C122.268 246.445 122.184 244.493 122.237 242.499C122.258 241.849 122.279 241.198 122.32 240.547C122.341 240.264 122.362 239.981 122.383 239.687C123.211 229.664 127.116 219.631 133.431 210.155C133.619 209.882 133.797 209.609 133.986 209.336C140.447 199.902 149.295 191.044 159.882 183.32C160.186 183.1 160.49 182.879 160.793 182.659C171.485 175.008 183.884 168.522 197.35 163.768C197.738 163.632 198.115 163.496 198.502 163.37C205.748 160.872 213.309 158.878 221.058 157.472C213.288 158.805 205.706 160.725 198.428 163.16C198.041 163.286 197.654 163.422 197.277 163.548C183.768 168.176 171.328 174.557 160.605 182.103C160.301 182.323 159.997 182.533 159.694 182.753C149.065 190.373 140.185 199.146 133.714 208.528C133.525 208.801 133.347 209.063 133.159 209.336C126.823 218.75 122.907 228.741 122.08 238.763C122.059 239.047 122.038 239.34 122.017 239.624C121.975 240.274 121.943 240.925 121.933 241.576C121.891 243.318 121.954 245.028 122.101 246.708C121.001 241.765 120.268 236.738 119.922 231.658C119.881 231.05 119.849 230.43 119.818 229.822C119.095 215.192 121.598 200.195 127.692 185.902C129.043 183.74 130.583 181.673 132.31 179.7C132.488 179.49 132.677 179.28 132.865 179.07C139.41 171.829 148.374 166.015 159.097 161.964C159.401 161.848 159.704 161.733 160.018 161.628C170.846 157.682 183.412 155.509 197.046 155.467C197.434 155.467 197.821 155.467 198.209 155.467C205.56 155.509 213.214 156.16 221.058 157.472C179.255 150.031 143.107 161.628 128.342 184.391C128.624 183.75 128.907 183.121 129.211 182.481C131.127 178.409 133.284 174.536 135.651 170.853C135.996 170.307 136.352 169.772 136.709 169.236C140.656 163.349 145.17 158.007 150.123 153.222C154.94 150.136 160.678 148.048 167.15 147.03C167.411 146.988 167.684 146.946 167.956 146.914C177.38 145.561 188.323 146.411 200.188 149.653C200.523 149.748 200.858 149.842 201.203 149.937C207.591 151.752 214.251 154.25 221.068 157.472C214.303 154.187 207.696 151.626 201.361 149.758C201.025 149.653 200.69 149.559 200.355 149.465C188.585 146.117 177.736 145.162 168.375 146.421C168.113 146.463 167.841 146.495 167.579 146.537C161.306 147.481 155.725 149.444 151.013 152.372C160.27 143.651 171.045 136.882 182.658 132.285C183.998 132.222 185.391 132.295 186.857 132.547C187.025 132.579 187.192 132.61 187.37 132.642C193.381 133.796 200.334 137.585 207.853 144.028C208.073 144.207 208.282 144.396 208.502 144.585C212.555 148.121 216.764 152.424 221.079 157.482C216.848 152.382 212.722 148.048 208.743 144.469C208.534 144.28 208.324 144.091 208.115 143.902C200.743 137.396 193.926 133.555 188.02 132.348C187.852 132.316 187.685 132.285 187.517 132.253C186.124 132.002 184.794 131.907 183.517 131.949C184.208 131.687 184.889 131.424 185.58 131.183C194.355 128.024 203.57 126.104 212.942 125.505C213.047 125.642 213.162 125.789 213.277 125.957C213.319 126.02 213.361 126.083 213.403 126.146C214.838 128.444 216.44 133.565 218.147 141.457C218.199 141.678 218.241 141.908 218.293 142.139C219.204 146.453 220.147 151.574 221.089 157.482C220.241 151.574 219.403 146.442 218.586 142.129C218.544 141.898 218.503 141.667 218.45 141.447C216.921 133.544 215.476 128.412 214.178 126.104C214.146 126.041 214.105 125.978 214.073 125.915C213.968 125.747 213.874 125.6 213.78 125.463C223.728 124.907 233.833 125.862 243.792 128.412C243.32 128.538 242.849 128.706 242.357 128.927C242.263 128.969 242.158 129.021 242.053 129.074C238.441 130.868 234.168 135.391 229.466 142.622C229.33 142.821 229.194 143.031 229.058 143.252C226.524 147.219 223.854 151.962 221.1 157.493C223.958 151.994 226.712 147.271 229.341 143.336C229.477 143.126 229.624 142.916 229.76 142.717C234.639 135.528 239.058 131.047 242.807 129.304C242.912 129.252 243.017 129.199 243.121 129.158C243.656 128.927 244.169 128.759 244.671 128.643C250.41 130.175 256.085 132.232 261.646 134.856C266.463 137.133 271.007 139.747 275.269 142.654C272.515 141.604 269.468 140.985 266.17 140.807C265.95 140.796 265.73 140.786 265.51 140.775C257.771 140.502 248.682 142.622 238.723 147.24C238.441 147.376 238.158 147.513 237.875 147.639C232.503 150.199 226.89 153.474 221.1 157.482C226.953 153.515 232.639 150.304 238.074 147.796C238.367 147.659 238.65 147.534 238.933 147.408C249.007 142.874 258.201 140.848 266.033 141.195C266.253 141.195 266.484 141.216 266.704 141.226C270.128 141.436 273.29 142.118 276.139 143.241C288.087 151.574 297.773 162.247 304.873 174.326C304.915 174.4 304.957 174.473 304.998 174.547C304.978 174.526 304.967 174.505 304.946 174.484C298.998 167.578 290.652 162.226 280.516 158.731C280.233 158.626 279.94 158.532 279.647 158.437C269.416 155.058 257.426 153.547 244.305 154.208C243.928 154.229 243.561 154.25 243.184 154.271C236.116 154.691 228.712 155.751 221.1 157.472C228.754 155.814 236.168 154.827 243.279 154.47C243.656 154.45 244.032 154.439 244.409 154.418C257.583 153.872 269.625 155.499 279.898 158.973C280.191 159.078 280.484 159.172 280.767 159.277C290.935 162.866 299.323 168.292 305.292 175.26C305.428 175.428 305.574 175.596 305.711 175.764C305.763 175.858 305.815 175.942 305.868 176.037C308.611 180.927 310.946 186.049 312.831 191.317C317.229 203.596 319.229 216.724 318.58 229.958C317.512 221.426 314.182 213.072 308.988 205.233C308.81 204.971 308.643 204.708 308.465 204.446C302.265 195.368 293.563 186.993 283.008 179.867C282.704 179.668 282.401 179.458 282.097 179.259C271.437 172.206 258.944 166.424 245.279 162.425C244.891 162.31 244.504 162.205 244.106 162.09C236.744 160.001 229.037 158.437 221.1 157.472C229.016 158.511 236.702 160.159 244.053 162.31C244.441 162.425 244.828 162.541 245.216 162.656C258.86 166.781 271.322 172.689 281.961 179.846C282.264 180.046 282.568 180.256 282.861 180.466C293.396 187.686 302.087 196.145 308.266 205.296C308.444 205.558 308.622 205.821 308.8 206.083C314.161 214.227 317.533 222.895 318.475 231.732C318.308 234.219 318.046 236.706 317.69 239.204C317.596 239.823 317.502 240.453 317.407 241.072C315.941 250.024 313.229 258.913 309.177 267.518C306.119 274.015 302.454 280.017 298.276 285.506C300.443 280.731 301.689 275.137 301.846 268.757C301.857 268.106 301.867 267.455 301.857 266.794C301.857 266.5 301.857 266.217 301.836 265.923C301.585 255.743 298.695 244.714 293.72 233.589C293.574 233.274 293.427 232.949 293.281 232.634C288.181 221.5 281.008 210.302 272.285 199.755C272.034 199.45 271.793 199.157 271.542 198.852C262.735 188.358 252.41 178.535 241.1 170.16C240.776 169.919 240.451 169.688 240.127 169.446C234.032 164.997 227.655 160.967 221.079 157.461C227.592 161.019 233.906 165.112 239.959 169.614C240.273 169.856 240.598 170.097 240.922 170.338C252.127 178.828 262.368 188.735 271.091 199.314C271.343 199.618 271.583 199.923 271.835 200.216C280.474 210.837 287.584 222.108 292.642 233.285C292.789 233.61 292.935 233.925 293.071 234.25C298.003 245.417 300.862 256.478 301.113 266.658C301.113 266.952 301.124 267.235 301.134 267.529C301.134 268.19 301.134 268.841 301.124 269.491C300.956 276.103 299.647 281.854 297.344 286.723C292.987 292.265 288.108 297.26 282.809 301.668L282.757 301.678Z" fill="#262626"/>
<path d="M312.392 233.299C312.606 233.192 312.766 233.138 312.926 233.085C313.087 233.031 313.247 232.978 313.461 232.871C313.568 232.122 313.729 231.427 313.889 230.732C314.05 230.037 314.21 229.341 314.317 228.592C316.457 214.9 320.522 201.849 327.796 190.082C336.14 177.031 347.265 166.762 360.315 158.632C363.311 156.706 366.734 155.637 370.371 155.209C376.361 154.781 381.068 157.348 384.063 162.269C386.845 167.19 386.631 172.11 383.635 177.031C381.71 180.24 378.929 182.594 375.72 184.733C372.938 186.659 370.103 188.531 367.268 190.403L367.266 190.404C364.432 192.276 361.598 194.147 358.818 196.072C352.613 200.565 347.051 205.7 342.558 211.904C337.637 218.751 334.642 226.453 334 235.01C333.358 241.857 333.144 248.917 333.144 255.977C333.144 262.823 334.642 269.67 337.423 276.088C338.065 277.586 338.707 279.083 338.921 280.581C339.349 282.292 339.563 284.218 339.135 285.929C338.065 292.562 331.005 295.771 325.442 291.92C323.303 290.422 321.591 288.497 320.308 286.143C317.649 280.986 314.777 275.921 311.899 270.843C307.135 262.438 302.353 254.001 298.485 245.066C298.2 244.353 297.724 243.64 297.249 242.926C297.011 242.57 296.774 242.213 296.56 241.857C296.422 241.58 296.194 241.393 295.935 241.18C295.793 241.063 295.642 240.939 295.49 240.787C294.024 241.337 293.814 242.671 293.649 243.715C293.622 243.89 293.595 244.057 293.564 244.21C293.491 244.699 293.418 245.185 293.345 245.669L293.342 245.691L293.341 245.692C292.777 249.435 292.231 253.05 291.853 256.833C290.783 270.525 292.923 283.79 296.774 296.841C296.802 296.946 296.831 297.051 296.86 297.155C296.945 297.466 297.031 297.774 297.115 298.079L297.116 298.082C297.638 299.964 298.134 301.753 298.485 303.687C299.127 306.468 298.913 309.036 297.629 311.603C295.49 316.31 290.355 318.449 285.648 316.096C283.723 315.026 281.797 313.314 280.514 311.389C279.23 309.677 278.16 307.752 277.519 305.612C270.458 286.357 259.119 269.67 246.283 253.838C241.955 248.511 237.109 243.573 232.249 238.621C230.862 237.208 229.474 235.793 228.097 234.369C222.962 229.234 216.972 224.955 210.554 221.104C210.272 220.916 209.98 220.728 209.684 220.538C208.633 219.862 207.537 219.158 206.703 218.323C206.224 217.844 205.812 217.353 205.475 216.841C202.772 221.667 200.705 226.726 199.49 232.126C198.206 237.26 197.351 242.609 196.709 247.744C195.639 256.943 196.709 266.143 200.132 274.915C201.629 278.98 202.913 283.045 204.197 287.324C204.625 289.249 205.053 291.389 205.267 293.528C206.122 300.588 203.341 306.365 197.564 310.43C190.932 315.35 183.016 313.639 178.737 306.365C175.1 300.374 173.603 293.742 172.747 287.11C170.179 265.073 173.603 243.893 181.946 223.568C182.267 222.926 182.481 222.231 182.695 221.535C182.909 220.84 183.123 220.145 183.444 219.503C181.445 218.594 180.373 219.383 179.308 220.166C179.119 220.305 178.931 220.444 178.737 220.573C170.607 225.921 162.905 232.126 156.701 239.828C154.314 242.843 152.001 246.005 149.675 249.185C148.04 251.421 146.398 253.666 144.72 255.874C144.292 256.373 143.888 256.872 143.484 257.371L143.484 257.371C142.676 258.37 141.867 259.368 140.869 260.366C138.729 262.292 136.162 262.934 133.381 261.864C130.6 260.794 129.316 258.441 129.102 255.66C129.102 254.376 129.102 253.306 129.316 252.023C130.172 241.753 131.669 231.698 134.665 221.856C134.779 221.437 134.907 221.017 135.036 220.593C135.633 218.637 136.262 216.577 135.734 213.94C134.451 215.01 133.381 215.866 132.311 216.722C122.47 226.563 116.051 238.33 112.628 251.595C110.061 261.436 108.777 271.064 110.489 281.119V281.761C110.703 285.398 109.633 287.538 107.066 288.393C104.498 289.035 102.145 287.752 100.647 284.756L100.647 284.756C98.5075 280.477 96.3682 276.198 94.2288 272.133C93.2304 270.279 92.0419 268.425 90.8533 266.571C90.2591 265.644 89.6646 264.717 89.0941 263.79C86.0989 259.083 82.2479 255.018 77.5411 251.595C74.7598 249.669 72.1924 247.53 69.839 245.176C68.3414 243.679 67.0577 241.753 66.202 239.614C64.7043 235.763 65.1322 231.912 68.3414 228.703C71.1227 225.707 75.6156 225.065 79.6805 226.777C82.6758 228.061 85.0292 229.986 86.7407 232.767L94.4428 246.888C95.0336 247.774 95.5224 248.66 96.0501 249.617C96.2868 250.046 96.5312 250.489 96.7962 250.953C98.2754 250.131 98.492 248.931 98.7069 247.739C98.7717 247.38 98.8364 247.021 98.9356 246.674C99.1904 245.451 99.433 244.228 99.675 243.009L99.6751 243.008C100.449 239.105 101.218 235.233 102.359 231.484C105.782 219.503 111.772 209.02 119.902 199.82C126.962 191.904 134.665 184.63 143.864 179.495C146.645 177.997 149.641 176.5 152.85 175.43C154.989 174.788 157.557 174.574 159.696 174.788C166.542 175.43 170.179 182.062 167.398 188.267C166.542 190.406 165.045 192.332 163.333 194.257C154.347 203.885 149.641 215.866 146.432 228.275C146.295 228.82 146.333 229.366 146.378 230.022C146.403 230.395 146.432 230.804 146.432 231.27C146.809 230.987 147.187 230.787 147.546 230.597L147.547 230.596C148.001 230.356 148.426 230.131 148.785 229.772C157.557 219.931 168.254 212.229 179.165 204.955C183.136 202.353 186.845 199.4 190.571 196.434C192.666 194.766 194.767 193.093 196.923 191.476L196.926 191.474C204.413 186.126 211.9 180.778 219.601 175.43C220.885 174.574 222.596 173.719 224.308 173.291C227.945 172.221 230.94 173.077 233.507 176.072C235.647 178.853 235.861 182.49 233.507 185.699C232.01 187.839 230.084 189.764 227.945 191.262C221.641 196.143 216.303 201.603 211.565 207.643C211.908 207.662 212.267 207.693 212.636 207.725C213.276 207.781 213.948 207.839 214.619 207.839C221.251 208.909 227.883 209.979 234.516 210.621C238.794 211.049 243.073 210.835 247.352 210.407C252.487 209.765 256.124 206.77 257.622 201.635C258.518 198.647 259.206 195.764 259.903 192.84C260.205 191.576 260.508 190.304 260.831 189.012C261.226 187.601 261.606 186.174 261.987 184.745L261.988 184.744C263.051 180.757 264.12 176.746 265.538 172.966C266.607 169.971 268.533 167.404 270.458 165.05C273.668 161.413 277.946 159.916 282.653 161.627C287.146 163.339 289.286 167.19 289.5 171.896C289.5 174.25 289.286 176.817 288.43 178.957C286.718 183.663 284.793 188.37 282.225 192.649C277.946 199.495 273.454 205.914 268.747 212.332C263.398 219.606 256.124 223.671 247.138 224.527C245.427 224.741 243.715 224.955 242.004 224.955C240.934 225.169 239.864 225.383 238.58 225.597C239.626 227.986 241.297 229.333 242.938 230.657C243.648 231.229 244.353 231.797 244.999 232.443C246.097 233.785 247.334 234.988 248.592 236.211C249.539 237.132 250.498 238.064 251.417 239.075C252.38 240.145 253.396 241.268 254.412 242.391C255.428 243.514 256.445 244.638 257.408 245.708C259.333 248.061 261.259 250.414 263.398 252.554C263.795 253.039 264.173 253.541 264.554 254.047C266.022 255.998 267.526 257.997 270.244 259.186C270.372 258.168 270.575 257.301 270.763 256.496C270.892 255.947 271.014 255.427 271.1 254.907C271.307 253.458 271.502 252.009 271.696 250.563C272.304 246.031 272.908 241.529 273.881 237.15C276.021 225.811 281.156 215.755 286.29 205.7C286.932 204.202 288.002 202.919 289.286 201.849C293.992 197.57 300.625 199.068 302.978 204.844C303.834 206.984 304.262 209.123 304.476 211.262C304.904 218.323 307.471 224.741 310.68 230.945C310.976 231.536 311.373 232.025 311.802 232.553C311.994 232.789 312.193 233.034 312.392 233.299Z" fill="#262626"/>
<path d="M355.135 244.152C355.135 238.874 356.419 235.166 358.986 233.026C361.553 230.887 364.62 229.817 368.186 229.817C371.894 229.817 375.032 230.887 377.599 233.026C380.309 235.166 381.664 238.874 381.664 244.152C381.664 249.286 380.309 252.995 377.599 255.277C375.032 257.559 371.894 258.7 368.186 258.7C364.62 258.7 361.553 257.559 358.986 255.277C356.419 252.995 355.135 249.286 355.135 244.152Z" fill="#262626"/>
<path d="M67.8286 182.222C65.2612 184.361 63.9775 188.07 63.9775 193.347C63.9775 198.482 65.2612 202.19 67.8286 204.472C70.3959 206.754 73.4625 207.895 77.0282 207.895C80.7366 207.895 83.8745 206.754 86.4418 204.472C89.1518 202.19 90.5068 198.482 90.5068 193.347C90.5068 188.07 89.1518 184.361 86.4418 182.222C83.8745 180.083 80.7366 179.013 77.0282 179.013C73.4625 179.013 70.3959 180.083 67.8286 182.222Z" fill="#262626"/>
</svg>
