<svg width="450" height="450" viewBox="0 0 450 450" fill="none" xmlns="http://www.w3.org/2000/svg">
<rect x="0.5" y="0.5" width="449" height="449" fill="#EAEAEA"/>
<rect x="0.5" y="0.5" width="449" height="449" stroke="#262626"/>
<path d="M119.777 172.55C116.772 169.36 112.868 166.865 108.179 165.137C103.495 163.416 97.7867 162.541 91.2107 162.541C88.3934 162.541 85.5391 162.636 82.7284 162.821C77.1913 163.19 71.4154 163.157 65.8312 162.931C62.9433 162.817 60.0957 162.683 57.3725 162.538L57.0632 162.521L57.0766 162.834C57.2951 167.648 57.5036 172.53 57.6919 177.351C57.8768 182.101 57.9709 186.98 57.9709 191.858V211.139C57.9709 216.017 57.8768 220.919 57.6919 225.703C57.5036 230.524 57.2951 235.274 57.0766 239.826L57.0598 240.139L57.3725 240.119C59.8738 239.971 62.3953 239.894 64.8663 239.894H72.3769C74.9186 239.894 77.4434 239.931 79.8808 240.005C82.3788 240.079 84.907 240.116 87.4016 240.116C91.8158 240.116 96.4991 239.453 101.32 238.145C106.151 236.834 110.636 234.575 114.65 231.425C118.665 228.275 122.01 224.072 124.595 218.942C127.18 213.808 128.492 207.41 128.492 199.927C128.492 194.174 127.789 188.923 126.407 184.32C125.019 179.704 122.79 175.744 119.784 172.55H119.777ZM116.936 199.93C116.936 207.256 115.908 213.307 113.877 217.92C111.846 222.529 109.197 226.21 105.997 228.86C102.793 231.512 99.118 233.341 95.0702 234.296C91.0022 235.257 86.8737 235.745 82.8024 235.745C79.975 235.745 77.1913 235.651 74.5252 235.466C71.9769 235.291 69.9126 235.025 68.3863 234.679C67.9492 227.014 67.7274 219.093 67.7274 211.139V191.858C67.7274 187.84 67.7845 183.826 67.8954 179.926C68.003 176.107 68.1678 172.399 68.3863 168.902C70.6523 168.617 73.2073 168.361 75.9877 168.149C78.8823 167.927 82.0426 167.813 85.3844 167.813C89.9701 167.813 94.2499 168.28 98.0994 169.208C101.925 170.129 105.26 171.807 108.014 174.191C110.767 176.578 112.966 179.876 114.549 184.001C116.136 188.136 116.94 193.495 116.94 199.93H116.936Z" fill="#262626"/>
<path d="M156.342 177.35C156.52 172.798 156.729 167.913 156.957 162.833L156.974 162.487L156.635 162.541C155.71 162.685 154.769 162.817 153.841 162.931C152.076 163.153 150.294 163.153 148.529 162.931C147.591 162.813 146.65 162.682 145.735 162.541L145.396 162.487L145.412 162.833C145.631 167.648 145.839 172.529 146.028 177.35C146.212 182.101 146.307 186.979 146.307 191.857V211.138C146.307 216.016 146.212 220.918 146.028 225.702C145.839 230.523 145.631 235.274 145.412 239.826L145.396 240.148L145.718 240.122C147.406 239.974 149.248 239.9 151.188 239.9C153.128 239.9 154.967 239.974 156.658 240.122L156.981 240.148L156.964 239.826C156.735 235.102 156.527 230.348 156.349 225.702C156.164 220.958 156.07 216.06 156.07 211.138V191.857C156.07 186.939 156.164 182.057 156.349 177.35H156.342Z" fill="#262626"/>
<path d="M245.038 171.696C241.326 168.246 236.821 165.587 231.654 163.788C226.49 161.993 220.727 161.082 214.521 161.082C208.315 161.082 202.663 161.993 197.499 163.788C192.332 165.587 187.827 168.246 184.115 171.696C180.404 175.149 177.475 179.425 175.415 184.407C173.354 189.386 172.311 195.135 172.311 201.5C172.311 207.864 173.357 213.613 175.415 218.592C177.475 223.578 180.4 227.854 184.115 231.303C187.827 234.753 192.332 237.358 197.506 239.043C202.667 240.727 208.392 241.578 214.521 241.578C220.65 241.578 226.486 240.724 231.647 239.043C236.821 237.355 241.326 234.753 245.034 231.303C248.746 227.857 251.671 223.581 253.735 218.592C255.796 213.609 256.838 207.86 256.838 201.5C256.838 195.139 255.792 189.393 253.735 184.407C251.671 179.422 248.746 175.145 245.034 171.696H245.038ZM214.521 237.2C210.238 237.2 206.18 236.491 202.458 235.089C198.743 233.69 195.459 231.509 192.698 228.6C189.935 225.692 187.75 221.954 186.203 217.492C184.65 213.021 183.863 207.642 183.863 201.5C183.863 195.357 184.65 189.978 186.203 185.507C187.753 181.045 189.938 177.307 192.698 174.399C195.459 171.491 198.743 169.309 202.458 167.91C206.187 166.508 210.245 165.799 214.521 165.799C218.797 165.799 222.97 166.508 226.698 167.91C230.416 169.309 233.698 171.494 236.458 174.399C239.221 177.31 241.407 181.045 242.953 185.507C244.503 189.978 245.293 195.361 245.293 201.5C245.293 207.639 244.506 213.024 242.953 217.492C241.403 221.954 239.218 225.692 236.458 228.6C233.698 231.509 230.416 233.69 226.698 235.089C222.973 236.491 218.878 237.2 214.521 237.2Z" fill="#262626"/>
<path d="M304.349 200.249C301.73 198.679 298.866 197.331 295.837 196.245C292.835 195.173 290 193.932 287.408 192.561C284.836 191.202 282.655 189.508 280.93 187.524C279.229 185.568 278.365 182.841 278.365 179.415C278.365 177.442 278.714 175.593 279.407 173.918C280.099 172.244 281.095 170.788 282.365 169.588C283.64 168.385 285.152 167.443 286.87 166.788C288.585 166.132 290.495 165.796 292.542 165.796C294.59 165.796 296.351 166.146 297.8 166.835C299.263 167.531 300.537 168.398 301.592 169.417C302.652 170.439 303.499 171.565 304.117 172.762C304.743 173.979 305.247 175.119 305.617 176.147L305.684 176.336H307.459L307.506 176.11C307.95 173.966 308.4 172.163 308.844 170.758C309.285 169.363 309.843 168.022 310.505 166.771L310.613 166.566L310.431 166.421C308.175 164.616 305.694 163.261 303.055 162.394C300.419 161.53 297.259 161.089 293.662 161.089C290.064 161.089 286.484 161.624 283.478 162.676C280.469 163.732 277.854 165.218 275.705 167.1C273.554 168.99 271.89 171.266 270.757 173.871C269.624 176.474 269.052 179.395 269.052 182.559C269.052 187.007 269.953 190.604 271.735 193.253C273.503 195.889 275.736 198.084 278.375 199.779C280.994 201.463 283.861 202.885 286.894 204.011C289.889 205.121 292.727 206.361 295.326 207.696C297.898 209.017 300.076 210.695 301.801 212.675C303.502 214.632 304.366 217.321 304.366 220.673C304.366 222.869 303.996 224.967 303.263 226.906C302.534 228.843 301.478 230.544 300.127 231.97C298.775 233.395 297.108 234.541 295.174 235.382C293.241 236.222 291.033 236.649 288.615 236.649C286.198 236.649 284.11 236.296 282.211 235.6C280.308 234.905 278.617 233.997 277.185 232.894C275.752 231.795 274.529 230.551 273.54 229.196C272.548 227.834 271.745 226.476 271.16 225.155L271.086 224.987H269.304L269.277 225.239C269.055 227.38 268.813 229.166 268.551 230.541C268.292 231.906 267.825 233.452 267.163 235.143L267.089 235.335L267.25 235.466C269.203 237.043 271.658 238.472 274.545 239.709C277.443 240.953 281.273 241.581 285.922 241.581C290.269 241.581 294.203 240.953 297.622 239.716C301.048 238.472 303.983 236.68 306.353 234.383C308.727 232.087 310.559 229.357 311.799 226.271C313.04 223.188 313.669 219.873 313.669 216.414C313.669 212.265 312.764 208.89 310.982 206.385C309.211 203.897 306.975 201.836 304.339 200.253L304.349 200.249Z" fill="#262626"/>
<path d="M392.678 239.704C391.71 237.916 390.449 235.283 388.933 231.878C387.43 228.505 385.743 224.673 383.776 220.164C381.839 215.723 379.785 210.953 377.667 205.987C375.563 201.055 373.374 195.888 371.165 190.63C369.003 185.492 366.855 180.342 364.774 175.329C362.679 170.283 360.74 165.596 358.944 161.259L358.874 161.085H356.369L356.295 161.253C350.539 174.465 344.693 187.742 338.92 200.712C333.168 213.639 327.207 226.761 321.21 239.721L320.998 240.178L321.499 240.118C322.743 239.97 324.124 239.896 325.614 239.896C327.103 239.896 328.485 239.97 329.729 240.118L329.968 240.145L330.031 239.913C330.996 236.494 332.465 232.106 334.395 226.875C336.312 221.674 338.477 216.133 340.823 210.408C343.059 210.337 345.295 210.284 347.473 210.247C349.736 210.21 352.035 210.189 354.308 210.189C356.725 210.189 359.213 210.21 361.701 210.247C364.095 210.284 366.482 210.337 368.798 210.408C369.726 212.765 370.762 215.33 371.871 218.03C372.991 220.759 374.093 223.449 375.179 226.102C376.262 228.758 377.26 231.319 378.148 233.717C379.035 236.124 379.752 238.211 380.273 239.923L380.343 240.155L380.582 240.121C381.601 239.973 382.586 239.899 383.514 239.899H389.454C390.379 239.899 391.364 239.973 392.386 240.121L392.941 240.202L392.672 239.708L392.678 239.704ZM367.006 204.706C365.07 204.773 363.1 204.824 361.146 204.861C359.133 204.898 357.025 204.918 354.873 204.918C352.92 204.918 350.889 204.881 348.828 204.807C346.865 204.736 344.972 204.699 343.193 204.696L354.987 177.212L367.003 204.709L367.006 204.706Z" fill="#262626"/>
<path d="M60.1663 288.703V269.947H68.5813C70.743 269.947 72.4039 270.38 73.5637 271.248C74.7236 272.115 75.3052 273.298 75.3052 274.798C75.3052 275.817 75.0766 276.674 74.6227 277.37C74.1689 278.066 73.5537 278.604 72.7871 278.977C72.0206 279.353 71.1868 279.538 70.2959 279.538L70.7767 278.735C71.8491 278.735 72.7938 278.923 73.6175 279.296C74.4378 279.673 75.0901 280.221 75.5742 280.944C76.055 281.666 76.297 282.564 76.297 283.636C76.297 285.243 75.6952 286.491 74.4883 287.375C73.2813 288.259 71.4928 288.7 69.1158 288.7H60.1663V288.703ZM62.8458 286.531H69.0083C70.4909 286.531 71.6239 286.282 72.4106 285.781C73.1973 285.28 73.5906 284.494 73.5906 283.425C73.5906 282.356 73.1973 281.542 72.4106 281.041C71.6239 280.54 70.4909 280.291 69.0083 280.291H62.6037V278.119H68.3359C69.6941 278.119 70.7464 277.871 71.4961 277.37C72.2458 276.869 72.6224 276.119 72.6224 275.121C72.6224 274.122 72.2458 273.369 71.4961 272.871C70.7464 272.37 69.6908 272.122 68.3359 272.122H62.8424V286.538L62.8458 286.531Z" fill="#262626"/>
<path d="M91.167 286.373H102.1V288.703H88.4875V269.947H101.724V272.276H91.167V286.373ZM90.9249 278.042H100.57V280.318H90.9249V278.042Z" fill="#262626"/>
<path d="M111.635 288.703L120.127 269.947H122.78L131.299 288.703H128.485L120.904 271.449H121.976L114.395 288.703H111.635ZM115.252 284.013L115.975 281.868H126.532L127.308 284.013H115.252Z" fill="#262626"/>
<path d="M149.494 288.918C147.029 288.918 145.09 288.212 143.681 286.8C142.269 285.388 141.563 283.327 141.563 280.611V269.947H144.242V280.503C144.242 282.594 144.703 284.121 145.621 285.085C146.542 286.05 147.84 286.531 149.521 286.531C151.202 286.531 152.526 286.05 153.447 285.085C154.369 284.121 154.826 282.594 154.826 280.503V269.947H157.425V280.611C157.425 283.327 156.722 285.388 155.32 286.8C153.918 288.212 151.975 288.918 149.494 288.918Z" fill="#262626"/>
<path d="M174.332 288.702V272.279H167.901V269.949H183.413V272.279H176.981V288.702H174.329H174.332Z" fill="#262626"/>
<path d="M198.686 288.703V281.522L199.301 283.183L191.236 269.947H194.104L200.881 281.118H199.328L206.133 269.947H208.785L200.747 283.183L201.335 281.522V288.703H198.683H198.686Z" fill="#262626"/>
<path d="M243.165 288.918C241.736 288.918 240.418 288.683 239.215 288.209C238.008 287.735 236.965 287.065 236.078 286.198C235.194 285.331 234.501 284.319 234 283.156C233.499 281.996 233.25 280.718 233.25 279.323C233.25 277.928 233.499 276.653 234 275.49C234.501 274.33 235.197 273.315 236.091 272.448C236.986 271.58 238.035 270.911 239.238 270.437C240.445 269.963 241.76 269.728 243.192 269.728C244.624 269.728 245.972 269.973 247.196 270.464C248.42 270.955 249.459 271.684 250.316 272.649L248.574 274.337C247.858 273.587 247.055 273.029 246.164 272.663C245.27 272.296 244.315 272.115 243.296 272.115C242.277 272.115 241.265 272.293 240.361 272.649C239.46 273.006 238.677 273.507 238.018 274.149C237.355 274.791 236.844 275.554 236.478 276.438C236.111 277.323 235.93 278.284 235.93 279.32C235.93 280.355 236.111 281.317 236.478 282.201C236.844 283.085 237.359 283.848 238.018 284.49C238.677 285.132 239.46 285.633 240.361 285.99C241.262 286.346 242.24 286.524 243.296 286.524C244.352 286.524 245.27 286.343 246.164 285.976C247.058 285.61 247.862 285.042 248.574 284.275L250.316 285.963C249.459 286.928 248.416 287.661 247.196 288.158C245.972 288.659 244.627 288.908 243.165 288.908V288.918Z" fill="#262626"/>
<path d="M264.866 286.373H275.8V288.703H262.187V269.947H275.423V272.276H264.866V286.373ZM264.624 278.042H274.27V280.318H264.624V278.042Z" fill="#262626"/>
<path d="M288.178 288.703V269.947H290.374L302.779 285.354H301.626V269.947H304.306V288.703H302.11L289.705 273.295H290.858V288.703H288.178Z" fill="#262626"/>
<path d="M321.697 288.702V272.279H315.266V269.949H330.778V272.279H324.346V288.702H321.694H321.697Z" fill="#262626"/>
<path d="M344.417 286.373H355.35V288.703H341.738V269.947H354.974V272.276H344.417V286.373ZM344.175 278.042H353.821V280.318H344.175V278.042Z" fill="#262626"/>
<path d="M367.726 288.703V269.947H375.041C376.685 269.947 378.087 270.205 379.247 270.723C380.407 271.241 381.301 271.991 381.927 272.972C382.552 273.954 382.865 275.124 382.865 276.482C382.865 277.84 382.552 279.007 381.927 279.979C381.301 280.954 380.407 281.697 379.247 282.214C378.087 282.732 376.685 282.991 375.041 282.991H369.202L370.409 281.757V288.696H367.729L367.726 288.703ZM370.405 282.033L369.198 280.722H374.957C376.672 280.722 377.973 280.352 378.857 279.609C379.741 278.869 380.185 277.827 380.185 276.489C380.185 275.151 379.741 274.112 378.857 273.382C377.973 272.65 376.675 272.283 374.957 272.283H369.198L370.405 270.945V282.036V282.033ZM380.266 288.703L375.495 281.898H378.363L383.187 288.703H380.266Z" fill="#262626"/>
</svg>
