<svg width="450" height="450" viewBox="0 0 450 450" fill="none" xmlns="http://www.w3.org/2000/svg">
<rect x="0.5" y="0.5" width="449" height="449" fill="#EAEAEA"/>
<rect x="0.5" y="0.5" width="449" height="449" stroke="#262626"/>
<path d="M179.343 267.129C177.304 267.129 175.986 265.62 175.986 263.293V263.288C175.986 260.955 177.294 259.462 179.343 259.462C180.883 259.462 182.021 260.41 182.299 261.8L182.309 261.851H181.604L181.573 261.759C181.29 260.755 180.502 260.116 179.343 260.116C177.737 260.116 176.707 261.357 176.707 263.288V263.293C176.707 265.219 177.747 266.475 179.343 266.475C180.497 266.475 181.279 265.842 181.588 264.786L181.604 264.74H182.309L182.299 264.791C182.021 266.192 180.888 267.129 179.343 267.129Z" fill="#262626"/>
<path d="M186.228 267.129C184.441 267.129 183.349 266.037 183.349 264.416V259.581H184.05V264.374C184.05 265.636 184.863 266.475 186.228 266.475C187.592 266.475 188.395 265.636 188.395 264.374V259.581H189.101V264.416C189.101 266.037 188.014 267.129 186.228 267.129Z" fill="#262626"/>
<path d="M190.486 267.011V259.581H191.186V266.372H194.909V267.011H190.486Z" fill="#262626"/>
<path d="M196.639 267.011V260.219H194.188V259.581H199.8V260.219H197.344V267.011H196.639Z" fill="#262626"/>
<path d="M203.569 267.129C201.783 267.129 200.691 266.037 200.691 264.416V259.581H201.391V264.374C201.391 265.636 202.205 266.475 203.569 266.475C204.934 266.475 205.737 265.636 205.737 264.374V259.581H206.443V264.416C206.443 266.037 205.356 267.129 203.569 267.129Z" fill="#262626"/>
<path d="M207.828 267.011V259.581H210.449C211.901 259.581 212.827 260.43 212.827 261.754V261.764C212.827 262.809 212.225 263.597 211.236 263.854L213.038 267.011H212.215L210.505 263.968C210.464 263.968 210.402 263.968 210.356 263.968H208.528V267.011H207.828ZM208.528 263.345H210.392C211.468 263.345 212.101 262.768 212.101 261.779V261.769C212.101 260.791 211.442 260.209 210.366 260.209H208.528V263.345Z" fill="#262626"/>
<path d="M213.399 267.011L216.2 259.581H216.895L219.691 267.011H218.95L218.121 264.735H214.974L214.146 267.011H213.399ZM216.54 260.441L215.196 264.127H217.899L216.555 260.441H216.54Z" fill="#262626"/>
<path d="M220.505 267.011V259.581H221.205V266.372H224.928V267.011H220.505Z" fill="#262626"/>
<path d="M230.221 267.129C228.789 267.129 227.796 266.279 227.796 265.075V265.069C227.796 264.235 228.259 263.581 229.237 263.061L229.623 262.855C228.903 262.073 228.619 261.625 228.614 261.079V261.074C228.614 260.162 229.407 259.467 230.447 259.467C231.487 259.467 232.26 260.137 232.26 261.069V261.074C232.26 261.79 231.807 262.351 230.586 263.005L232.63 265.167C232.939 264.606 233.104 263.88 233.104 263.036V262.83H233.758V263.036C233.758 264.071 233.511 264.972 233.078 265.641L234.345 266.985V267.011H233.485L232.677 266.14C232.054 266.779 231.194 267.129 230.221 267.129ZM229.284 261.11C229.284 261.542 229.541 261.887 230.205 262.598C231.23 262.068 231.601 261.635 231.601 261.1V261.094C231.601 260.477 231.111 260.029 230.447 260.029C229.793 260.029 229.284 260.492 229.284 261.105V261.11ZM228.491 265.033C228.491 265.904 229.212 266.532 230.277 266.532C231.065 266.532 231.765 266.228 232.26 265.693L230.015 263.283L229.649 263.489C228.83 263.947 228.491 264.436 228.491 265.028V265.033Z" fill="#262626"/>
<path d="M239.695 267.129C238.119 267.129 237.048 266.331 236.956 265.075L236.95 265.003H237.656L237.661 265.075C237.764 265.929 238.557 266.475 239.731 266.475C240.895 266.475 241.646 265.924 241.646 265.064V265.059C241.646 264.328 241.183 263.921 240.04 263.664L239.226 263.484C237.785 263.159 237.136 262.536 237.136 261.481V261.475C237.141 260.296 238.197 259.462 239.669 259.462C241.101 259.462 242.141 260.296 242.228 261.517L242.233 261.589H241.528L241.523 261.522C241.415 260.652 240.699 260.116 239.649 260.116C238.578 260.116 237.852 260.657 237.852 261.455V261.465C237.852 262.155 238.336 262.577 239.412 262.814L240.225 263C241.749 263.339 242.367 263.932 242.367 265.028V265.033C242.367 266.305 241.327 267.129 239.695 267.129Z" fill="#262626"/>
<path d="M246.476 267.129C244.401 267.129 243.098 265.651 243.098 263.298V263.288C243.098 260.945 244.406 259.462 246.476 259.462C248.546 259.462 249.849 260.945 249.849 263.288V263.298C249.849 265.651 248.551 267.129 246.476 267.129ZM246.476 266.475C248.114 266.475 249.128 265.229 249.128 263.298V263.288C249.128 261.347 248.098 260.116 246.476 260.116C244.849 260.116 243.814 261.342 243.814 263.288V263.298C243.814 265.245 244.844 266.475 246.476 266.475Z" fill="#262626"/>
<path d="M254.004 267.129C251.965 267.129 250.647 265.62 250.647 263.293V263.288C250.647 260.955 251.955 259.462 254.004 259.462C255.544 259.462 256.681 260.41 256.96 261.8L256.97 261.851H256.264L256.233 261.759C255.95 260.755 255.162 260.116 254.004 260.116C252.397 260.116 251.368 261.357 251.368 263.288V263.293C251.368 265.219 252.408 266.475 254.004 266.475C255.157 266.475 255.94 265.842 256.249 264.786L256.264 264.74H256.97L256.96 264.791C256.681 266.192 255.549 267.129 254.004 267.129Z" fill="#262626"/>
<path d="M258.01 267.011V259.581H258.71V267.011H258.01Z" fill="#262626"/>
<path d="M259.524 267.011L262.325 259.581H263.02L265.816 267.011H265.074L264.245 264.735H261.099L260.27 267.011H259.524ZM262.665 260.441L261.321 264.127H264.024L262.68 260.441H262.665Z" fill="#262626"/>
<path d="M266.629 267.011V259.581H267.33V266.372H271.052V267.011H266.629Z" fill="#262626"/>
<path d="M185.805 297.305V289.875H186.506V293.181H190.851V289.875H191.557V297.305H190.851V293.819H186.506V297.305H185.805Z" fill="#262626"/>
<path d="M192.376 297.305L195.177 289.875H195.872L198.668 297.305H197.926L197.097 295.029H193.951L193.122 297.305H192.376ZM195.516 290.735L194.173 294.422H196.876L195.532 290.735H195.516Z" fill="#262626"/>
<path d="M199.481 297.305V289.875H200.176L204.543 296.116H204.568V289.875H205.263V297.305H204.568L200.202 291.065H200.176V297.305H199.481Z" fill="#262626"/>
<path d="M209.738 297.424C207.663 297.424 206.36 295.946 206.36 293.593V293.582C206.36 291.24 207.668 289.757 209.738 289.757C211.808 289.757 213.111 291.24 213.111 293.582V293.593C213.111 295.946 211.813 297.424 209.738 297.424ZM209.738 296.77C211.375 296.77 212.39 295.524 212.39 293.593V293.582C212.39 291.641 211.36 290.411 209.738 290.411C208.111 290.411 207.076 291.636 207.076 293.582V293.593C207.076 295.539 208.106 296.77 209.738 296.77Z" fill="#262626"/>
<path d="M214.207 297.305V289.875H214.908V297.305H214.207Z" fill="#262626"/>
<path d="M215.922 298.742L216.36 296.332H217.086L216.421 298.742H215.922Z" fill="#262626"/>
<path d="M222.199 297.305L219.418 289.875H220.165L222.538 296.445H222.559L224.938 289.875H225.679L222.899 297.305H222.199Z" fill="#262626"/>
<path d="M226.493 297.305V289.875H227.193V297.305H226.493Z" fill="#262626"/>
<path d="M228.583 297.305V289.875H233.068V290.514H229.284V293.186H232.878V293.814H229.284V296.667H233.068V297.305H228.583Z" fill="#262626"/>
<path d="M236.219 297.305V290.514H233.768V289.875H239.381V290.514H236.925V297.305H236.219Z" fill="#262626"/>
<path d="M240.272 297.305V289.875H240.967L245.333 296.116H245.359V289.875H246.054V297.305H245.359L240.992 291.065H240.967V297.305H240.272Z" fill="#262626"/>
<path d="M246.873 297.305L249.674 289.875H250.369L253.165 297.305H252.423L251.594 295.029H248.448L247.619 297.305H246.873ZM250.013 290.735L248.67 294.422H251.373L250.029 290.735H250.013Z" fill="#262626"/>
<path d="M253.978 297.305V289.875H254.787L257.541 296.42H257.572L260.327 289.875H261.135V297.305H260.476V291.198H260.44L257.861 297.305H257.248L254.673 291.198H254.637V297.305H253.978Z" fill="#262626"/>
<path d="M106.948 283.96C105.975 282.719 105.522 281.154 105.522 279.341C105.522 277.534 105.975 275.969 106.948 274.728H107.54C106.753 275.691 106.217 277.632 106.217 279.341C106.217 281.056 106.753 282.997 107.54 283.96H106.948Z" fill="#262626"/>
<path d="M108.457 282.158V274.728H109.152L113.518 280.968H113.544V274.728H114.239V282.158H113.544L109.178 275.917H109.152V282.158H108.457Z" fill="#262626"/>
<path d="M118.714 282.276C116.639 282.276 115.336 280.799 115.336 278.445V278.435C115.336 276.092 116.644 274.609 118.714 274.609C120.784 274.609 122.086 276.092 122.086 278.435V278.445C122.086 280.799 120.789 282.276 118.714 282.276ZM118.714 281.622C120.351 281.622 121.366 280.376 121.366 278.445V278.435C121.366 276.494 120.336 275.263 118.714 275.263C117.087 275.263 116.052 276.489 116.052 278.435V278.445C116.052 280.392 117.082 281.622 118.714 281.622Z" fill="#262626"/>
<path d="M123.183 282.158V274.728H123.878L128.245 280.968H128.27V274.728H128.965V282.158H128.27L123.904 275.917H123.878V282.158H123.183Z" fill="#262626"/>
<path d="M130.253 279.475V278.837H133.574V279.475H130.253Z" fill="#262626"/>
<path d="M134.861 282.158V274.728H137.389C138.805 274.728 139.773 275.65 139.773 277.029V277.04C139.773 278.42 138.805 279.357 137.389 279.357H135.561V282.158H134.861ZM137.224 275.356H135.561V278.729H137.224C138.368 278.729 139.058 278.095 139.058 277.045V277.035C139.058 275.989 138.368 275.356 137.224 275.356Z" fill="#262626"/>
<path d="M140.782 282.158V274.728H143.403C144.855 274.728 145.782 275.577 145.782 276.901V276.911C145.782 277.956 145.18 278.744 144.191 279.002L145.993 282.158H145.169L143.46 279.115C143.419 279.115 143.357 279.115 143.311 279.115H141.483V282.158H140.782ZM141.483 278.492H143.347C144.423 278.492 145.056 277.915 145.056 276.926V276.916C145.056 275.938 144.397 275.356 143.321 275.356H141.483V278.492Z" fill="#262626"/>
<path d="M150.009 282.276C147.934 282.276 146.632 280.799 146.632 278.445V278.435C146.632 276.092 147.94 274.609 150.009 274.609C152.079 274.609 153.382 276.092 153.382 278.435V278.445C153.382 280.799 152.085 282.276 150.009 282.276ZM150.009 281.622C151.647 281.622 152.661 280.376 152.661 278.445V278.435C152.661 276.494 151.631 275.263 150.009 275.263C148.382 275.263 147.347 276.489 147.347 278.435V278.445C147.347 280.392 148.377 281.622 150.009 281.622Z" fill="#262626"/>
<path d="M154.479 282.158V274.728H158.902V275.366H155.179V278.157H158.598V278.785H155.179V282.158H154.479Z" fill="#262626"/>
<path d="M159.947 282.158V274.728H160.647V282.158H159.947Z" fill="#262626"/>
<path d="M163.989 282.158V275.366H161.538V274.728H167.151V275.366H164.694V282.158H163.989Z" fill="#262626"/>
<path d="M204.805 282.158V274.728H207.333C208.749 274.728 209.717 275.65 209.717 277.029V277.04C209.717 278.42 208.749 279.357 207.333 279.357H205.505V282.158H204.805ZM207.169 275.356H205.505V278.729H207.169C208.312 278.729 209.002 278.095 209.002 277.045V277.035C209.002 275.989 208.312 275.356 207.169 275.356Z" fill="#262626"/>
<path d="M210.727 282.158V274.728H213.347C214.799 274.728 215.726 275.577 215.726 276.901V276.911C215.726 277.956 215.124 278.744 214.135 279.002L215.937 282.158H215.114L213.404 279.115C213.363 279.115 213.301 279.115 213.255 279.115H211.427V282.158H210.727ZM211.427 278.492H213.291C214.367 278.492 215 277.915 215 276.926V276.916C215 275.938 214.341 275.356 213.265 275.356H211.427V278.492Z" fill="#262626"/>
<path d="M219.954 282.276C217.879 282.276 216.576 280.799 216.576 278.445V278.435C216.576 276.092 217.884 274.609 219.954 274.609C222.023 274.609 223.326 276.092 223.326 278.435V278.445C223.326 280.799 222.029 282.276 219.954 282.276ZM219.954 281.622C221.591 281.622 222.605 280.376 222.605 278.445V278.435C222.605 276.494 221.576 275.263 219.954 275.263C218.326 275.263 217.292 276.489 217.292 278.435V278.445C217.292 280.392 218.321 281.622 219.954 281.622Z" fill="#262626"/>
<path d="M225.906 282.276C224.619 282.276 223.939 281.463 223.867 280.433L223.862 280.361H224.562L224.567 280.418C224.629 281.066 225.031 281.622 225.901 281.622C226.817 281.622 227.332 281.066 227.332 280.078V274.728H228.032V280.093C228.032 281.452 227.234 282.276 225.906 282.276Z" fill="#262626"/>
<path d="M229.428 282.158V274.728H233.913V275.366H230.128V278.039H233.722V278.667H230.128V281.519H233.913V282.158H229.428Z" fill="#262626"/>
<path d="M238.171 282.276C236.132 282.276 234.814 280.768 234.814 278.44V278.435C234.814 276.103 236.121 274.609 238.171 274.609C239.71 274.609 240.848 275.557 241.126 276.947L241.137 276.999H240.431L240.4 276.906C240.117 275.902 239.329 275.263 238.171 275.263C236.564 275.263 235.534 276.504 235.534 278.435V278.44C235.534 280.366 236.575 281.622 238.171 281.622C239.324 281.622 240.107 280.989 240.416 279.934L240.431 279.887H241.137L241.126 279.939C240.848 281.339 239.715 282.276 238.171 282.276Z" fill="#262626"/>
<path d="M243.799 282.158V275.366H241.348V274.728H246.96V275.366H244.504V282.158H243.799Z" fill="#262626"/>
<path d="M286.999 282.276C285.423 282.276 284.352 281.478 284.26 280.222L284.254 280.15H284.96L284.965 280.222C285.068 281.077 285.861 281.622 287.035 281.622C288.199 281.622 288.95 281.071 288.95 280.212V280.206C288.95 279.475 288.487 279.068 287.344 278.811L286.53 278.631C285.089 278.306 284.44 277.683 284.44 276.628V276.623C284.445 275.444 285.5 274.609 286.973 274.609C288.404 274.609 289.445 275.444 289.532 276.664L289.537 276.736H288.832L288.827 276.669C288.719 275.799 288.003 275.263 286.952 275.263C285.881 275.263 285.155 275.804 285.155 276.602V276.612C285.155 277.302 285.639 277.725 286.716 277.961L287.529 278.147C289.053 278.487 289.671 279.079 289.671 280.176V280.181C289.671 281.452 288.631 282.276 286.999 282.276Z" fill="#262626"/>
<path d="M292.812 274.728L290.66 283.96H290.006L292.158 274.728H292.812Z" fill="#262626"/>
<path d="M293.605 282.158V274.728H294.3L298.666 280.968H298.692V274.728H299.387V282.158H298.692L294.326 275.917H294.3V282.158H293.605Z" fill="#262626"/>
<path d="M303.841 282.276C301.802 282.276 300.484 280.768 300.484 278.44V278.435C300.484 276.103 301.792 274.609 303.841 274.609C305.381 274.609 306.519 275.557 306.797 276.947L306.807 276.999H306.102L306.071 276.906C305.788 275.902 305 275.263 303.841 275.263C302.235 275.263 301.205 276.504 301.205 278.435V278.44C301.205 280.366 302.245 281.622 303.841 281.622C304.995 281.622 305.777 280.989 306.086 279.934L306.102 279.887H306.807L306.797 279.939C306.519 281.339 305.386 282.276 303.841 282.276Z" fill="#262626"/>
<path d="M307.847 282.158V274.728H312.332V275.366H308.547V278.039H312.141V278.667H308.547V281.519H312.332V282.158H307.847Z" fill="#262626"/>
<path d="M315.627 282.158V281.664L318.253 278.904C319.319 277.797 319.582 277.349 319.582 276.7V276.69C319.577 275.85 318.918 275.227 318.011 275.227C317.018 275.227 316.297 275.902 316.276 276.772L316.271 276.813H315.591V276.767C315.612 275.526 316.657 274.609 317.996 274.609C319.319 274.609 320.282 275.505 320.282 276.659V276.669C320.282 277.467 319.911 278.075 318.593 279.434L316.606 281.504V281.53H320.473V282.158H315.627Z" fill="#262626"/>
<path d="M324.072 282.276C322.393 282.276 321.389 280.799 321.389 278.451V278.435C321.389 276.082 322.393 274.609 324.072 274.609C325.75 274.609 326.759 276.087 326.759 278.435V278.451C326.759 280.804 325.75 282.276 324.072 282.276ZM324.072 281.658C325.318 281.658 326.054 280.418 326.054 278.451V278.435C326.054 276.458 325.318 275.232 324.072 275.232C322.826 275.232 322.094 276.463 322.094 278.435V278.451C322.094 280.423 322.826 281.658 324.072 281.658Z" fill="#262626"/>
<path d="M327.779 282.158V281.664L330.405 278.904C331.471 277.797 331.733 277.349 331.733 276.7V276.69C331.728 275.85 331.069 275.227 330.163 275.227C329.169 275.227 328.448 275.902 328.428 276.772L328.423 276.813H327.743V276.767C327.763 275.526 328.809 274.609 330.147 274.609C331.471 274.609 332.434 275.505 332.434 276.659V276.669C332.434 277.467 332.063 278.075 330.745 279.434L328.757 281.504V281.53H332.624V282.158H327.779Z" fill="#262626"/>
<path d="M336.115 282.276C334.622 282.276 333.664 281.432 333.551 280.289L333.546 280.232H334.225L334.231 280.279C334.334 281.082 335.034 281.658 336.115 281.658C337.186 281.658 337.943 281.03 337.943 280.15V280.139C337.943 279.166 337.212 278.61 336.033 278.61H335.137V278.008H336.002C336.991 278.008 337.68 277.421 337.68 276.602V276.592C337.68 275.758 337.068 275.227 336.089 275.227C335.132 275.227 334.467 275.768 334.385 276.556L334.38 276.607H333.7L333.705 276.556C333.819 275.413 334.735 274.609 336.089 274.609C337.459 274.609 338.391 275.402 338.391 276.509V276.52C338.391 277.436 337.753 278.08 336.805 278.27V278.291C337.912 278.379 338.659 279.068 338.659 280.124V280.134C338.659 281.365 337.583 282.276 336.115 282.276Z" fill="#262626"/>
<path d="M339.992 283.96H339.4C340.188 282.997 340.724 281.051 340.724 279.341C340.724 277.632 340.188 275.691 339.4 274.728H339.992C340.966 275.969 341.419 277.534 341.419 279.341C341.419 281.154 340.966 282.724 339.992 283.96Z" fill="#262626"/>
<path d="M64.9628 210.517C64.9628 210.541 64.9748 210.721 64.9988 211.058L62.7267 211.311V235.077L65.3595 235.222C65.3595 235.246 65.3474 235.426 65.3234 235.763L58.1104 235.799C58.1104 235.582 58.1224 235.414 58.1464 235.294L60.0218 235.041C60.2623 235.017 60.4065 234.861 60.4546 234.573V223.609H48.1564V235.077L50.8252 235.222C50.8252 235.246 50.8132 235.426 50.7891 235.763L43.54 235.799L43.5761 235.294L45.4515 235.041C45.6919 235.017 45.8362 234.873 45.8843 234.609V211.743C45.8362 211.455 45.6919 211.298 45.4515 211.274L43.5761 211.094L43.54 210.553L50.7891 210.517C50.7891 210.541 50.8012 210.721 50.8252 211.058L48.1564 211.311V222.887H60.4546V211.779C60.4065 211.467 60.2623 211.298 60.0218 211.274L58.1464 211.094C58.1224 210.95 58.1104 210.77 58.1104 210.553L64.9628 210.517Z" fill="#262626"/>
<path d="M66.6232 235.799L66.6592 235.294L68.5346 235.041C68.7029 235.017 68.8472 234.861 68.9674 234.573L76.7575 210.517H79.1378L87.4328 235.077L89.9213 235.222C89.9213 235.246 89.9092 235.426 89.8852 235.763L82.6722 235.799C82.6722 235.582 82.6842 235.414 82.7082 235.294L84.5836 235.041C84.776 235.017 84.8721 234.873 84.8721 234.609L82.8886 228.73H71.6362L69.7248 235.005L73.9083 235.222C73.9083 235.246 73.8963 235.426 73.8723 235.763L66.6232 235.799ZM77.0099 211.202L71.8526 228.009H82.6361L77.0099 211.202Z" fill="#262626"/>
<path d="M91.1616 211.058L91.1976 210.517H96.1386L110.168 234.753L109.988 211.779C109.891 211.539 109.759 211.407 109.591 211.383L106.273 211.094C106.249 210.95 106.237 210.77 106.237 210.553L113.089 210.517C113.089 210.541 113.101 210.721 113.125 211.058L110.817 211.311V235.763H108.184L94.155 211.527L94.3353 235.005L98.4467 235.222C98.4467 235.246 98.4347 235.426 98.4107 235.763L91.1616 235.799L91.1976 235.294L93.073 235.041C93.3135 235.017 93.4577 234.861 93.5058 234.573V211.743C93.4577 211.455 93.3135 211.298 93.073 211.274L91.1616 211.058Z" fill="#262626"/>
<path d="M115.811 223.212C115.811 219.245 116.821 216.083 118.841 213.727C120.884 211.371 123.421 210.192 126.45 210.192C133.543 210.192 137.09 214.532 137.09 223.212C137.09 227.203 136.08 230.353 134.06 232.661C132.041 234.945 129.504 236.087 126.45 236.087C119.358 236.087 115.811 231.796 115.811 223.212ZM118.264 223.14C118.264 231.291 120.993 235.366 126.45 235.366C128.807 235.366 130.754 234.284 132.293 232.12C133.856 229.956 134.637 226.963 134.637 223.14C134.637 214.989 131.908 210.914 126.45 210.914C124.118 210.914 122.171 212.008 120.608 214.196C119.045 216.384 118.264 219.365 118.264 223.14Z" fill="#262626"/>
<path d="M139.628 235.799L139.664 235.294L141.54 235.041C141.78 235.017 141.925 234.861 141.973 234.573H142.009V211.779H141.973C141.925 211.467 141.78 211.298 141.54 211.274L139.664 211.094L139.628 210.553L146.877 210.517C146.877 210.541 146.889 210.721 146.914 211.058L144.461 211.274V235.077L146.914 235.222C146.914 235.246 146.902 235.426 146.877 235.763L139.628 235.799Z" fill="#262626"/>
<path d="M151.201 214.592L151.237 211.924C151.237 210.938 151.225 210.289 151.201 209.976H150.84L152.066 209.868C152.066 210.325 152.054 210.818 152.03 211.347C152.006 211.876 151.982 212.344 151.958 212.753C151.958 213.162 151.946 213.547 151.922 213.907C151.898 214.244 151.874 214.616 151.85 215.025L151.201 215.097V214.592Z" fill="#262626"/>
<path d="M163.631 235.077C165.41 235.077 166.973 234.561 168.32 233.527C169.666 232.469 170.339 230.87 170.339 228.73C170.339 227.768 170.099 226.951 169.618 226.278C169.161 225.58 168.548 225.051 167.779 224.691C167.009 224.306 166.168 223.981 165.254 223.717C164.34 223.428 163.427 223.128 162.513 222.815C161.599 222.503 160.758 222.13 159.989 221.697C159.219 221.265 158.594 220.651 158.113 219.858C157.656 219.065 157.428 218.115 157.428 217.009C157.428 215.085 158.089 213.51 159.412 212.284C160.734 211.058 162.501 210.445 164.713 210.445C166.925 210.445 169.041 210.697 171.061 211.202L171.457 215.71L170.772 215.999L170.411 213.15C168.632 211.827 166.961 211.166 165.398 211.166C163.836 211.166 162.525 211.647 161.467 212.609C160.409 213.547 159.88 214.965 159.88 216.865C159.88 217.971 160.325 218.848 161.215 219.497C162.104 220.146 163.174 220.651 164.425 221.012C165.699 221.373 166.961 221.781 168.211 222.238C169.486 222.695 170.568 223.464 171.457 224.546C172.347 225.628 172.792 227.035 172.792 228.766C172.792 231.098 171.962 232.853 170.303 234.032C168.644 235.21 166.456 235.799 163.739 235.799C161.022 235.799 158.666 235.065 156.671 233.599L156.707 229.776L157.392 229.596L157.464 231.651C158.113 232.565 159.003 233.37 160.133 234.068C161.263 234.741 162.429 235.077 163.631 235.077Z" fill="#262626"/>
<path d="M232.93 211.058L232.966 210.517H237.727L246.347 228.802L254.822 210.517H259.582C259.582 210.565 259.594 210.649 259.619 210.77C259.643 210.89 259.643 210.986 259.619 211.058L257.707 211.274C257.467 211.298 257.322 211.455 257.274 211.743V235.077L259.943 235.222C259.943 235.246 259.931 235.426 259.907 235.763L252.658 235.799L252.694 235.294L254.569 235.041C254.81 235.017 254.954 234.873 255.002 234.609V211.815L246.779 229.596L246.058 231.038H245.229L236.104 211.779V235.005L240.215 235.222C240.215 235.246 240.203 235.426 240.179 235.763L232.93 235.799L232.966 235.294L234.842 235.041C235.082 235.017 235.226 234.861 235.275 234.573V211.743C235.226 211.455 235.082 211.298 234.842 211.274L232.93 211.058Z" fill="#262626"/>
<path d="M262.205 211.058L262.241 210.517H277.677L277.641 210.625L278.11 215.71L277.388 215.999L276.811 211.238H267.001V222.887H275.621C275.741 222.911 275.849 222.887 275.946 222.815C276.042 222.719 276.09 222.599 276.09 222.455L276.234 219.966L276.811 219.894V226.061C276.787 226.061 276.607 226.073 276.27 226.097L276.126 223.609H267.001V235.041H277.785L278.47 229.271L279.155 229.451L278.614 235.763H269.454L262.205 235.799L262.241 235.294L264.116 235.041C264.357 235.017 264.501 234.861 264.549 234.573V211.743C264.501 211.455 264.357 211.298 264.116 211.274L262.205 211.058Z" fill="#262626"/>
<path d="M281.076 211.058L281.112 210.517H285.873L294.492 228.802L302.967 210.517H307.728C307.728 210.565 307.74 210.649 307.764 210.77C307.788 210.89 307.788 210.986 307.764 211.058L305.853 211.274C305.612 211.298 305.468 211.455 305.42 211.743V235.077L308.089 235.222C308.089 235.246 308.077 235.426 308.053 235.763L300.804 235.799L300.84 235.294L302.715 235.041C302.955 235.017 303.1 234.873 303.148 234.609V211.815L294.925 229.596L294.204 231.038H293.374L284.25 211.779V235.005L288.361 235.222C288.361 235.246 288.349 235.426 288.325 235.763L281.076 235.799L281.112 235.294L282.987 235.041C283.228 235.017 283.372 234.861 283.42 234.573V211.743C283.372 211.455 283.228 211.298 282.987 211.274L281.076 211.058Z" fill="#262626"/>
<path d="M310.416 223.212C310.416 219.245 311.426 216.083 313.445 213.727C315.489 211.371 318.026 210.192 321.055 210.192C328.148 210.192 331.694 214.532 331.694 223.212C331.694 227.203 330.684 230.353 328.665 232.661C326.645 234.945 324.109 236.087 321.055 236.087C313.962 236.087 310.416 231.796 310.416 223.212ZM312.868 223.14C312.868 231.291 315.597 235.366 321.055 235.366C323.411 235.366 325.359 234.284 326.898 232.12C328.46 229.956 329.242 226.963 329.242 223.14C329.242 214.989 326.513 210.914 321.055 210.914C318.723 210.914 316.775 212.008 315.212 214.196C313.65 216.384 312.868 219.365 312.868 223.14Z" fill="#262626"/>
<path d="M334.125 211.058L334.161 210.517H342.925C345.401 210.517 347.313 211.058 348.659 212.14C350.005 213.222 350.679 214.833 350.679 216.973C350.679 218.367 350.138 219.822 349.056 221.337C347.998 222.851 347 223.825 346.062 224.258L352.734 235.114L354.502 235.222C354.502 235.246 354.49 235.426 354.465 235.763L350.534 235.799L343.682 224.691H338.885V235.077L341.41 235.222C341.41 235.246 341.398 235.426 341.374 235.763L334.125 235.799L334.161 235.294L336.036 235.041C336.204 235.017 336.337 234.909 336.433 234.717V211.635C336.361 211.419 336.228 211.298 336.036 211.274L334.125 211.058ZM342.744 211.058H338.885V224.15H345.052C346.303 222.731 347.144 221.481 347.577 220.399C348.01 219.293 348.226 218.223 348.226 217.189C348.226 215.169 347.757 213.643 346.82 212.609C345.882 211.575 344.523 211.058 342.744 211.058Z" fill="#262626"/>
<path d="M356.668 235.799L356.704 235.294L358.579 235.041C358.82 235.017 358.964 234.861 359.012 234.573H359.048V211.779H359.012C358.964 211.467 358.82 211.298 358.579 211.274L356.704 211.094L356.668 210.553L363.917 210.517C363.917 210.541 363.929 210.721 363.953 211.058L361.501 211.274V235.077L363.953 235.222C363.953 235.246 363.941 235.426 363.917 235.763L356.668 235.799Z" fill="#262626"/>
<path d="M365.584 235.799L365.62 235.294L367.496 235.041C367.664 235.017 367.808 234.861 367.928 234.573L375.719 210.517H378.099L386.394 235.077L388.882 235.222C388.882 235.246 388.87 235.426 388.846 235.763L381.633 235.799C381.633 235.582 381.645 235.414 381.669 235.294L383.545 235.041C383.737 235.017 383.833 234.873 383.833 234.609L381.85 228.73H370.597L368.686 235.005L372.869 235.222C372.869 235.246 372.857 235.426 372.833 235.763L365.584 235.799ZM375.971 211.202L370.814 228.009H381.597L375.971 211.202Z" fill="#262626"/>
<path d="M397.552 210.517C397.552 210.541 397.564 210.721 397.588 211.058L395.1 211.274V235.041H405.054L405.775 229.271L406.46 229.451L405.919 235.763H397.552L390.303 235.799L390.339 235.294L392.214 235.041C392.455 235.017 392.599 234.861 392.647 234.573V211.743C392.599 211.455 392.455 211.298 392.214 211.274L390.339 211.094L390.303 210.553L397.552 210.517Z" fill="#262626"/>
<path d="M179.934 213.806C178.501 215.758 177.512 217.876 176.97 220.161C176.699 221.327 176.477 222.493 176.303 223.657C176.129 224.822 175.996 226.006 175.905 227.21C175.814 228.413 175.701 229.598 175.564 230.765C175.427 231.932 175.265 233.1 175.08 234.267C174.97 234.856 174.846 235.436 174.708 236.008C174.581 236.577 174.433 237.139 174.266 237.694C174.079 238.267 173.872 238.833 173.645 239.392C173.419 239.951 173.166 240.505 172.887 241.054L172.991 241.099C174.133 239.918 175.216 238.789 176.24 237.712C177.261 236.624 178.23 235.569 179.147 234.545C180.355 233.201 181.411 231.927 182.316 230.724C183.23 229.507 184.008 228.351 184.65 227.255C185.904 225.084 186.76 223.177 187.219 221.534C187.444 220.696 187.61 219.929 187.715 219.232C187.831 218.533 187.879 217.894 187.857 217.316C187.805 216.212 187.696 215.397 187.53 214.87C186.942 214.808 186.578 214.469 186.437 213.85C186.223 213.008 186.557 212.438 187.437 212.142C188.038 211.981 188.51 212.061 188.851 212.383C189.171 212.759 189.42 213.282 189.599 213.951C189.949 215.303 189.885 216.876 189.405 218.67C189.139 219.58 188.81 220.507 188.418 221.45C188.024 222.382 187.553 223.347 187.006 224.345C184.717 228.41 182.014 232.069 178.899 235.322C177.783 236.509 176.642 237.714 175.475 238.938C174.316 240.148 173.117 241.387 171.876 242.655L171.644 242.535C172.385 240.404 172.866 238.161 173.085 235.805C173.179 234.613 173.276 233.432 173.376 232.263C173.476 231.094 173.574 229.919 173.671 228.738C173.853 226.331 174.281 224.029 174.956 221.83C175.586 219.644 176.701 217.638 178.302 215.811L178.216 215.761C177.812 216.113 177.369 216.456 176.888 216.792C176.651 216.952 176.407 217.109 176.157 217.261C175.906 217.413 175.649 217.567 175.387 217.722C174.837 218.028 174.288 218.339 173.741 218.656C173.205 218.969 172.664 219.285 172.116 219.601C171.947 219.695 171.774 219.797 171.596 219.905C171.427 219.999 171.242 220.103 171.042 220.218C170.848 220.355 170.653 220.492 170.459 220.629C170.276 220.763 170.084 220.906 169.881 221.057C169.499 221.354 169.128 221.672 168.77 222.011C168.408 222.339 168.066 222.698 167.745 223.088C167.097 223.797 166.612 224.595 166.291 225.483C165.964 226.397 165.932 227.342 166.193 228.317C166.409 229.122 166.841 229.669 167.489 229.957C168.079 230.297 168.737 230.37 169.462 230.176C170.347 229.939 171.024 229.405 171.494 228.574C172.014 227.791 172.145 226.898 171.889 225.897C171.831 225.682 171.77 225.474 171.704 225.273C171.638 225.072 171.567 224.878 171.493 224.691L171.884 224.586C172.038 224.934 172.188 225.356 172.333 225.852C172.571 226.833 172.428 227.795 171.903 228.738C171.378 229.681 170.567 230.305 169.47 230.611C168.494 230.873 167.6 230.802 166.788 230.4C165.964 230.001 165.421 229.314 165.16 228.339C164.868 227.25 164.908 226.243 165.28 225.317C165.606 224.403 166.132 223.575 166.857 222.834C167.574 222.107 168.365 221.433 169.232 220.812C169.669 220.537 170.075 220.282 170.45 220.048C170.836 219.811 171.206 219.584 171.562 219.367C172.174 219.021 172.828 218.651 173.525 218.258C174.233 217.861 174.993 217.433 175.806 216.972C177.406 216.094 178.682 215.004 179.634 213.704L179.934 213.806Z" fill="#262626"/>
<path d="M204.568 224.16C203.719 225.846 202.593 226.883 201.19 227.271C200.555 227.441 199.97 227.434 199.434 227.25C198.874 227.108 198.41 226.874 198.043 226.547L197.975 226.565C197.915 228.611 197.224 230.771 195.901 233.046C195.25 234.156 194.485 235.109 193.604 235.904C192.721 236.736 191.732 237.311 190.638 237.628C189.657 237.867 188.834 237.765 188.168 237.324C187.477 236.877 187.006 236.183 186.754 235.241C186.538 234.436 186.575 233.418 186.865 232.185C187.116 231.036 187.577 229.831 188.248 228.57C188.91 227.323 189.733 226.221 190.717 225.265C191.683 224.289 192.776 223.631 193.998 223.291C194.951 223.036 195.765 223.104 196.441 223.494C197.131 223.892 197.605 224.549 197.862 225.465C198.062 225.983 198.447 226.402 199.019 226.723C199.609 227.063 200.289 227.13 201.06 226.923C202.472 226.521 203.535 225.567 204.25 224.063L204.568 224.16ZM188.848 235.574C189.194 236.866 189.834 237.394 190.767 237.156C191.72 236.901 192.549 236.277 193.256 235.286C193.972 234.377 194.551 233.292 194.991 232.032C195.971 229.338 196.23 227.039 195.768 225.133C195.47 224.021 194.816 223.577 193.806 223.799C193.057 223.999 192.339 224.538 191.65 225.416C191.004 226.269 190.418 227.326 189.892 228.585C189.383 229.815 189.025 231.041 188.818 232.264C188.58 233.506 188.59 234.61 188.848 235.574Z" fill="#262626"/>
<path d="M207.462 219.994C206.684 222.123 206.024 223.946 205.483 225.465C204.942 226.983 204.516 228.209 204.208 229.143C203.541 231.011 203.295 232.225 203.47 232.786C203.608 233.393 203.933 233.628 204.443 233.492C205.157 233.3 205.916 232.708 206.72 231.715C207.532 230.756 208.304 229.643 209.034 228.378C209.828 226.986 210.474 225.744 210.971 224.651C211.476 223.543 211.83 222.573 212.033 221.741L212.372 221.85C211.856 223.69 210.803 225.996 209.212 228.768C208.462 230.051 207.669 231.175 206.834 232.14C205.979 233.123 205.122 233.735 204.263 233.977C203.648 234.13 203.149 234.081 202.766 233.832C202.363 233.599 202.101 233.256 201.98 232.803C201.73 231.873 201.886 230.549 202.447 228.831C202.725 227.966 203.095 226.852 203.557 225.489C204.018 224.125 204.577 222.493 205.234 220.591L207.462 219.994ZM207.75 212.97C208.079 212.882 208.373 212.913 208.632 213.062C208.899 213.246 209.076 213.496 209.161 213.814C209.339 214.568 209.074 215.053 208.365 215.267C207.637 215.45 207.159 215.165 206.933 214.411C206.848 214.093 206.892 213.784 207.067 213.482C207.193 213.229 207.421 213.059 207.75 212.97Z" fill="#262626"/>
<path d="M223.858 219.064C223.152 221.235 221.997 223.525 220.394 225.936C218.49 228.853 216.316 230.675 213.874 231.402C213.023 231.63 212.252 231.587 211.561 231.274C210.835 230.971 210.358 230.393 210.13 229.543C209.824 228.398 209.838 227.16 210.175 225.83C210.455 224.515 210.971 223.247 211.725 222.024C212.482 220.764 213.329 219.686 214.268 218.79C215.247 217.908 216.247 217.33 217.268 217.056C217.937 216.877 218.558 216.838 219.132 216.94C219.685 217.095 220.042 217.455 220.206 218.019C220.332 218.581 220.18 219.035 219.75 219.381C219.301 219.745 218.848 220.006 218.392 220.164C218.486 219.653 218.474 219.133 218.357 218.606C218.126 217.744 217.603 217.422 216.786 217.641C216.211 217.807 215.588 218.272 214.917 219.035C214.599 219.436 214.292 219.877 213.996 220.358C213.696 220.827 213.417 221.352 213.159 221.931C212.924 222.505 212.719 223.076 212.543 223.646C212.367 224.216 212.228 224.806 212.124 225.417C211.872 226.652 211.887 227.796 212.169 228.851C212.342 229.497 212.647 229.975 213.082 230.283C213.501 230.669 213.994 230.786 214.561 230.634C215.367 230.419 216.232 229.883 217.157 229.027C218.052 228.241 218.9 227.321 219.699 226.268C221.437 223.906 222.72 221.46 223.549 218.928L223.858 219.064Z" fill="#262626"/>
<path d="M229.48 215.279C229.284 214.639 228.897 214.396 228.319 214.551C227.865 214.673 227.404 214.991 226.934 215.505C226.487 216.014 226.047 216.642 225.616 217.39C224.79 218.936 224.249 220.363 223.992 221.672C224.569 221.42 225.162 221.073 225.773 220.63C226.395 220.183 227.045 219.639 227.723 218.995C228.379 218.357 228.867 217.728 229.186 217.108C229.526 216.47 229.624 215.86 229.48 215.279ZM235.624 215.62C235.052 217.839 233.855 220.287 232.032 222.963C231.141 224.223 230.168 225.329 229.11 226.28C228.041 227.235 226.897 227.888 225.679 228.239C223.657 228.769 222.378 228.078 221.842 226.168C221.569 225.147 221.592 223.986 221.912 222.685C222.231 221.384 222.74 220.13 223.437 218.922C224.194 217.662 225.041 216.584 225.98 215.688C226.933 214.801 227.919 214.215 228.936 213.93C230.167 213.624 230.913 213.935 231.173 214.862C231.313 215.383 231.158 215.984 230.708 216.664C230.258 217.343 229.646 218.03 228.872 218.724C227.187 220.147 225.539 221.276 223.927 222.109C223.629 223.222 223.635 224.399 223.943 225.641C224.089 226.185 224.352 226.668 224.732 227.089C225.153 227.523 225.663 227.66 226.264 227.499C227.081 227.28 227.931 226.779 228.815 225.995C229.255 225.597 229.681 225.167 230.092 224.705C230.511 224.228 230.936 223.707 231.368 223.141C233.157 220.79 234.468 218.245 235.302 215.506L235.624 215.62Z" fill="#262626"/>
<path fill-rule="evenodd" clip-rule="evenodd" d="M223.47 189.325C233.982 189.325 242.504 180.804 242.504 170.292C242.504 159.78 233.982 151.259 223.47 151.259C212.959 151.259 204.437 159.78 204.437 170.292C204.437 180.804 212.959 189.325 223.47 189.325ZM223.47 156.629C220.588 156.629 217.781 157.556 215.466 159.274C213.15 160.991 211.449 163.407 210.612 166.166C209.775 168.924 209.848 171.879 210.819 174.593C211.79 177.308 213.608 179.637 216.005 181.239C216.622 181.651 217.457 181.485 217.869 180.868C218.281 180.251 218.115 179.417 217.498 179.004C215.581 177.723 214.126 175.859 213.349 173.688C212.572 171.517 212.514 169.153 213.184 166.946C213.853 164.739 215.214 162.806 217.067 161.432C218.919 160.058 221.164 159.317 223.47 159.317C225.777 159.317 228.022 160.058 229.874 161.432C231.726 162.806 233.088 164.739 233.757 166.946C234.427 169.153 234.369 171.517 233.592 173.688C232.815 175.859 231.36 177.723 229.442 179.004C228.825 179.417 228.659 180.251 229.072 180.868C229.484 181.485 230.318 181.651 230.936 181.239C233.332 179.637 235.151 177.308 236.122 174.593C237.093 171.879 237.166 168.924 236.329 166.166C235.492 163.407 233.79 160.991 231.475 159.274C229.16 157.556 226.353 156.629 223.47 156.629ZM223.471 164.669C222.473 164.669 221.495 164.947 220.646 165.472C219.796 165.997 219.11 166.748 218.664 167.641C218.217 168.533 218.029 169.533 218.118 170.527C218.208 171.521 218.572 172.471 219.171 173.269C219.617 173.863 219.496 174.705 218.903 175.15C218.309 175.596 217.467 175.475 217.021 174.882C216.123 173.684 215.576 172.26 215.442 170.768C215.307 169.277 215.591 167.778 216.26 166.439C216.93 165.1 217.959 163.973 219.233 163.186C220.506 162.399 221.974 161.982 223.471 161.982C224.969 161.982 226.436 162.399 227.71 163.186C228.983 163.973 230.013 165.1 230.682 166.439C231.352 167.778 231.635 169.277 231.501 170.768C231.366 172.26 230.819 173.684 229.921 174.882C229.476 175.475 228.634 175.596 228.04 175.15C227.446 174.705 227.326 173.863 227.771 173.269C228.37 172.471 228.735 171.521 228.824 170.527C228.914 169.533 228.725 168.533 228.279 167.641C227.832 166.748 227.146 165.997 226.297 165.472C225.448 164.947 224.469 164.669 223.471 164.669ZM221.57 176.207C222.074 175.703 222.758 175.42 223.471 175.42C224.183 175.42 224.867 175.703 225.371 176.207C225.875 176.711 226.158 177.394 226.158 178.107C226.158 178.547 226.028 179.667 225.893 180.787C225.858 181.083 225.821 181.388 225.783 181.694C225.674 182.594 225.564 183.506 225.484 184.245C225.462 184.746 225.252 185.222 224.896 185.579C224.518 185.957 224.005 186.169 223.471 186.169C222.936 186.169 222.423 185.957 222.045 185.579C221.689 185.222 221.48 184.746 221.457 184.245C221.378 183.506 221.267 182.595 221.158 181.695C221.121 181.388 221.084 181.083 221.048 180.787C220.914 179.667 220.783 178.547 220.783 178.107C220.783 177.394 221.066 176.711 221.57 176.207ZM223.471 166.705L224.241 167.984L225.653 167.499L225.42 168.974L226.814 169.51L225.688 170.49L226.411 171.796L224.918 171.823L224.632 173.289L223.471 172.35L222.31 173.289L222.025 171.823L220.531 171.796L221.255 170.49L220.128 169.51L221.522 168.974L221.289 167.499L222.701 167.984L223.471 166.705Z" fill="#262626"/>
</svg>
