<svg width="450" height="450" viewBox="0 0 450 450" fill="none" xmlns="http://www.w3.org/2000/svg">
<rect x="0.5" y="0.5" width="449" height="449" fill="#EAEAEA"/>
<rect x="0.5" y="0.5" width="449" height="449" stroke="#262626"/>
<path d="M84.4037 182.277C84.4037 177.982 84.9963 173.87 86.1815 169.942C87.395 166.014 89.2858 162.793 91.8538 160.278C94.45 157.763 97.7095 156.506 101.632 156.506C106.034 156.506 110.239 157.904 114.246 160.702L114.924 160.278C114.839 156.972 114.43 153.977 113.696 151.292L105.103 150.741C104.708 150.232 104.398 149.484 104.172 148.495C103.946 147.477 103.833 146.432 103.833 145.358C103.833 143.917 104.003 142.673 104.341 141.628C106.034 140.413 108.207 139.494 110.86 138.873C113.513 138.251 116.165 137.94 118.818 137.94C121.753 137.94 123.968 138.562 125.464 139.805C126.96 141.02 127.961 142.871 128.469 145.358C129.006 147.816 129.274 151.236 129.274 155.615C129.274 161.38 129.034 167.922 128.554 175.241C128.074 182.559 127.454 188.536 126.692 193.17L126.522 193.891L131.433 191.771C132.251 192.647 132.971 193.721 133.591 194.993C134.24 196.236 134.65 197.677 134.819 199.316C134.424 200.164 133.563 201.252 132.237 202.58C130.91 203.88 129.288 205.038 127.369 206.056C125.45 207.073 123.446 207.582 121.358 207.582C119.016 207.582 117.21 206.889 115.94 205.505C114.698 204.092 114.077 202.297 114.077 200.122C114.077 199.556 114.218 198.398 114.5 196.646C114.811 194.894 115.065 193.679 115.262 193.001L113.993 192.619C112.553 197.677 110.648 201.436 108.278 203.894C105.907 206.352 102.973 207.582 99.4732 207.582C95.72 207.582 92.7145 206.338 90.4569 203.852C88.2275 201.337 86.6613 198.186 85.7582 194.399C84.8552 190.613 84.4037 186.572 84.4037 182.277ZM113.442 181.514C113.612 180.497 113.696 179.31 113.696 177.953C113.696 177.077 113.654 176.244 113.569 175.452C113.513 174.661 113.442 174.096 113.358 173.757C112.229 172.938 110.945 172.358 109.506 172.019C108.094 171.68 106.796 171.511 105.611 171.511C104.877 171.511 104.087 171.581 103.241 171.722C102.676 172.288 102.225 173.517 101.886 175.41C101.547 177.275 101.378 179.38 101.378 181.726C101.378 184.241 101.547 186.685 101.886 189.059C102.253 191.404 102.761 193.241 103.41 194.569C103.861 194.569 104.736 193.877 106.034 192.492C107.361 191.079 108.729 189.355 110.14 187.321C111.551 185.258 112.652 183.322 113.442 181.514Z" fill="#262626"/>
<path d="M138.691 145.909C138.691 143.422 139.495 141.402 141.104 139.848C142.741 138.293 145.337 137.516 148.893 137.516C152.448 137.516 155.031 138.293 156.639 139.848C158.276 141.402 159.094 143.422 159.094 145.909C159.094 147.322 158.6 148.622 157.613 149.809C156.653 150.995 155.383 151.942 153.803 152.648C152.223 153.327 150.586 153.666 148.893 153.666C147.058 153.666 145.351 153.27 143.771 152.479C142.219 151.659 140.977 150.642 140.046 149.427C139.143 148.212 138.691 147.039 138.691 145.909ZM136.617 170.154C136.25 168.77 135.996 167.512 135.855 166.382C135.714 165.223 135.643 164.022 135.643 162.779L135.686 161.592C136.278 160.829 137.195 160.066 138.437 159.303C139.707 158.512 141.174 157.848 142.839 157.311C144.533 156.774 146.282 156.506 148.088 156.506C152.039 156.506 154.847 157.396 156.512 159.176C158.177 160.956 159.01 163.725 159.01 167.484C159.01 169.744 158.685 172.697 158.036 176.343C157.415 179.988 156.653 183.534 155.75 186.982C154.875 190.401 154.113 192.845 153.464 194.315L153.549 194.399L159.814 192.11C160.943 193.071 161.789 194.131 162.354 195.289C162.946 196.448 163.327 197.79 163.497 199.316C163.497 199.514 162.876 200.334 161.634 201.775C160.392 203.188 158.741 204.516 156.681 205.759C154.65 206.974 152.293 207.582 149.612 207.582C146.903 207.582 144.702 206.847 143.009 205.378C141.344 203.908 140.511 201.393 140.511 197.833C140.511 193.679 140.624 189.271 140.85 184.608C141.076 179.945 141.428 175.424 141.908 171.044L136.617 170.154Z" fill="#262626"/>
<path d="M183.178 151.292C182.754 149.568 182.472 148.141 182.331 147.011C182.19 145.852 182.134 144.524 182.162 143.027C182.754 142.264 183.672 141.501 184.913 140.738C186.183 139.947 187.651 139.282 189.316 138.746C191.009 138.209 192.758 137.94 194.565 137.94C198.092 137.94 200.801 138.83 202.692 140.611C204.583 142.391 205.528 145.019 205.528 148.495C205.528 150.981 205.316 154.98 204.893 160.49C204.47 166 203.863 171.864 203.073 178.08C202.283 184.269 201.38 189.68 200.364 194.315L200.448 194.399L206.713 191.771C208.915 193.665 210.199 196.18 210.565 199.316C210.565 199.514 209.93 200.334 208.661 201.775C207.391 203.188 205.712 204.516 203.623 205.759C201.563 206.974 199.193 207.582 196.512 207.582C193.718 207.582 191.446 206.805 189.697 205.25C187.975 203.696 187.157 201.04 187.241 197.282L187.326 189.652C187.354 182.418 187.425 175.905 187.538 170.112C187.679 164.319 187.961 158.342 188.384 152.182L183.178 151.292Z" fill="#262626"/>
<path d="M212.66 170.197C212.18 168.134 211.869 166.622 211.728 165.661C211.587 164.7 211.517 163.245 211.517 161.295C213.182 159.713 214.974 158.526 216.893 157.735C218.812 156.915 220.97 156.506 223.369 156.506C230.65 156.506 234.29 160.165 234.29 167.484C234.29 169.434 234.107 171.694 233.74 174.266C233.401 176.837 232.908 180.073 232.258 183.972C232.174 184.481 231.948 185.851 231.581 188.084C231.214 190.316 230.96 192.181 230.819 193.679C231.299 194.187 231.892 194.541 232.597 194.738C232.936 194.738 233.712 194.046 234.925 192.662C236.167 191.249 237.493 189.539 238.904 187.533C240.315 185.526 241.472 183.676 242.375 181.98C242.601 177.939 242.912 174.223 243.307 170.832L238.862 169.942C238.495 168.529 238.241 167.286 238.1 166.212C237.959 165.138 237.888 163.994 237.888 162.779L237.931 161.592C238.947 160.292 240.471 159.119 242.502 158.074C244.534 157.028 246.862 156.506 249.487 156.506C256.768 156.506 260.408 160.165 260.408 167.484C260.408 170.451 259.914 174.365 258.927 179.225C257.939 184.057 256.782 188.946 255.455 193.891L260.323 191.771C261.142 192.647 261.861 193.721 262.482 194.993C263.131 196.236 263.541 197.677 263.71 199.316C263.315 200.164 262.454 201.252 261.128 202.58C259.801 203.88 258.179 205.038 256.26 206.056C254.341 207.073 252.337 207.582 250.249 207.582C247.907 207.582 246.1 206.889 244.831 205.505C243.589 204.092 242.968 202.297 242.968 200.122C242.968 199.556 243.109 198.398 243.391 196.646C243.702 194.894 243.956 193.679 244.153 193.001L242.968 192.619C241.557 197.564 239.61 201.294 237.126 203.809C234.671 206.324 231.863 207.582 228.703 207.582C224.159 207.582 220.956 206.084 219.094 203.089C217.231 200.065 216.3 196.321 216.3 191.856C216.3 183.464 216.582 176.456 217.147 170.832L212.66 170.197Z" fill="#262626"/>
<path d="M266.27 181.683C266.27 176.569 267.088 172.132 268.725 168.374C270.362 164.616 272.873 161.705 276.26 159.642C279.646 157.551 283.893 156.506 289.001 156.506C294.645 156.506 299.076 157.565 302.293 159.685C305.51 161.776 307.753 164.686 309.023 168.416C310.321 172.146 310.97 176.71 310.97 182.107C310.97 186.996 310.11 191.362 308.388 195.205C306.695 199.02 304.127 202.043 300.684 204.275C297.27 206.48 293.079 207.582 288.112 207.582C280.436 207.582 274.877 205.222 271.434 200.503C267.991 195.756 266.27 189.483 266.27 181.683ZM289.848 195.162C291.287 195.162 292.162 195.049 292.472 194.823C293.121 193.693 293.615 192.096 293.954 190.034C294.292 187.971 294.462 185.738 294.462 183.336C294.462 181.132 294.321 179.07 294.038 177.148C293.756 175.198 293.361 173.672 292.853 172.57C292.543 172.203 291.922 171.934 290.991 171.765C290.059 171.567 289.043 171.468 287.943 171.468C286.504 171.468 285.516 171.624 284.98 171.934C283.569 174.365 282.863 177.741 282.863 182.065C282.863 184.099 283.018 186.176 283.329 188.296C283.639 190.415 284.034 192.337 284.514 194.06C284.853 194.428 285.544 194.71 286.588 194.908C287.632 195.078 288.719 195.162 289.848 195.162Z" fill="#262626"/>
<path d="M319.753 191.983C319.753 187.377 319.809 183.902 319.922 181.556C320.035 179.183 320.331 175.707 320.811 171.129L315.901 170.493C315.308 168.656 314.913 167.018 314.715 165.576C314.546 164.135 314.461 162.27 314.461 159.981C314.913 159.586 315.661 159.119 316.705 158.583C317.777 158.017 319.047 157.537 320.515 157.141C321.982 156.718 323.464 156.506 324.959 156.506C328.374 156.506 330.787 157.24 332.198 158.71C333.637 160.179 334.357 162.383 334.357 165.322C334.357 166.961 334.117 169.179 333.637 171.977C332.847 176.47 332.452 178.829 332.452 179.055C332.452 179.197 332.551 179.338 332.748 179.479C332.946 179.592 333.157 179.649 333.383 179.649C333.637 179.649 333.806 179.55 333.891 179.352C335.02 174.859 336.149 171.101 337.277 168.077C338.406 165.054 340.114 162.369 342.399 160.024C344.685 157.678 347.648 156.506 351.289 156.506C355.804 156.506 359.049 157.89 361.025 160.66C363 163.401 363.988 166.862 363.988 171.044C363.988 174.774 363.55 178.377 362.676 181.853C361.801 185.3 360.714 188.903 359.416 192.662C359.473 192.52 359.275 193.071 358.824 194.315L358.908 194.399L365.088 191.856C367.29 193.749 368.574 196.264 368.94 199.401C368.94 199.599 368.306 200.404 367.036 201.817C365.794 203.23 364.143 204.544 362.083 205.759C360.023 206.974 357.652 207.582 354.971 207.582C352.291 207.582 350.104 206.861 348.41 205.42C346.717 203.979 345.871 201.52 345.871 198.045C345.871 195.275 345.983 191.574 346.209 186.939C346.435 182.305 346.661 178.575 346.886 175.749C346.153 174.958 345.25 174.534 344.177 174.478C343.19 175.749 341.736 178.292 339.817 182.107C337.898 185.922 336.544 188.776 335.754 190.669C335.697 191.065 335.669 191.446 335.669 191.814C335.669 193.227 335.881 195.134 336.304 197.536C336.727 199.91 337.249 202.128 337.87 204.191C337.362 205.151 336.318 205.957 334.738 206.607C333.157 207.257 331.21 207.582 328.896 207.582C326.808 207.582 325.129 207.412 323.859 207.073C322.617 206.734 321.742 206.381 321.234 206.013C320.726 205.618 320.472 205.378 320.472 205.293C320.444 205.038 320.374 204.374 320.261 203.301C320.148 202.199 320.035 200.673 319.922 198.723C319.809 196.745 319.753 194.498 319.753 191.983Z" fill="#262626"/>
<path d="M82.8686 266.791C82.8686 253.566 83.1226 244.495 83.6305 239.578L78.8472 238.731C78.1699 236.131 77.8313 233.333 77.8313 230.338C78.2546 229.801 79.0448 229.137 80.2018 228.346C81.3588 227.555 82.6993 226.862 84.2232 226.269C85.7753 225.676 87.3133 225.379 88.8372 225.379C92.6187 225.379 95.5536 226.198 97.6419 227.837C99.7584 229.476 100.817 232.274 100.817 236.23C100.817 238.208 100.676 241.246 100.393 245.343C100.111 249.412 99.589 254.357 98.8271 260.178C98.0652 265.999 97.0492 272.075 95.7793 278.405L96.4989 278.829C98.7283 275.748 100.873 272.358 102.933 268.656C104.993 264.926 106.63 261.464 107.843 258.271L104.203 257.381C103.864 255.459 103.695 253.185 103.695 250.557V249.031C104.767 247.674 106.235 246.487 108.097 245.47C109.988 244.453 112.33 243.944 115.124 243.944C117.128 243.944 118.863 244.326 120.331 245.089C121.798 245.823 122.927 246.855 123.717 248.183C124.507 249.511 124.903 251.037 124.903 252.761C124.903 254.061 124.705 255.29 124.31 256.448C123.915 257.579 123.322 258.78 122.532 260.051C120.5 263.273 116.959 267.85 111.907 273.785C113.6 276.158 115.251 278.221 116.86 279.973C117.481 279.662 118.059 279.252 118.595 278.744C119.16 278.235 119.879 277.5 120.754 276.54L121.685 275.565L126.892 279.507C126.695 284.537 125.608 288.38 123.633 291.036C121.685 293.664 119.103 294.978 115.886 294.978C112.359 294.978 109.706 293.904 107.928 291.757C106.15 289.609 104.852 286.571 104.034 282.643C100.93 286.006 98.1922 288.832 95.8217 291.121C93.4794 293.381 91.9414 294.681 91.2077 295.02C89.6555 295.02 88.174 294.837 86.763 294.469C85.352 294.102 84.3078 293.523 83.6305 292.731C83.3201 288.719 83.1085 284.749 82.9956 280.821C82.9109 276.865 82.8686 272.188 82.8686 266.791Z" fill="#262626"/>
<path d="M132.923 266.621C132.923 253.51 133.177 244.495 133.685 239.578L128.902 238.731C128.224 236.131 127.886 233.333 127.886 230.338C128.309 229.801 129.099 229.137 130.256 228.346C131.413 227.555 132.754 226.862 134.278 226.269C135.83 225.676 137.368 225.379 138.891 225.379C142.363 225.379 144.945 226.269 146.638 228.049C148.331 229.829 149.178 232.556 149.178 236.23C149.178 237.841 149.037 240.44 148.754 244.029C148.472 247.59 148.063 251.418 147.527 255.516C146.991 259.585 146.37 263.216 145.664 266.409C145.664 266.579 145.763 266.734 145.961 266.875C146.158 267.017 146.37 267.087 146.596 267.087C146.85 267.087 147.019 266.989 147.104 266.791C148.232 262.298 149.361 258.539 150.49 255.516C151.619 252.492 153.326 249.808 155.612 247.462C157.898 245.117 160.861 243.944 164.501 243.944C169.017 243.944 172.262 245.329 174.237 248.098C176.213 250.839 177.2 254.301 177.2 258.483C177.2 262.213 176.763 265.816 175.888 269.292C175.013 272.739 173.927 276.342 172.629 280.1C172.685 279.959 172.488 280.51 172.036 281.753L172.121 281.838L178.386 279.21C180.587 281.103 181.871 283.618 182.238 286.755C182.238 286.953 181.603 287.772 180.333 289.213C179.063 290.626 177.384 291.954 175.296 293.198C173.235 294.413 170.865 295.02 168.184 295.02C165.503 295.02 163.316 294.3 161.623 292.859C159.93 291.417 159.083 288.959 159.083 285.483C159.083 282.714 159.196 279.012 159.422 274.378C159.647 269.744 159.873 266.014 160.099 263.188C159.365 262.397 158.462 261.973 157.39 261.916C156.402 263.188 154.949 265.731 153.03 269.546C151.111 273.361 149.756 276.215 148.966 278.108C148.91 278.504 148.881 278.885 148.881 279.252C148.881 280.665 149.093 282.573 149.516 284.975C149.94 287.348 150.462 289.567 151.083 291.629C150.575 292.59 149.531 293.395 147.95 294.045C146.37 294.695 144.423 295.02 142.109 295.02C140.02 295.02 138.341 294.851 137.071 294.512C135.83 294.173 134.955 293.819 134.447 293.452C133.939 293.056 133.685 292.816 133.685 292.731C133.657 292.477 133.586 291.813 133.473 290.739C133.36 289.637 133.247 288.111 133.135 286.161C133.022 284.183 132.965 281.937 132.965 279.422L132.923 266.621Z" fill="#262626"/>
<path d="M184.417 269.122C184.417 264.007 185.235 259.571 186.872 255.813C188.508 252.054 191.02 249.144 194.406 247.081C197.793 244.99 202.04 243.944 207.148 243.944C212.792 243.944 217.222 245.004 220.44 247.123C223.657 249.214 225.9 252.125 227.17 255.855C228.468 259.585 229.117 264.149 229.117 269.546C229.117 274.434 228.257 278.8 226.535 282.643C224.842 286.458 222.274 289.482 218.831 291.714C215.416 293.918 211.226 295.02 206.259 295.02C198.583 295.02 193.024 292.661 189.581 287.942C186.138 283.194 184.417 276.921 184.417 269.122ZM207.994 282.601C209.434 282.601 210.309 282.488 210.619 282.262C211.268 281.132 211.762 279.535 212.1 277.472C212.439 275.409 212.608 273.177 212.608 270.775C212.608 268.571 212.467 266.508 212.185 264.587C211.903 262.637 211.508 261.111 211 260.009C210.689 259.641 210.069 259.373 209.137 259.204C208.206 259.006 207.19 258.907 206.09 258.907C204.65 258.907 203.663 259.062 203.126 259.373C201.715 261.803 201.01 265.18 201.01 269.503C201.01 271.538 201.165 273.615 201.476 275.734C201.786 277.854 202.181 279.775 202.661 281.499C202.999 281.866 203.691 282.149 204.735 282.347C205.779 282.516 206.866 282.601 207.994 282.601Z" fill="#262626"/>
<path d="M237.9 279.422C237.9 274.816 237.956 271.34 238.069 268.995C238.182 266.621 238.478 263.145 238.958 258.568L234.048 257.932C233.455 256.095 233.06 254.456 232.862 253.015C232.693 251.574 232.608 249.709 232.608 247.42C233.06 247.024 233.808 246.558 234.852 246.021C235.924 245.456 237.194 244.976 238.662 244.58C240.129 244.156 241.611 243.944 243.106 243.944C246.521 243.944 248.934 244.679 250.345 246.148C251.784 247.618 252.504 249.822 252.504 252.761C252.504 254.4 252.264 256.618 251.784 259.415C250.994 263.908 250.599 266.268 250.599 266.494C250.599 266.635 250.697 266.777 250.895 266.918C251.093 267.031 251.304 267.087 251.53 267.087C251.784 267.087 251.953 266.989 252.038 266.791C253.167 262.298 254.296 258.539 255.424 255.516C256.553 252.492 258.26 249.808 260.546 247.462C262.832 245.117 265.795 243.944 269.436 243.944C273.951 243.944 277.196 245.329 279.172 248.098C281.147 250.839 282.135 254.301 282.135 258.483C282.135 262.213 281.697 265.816 280.822 269.292C279.948 272.739 278.861 276.342 277.563 280.1C277.619 279.959 277.422 280.51 276.97 281.753L277.055 281.838L283.235 279.295C285.436 281.188 286.72 283.703 287.087 286.84C287.087 287.037 286.452 287.843 285.182 289.256C283.941 290.669 282.29 291.983 280.23 293.198C278.17 294.413 275.799 295.02 273.118 295.02C270.437 295.02 268.25 294.3 266.557 292.859C264.864 291.417 264.017 288.959 264.017 285.483C264.017 282.714 264.13 279.012 264.356 274.378C264.582 269.744 264.808 266.014 265.033 263.188C264.3 262.397 263.397 261.973 262.324 261.916C261.336 263.188 259.883 265.731 257.964 269.546C256.045 273.361 254.691 276.215 253.9 278.108C253.844 278.504 253.816 278.885 253.816 279.252C253.816 280.665 254.027 282.573 254.451 284.975C254.874 287.348 255.396 289.567 256.017 291.629C255.509 292.59 254.465 293.395 252.884 294.045C251.304 294.695 249.357 295.02 247.043 295.02C244.955 295.02 243.276 294.851 242.006 294.512C240.764 294.173 239.889 293.819 239.381 293.452C238.873 293.056 238.619 292.816 238.619 292.731C238.591 292.477 238.52 291.813 238.408 290.739C238.295 289.637 238.182 288.111 238.069 286.161C237.956 284.183 237.9 281.937 237.9 279.422Z" fill="#262626"/>
<path d="M314.156 300.912C316.047 300.912 317.684 300.7 319.067 300.276C319.49 299.852 319.786 299.358 319.956 298.793C320.125 298.256 320.21 297.747 320.21 297.267C320.21 296.758 320.167 296.377 320.083 296.122C319.998 295.896 319.857 295.684 319.659 295.487C318.474 295.289 317.077 295.147 315.469 295.063C313.888 295.006 312.943 294.964 312.632 294.936C308.71 294.766 305.521 294.483 303.066 294.088C300.611 293.664 298.508 292.76 296.759 291.375C295.009 289.962 294.134 287.843 294.134 285.017C294.134 283.491 294.628 282.064 295.616 280.736C296.603 279.38 297.887 278.193 299.468 277.175C296.251 275.847 293.669 273.855 291.721 271.199C289.802 268.514 288.843 265.053 288.843 260.814C288.843 256.604 289.915 253.227 292.06 250.684C294.233 248.112 296.9 246.304 300.06 245.258C303.221 244.213 306.438 243.69 309.712 243.69C311.772 243.69 313.789 243.888 315.765 244.283C317.74 244.679 319.575 245.244 321.268 245.979L319.448 235.213C321.169 234.167 323.314 233.644 325.882 233.644C327.744 233.644 329.48 233.955 331.088 234.577C332.697 235.198 333.925 236.089 334.771 237.247C334.828 237.53 334.856 237.982 334.856 238.604C334.856 240.921 334.433 243.506 333.586 246.36C332.768 249.186 331.342 251.461 329.311 253.185C330.327 255.219 330.834 257.409 330.834 259.755C330.834 263.202 330.171 266.381 328.845 269.292C327.547 272.202 325.374 274.576 322.326 276.413C319.278 278.221 315.313 279.125 310.431 279.125C309.02 279.125 307.553 279.04 306.029 278.871C305.944 280.284 306.283 281.697 307.045 283.11C310.855 282.375 313.931 281.993 316.273 281.965L319.151 281.923C323.046 281.923 325.995 282.163 327.998 282.643C330.2 283.18 331.836 284.395 332.909 286.289C334.009 288.182 334.56 290.485 334.56 293.198C334.56 297.436 333.261 300.997 330.665 303.879C328.097 306.79 324.753 308.951 320.633 310.364C316.541 311.777 312.195 312.484 307.595 312.484C303.334 312.484 299.538 311.763 296.208 310.322C292.878 308.881 290.776 306.239 289.901 302.396C290.832 299.146 292.61 296.688 295.235 295.02C298.762 297.14 302.135 298.651 305.352 299.556C308.597 300.46 311.532 300.912 314.156 300.912ZM311.574 268.656C313.606 268.656 314.791 268.529 315.13 268.274C315.892 266.748 316.273 265.18 316.273 263.569C316.273 261.902 315.892 260.334 315.13 258.864C314.763 258.554 313.945 258.313 312.675 258.144C311.433 257.974 310.079 257.89 308.611 257.89C306.777 257.89 305.549 258.003 304.928 258.229C304.054 259.783 303.616 261.351 303.616 262.934C303.616 264.544 304.025 266.07 304.844 267.511C305.465 267.907 306.396 268.204 307.637 268.401C308.907 268.571 310.22 268.656 311.574 268.656Z" fill="#262626"/>
<path d="M343.003 261.62C343.003 259.783 343.666 258.285 344.993 257.127C346.319 255.968 348.097 255.021 350.326 254.287C351.878 253.806 353.939 253.312 356.507 252.803C357.918 252.549 359.004 252.323 359.766 252.125C359.964 251.842 360.062 251.517 360.062 251.15C360.062 250.839 359.992 250.571 359.851 250.345C358.045 248.904 355.66 247.519 352.697 246.191C349.734 244.863 345.134 243.21 338.897 241.232C338.841 240.666 338.813 240.214 338.813 239.875C338.813 237.728 339.32 235.566 340.336 233.39C341.381 231.186 342.679 229.349 344.231 227.88C345.783 226.382 347.25 225.548 348.633 225.379C350.157 225.379 352.358 226.001 355.237 227.244C358.143 228.487 360.965 230.211 363.703 232.415C366.44 234.591 368.472 237.049 369.798 239.79C370.504 241.26 371.068 242.941 371.491 244.834C371.943 246.728 372.169 248.621 372.169 250.514C372.169 254.612 371.012 257.988 368.698 260.645C366.412 263.273 362.63 264.587 357.353 264.587L356.422 264.544L354.559 270.817C353.205 271.241 351.907 271.453 350.665 271.453C349 271.453 347.377 271.1 345.797 270.394C344.894 268.472 344.203 266.875 343.723 265.604C343.243 264.304 343.003 262.976 343.003 261.62ZM351.596 277.175C355.321 277.175 358.03 277.995 359.724 279.634C361.445 281.245 362.306 283.279 362.306 285.738C362.306 287.377 361.784 288.917 360.74 290.358C359.724 291.771 358.383 292.901 356.718 293.749C355.081 294.596 353.374 295.02 351.596 295.02C349.818 295.02 348.097 294.596 346.432 293.749C344.795 292.901 343.455 291.771 342.411 290.358C341.395 288.917 340.887 287.377 340.887 285.738C340.887 283.279 341.733 281.245 343.427 279.634C345.148 277.995 347.871 277.175 351.596 277.175Z" fill="#262626"/>
<path d="M192.646 235.635C192.93 234.754 193.667 232.788 194.859 229.735C196.064 226.682 197.255 223.75 198.432 220.938C199.623 218.113 200.41 216.395 200.793 215.784C201.204 215.429 202.041 215.124 203.303 214.868C204.579 214.599 205.777 214.464 206.898 214.464C207.408 214.464 207.834 214.499 208.174 214.57L215.916 235.422C215.746 235.805 215.377 236.224 214.81 236.678C214.243 237.133 213.605 237.53 212.896 237.871C212.187 238.212 211.563 238.411 211.024 238.467L203.707 225.07L197.454 238.467C196.886 238.425 196.27 238.254 195.603 237.956C194.951 237.658 194.348 237.296 193.795 236.87C193.256 236.444 192.873 236.032 192.646 235.635Z" fill="#262626"/>
<path d="M258.286 143.169C259.255 142.932 260.244 142.813 261.252 142.813C262.637 142.813 263.932 143.041 265.138 143.496C266.364 143.952 267.382 144.635 268.193 145.546C269.024 146.456 269.548 147.565 269.765 148.872C269.073 150.476 268.035 152.258 266.651 154.218C265.286 156.159 263.793 157.98 262.172 159.683C260.55 161.386 259.048 162.712 257.663 163.663L253.214 160.841L258.286 143.169Z" fill="#262626"/>
<path d="M304.159 143.169C305.128 142.932 306.117 142.813 307.125 142.813C308.509 142.813 309.805 143.041 311.011 143.496C312.237 143.952 313.255 144.635 314.066 145.546C314.896 146.456 315.42 147.565 315.638 148.872C314.946 150.476 313.908 152.258 312.524 154.218C311.159 156.159 309.666 157.98 308.045 159.683C306.423 161.386 304.92 162.712 303.536 163.663L299.087 160.841L304.159 143.169Z" fill="#262626"/>
<path d="M293.533 212.704C297.258 212.704 299.967 213.523 301.66 215.162C303.382 216.773 304.242 218.808 304.242 221.266C304.242 222.905 303.72 224.445 302.676 225.886C301.66 227.299 300.32 228.429 298.655 229.277C297.018 230.125 295.311 230.549 293.533 230.549C291.755 230.549 290.033 230.125 288.368 229.277C286.732 228.429 285.391 227.299 284.347 225.886C283.331 224.445 282.823 222.905 282.823 221.266C282.823 218.808 283.67 216.773 285.363 215.162C287.084 213.523 289.808 212.704 293.533 212.704Z" fill="#262626"/>
</svg>
