<svg width="450" height="450" viewBox="0 0 450 450" fill="none" xmlns="http://www.w3.org/2000/svg">
<rect x="0.5" y="0.5" width="449" height="449" fill="#EAEAEA"/>
<rect x="0.5" y="0.5" width="449" height="449" stroke="#262626"/>
<path d="M203.556 251.403C200.202 251.475 194.922 251.26 188.214 250.832C178.152 250.19 164.88 249.048 150.251 247.621C124.775 245.124 94.9472 241.841 69.8286 238.987C79.8189 242.911 99.6569 250.761 139.404 266.46L101.726 331.683H139.119C139.119 331.683 200.702 331.683 210.764 281.017C211.691 274.095 212.476 267.53 213.19 261.465C209.194 259.039 205.911 255.399 203.556 250.975V251.403Z" fill="#262626"/>
<path d="M164.953 222.217L157.032 235.918L199.99 236.917C199.99 236.703 199.99 236.489 199.99 236.275C199.99 233.635 200.276 231.137 200.847 228.711C186.931 226.499 169.163 223.002 164.953 222.146V222.217Z" fill="#262626"/>
<path d="M284.838 222.074L247.589 223.573C244.378 216.151 238.383 210.585 231.176 208.587L225.182 159.492L218.831 208.73C211.766 210.799 205.915 216.365 202.704 223.644L165.097 222.145L224.968 118.317L284.838 222.074Z" fill="#262626"/>
<path d="M292.828 235.917L284.908 222.216C280.697 223.072 263.143 226.498 249.299 228.71C249.87 231.136 250.155 233.705 250.155 236.274C250.155 238.843 250.155 236.702 250.155 236.845L292.757 235.846L292.828 235.917Z" fill="#262626"/>
<path d="M380.171 238.987C355.053 241.841 325.153 245.124 299.606 247.621C284.978 249.048 271.776 250.19 261.643 250.832C255.221 251.261 250.012 251.475 246.444 251.403C244.089 255.756 240.735 259.253 236.739 261.608C237.381 267.673 238.166 274.096 239.165 280.946C249.227 331.611 310.81 331.611 310.81 331.611H348.202L310.524 266.389C350.343 250.618 370.252 242.769 380.171 238.844V238.987Z" fill="#262626"/>
<path d="M225.107 219.434L228.89 231.066H241.163L231.244 238.273L235.026 249.905L225.107 242.697L215.188 249.905L218.971 238.273L209.052 231.066H221.325L225.107 219.434Z" fill="#262626"/>
</svg>
