<svg width="450" height="450" viewBox="0 0 450 450" fill="none" xmlns="http://www.w3.org/2000/svg">
<rect x="0.5" y="0.5" width="449" height="449" fill="#EAEAEA"/>
<rect x="0.5" y="0.5" width="449" height="449" stroke="#262626"/>
<path fill-rule="evenodd" clip-rule="evenodd" d="M315.474 146.76H277.894L252.102 173.327V146.784H224.917H197.736V173.156L172.11 146.76H134.53L174.424 187.852H197.736V228.726L221.121 186.512H228.718L252.102 228.726V187.852H275.58L315.474 146.76ZM224.917 146.784L229.853 161.958H245.802L232.898 171.343L237.83 186.512L224.917 177.137L212.013 186.512L216.94 171.343L204.032 161.958H219.99L224.917 146.784Z" fill="#262626"/>
<path d="M313.177 187.853H275.597L315.267 228.726H352.846L313.177 187.853Z" fill="#262626"/>
<path d="M134.733 228.726H97.1538L136.824 187.853H174.403L134.733 228.726Z" fill="#262626"/>
<path d="M56.2635 251.642H63.4854L53.4607 261.842L63.4854 276.598H56.4761L49.2921 265.803L45.9269 269.135V276.602H40V251.647H45.9221V262.442L56.2635 251.647V251.642Z" fill="#262626"/>
<path d="M106.845 256.865V251.642H112.488V276.598H106.108L100.011 266.644C98.139 263.534 96.844 261.27 96.1208 259.843C96.2153 263.042 96.2626 266.89 96.2626 271.375V276.598H90.6193V251.642H96.9999L103.097 261.596C104.85 264.493 106.145 266.786 106.987 268.468C106.892 265.221 106.845 261.355 106.845 256.865Z" fill="#262626"/>
<path d="M122.196 276.598H116.274V251.642H122.196V276.598Z" fill="#262626"/>
<path d="M137.373 277.161C133.658 277.161 130.656 275.979 128.364 273.621C126.072 271.262 124.928 268.095 124.928 264.121C124.928 260.146 126.048 256.922 128.293 254.587C130.538 252.253 133.563 251.081 137.373 251.081C140.459 251.081 143.073 251.898 145.223 253.533C147.421 255.192 148.739 257.541 149.184 260.581H143.191C142.817 259.177 142.123 258.099 141.106 257.338C140.09 256.577 138.847 256.199 137.373 256.199C135.364 256.199 133.814 256.889 132.727 258.269C131.639 259.649 131.096 261.597 131.096 264.121C131.096 266.644 131.639 268.596 132.727 269.972C133.814 271.352 135.359 272.042 137.373 272.042C138.913 272.042 140.223 271.598 141.3 270.709C142.373 269.821 143.054 268.582 143.333 266.994H149.255C148.881 270.218 147.605 272.718 145.436 274.495C143.238 276.272 140.553 277.161 137.373 277.161Z" fill="#262626"/>
<path d="M168.25 276.598L166.78 272.249H156.406L154.969 276.598H148.905L158.088 251.642H165.136L174.532 276.598H168.25ZM159.487 263.033L158.051 267.31H165.098L163.661 263.033C163.217 261.771 162.517 259.668 161.558 256.723C160.319 260.533 159.629 262.636 159.487 263.033Z" fill="#262626"/>
<path d="M200.188 262.263L203.449 251.642H212.316V276.598H206.673V269.272C206.673 264.621 206.744 260.604 206.881 257.215C206.436 258.921 205.874 260.812 205.198 262.891L200.888 276.598H196.053L191.742 262.891C191.227 261.232 190.679 259.351 190.093 257.248C190.211 261.176 190.267 265.184 190.267 269.272V276.598H184.624V251.642H193.491L196.785 262.367C197.229 263.884 197.801 265.954 198.501 268.572C199.063 266.351 199.621 264.248 200.183 262.263H200.188Z" fill="#262626"/>
<path d="M222.021 276.598H216.099V251.642H222.021V276.598Z" fill="#262626"/>
<path d="M242.035 256.865V251.642H247.678V276.598H241.298L235.2 266.644C233.329 263.534 232.034 261.27 231.311 259.843C231.405 263.042 231.452 266.89 231.452 271.375V276.598H225.809V251.642H232.19L238.287 261.596C240.04 264.493 241.335 266.786 242.177 268.468C242.082 265.221 242.035 261.355 242.035 256.865Z" fill="#262626"/>
<path d="M263.125 251.08V255.802C263.11 255.802 263.094 255.802 263.079 255.802C262.445 255.802 261.828 255.877 261.236 256.019L260.104 251.443C261.072 251.207 262.084 251.08 263.125 251.08Z" fill="#262626"/>
<path d="M256.607 259.172C256.244 259.69 255.943 260.255 255.714 260.854L251.321 259.194C251.685 258.238 252.162 257.338 252.736 256.51L256.607 259.172Z" fill="#262626"/>
<path d="M259.452 256.682C258.883 256.976 258.355 257.337 257.879 257.755L254.755 254.242C255.513 253.572 256.353 252.991 257.258 252.518L259.452 256.682Z" fill="#262626"/>
<path d="M268.991 252.517L266.777 256.719C266.224 256.425 265.631 256.195 265.008 256.039L266.145 251.443C267.146 251.687 268.1 252.051 268.991 252.517Z" fill="#262626"/>
<path d="M275.653 262.139L270.904 262.714C270.828 262.077 270.675 261.465 270.455 260.885L274.928 259.194C275.283 260.128 275.53 261.114 275.653 262.139Z" fill="#262626"/>
<path d="M273.514 256.51L269.581 259.215C269.223 258.694 268.803 258.218 268.331 257.799L271.495 254.241C272.256 254.912 272.934 255.675 273.514 256.51Z" fill="#262626"/>
<path d="M268.991 274.792C268.1 275.259 267.146 275.622 266.145 275.867L265.008 271.271C265.631 271.115 266.224 270.885 266.777 270.591L268.991 274.792Z" fill="#262626"/>
<path d="M273.514 270.8C272.934 271.635 272.256 272.397 271.495 273.068L268.331 269.51C268.803 269.091 269.223 268.615 269.581 268.095L273.514 270.8Z" fill="#262626"/>
<path d="M275.653 265.171C275.53 266.196 275.283 267.182 274.928 268.115L270.455 266.425C270.675 265.845 270.828 265.233 270.904 264.596L275.653 265.171Z" fill="#262626"/>
<path d="M255.197 263.654C255.197 263.976 255.217 264.295 255.255 264.606L250.596 265.17C250.536 264.673 250.504 264.167 250.504 263.654C250.504 263.141 250.536 262.635 250.596 262.138L255.255 262.702C255.217 263.013 255.197 263.332 255.197 263.654Z" fill="#262626"/>
<path d="M256.607 268.138L252.736 270.8C252.162 269.972 251.685 269.072 251.321 268.116L255.714 266.456C255.943 267.055 256.244 267.62 256.607 268.138Z" fill="#262626"/>
<path d="M263.125 271.507V276.229C262.084 276.229 261.072 276.102 260.104 275.866L261.236 271.292C261.828 271.433 262.445 271.508 263.079 271.508C263.094 271.508 263.11 271.508 263.125 271.508V271.507Z" fill="#262626"/>
<path d="M259.452 270.629L257.258 274.792C256.353 274.319 255.513 273.739 254.755 273.069L257.879 269.555C258.355 269.974 258.883 270.335 259.452 270.629Z" fill="#262626"/>
<path d="M284.656 251.642V271.304H296.085V276.598H278.734V251.642H284.656Z" fill="#262626"/>
<path d="M293.174 251.642H314.452V256.936H306.776V276.598H300.816V256.936H293.174V251.642Z" fill="#262626"/>
<path d="M330.537 276.598L329.067 272.249H318.692L317.255 276.598H311.191L320.375 251.642H327.422L336.818 276.598H330.537ZM321.779 263.033L320.342 267.31H327.389L325.952 263.033C325.508 261.771 324.808 259.668 323.849 256.723C322.61 260.533 321.92 262.636 321.779 263.033Z" fill="#262626"/>
<path d="M365.241 251.642V256.936H352.835V261.459H364.296V266.474H352.835V276.602H346.912V251.647H365.246L365.241 251.642Z" fill="#262626"/>
<path d="M367.59 251.642H378.948C381.821 251.642 384.076 252.394 385.711 253.902C387.346 255.409 388.164 257.461 388.164 260.055C388.164 262.65 387.346 264.701 385.711 266.204C384.076 267.712 381.821 268.464 378.948 268.464H373.512V276.598H367.59V251.642ZM373.512 263.454H378.56C379.727 263.454 380.635 263.161 381.278 262.579C381.92 261.993 382.242 261.152 382.242 260.055C382.242 258.959 381.916 258.118 381.259 257.532C380.606 256.945 379.704 256.657 378.56 256.657H373.512V263.458V263.454Z" fill="#262626"/>
<path d="M388.722 251.642H410V256.936H402.324V276.598H396.364V256.936H388.722V251.642Z" fill="#262626"/>
<path d="M75.9067 252.012V256.734C75.8915 256.734 75.8757 256.734 75.8605 256.734C75.2262 256.734 74.609 256.809 74.0177 256.95L72.8857 252.375C73.8533 252.138 74.8651 252.012 75.9067 252.012Z" fill="#262626"/>
<path d="M69.3897 260.103C69.0267 260.621 68.7251 261.186 68.4961 261.785L64.1035 260.125C64.4672 259.169 64.9444 258.269 65.5186 257.441L69.3897 260.103Z" fill="#262626"/>
<path d="M72.2328 257.613C71.6646 257.907 71.1365 258.268 70.66 258.686L67.536 255.173C68.2944 254.503 69.1346 253.923 70.0395 253.449L72.2328 257.613Z" fill="#262626"/>
<path d="M81.773 253.449L79.5599 257.651C79.0061 257.357 78.4134 257.127 77.7903 256.971L78.9269 252.375C79.9282 252.619 80.8819 252.983 81.773 253.449Z" fill="#262626"/>
<path d="M88.435 263.07L83.686 263.645C83.6108 263.008 83.4576 262.396 83.2378 261.816L87.7102 260.126C88.0653 261.059 88.3122 262.045 88.435 263.07Z" fill="#262626"/>
<path d="M86.2952 257.441L82.3627 260.146C82.0043 259.626 81.5839 259.15 81.1126 258.731L84.2768 255.173C85.0372 255.844 85.7157 256.606 86.2952 257.441Z" fill="#262626"/>
<path d="M81.773 275.724C80.8819 276.19 79.9282 276.553 78.9269 276.798L77.7903 272.202C78.4134 272.047 79.0061 271.816 79.5599 271.522L81.773 275.724Z" fill="#262626"/>
<path d="M86.2952 271.731C85.7157 272.566 85.0372 273.328 84.2768 274L81.1126 270.441C81.5839 270.022 82.0043 269.547 82.3627 269.026L86.2952 271.731Z" fill="#262626"/>
<path d="M88.435 266.103C88.3122 267.127 88.0653 268.114 87.7102 269.047L83.2378 267.357C83.4576 266.777 83.6108 266.164 83.686 265.528L88.435 266.103Z" fill="#262626"/>
<path d="M67.9795 264.586C67.9795 264.908 67.9993 265.226 68.0375 265.538L63.3783 266.102C63.3183 265.604 63.2866 265.099 63.2866 264.586C63.2866 264.073 63.3183 263.567 63.3783 263.07L68.0375 263.633C67.9993 263.945 67.9795 264.263 67.9795 264.586Z" fill="#262626"/>
<path d="M69.3897 269.069L65.5186 271.731C64.9444 270.903 64.4672 270.003 64.1035 269.047L68.4961 267.387C68.7251 267.986 69.0267 268.551 69.3897 269.069Z" fill="#262626"/>
<path d="M75.9067 272.439V277.16C74.8651 277.16 73.8533 277.034 72.8857 276.798L74.0177 272.223C74.609 272.365 75.2262 272.44 75.8605 272.44C75.8757 272.44 75.8915 272.44 75.9067 272.44V272.439Z" fill="#262626"/>
<path d="M72.2328 271.56L70.0395 275.723C69.1346 275.25 68.2944 274.67 67.536 274L70.66 270.486C71.1365 270.905 71.6646 271.266 72.2328 271.56Z" fill="#262626"/>
<path d="M89.4842 300.683C87.8352 300.683 86.5646 300.316 85.6667 299.587C84.7688 298.859 84.317 297.842 84.3057 296.532H87.0277C87.039 297.26 87.2536 297.769 87.6658 298.057C88.0781 298.345 88.7218 298.486 89.5802 298.486C90.9186 298.486 91.585 298.034 91.585 297.125C91.585 296.724 91.4381 296.43 91.1445 296.238C90.8508 296.046 90.2918 295.871 89.4616 295.713L88.5016 295.532C85.87 295.092 84.5542 293.855 84.5542 291.833C84.5542 290.76 84.9552 289.908 85.7571 289.281C86.559 288.654 87.694 288.338 89.168 288.338C90.7379 288.338 91.9407 288.671 92.7709 289.332C93.601 289.998 94.0415 290.947 94.098 292.184H91.4438C91.4099 291.608 91.2179 291.19 90.8734 290.924C90.5233 290.659 89.9755 290.523 89.2244 290.523C88.0159 290.523 87.4173 290.924 87.4173 291.72C87.4173 292.121 87.5642 292.421 87.8578 292.635C88.1515 292.844 88.671 293.025 89.4277 293.166L90.4216 293.347C91.8504 293.601 92.8838 294.013 93.5332 294.584C94.1827 295.154 94.5046 295.939 94.5046 296.95C94.5046 298.158 94.0641 299.079 93.1775 299.723C92.2909 300.366 91.0654 300.683 89.4955 300.683H89.4842Z" fill="#262626"/>
<path d="M101.293 300.683C99.4917 300.683 98.0291 300.118 96.9109 298.988C95.7928 297.848 95.2337 296.357 95.2337 294.51C95.2337 292.664 95.7928 291.167 96.9109 290.032C98.0291 288.903 99.4861 288.338 101.293 288.338C103.1 288.338 104.557 288.903 105.675 290.032C106.794 291.173 107.353 292.664 107.353 294.51C107.353 296.357 106.794 297.853 105.675 298.988C104.557 300.118 103.1 300.683 101.293 300.683ZM99.023 297.243C99.5877 297.904 100.344 298.237 101.299 298.237C102.253 298.237 103.004 297.904 103.586 297.243C104.162 296.588 104.45 295.679 104.45 294.505C104.45 293.33 104.162 292.421 103.586 291.766C102.999 291.099 102.236 290.772 101.299 290.772C100.361 290.772 99.5877 291.105 99.023 291.766C98.447 292.421 98.159 293.33 98.159 294.505C98.159 295.679 98.447 296.588 99.023 297.243Z" fill="#262626"/>
<path d="M111.445 288.603V297.91H116.855V300.417H108.644V288.603H111.445Z" fill="#262626"/>
<path d="M122.651 300.682C121.115 300.682 119.873 300.27 118.935 299.44C117.992 298.633 117.523 297.458 117.523 295.922V288.603H120.324V295.956C120.324 296.707 120.528 297.283 120.929 297.672C121.33 298.062 121.906 298.26 122.645 298.26C123.385 298.26 123.961 298.062 124.374 297.672C124.786 297.283 124.989 296.707 124.989 295.956V288.603H127.79V295.922C127.79 297.435 127.333 298.61 126.423 299.44C125.509 300.27 124.255 300.682 122.651 300.682Z" fill="#262626"/>
<path d="M128.585 288.603H138.654V291.11H135.023V300.417H132.205V291.11H128.585V288.603Z" fill="#262626"/>
<path d="M142.505 300.417H139.704V288.603H142.505V300.417Z" fill="#262626"/>
<path d="M149.859 300.683C148.058 300.683 146.595 300.118 145.477 298.988C144.359 297.848 143.8 296.357 143.8 294.51C143.8 292.664 144.359 291.167 145.477 290.032C146.595 288.903 148.052 288.338 149.859 288.338C151.666 288.338 153.123 288.903 154.242 290.032C155.36 291.173 155.919 292.664 155.919 294.51C155.919 296.357 155.36 297.853 154.242 298.988C153.123 300.118 151.666 300.683 149.859 300.683ZM147.584 297.243C148.148 297.904 148.905 298.237 149.859 298.237C150.814 298.237 151.565 297.904 152.146 297.243C152.722 296.588 153.01 295.679 153.01 294.505C153.01 293.33 152.722 292.421 152.146 291.766C151.559 291.099 150.797 290.772 149.859 290.772C148.922 290.772 148.148 291.105 147.584 291.766C147.008 292.421 146.72 293.33 146.72 294.505C146.72 295.679 147.008 296.588 147.584 297.243Z" fill="#262626"/>
<path d="M164.89 288.603H167.561V300.417H164.54L161.654 295.707C160.767 294.239 160.157 293.166 159.813 292.488C159.858 294.002 159.881 295.826 159.881 297.949V300.423H157.21V288.609H160.231L163.117 293.319C163.947 294.691 164.562 295.775 164.958 296.571C164.912 295.035 164.89 293.206 164.89 291.082V288.603Z" fill="#262626"/>
<path d="M176.021 288.603V297.91H181.432V300.417H173.22V288.603H176.021Z" fill="#262626"/>
<path d="M190.886 300.417L190.191 298.361H185.278L184.6 300.417H181.732L186.08 288.603H189.418L193.862 300.417H190.886ZM186.741 293.996L186.057 296.018H189.395L188.717 293.996C188.508 293.398 188.175 292.404 187.723 291.009C187.136 292.81 186.809 293.81 186.746 293.996H186.741Z" fill="#262626"/>
<path d="M202.621 294.127C203.264 294.358 203.767 294.736 204.128 295.262C204.496 295.787 204.676 296.357 204.676 296.978C204.676 298.063 204.315 298.904 203.592 299.508C202.869 300.113 201.802 300.412 200.396 300.412H194.624V288.598H200.232C201.536 288.598 202.525 288.875 203.197 289.428C203.863 289.982 204.202 290.71 204.202 291.619C204.202 292.794 203.677 293.624 202.626 294.127H202.621ZM200.046 290.84H197.425V293.364H200.046C200.475 293.364 200.814 293.246 201.051 293.014C201.288 292.783 201.407 292.466 201.407 292.071C201.407 291.693 201.288 291.399 201.051 291.173C200.814 290.953 200.48 290.84 200.046 290.84ZM197.425 298.176H200.226C200.723 298.176 201.107 298.057 201.378 297.825C201.649 297.594 201.785 297.261 201.785 296.832C201.785 295.934 201.265 295.488 200.226 295.488H197.425V298.176Z" fill="#262626"/>
<path d="M210.447 300.683C208.798 300.683 207.528 300.316 206.63 299.587C205.732 298.859 205.28 297.842 205.269 296.532H207.991C208.002 297.26 208.217 297.769 208.629 298.057C209.041 298.345 209.685 298.486 210.543 298.486C211.882 298.486 212.548 298.034 212.548 297.125C212.548 296.724 212.401 296.43 212.108 296.238C211.814 296.046 211.255 295.871 210.425 295.713L209.465 295.532C206.833 295.092 205.517 293.855 205.517 291.833C205.517 290.76 205.918 289.908 206.72 289.281C207.522 288.654 208.657 288.338 210.131 288.338C211.701 288.338 212.904 288.671 213.734 289.332C214.564 289.998 215.005 290.947 215.061 292.184H212.407C212.373 291.608 212.181 291.19 211.837 290.924C211.487 290.659 210.939 290.523 210.188 290.523C208.979 290.523 208.381 290.924 208.381 291.72C208.381 292.121 208.527 292.421 208.821 292.635C209.115 292.844 209.634 293.025 210.391 293.166L211.385 293.347C212.814 293.601 213.847 294.013 214.496 294.584C215.146 295.154 215.468 295.939 215.468 296.95C215.468 298.158 215.027 299.079 214.141 299.723C213.254 300.366 212.029 300.683 210.459 300.683H210.447Z" fill="#262626"/>
<path d="M226.723 293.793L228.434 288.598H231.32L227.186 300.412H223.865L219.602 288.598H222.606L224.334 293.793C224.876 295.488 225.277 296.871 225.543 297.938C225.932 296.425 226.322 295.041 226.723 293.793Z" fill="#262626"/>
<path d="M234.973 300.417H232.172V288.603H234.973V300.417Z" fill="#262626"/>
<path d="M245.786 288.603V291.11H239.563V293.251H245.222V295.606H239.563V297.91H245.769V300.417H236.762V288.603H245.786Z" fill="#262626"/>
<path d="M246.402 288.603H256.471V291.11H252.84V300.417H250.022V291.11H246.402V288.603Z" fill="#262626"/>
<path d="M265.201 288.603H267.872V300.417H264.851L261.965 295.707C261.079 294.239 260.469 293.166 260.124 292.488C260.17 294.002 260.192 295.826 260.192 297.949V300.423H257.521V288.609H260.542L263.428 293.319C264.258 294.691 264.874 295.775 265.269 296.571C265.224 295.035 265.201 293.206 265.201 291.082V288.603Z" fill="#262626"/>
<path d="M277.772 300.417L277.078 298.361H272.164L271.487 300.417H268.618L272.966 288.603H276.304L280.748 300.417H277.772ZM273.627 293.996L272.944 296.018H276.281L275.604 293.996C275.395 293.398 275.062 292.404 274.61 291.009C274.022 292.81 273.695 293.81 273.633 293.996H273.627Z" fill="#262626"/>
<path d="M288.875 293.629L290.417 288.603H294.613V300.417H291.941V296.95C291.941 294.747 291.975 292.844 292.043 291.24C291.834 292.048 291.569 292.946 291.247 293.928L289.208 300.417H286.921L284.882 293.928C284.64 293.143 284.38 292.251 284.103 291.257C284.16 293.115 284.188 295.013 284.188 296.95V300.417H281.517V288.603H285.713L287.271 293.68C287.48 294.397 287.751 295.38 288.084 296.616C288.35 295.566 288.615 294.572 288.881 293.629H288.875Z" fill="#262626"/>
<path d="M305.664 300.683C303.908 300.683 302.485 300.124 301.401 299.005C300.317 297.887 299.774 296.391 299.774 294.51C299.774 292.63 300.305 291.105 301.367 289.998C302.429 288.891 303.863 288.338 305.664 288.338C307.127 288.338 308.364 288.727 309.38 289.501C310.419 290.286 311.046 291.399 311.255 292.839H308.42C308.245 292.178 307.912 291.664 307.432 291.303C306.952 290.941 306.365 290.766 305.664 290.766C304.716 290.766 303.982 291.094 303.468 291.743C302.954 292.398 302.694 293.319 302.694 294.516C302.694 295.713 302.954 296.634 303.468 297.289C303.982 297.944 304.716 298.266 305.664 298.266C306.393 298.266 307.014 298.057 307.522 297.633C308.031 297.215 308.352 296.628 308.482 295.877H311.283C311.108 297.402 310.504 298.587 309.476 299.429C308.437 300.27 307.167 300.688 305.659 300.688L305.664 300.683Z" fill="#262626"/>
<path d="M318.128 300.683C316.326 300.683 314.864 300.118 313.746 298.988C312.628 297.848 312.068 296.357 312.068 294.51C312.068 292.664 312.628 291.167 313.746 290.032C314.864 288.903 316.321 288.338 318.128 288.338C319.935 288.338 321.392 288.903 322.51 290.032C323.628 291.173 324.187 292.664 324.187 294.51C324.187 296.357 323.628 297.853 322.51 298.988C321.392 300.118 319.935 300.683 318.128 300.683ZM315.852 297.243C316.417 297.904 317.174 298.237 318.128 298.237C319.082 298.237 319.833 297.904 320.415 297.243C320.991 296.588 321.279 295.679 321.279 294.505C321.279 293.33 320.991 292.421 320.415 291.766C319.828 291.099 319.065 290.772 318.128 290.772C317.19 290.772 316.417 291.105 315.852 291.766C315.276 292.421 314.988 293.33 314.988 294.505C314.988 295.679 315.276 296.588 315.852 297.243Z" fill="#262626"/>
<path d="M327.484 300.417H324.564V297.565H327.484V300.417Z" fill="#262626"/>
<path d="M328.615 300.417V297.565H331.535V300.637C331.535 302.354 330.682 303.212 328.982 303.224L328.615 303.24V301.812H328.999C329.575 301.8 329.863 301.428 329.863 300.699V300.417H328.615Z" fill="#262626"/>
<path d="M339.659 288.603V297.91H345.069V300.417H336.858V288.603H339.659Z" fill="#262626"/>
<path d="M343.694 288.603H353.762V291.11H350.131V300.417H347.313V291.11H343.694V288.603Z" fill="#262626"/>
<path d="M354.812 288.603H359.657C361.606 288.603 363.097 289.128 364.136 290.173C365.175 291.218 365.694 292.663 365.694 294.51C365.694 296.357 365.175 297.802 364.136 298.847C363.097 299.892 361.6 300.417 359.657 300.417H354.812V288.603ZM357.613 298.045H359.607C360.623 298.045 361.408 297.752 361.956 297.159C362.504 296.566 362.775 295.685 362.775 294.51C362.775 293.335 362.504 292.454 361.956 291.862C361.408 291.269 360.623 290.975 359.607 290.975H357.613V298.045Z" fill="#262626"/>
</svg>
