<svg width="450" height="450" viewBox="0 0 450 450" fill="none" xmlns="http://www.w3.org/2000/svg">
<rect x="0.5" y="0.5" width="449" height="449" fill="#EAEAEA"/>
<rect x="0.5" y="0.5" width="449" height="449" stroke="#262626"/>
<path d="M135.288 270.802C145.435 270.762 154.002 267.168 160.737 260.115L160.733 260.117C167.163 253.393 169.435 245.211 167.479 235.799C167.404 235.448 167.325 235.098 167.238 234.752L167.238 234.751C141.267 234.695 115.299 234.593 89.3333 234.452C88.6087 234.15 87.9028 233.822 87.2072 233.464C113.726 233.319 140.242 233.215 166.764 233.157C166.44 232.173 166.046 231.21 165.581 230.273C137.621 230.207 109.663 230.099 81.7106 229.935C81.3369 229.647 80.9652 229.34 80.6019 229.025C108.636 228.863 136.677 228.749 164.721 228.687C164.138 227.703 163.472 226.739 162.722 225.79L162.721 225.788C134.124 225.722 105.533 225.6 76.9438 225.434L76.9452 225.435C77.2379 225.773 77.5452 226.107 77.8567 226.435C78.7411 227.359 79.6589 228.225 80.6015 229.027C80.9648 229.342 81.3365 229.649 81.7102 229.937C83.4522 231.311 85.2856 232.489 87.2061 233.465C87.9017 233.824 88.6076 234.151 89.3322 234.454C93.4681 236.197 97.9819 237.071 102.836 237.071H108.585C109.968 237.071 111.351 237.071 112.734 237.071C119.649 237.071 126.564 237.07 133.478 237.084H133.596C134.68 237.084 135.706 237.09 136.569 237.303C139.534 238.037 140.294 239.407 140.618 240.52C141.029 241.926 140.761 243.405 139.885 244.579C138.986 245.776 137.601 246.469 136.088 246.469H70.3966V270.845L135.288 270.802Z" fill="#262626"/>
<path d="M76.2193 224.572C75.2855 223.416 74.4575 222.2 73.7373 220.94C73.5795 220.668 73.4259 220.393 73.2806 220.117C72.6535 218.932 72.122 217.705 71.6922 216.453C71.5967 216.185 71.5074 215.922 71.4285 215.651C70.5939 212.971 70.2035 210.172 70.2824 207.335C70.4838 200.309 73.5629 193.672 78.9612 188.642C85.6011 182.451 93.3103 179.286 101.875 179.238C117.106 179.151 132.595 179.155 147.572 179.159C150.507 179.157 153.445 179.157 156.382 179.157C159.32 179.157 162.257 179.157 165.193 179.155H168.017V203.414H102.581C99.7177 203.418 97.8657 205.161 97.6331 208.081C97.4795 209.998 99.4353 212.135 101.738 212.573C102.527 212.722 103.366 212.796 104.225 212.801C113.703 212.817 123.179 212.813 132.657 212.809H134.582C139.873 212.809 144.579 213.631 148.789 215.299C123.005 215.378 97.2182 215.492 71.4316 215.649C71.5105 215.921 71.5998 216.184 71.6953 216.451C98.4718 216.613 125.255 216.735 152.035 216.81L152.038 216.811C153.61 217.652 155.11 218.631 156.533 219.755C128.782 219.826 101.032 219.948 73.281 220.114C73.4263 220.39 73.58 220.665 73.7378 220.937C101.953 221.107 130.172 221.225 158.396 221.295L158.399 221.298C159.495 222.262 160.485 223.233 161.384 224.217C132.993 224.284 104.605 224.406 76.2193 224.572Z" fill="#262626"/>
<path fill-rule="evenodd" clip-rule="evenodd" d="M273.995 270.825V246.14H256.783C254.101 246.14 251.42 246.14 248.739 246.139C240.69 246.139 232.643 246.138 224.592 246.144H224.576C218.729 246.144 213.63 244.256 209.423 240.531C207.411 238.753 205.835 236.848 204.687 234.805C204.376 234.243 204.093 233.679 203.844 233.097C203.459 232.201 203.152 231.282 202.919 230.33C194.096 230.326 185.272 230.313 176.451 230.295C176.403 229.768 176.368 229.227 176.349 228.661C185.094 228.645 193.838 228.63 202.58 228.626L202.58 228.622C202.445 227.726 202.374 226.803 202.366 225.855C193.687 225.851 185.004 225.838 176.326 225.82V224.182C185.009 224.166 193.687 224.151 202.37 224.147V224.143C202.378 223.224 202.383 222.299 202.387 221.376C193.701 221.372 185.008 221.359 176.322 221.341V219.707C185.013 219.691 193.705 219.676 202.395 219.672V219.668L202.407 216.903C193.711 216.898 185.018 216.886 176.322 216.867L176.317 215.234C185.018 215.218 193.711 215.203 202.412 215.199C202.412 215.197 202.412 215.195 202.412 215.193C202.424 208.536 202.416 201.88 202.407 195.37C202.399 191.256 202.395 187.144 202.395 183.03V179.195H176.296L176.313 215.23L176.317 216.864V221.339L176.321 224.18V227.455C176.321 227.867 176.332 228.269 176.344 228.659C176.363 229.225 176.398 229.766 176.446 230.292C176.525 231.269 176.655 232.185 176.836 233.051C176.838 233.065 176.841 233.079 176.844 233.093C176.848 233.107 176.851 233.121 176.853 233.134C176.967 233.681 177.092 234.228 177.226 234.767C179.074 242.349 182.656 249.035 187.884 254.665C197.433 264.953 209.141 270.357 222.688 270.724L273.995 270.825ZM203.843 233.101C204.093 233.684 204.375 234.247 204.686 234.809C195.534 234.801 186.382 234.786 177.228 234.77C177.093 234.231 176.968 233.684 176.854 233.136C185.848 233.12 194.847 233.105 203.843 233.101Z" fill="#262626"/>
<path d="M379.72 216.447C379.724 216.186 379.724 215.918 379.724 215.655V215.653C379.73 210.095 379.726 204.542 379.722 199.066L379.722 198.981C379.721 197.675 379.72 196.374 379.72 195.078C379.716 191.019 379.711 186.961 379.711 182.899L379.724 179.265H353.652V191.308C353.652 199.374 353.652 207.442 353.648 215.511C362.339 215.554 371.032 215.602 379.723 215.656C379.723 215.919 379.723 216.187 379.719 216.448C371.028 216.5 362.335 216.549 353.648 216.593V216.615C353.648 217.736 353.648 218.862 353.644 219.983C362.33 220.027 371.023 220.075 379.714 220.128V220.92C371.023 220.972 362.334 221.022 353.644 221.065L353.644 221.069C353.648 222.198 353.648 223.33 353.644 224.459C362.329 224.503 371.015 224.55 379.7 224.604V224.608C379.7 224.874 379.7 225.14 379.696 225.4C371.011 225.452 362.324 225.502 353.644 225.545V227.063C353.644 227.697 353.625 228.354 353.53 228.941C362.234 228.98 370.936 229.028 379.641 229.086L379.643 229.084C379.635 229.347 379.616 229.614 379.595 229.876C370.82 229.927 362.047 229.977 353.276 230.021C352.965 231.189 352.552 232.322 352.044 233.403C361.076 233.447 370.104 233.494 379.137 233.557H379.139C379.095 233.824 379.047 234.087 378.989 234.348C369.824 234.406 360.657 234.458 351.492 234.502L351.491 234.504C347.776 241.364 340.304 246.096 332.287 246.14C326.656 246.164 320.93 246.156 315.386 246.148C314.417 246.148 313.449 246.147 312.48 246.146C311.51 246.145 310.539 246.144 309.567 246.144V179.253H281.946L281.946 215.248L285.377 215.256H285.378C293.441 215.276 301.5 215.295 309.561 215.326V216.775C300.353 216.806 291.15 216.833 281.946 216.854V219.723C291.15 219.746 300.353 219.771 309.561 219.802V221.251C301.496 221.282 293.433 221.302 285.366 221.321L281.946 221.33V224.196C291.15 224.219 300.353 224.244 309.561 224.275V225.728C300.353 225.759 291.15 225.783 281.946 225.806V228.675L285.393 228.683H285.397C293.454 228.703 301.507 228.723 309.561 228.754V230.203C300.353 230.234 291.15 230.258 281.946 230.281V233.15L285.413 233.158C293.462 233.178 301.512 233.198 309.561 233.229V234.677C300.357 234.709 291.154 234.736 281.946 234.756L281.946 270.825H296.654C300.198 270.829 303.768 270.829 307.364 270.829C315.546 270.829 323.835 270.823 332.028 270.806C333.896 270.802 335.892 270.645 337.958 270.342C350.843 268.464 361.386 262.754 369.288 253.373C374.458 247.236 377.672 240.958 378.993 234.342C379.051 234.081 379.099 233.818 379.142 233.55C379.363 232.334 379.512 231.109 379.599 229.869C379.62 229.608 379.639 229.341 379.647 229.077C379.682 228.491 379.695 227.9 379.699 227.31C379.703 226.675 379.703 226.035 379.703 225.396C379.707 225.137 379.707 224.872 379.707 224.607V224.601C379.711 223.376 379.715 222.151 379.715 220.92V220.128C379.72 218.903 379.724 217.678 379.72 216.447Z" fill="#262626"/>
<path d="M257.724 209.122L257.288 209.437L249.301 215.234H249.297L248.136 216.075L248.703 217.825H248.707L250.596 223.634L251.439 226.231L251.799 227.328L250.285 226.227H250.281L244.494 222.028H244.49L242.21 220.372L232.626 227.328L232.988 226.219L233.822 223.643H233.826L235.193 219.439L236.289 216.075L235.136 215.238H235.132L227.116 209.42H227.112L226.701 209.122H238.552L242.21 197.869L245.873 209.122H257.724Z" fill="#262626"/>
</svg>
