<svg width="450" height="450" viewBox="0 0 450 450" fill="none" xmlns="http://www.w3.org/2000/svg">
<rect x="0.5" y="0.5" width="449" height="449" fill="#EAEAEA"/>
<rect x="0.5" y="0.5" width="449" height="449" stroke="#262626"/>
<path d="M223.959 165.136C224.383 165.283 224.764 165.494 225.099 165.742C225.214 165.827 225.32 165.918 225.425 166.012C225.431 166.002 225.437 165.991 225.442 165.982C225.785 165.387 226.284 164.83 226.957 164.43C227.403 164.164 227.924 163.97 228.501 163.876C228.773 163.832 229.042 163.81 229.306 163.81C229.413 163.81 229.518 163.816 229.623 163.821C230.059 163.377 230.538 162.905 231.064 162.414C233.91 159.755 238.043 156.56 243.226 154.415C246.681 152.986 250.607 152.027 254.911 152.027C255.475 152.027 256.045 152.044 256.621 152.077C256.898 152.094 257.145 152.232 257.305 152.448L279.163 142.422L229.691 113.674L177.043 137.971L223.644 165.04C223.751 165.068 223.856 165.099 223.959 165.136Z" fill="#262626"/>
<path d="M260.769 170.802C260.769 172.145 260.699 173.494 260.54 174.829C260.54 174.829 260.54 174.835 260.54 174.837C260.54 174.844 260.54 174.853 260.538 174.861C260.479 175.491 260.321 176.102 260.002 176.651C259.682 177.21 259.199 177.686 258.596 178.042C258.195 178.279 257.738 178.471 257.226 178.626C256.542 178.831 255.757 178.971 254.841 179.058L254.803 179.061C253.703 179.118 252.625 179.144 251.575 179.144C250.239 179.144 248.953 179.102 247.731 179.032L287.522 202.145L340.139 177.863L291.117 149.372L260.17 163.504C260.527 165.8 260.771 168.285 260.771 170.802H260.769Z" fill="#262626"/>
<path d="M255.18 201.78C255.267 202.079 255.201 202.398 254.998 202.636C254.797 202.874 254.493 202.992 254.184 202.955C250.751 202.534 247.867 201.852 245.257 200.628C242.646 199.405 240.335 197.646 238.049 195.159C236.523 193.499 235.005 191.515 233.393 189.134C231.793 186.772 230.1 184.018 228.222 180.796L227.395 180.317C226.524 184.362 225.691 187.785 224.803 190.731C223.622 194.646 222.343 197.735 220.733 200.322C219.66 202.046 218.439 203.541 217.022 204.896C215.133 206.703 212.902 208.254 210.201 209.799C209.926 209.956 209.589 209.962 209.309 209.812C209.029 209.663 208.846 209.379 208.824 209.062L208.312 201.59L200.367 198.999C199.936 198.859 199.673 198.428 199.743 197.98C199.813 197.532 200.198 197.202 200.651 197.202H200.679C202.342 197.202 204.063 196.879 205.793 196.151C207.524 195.42 209.263 194.283 210.954 192.636C213.077 190.569 215.12 187.689 216.933 183.824C216.598 184.056 216.242 184.298 215.863 184.551C213.07 186.409 209.127 188.749 204.5 190.682L204.465 190.696C203.162 191.176 202.07 191.425 201.091 191.427C200.55 191.427 200.043 191.342 199.579 191.172L172.722 203.436L222.299 232.249L274.997 207.928L253.299 195.343L255.182 201.784L255.18 201.78Z" fill="#262626"/>
<path d="M193.736 181.604C193.34 180.446 192.993 179.282 192.691 178.145C191.687 174.357 191.175 170.88 190.963 168.956C190.902 168.405 190.867 167.985 190.852 167.706C190.832 167.349 191.02 167.015 191.335 166.843C193.946 165.435 196.601 164.52 199.214 163.969L164.429 143.792L111.852 168.058L160.998 196.621L193.736 181.606V181.604Z" fill="#262626"/>
<path d="M260.717 189.719L254.523 193.918L277.042 206.98L278.186 206.452L285.475 203.089L261.119 188.941C261.123 189.245 260.981 189.54 260.717 189.719Z" fill="#262626"/>
<path d="M202.083 163.502C203.409 163.347 204.716 163.277 205.989 163.277C211.242 163.277 215.955 164.437 219.364 165.593C219.529 165.65 219.693 165.705 219.854 165.763C219.935 165.705 220.018 165.65 220.104 165.598C220.242 165.514 220.386 165.438 220.535 165.368L174.998 138.917L166.476 142.85L202.083 163.504V163.502Z" fill="#262626"/>
<path d="M242.465 183.417C245.139 185.721 247.689 187.15 250.18 187.93C251.842 188.45 253.48 188.683 255.125 188.683C256.64 188.683 258.163 188.484 259.709 188.122L243.401 178.65C240.217 178.272 237.886 177.78 236.941 177.564C238.839 179.944 240.678 181.879 242.463 183.418L242.465 183.417Z" fill="#262626"/>
<path d="M258.232 155.046C258.576 156.173 258.972 157.6 259.346 159.237C259.52 159.991 259.687 160.792 259.844 161.623L289.162 148.236L281.11 143.556L257.957 154.176C258.044 154.441 258.136 154.729 258.232 155.044V155.046Z" fill="#262626"/>
<path d="M197.884 189.917C197.743 189.738 197.614 189.552 197.498 189.354C197.471 189.31 197.449 189.262 197.427 189.21C197.423 189.207 197.419 189.203 197.417 189.199C196.299 187.614 195.372 185.797 194.596 183.904C194.519 183.717 194.445 183.529 194.372 183.341L162.975 197.742L170.798 202.284L197.884 189.917Z" fill="#262626"/>
<path d="M110.585 169.567V184.521L160.053 213.222V198.288L110.585 169.567Z" fill="#262626"/>
<path d="M171.659 205.027L171.574 219.906L221.136 248.66V233.753L171.659 205.027Z" fill="#262626"/>
<path d="M223.17 233.873L223.172 248.933L276.073 224.525V209.458L223.17 233.873Z" fill="#262626"/>
<path d="M288.394 218.84L341.211 194.469V179.397L288.394 203.773V218.84Z" fill="#262626"/>
<path d="M161.895 214.203L169.739 218.757L169.824 203.96L161.895 199.357V214.203Z" fill="#262626"/>
<path d="M161.895 199.274V199.357L169.824 203.96V203.881L161.895 199.274Z" fill="#262626"/>
<path d="M161.895 199.246V199.274L169.824 203.881V203.849L161.895 199.246Z" fill="#262626"/>
<path d="M277.915 208.632V223.675L286.551 219.69V204.647L277.915 208.632Z" fill="#262626"/>
<path d="M284.062 205.77L277.915 208.608V208.632L286.551 204.647V204.623L284.062 205.77Z" fill="#262626"/>
<path d="M277.915 208.608L284.062 205.77L283.413 206.071L277.915 208.608Z" fill="#262626"/>
<path d="M219.745 181.959C218.31 185.555 216.681 188.498 214.921 190.867C212.329 194.36 209.443 196.611 206.51 197.848C205.915 198.099 205.316 198.308 204.721 198.477L209.478 200.028C209.836 200.144 210.087 200.467 210.112 200.841L210.564 207.442C212.909 206.01 214.802 204.573 216.39 202.923C218.256 200.983 219.725 198.743 221.02 195.8C221.882 193.84 222.665 191.57 223.423 188.889C224.193 186.164 224.939 183.014 225.722 179.341L225.613 179.278L219.745 181.958V181.959Z" fill="#262626"/>
<path d="M225.72 179.344C225.73 179.303 225.739 179.261 225.746 179.22L225.612 179.281L225.72 179.344Z" fill="#262626"/>
<path d="M224.635 178.715L223.478 179.244C223.062 179.579 222.619 179.902 222.157 180.215C221.514 180.651 220.828 181.066 220.115 181.462C220.047 181.517 219.964 181.584 219.863 181.663C219.824 181.763 219.786 181.862 219.745 181.959L225.613 179.281L224.635 178.713V178.715Z" fill="#262626"/>
<path d="M224.829 178.625L224.637 178.714L225.615 179.282L225.75 179.221C225.761 179.166 225.774 179.11 225.785 179.055C225.453 178.917 225.134 178.773 224.83 178.627L224.829 178.625Z" fill="#262626"/>
<path d="M223.478 179.244L224.635 178.715L224.311 178.526C224.045 178.772 223.767 179.01 223.478 179.244Z" fill="#262626"/>
<path d="M224.311 178.526L224.635 178.715L224.827 178.626C224.688 178.559 224.552 178.493 224.419 178.425C224.384 178.458 224.346 178.491 224.311 178.524L224.311 178.526Z" fill="#262626"/>
<path d="M242.285 196.617C243.733 197.767 245.214 198.636 246.843 199.311C248.662 200.063 250.674 200.574 253.014 200.932L251.197 194.719C251.14 194.522 251.151 194.317 251.221 194.135L231.487 182.69C232.996 185.194 234.384 187.36 235.701 189.232C238.017 192.521 240.114 194.893 242.285 196.619V196.617Z" fill="#262626"/>
<path d="M230.874 176.88C230.358 177.451 229.768 178.032 229.092 178.617C229.254 178.897 229.415 179.174 229.573 179.446L252.754 192.892L256.297 190.492C255.908 190.515 255.518 190.528 255.129 190.528C253.308 190.528 251.475 190.268 249.633 189.691C247.79 189.114 245.94 188.222 244.076 186.97C240.906 184.84 237.695 181.674 234.349 177.219C233.369 177.064 232.434 176.852 231.563 176.566L230.876 176.88H230.874Z" fill="#262626"/>
<path d="M231.487 182.688L251.221 194.133C251.287 193.96 251.403 193.805 251.565 193.696L251.906 193.466L230.516 181.06C230.846 181.618 231.171 182.16 231.487 182.69L231.487 182.688Z" fill="#262626"/>
<path d="M230.516 181.06L251.906 193.466L252.754 192.892L229.573 179.446C229.894 179.998 230.209 180.536 230.516 181.06Z" fill="#262626"/>
<path d="M230.874 176.88L231.561 176.566C231.454 176.531 231.351 176.492 231.246 176.456C231.128 176.596 231.003 176.738 230.876 176.88H230.874Z" fill="#262626"/>
<path d="M255.018 175.899C253.622 176.107 251.831 176.408 249.387 176.76C248.52 176.886 247.611 177.005 246.675 177.112C248.201 177.227 249.846 177.299 251.573 177.299C252.584 177.299 253.625 177.275 254.683 177.219C255.604 177.131 256.332 176.985 256.885 176.799C257.441 176.611 257.813 176.386 258.068 176.15C258.237 175.991 258.359 175.827 258.456 175.634C258.466 175.615 258.473 175.597 258.48 175.578C258.408 175.578 258.335 175.575 258.261 175.575C257.41 175.575 256.417 175.689 255.02 175.899H255.018Z" fill="#262626"/>
<path d="M200.05 188.708C199.855 188.791 199.673 188.878 199.496 188.968C199.545 189.02 199.595 189.068 199.647 189.112L202.138 187.974C201.29 188.234 200.618 188.465 200.048 188.71L200.05 188.708Z" fill="#262626"/>
<path d="M200.857 189.572C200.931 189.577 201.008 189.581 201.091 189.581C201.74 189.583 202.641 189.402 203.811 188.971C206.608 187.802 209.156 186.474 211.338 185.2C210.304 185.55 209.292 185.869 208.329 186.16L200.857 189.572Z" fill="#262626"/>
<path d="M208.296 186.169C206.079 186.837 204.402 187.303 203.085 187.688C202.746 187.788 202.433 187.88 202.14 187.971L199.649 189.108C199.66 189.117 199.669 189.129 199.68 189.136C199.89 189.307 200.113 189.424 200.404 189.499C200.539 189.534 200.69 189.556 200.859 189.569L208.331 186.158C208.32 186.162 208.308 186.165 208.297 186.167L208.296 186.169Z" fill="#262626"/>
<path d="M243.967 156.104C240.707 157.447 237.857 159.246 235.51 161.053C234.181 162.075 233.013 163.1 232.022 164.044L254.178 153.882C250.451 153.984 247.031 154.843 243.969 156.104H243.967Z" fill="#262626"/>
<path d="M240.792 175C243.755 174.565 247.81 174.008 251.405 173.647C253.618 173.424 255.654 173.273 257.187 173.273C257.607 173.273 257.99 173.284 258.337 173.309C258.51 173.322 258.674 173.339 258.83 173.361C258.895 172.513 258.928 171.657 258.928 170.802C258.928 168.587 258.729 166.374 258.427 164.298L238.238 173.516L240.794 175H240.792Z" fill="#262626"/>
<path d="M237.877 175.442L236.18 174.457L234.997 174.997C235.121 175.167 235.242 175.335 235.364 175.502C235.79 175.556 236.226 175.598 236.67 175.633C236.86 175.604 237.278 175.536 237.875 175.443L237.877 175.442Z" fill="#262626"/>
<path d="M239.331 175.218C239.779 175.15 240.269 175.078 240.792 175L238.237 173.516L237.208 173.985L239.329 175.216L239.331 175.218Z" fill="#262626"/>
<path d="M237.877 175.442C238.284 175.379 238.775 175.303 239.329 175.22L237.208 173.989L236.18 174.457L237.877 175.442Z" fill="#262626"/>
<path d="M234.165 168.154L234.168 168.174V168.191C234.2 168.351 234.255 168.715 234.255 169.233C234.255 169.721 234.207 170.348 234.047 171.08L236.283 172.38L258.117 162.41C258.023 161.885 257.924 161.372 257.819 160.876C257.308 158.422 256.717 156.344 256.269 154.948L233.022 165.611C233.61 166.331 234.008 167.206 234.165 168.152V168.154Z" fill="#262626"/>
<path d="M233.875 173.481L234.227 173.321L233.474 172.884C233.418 173.017 233.358 173.153 233.295 173.292C233.505 173.286 233.709 173.354 233.877 173.483L233.875 173.481Z" fill="#262626"/>
<path d="M235.255 172.853L236.283 172.384L234.047 171.084C233.982 171.376 233.901 171.683 233.798 172.006L235.257 172.854L235.255 172.853Z" fill="#262626"/>
<path d="M234.227 173.321L235.255 172.853L233.796 172.004C233.706 172.286 233.599 172.58 233.474 172.884L234.227 173.321Z" fill="#262626"/>
<path d="M238.237 173.516L258.425 164.298C258.379 163.979 258.329 163.664 258.279 163.352L237.26 172.95L238.237 173.518V173.516Z" fill="#262626"/>
<path d="M232.333 164.916L255.976 154.072C255.954 154.011 255.934 153.951 255.914 153.895C255.577 153.882 255.241 153.875 254.908 153.875C254.663 153.875 254.418 153.879 254.174 153.884L232.018 164.046C231.884 164.175 231.751 164.302 231.622 164.428C231.872 164.57 232.11 164.734 232.329 164.916H232.333Z" fill="#262626"/>
<path d="M234.997 174.995L236.18 174.455L235.204 173.887L234.454 174.23C234.636 174.488 234.817 174.745 234.997 174.995Z" fill="#262626"/>
<path d="M237.208 173.986L238.237 173.516L237.26 172.95L236.232 173.418L237.208 173.986Z" fill="#262626"/>
<path d="M236.18 174.455L237.208 173.986L236.232 173.418L235.204 173.889L236.18 174.455Z" fill="#262626"/>
<path d="M232.556 165.106C232.724 165.263 232.877 165.434 233.022 165.613L256.269 154.95C256.179 154.669 256.094 154.415 256.019 154.194C256.004 154.149 255.989 154.111 255.976 154.07L232.333 164.914C232.409 164.977 232.484 165.04 232.556 165.106Z" fill="#262626"/>
<path d="M237.26 172.951L258.279 163.353C258.228 163.036 258.174 162.722 258.117 162.413L236.283 172.383L237.26 172.951Z" fill="#262626"/>
<path d="M234.072 173.686C234.2 173.871 234.327 174.051 234.454 174.232L235.204 173.889L234.227 173.321L233.875 173.481C233.949 173.539 234.017 173.605 234.072 173.686Z" fill="#262626"/>
<path d="M236.232 173.418L237.26 172.951L236.283 172.383L235.255 172.853L236.232 173.418Z" fill="#262626"/>
<path d="M235.204 173.889L236.232 173.418L235.255 172.853L234.227 173.321L235.204 173.889Z" fill="#262626"/>
<path d="M234.259 175.333C234.393 175.356 234.529 175.38 234.668 175.403C234.896 175.438 235.13 175.471 235.366 175.5C235.244 175.334 235.121 175.167 234.999 174.995L234.26 175.333H234.259Z" fill="#262626"/>
<path d="M233.004 173.88L233.149 173.814L233.1 173.694C233.068 173.757 233.037 173.817 233.004 173.88Z" fill="#262626"/>
<path d="M233.098 173.694L233.148 173.813L233.875 173.481C233.708 173.352 233.503 173.284 233.293 173.29C233.256 173.369 233.219 173.448 233.181 173.529C233.155 173.583 233.125 173.638 233.098 173.694Z" fill="#262626"/>
<path d="M234.454 174.232L233.601 174.621C233.761 174.852 233.923 175.078 234.083 175.303C234.141 175.314 234.2 175.324 234.259 175.335L234.997 174.997C234.817 174.746 234.634 174.492 234.454 174.232Z" fill="#262626"/>
<path d="M232.663 174.483L233.315 174.21L233.149 173.814L233.004 173.88C232.899 174.077 232.785 174.28 232.663 174.483Z" fill="#262626"/>
<path d="M233.875 173.481L233.148 173.813L233.313 174.21C233.409 174.348 233.505 174.484 233.599 174.621L234.452 174.232C234.325 174.051 234.198 173.87 234.071 173.686C234.015 173.605 233.947 173.538 233.873 173.481L233.875 173.481Z" fill="#262626"/>
<path d="M233.671 175.06L233.422 175.163C233.638 175.213 233.859 175.259 234.083 175.301C233.923 175.076 233.763 174.85 233.601 174.619L233.505 174.663L233.671 175.06Z" fill="#262626"/>
<path d="M233.505 174.665L232.768 175.002C232.982 175.061 233.199 175.115 233.422 175.167L233.671 175.063L233.505 174.667V174.665Z" fill="#262626"/>
<path d="M232.737 174.993C232.746 174.995 232.757 174.999 232.766 175.001L233.503 174.663L233.313 174.21L232.556 174.733C232.617 174.82 232.676 174.907 232.737 174.993Z" fill="#262626"/>
<path d="M232.405 174.897C232.514 174.93 232.624 174.962 232.737 174.993C232.676 174.907 232.617 174.822 232.556 174.733L233.313 174.21L232.661 174.482C232.58 174.619 232.493 174.757 232.403 174.895L232.405 174.897Z" fill="#262626"/>
<path d="M233.505 174.665L233.601 174.621C233.505 174.485 233.411 174.35 233.315 174.21L233.505 174.663L233.505 174.665Z" fill="#262626"/>
<path d="M257.187 173.273C255.652 173.273 253.618 173.424 251.405 173.647C247.81 174.01 243.755 174.567 240.792 175L241.936 175.664C242.351 175.644 242.765 175.618 243.18 175.589C245.857 175.215 248.986 174.811 251.79 174.534C252.94 174.355 253.905 174.2 254.747 174.073C256.168 173.861 257.244 173.73 258.261 173.728C258.443 173.728 258.622 173.734 258.799 173.743C258.81 173.616 258.819 173.487 258.829 173.358C258.672 173.336 258.51 173.319 258.335 173.306C257.988 173.28 257.605 173.269 257.185 173.269L257.187 173.273Z" fill="#262626"/>
<path d="M238.351 175.716L237.877 175.442C237.28 175.534 236.86 175.6 236.672 175.631C237.219 175.674 237.781 175.701 238.351 175.716Z" fill="#262626"/>
<path d="M240.201 175.723C240.776 175.714 241.356 175.694 241.936 175.666L240.792 175.002C240.269 175.08 239.779 175.152 239.331 175.22L240.201 175.725V175.723Z" fill="#262626"/>
<path d="M238.351 175.716C238.71 175.725 239.071 175.731 239.438 175.731C239.69 175.731 239.945 175.727 240.201 175.723L239.331 175.219C238.775 175.302 238.286 175.377 237.879 175.44L238.353 175.715L238.351 175.716Z" fill="#262626"/>
<path d="M251.79 174.536C248.984 174.813 245.857 175.216 243.18 175.591C245.24 175.445 247.278 175.203 249.126 174.936C250.117 174.792 250.998 174.659 251.792 174.536H251.79Z" fill="#262626"/>
<path d="M201.694 165.407C198.742 165.811 195.713 166.674 192.739 168.195C192.774 168.569 192.828 169.058 192.901 169.639C193.027 170.609 193.211 171.831 193.469 173.205C193.896 175.49 194.53 178.189 195.42 180.833L213.773 172.416L201.694 165.409V165.407Z" fill="#262626"/>
<path d="M217.79 170.572C217.766 170.362 217.75 170.153 217.75 169.945C217.75 169.078 217.954 168.23 218.35 167.476C218.391 167.397 218.437 167.321 218.481 167.244C215.231 166.165 210.824 165.12 205.987 165.121C205.629 165.121 205.268 165.129 204.905 165.142L215.824 171.476L217.79 170.574V170.572Z" fill="#262626"/>
<path d="M214.8 171.944L203.238 165.238C202.726 165.282 202.21 165.337 201.692 165.407L213.772 172.414L214.798 171.944H214.8Z" fill="#262626"/>
<path d="M215.826 171.474L204.907 165.14C204.356 165.158 203.8 165.19 203.24 165.238L214.802 171.944L215.828 171.474H215.826Z" fill="#262626"/>
<path d="M198.711 187.097C199.363 186.71 200.227 186.302 201.255 185.865C203.308 184.995 206.005 184.027 208.701 183.114C212.736 181.75 216.762 180.516 218.534 179.981C219.001 178.72 219.445 177.376 219.865 175.945L215.728 173.546L196.052 182.57C196.71 184.265 197.484 185.886 198.377 187.307C198.482 187.237 198.593 187.165 198.713 187.095L198.711 187.097Z" fill="#262626"/>
<path d="M217.777 172.606L218.593 173.08C218.464 172.833 218.358 172.598 218.267 172.381L217.777 172.606Z" fill="#262626"/>
<path d="M220.244 175.381C220.066 175.191 219.9 175.001 219.747 174.813L216.751 173.076L215.725 173.546L219.861 175.945C219.868 175.923 219.874 175.899 219.881 175.877C219.942 175.67 220.073 175.497 220.242 175.379L220.244 175.381Z" fill="#262626"/>
<path d="M217.777 172.606L216.751 173.076L219.747 174.813C219.246 174.199 218.87 173.608 218.593 173.077L217.777 172.603V172.606Z" fill="#262626"/>
<path d="M213.773 172.413L195.42 180.831C195.518 181.124 195.621 181.415 195.726 181.705L214.75 172.979L213.773 172.413Z" fill="#262626"/>
<path d="M217.967 171.505C217.886 171.206 217.847 170.987 217.829 170.869L217.825 170.852L217.821 170.828C217.807 170.743 217.799 170.657 217.79 170.572L215.824 171.473L216.801 172.04L217.965 171.505H217.967Z" fill="#262626"/>
<path d="M214.8 171.943L213.773 172.413L214.75 172.979L215.776 172.509L214.8 171.943Z" fill="#262626"/>
<path d="M216.802 172.04L215.826 171.474L214.8 171.944L215.776 172.509L216.802 172.04Z" fill="#262626"/>
<path d="M214.75 172.979L195.726 181.705C195.812 181.946 195.901 182.186 195.993 182.426C196.011 182.474 196.032 182.522 196.05 182.57L215.726 173.546L214.75 172.979Z" fill="#262626"/>
<path d="M218.269 172.381C218.23 172.285 218.192 172.191 218.159 172.102C218.076 171.879 218.015 171.68 217.967 171.505L216.802 172.04L217.779 172.606L218.269 172.381Z" fill="#262626"/>
<path d="M215.776 172.509L214.75 172.98L215.726 173.546L216.753 173.076L215.776 172.509Z" fill="#262626"/>
<path d="M216.802 172.04L215.776 172.51L216.753 173.076L217.777 172.606L216.802 172.04Z" fill="#262626"/>
<path d="M222.63 177.551L221.731 177.029L221.459 177.036C221.272 177.652 221.081 178.255 220.886 178.842C220.965 178.79 221.048 178.738 221.127 178.685C221.672 178.316 222.175 177.936 222.632 177.549L222.63 177.551Z" fill="#262626"/>
<path d="M222.107 177.018L221.731 177.029L222.63 177.551C222.667 177.52 222.706 177.488 222.743 177.457C222.522 177.311 222.31 177.166 222.107 177.018Z" fill="#262626"/>
<path d="M219.487 179.697C219.54 179.667 219.596 179.638 219.647 179.607C220.007 178.594 220.351 177.532 220.681 176.42L219.861 175.945C219.441 177.376 218.997 178.718 218.531 179.981C219.126 179.802 219.467 179.701 219.469 179.701C219.474 179.701 219.48 179.699 219.485 179.697H219.487Z" fill="#262626"/>
<path d="M220.629 175.775C220.495 175.644 220.368 175.512 220.244 175.381C220.075 175.499 219.944 175.67 219.883 175.879L220.768 176.137L221.009 176.129C220.878 176.011 220.749 175.893 220.629 175.775Z" fill="#262626"/>
<path d="M220.768 176.137L219.883 175.879C219.876 175.901 219.87 175.925 219.863 175.947L220.683 176.422C220.71 176.327 220.74 176.233 220.768 176.137Z" fill="#262626"/>
<path d="M220.777 176.476L220.795 177.057L221.459 177.036C221.473 176.988 221.486 176.943 221.501 176.895L220.779 176.476H220.777Z" fill="#262626"/>
<path d="M221.459 177.038L220.795 177.058L220.777 176.477L220.681 176.422C220.351 177.534 220.007 178.596 219.647 179.608C220.079 179.359 220.489 179.105 220.884 178.845C221.079 178.259 221.271 177.656 221.457 177.04L221.459 177.038Z" fill="#262626"/>
<path d="M221.501 176.896C221.486 176.944 221.473 176.99 221.459 177.038L221.731 177.031L221.501 176.898V176.896Z" fill="#262626"/>
<path d="M221.501 176.896C221.529 176.804 221.556 176.712 221.586 176.618C221.431 176.494 221.282 176.369 221.14 176.245L220.768 176.137L220.779 176.478L221.501 176.896Z" fill="#262626"/>
<path d="M222.107 177.018C221.925 176.885 221.752 176.752 221.586 176.618C221.558 176.712 221.53 176.802 221.501 176.896L221.731 177.029L222.107 177.018Z" fill="#262626"/>
<path d="M220.768 176.137C220.74 176.233 220.71 176.327 220.683 176.422L220.779 176.478L220.768 176.137Z" fill="#262626"/>
<path d="M221.009 176.129L220.768 176.137L221.14 176.245C221.096 176.207 221.053 176.168 221.011 176.129L221.009 176.129Z" fill="#262626"/>
<path d="M199.326 187.012C199.923 186.758 200.572 186.531 201.335 186.291C202.856 185.815 204.835 185.286 207.767 184.403C207.794 184.394 207.824 184.386 207.852 184.377C209.451 183.826 211.085 183.286 212.609 182.795C213.316 182.535 214.026 182.262 214.726 181.976C216.007 181.453 217.256 180.883 218.426 180.274C218.463 180.177 218.499 180.079 218.534 179.981C216.764 180.516 212.736 181.75 208.701 183.114C206.005 184.027 203.308 184.995 201.255 185.865C200.227 186.302 199.363 186.71 198.711 187.097C198.591 187.169 198.482 187.239 198.375 187.309C198.401 187.35 198.425 187.39 198.451 187.431C198.731 187.281 199.022 187.143 199.326 187.012Z" fill="#262626"/>
<path d="M219.139 179.88H219.135C219.135 179.88 219.111 179.902 219.087 179.922C219.108 179.911 219.126 179.9 219.147 179.889L219.139 179.88Z" fill="#262626"/>
<path d="M219.47 179.701V179.706C219.47 179.706 219.481 179.701 219.487 179.697C219.481 179.697 219.476 179.697 219.47 179.701Z" fill="#262626"/>
<path d="M219.087 179.92C219.111 179.9 219.13 179.885 219.135 179.881H219.139L219.147 179.889C219.255 179.828 219.364 179.767 219.472 179.706V179.701C219.472 179.701 219.128 179.802 218.534 179.981C218.498 180.079 218.463 180.179 218.426 180.274C218.651 180.158 218.872 180.04 219.091 179.92H219.087Z" fill="#262626"/>
<path d="M207.85 184.379C209.359 183.924 210.98 183.395 212.607 182.797C211.083 183.289 209.449 183.828 207.85 184.379Z" fill="#262626"/>
<path d="M224.331 167.571L222.969 166.78C222.844 166.76 222.715 166.749 222.577 166.749C222.527 166.749 222.476 166.753 222.426 166.755C223.226 167.092 223.852 167.387 224.276 167.595L224.331 167.57V167.571Z" fill="#262626"/>
<path d="M224.366 167.555C224.337 167.525 224.311 167.492 224.281 167.463C224.016 167.204 223.705 167 223.353 166.876C223.231 166.834 223.102 166.801 222.969 166.778L224.331 167.57L224.368 167.553L224.366 167.555Z" fill="#262626"/>
<path d="M225.289 169.392C225.236 169.696 225.164 170.129 225.092 170.631C224.948 171.632 224.806 172.919 224.806 174C224.806 174.374 224.823 174.724 224.86 175.018C224.864 175.043 224.867 175.066 224.871 175.09L227.344 175.014C227.624 175.005 227.896 175.126 228.075 175.342C228.088 175.357 228.099 175.373 228.11 175.39L229.591 174.771C229.643 174.649 229.72 174.538 229.82 174.448C229.82 174.431 229.824 174.413 229.824 174.387C229.824 174.269 229.794 174.057 229.719 173.801C229.645 173.544 229.531 173.24 229.389 172.919C229.105 172.274 228.709 171.549 228.307 170.878C227.955 170.288 227.598 169.738 227.303 169.301L226.282 168.71L226.181 168.756C226.163 168.767 226.14 168.774 226.12 168.783L225.335 169.143C225.322 169.213 225.308 169.296 225.289 169.395V169.392Z" fill="#262626"/>
<path d="M226.282 168.706L227.303 169.298C227.062 168.938 226.865 168.658 226.747 168.492L226.282 168.704V168.706Z" fill="#262626"/>
<path d="M224.445 167.638L224.331 167.571L224.276 167.597C224.361 167.64 224.438 167.676 224.506 167.712C224.486 167.688 224.466 167.662 224.445 167.638Z" fill="#262626"/>
<path d="M224.445 167.638C224.419 167.608 224.394 167.583 224.368 167.555L224.331 167.571L224.445 167.638Z" fill="#262626"/>
<path d="M225.376 168.921L225.372 168.943C225.368 168.964 225.363 168.995 225.354 169.036C225.348 169.065 225.341 169.1 225.335 169.139L226.12 168.779C226.048 168.813 225.971 168.838 225.89 168.851C225.717 168.879 225.547 168.855 225.392 168.792C225.391 168.833 225.387 168.873 225.378 168.914V168.919L225.376 168.921Z" fill="#262626"/>
<path d="M226.266 168.696C226.238 168.717 226.209 168.735 226.179 168.752L226.28 168.705L226.266 168.696Z" fill="#262626"/>
<path d="M226.745 168.492C226.678 168.398 226.636 168.341 226.627 168.33C226.616 168.311 226.607 168.295 226.596 168.278C226.529 168.449 226.415 168.593 226.266 168.698L226.28 168.708L226.745 168.496V168.492Z" fill="#262626"/>
<path d="M225.932 177.108L226.118 177.024C226.111 176.981 226.104 176.941 226.1 176.896L225.678 176.909C225.672 176.933 225.665 176.957 225.658 176.981C225.748 177.024 225.838 177.066 225.93 177.108H225.932Z" fill="#262626"/>
<path d="M226.172 177.199C226.148 177.142 226.131 177.084 226.118 177.025L225.932 177.11C226.01 177.145 226.087 177.18 226.168 177.215C226.168 177.21 226.17 177.204 226.172 177.199Z" fill="#262626"/>
<path d="M225.063 175.81C225.186 175.849 225.298 175.914 225.394 175.997L226.422 175.965C226.437 175.893 226.452 175.825 226.465 175.753L226.986 175.858L228.106 175.388C228.095 175.371 228.084 175.355 228.071 175.34C227.891 175.126 227.618 175.005 227.34 175.012L224.867 175.088C224.902 175.348 224.954 175.561 225.005 175.69C225.026 175.744 225.046 175.783 225.061 175.807L225.063 175.81Z" fill="#262626"/>
<path d="M226.988 175.86L226.467 175.755C226.452 175.827 226.437 175.895 226.424 175.967L226.759 175.956L226.988 175.86Z" fill="#262626"/>
<path d="M225.654 176.375C225.717 176.55 225.724 176.736 225.68 176.909L226.102 176.896C226.094 176.78 226.107 176.66 226.146 176.548C226.194 176.41 226.275 176.288 226.378 176.187C226.393 176.113 226.408 176.039 226.424 175.963L225.396 175.995C225.51 176.096 225.601 176.225 225.654 176.373V176.375Z" fill="#262626"/>
<path d="M226.662 175.997L226.759 175.956L226.424 175.967C226.409 176.041 226.395 176.115 226.378 176.19C226.459 176.111 226.555 176.043 226.662 175.998V175.997Z" fill="#262626"/>
<path d="M226.181 177.221C226.181 177.221 226.174 177.206 226.172 177.199C226.172 177.204 226.17 177.21 226.168 177.215C226.172 177.217 226.177 177.219 226.181 177.221Z" fill="#262626"/>
<path d="M228.285 176.036L229.575 175.445C229.547 175.37 229.529 175.291 229.521 175.208C229.509 175.055 229.534 174.905 229.591 174.769L228.11 175.388C228.246 175.573 228.309 175.805 228.285 176.034V176.036Z" fill="#262626"/>
<path d="M228.228 176.34L229.267 175.905C229.387 175.777 229.501 175.652 229.612 175.527C229.599 175.499 229.586 175.473 229.575 175.444L228.285 176.034C228.281 176.061 228.278 176.091 228.272 176.119C228.257 176.192 228.243 176.264 228.228 176.338V176.34Z" fill="#262626"/>
<path d="M226.118 177.024L226.216 176.979C226.221 176.95 226.227 176.922 226.234 176.893L226.102 176.896C226.104 176.939 226.111 176.981 226.12 177.024L226.118 177.024Z" fill="#262626"/>
<path d="M226.216 176.979L226.118 177.024C226.129 177.083 226.148 177.141 226.172 177.197C226.186 177.123 226.201 177.051 226.218 176.977L226.216 176.979Z" fill="#262626"/>
<path d="M227.369 175.938L226.988 175.86L226.759 175.956L227.369 175.938Z" fill="#262626"/>
<path d="M227.384 176.445L227.369 175.936C227.331 176.128 227.292 176.316 227.253 176.504L227.384 176.443V176.445Z" fill="#262626"/>
<path d="M227.369 175.938L227.384 176.446L228.283 176.035C228.307 175.806 228.245 175.576 228.108 175.389L226.988 175.86L227.369 175.938Z" fill="#262626"/>
<path d="M227.29 177.501L227.356 177.661C227.384 177.639 227.414 177.615 227.441 177.593C227.417 177.55 227.393 177.508 227.368 177.466L227.288 177.501H227.29Z" fill="#262626"/>
<path d="M227.331 177.684C227.331 177.684 227.349 177.669 227.358 177.661L227.292 177.501L227.091 177.593C227.17 177.623 227.251 177.654 227.333 177.684H227.331Z" fill="#262626"/>
<path d="M227.29 177.501L227.128 177.114C227.097 177.267 227.065 177.42 227.034 177.571C227.052 177.579 227.071 177.586 227.089 177.593L227.29 177.501Z" fill="#262626"/>
<path d="M227.391 176.69V176.635L227.205 176.74C227.204 176.751 227.202 176.76 227.2 176.771L227.393 176.69H227.391Z" fill="#262626"/>
<path d="M227.874 176.489C227.856 176.455 227.837 176.424 227.819 176.391L227.391 176.635V176.69L227.874 176.489Z" fill="#262626"/>
<path d="M227.819 176.391C227.837 176.424 227.856 176.455 227.874 176.489L228.228 176.342C228.243 176.268 228.257 176.196 228.272 176.122C228.278 176.094 228.281 176.065 228.285 176.037L227.386 176.449L227.391 176.637L227.819 176.393V176.391Z" fill="#262626"/>
<path d="M227.369 177.466C227.294 177.331 227.216 177.197 227.139 177.062C227.135 177.081 227.132 177.097 227.128 177.114L227.29 177.501L227.369 177.466Z" fill="#262626"/>
<path d="M227.205 176.74L227.39 176.634L227.384 176.446L227.253 176.507C227.237 176.585 227.222 176.664 227.205 176.741L227.205 176.74Z" fill="#262626"/>
<path d="M226.662 175.997C226.555 176.041 226.461 176.109 226.378 176.188C226.33 176.424 226.282 176.66 226.234 176.895L226.417 176.889L227.255 176.507C227.294 176.318 227.333 176.131 227.371 175.94L226.761 175.958L226.664 175.999L226.662 175.997Z" fill="#262626"/>
<path d="M226.417 176.887L226.234 176.893C226.229 176.922 226.223 176.95 226.216 176.979L226.415 176.889L226.417 176.887Z" fill="#262626"/>
<path d="M226.378 176.188C226.275 176.288 226.192 176.41 226.146 176.55C226.107 176.662 226.094 176.782 226.102 176.898L226.234 176.895C226.282 176.662 226.33 176.426 226.378 176.188Z" fill="#262626"/>
<path d="M227.017 176.846L227.027 176.869H227.031C227.031 176.869 227.021 176.854 227.017 176.846Z" fill="#262626"/>
<path d="M227.03 176.868H227.027L227.128 177.114C227.132 177.097 227.135 177.079 227.139 177.062C227.102 176.998 227.067 176.935 227.03 176.87V176.868Z" fill="#262626"/>
<path d="M226.172 177.199C226.172 177.199 226.178 177.214 226.181 177.221C226.454 177.341 226.737 177.459 227.034 177.573C227.065 177.422 227.097 177.269 227.128 177.116L227.027 176.871L226.417 176.889L226.218 176.979C226.203 177.053 226.188 177.125 226.172 177.199Z" fill="#262626"/>
<path d="M227.2 176.771C227.202 176.76 227.204 176.751 227.205 176.74L227.017 176.846L227.2 176.771Z" fill="#262626"/>
<path d="M227.017 176.846L227.205 176.74C227.222 176.662 227.237 176.583 227.253 176.506L226.415 176.887L227.025 176.869L227.016 176.847L227.017 176.846Z" fill="#262626"/>
<path d="M228.156 176.983C228.563 176.618 228.934 176.259 229.267 175.905L228.228 176.34C228.189 176.53 228.151 176.717 228.112 176.905C228.127 176.931 228.141 176.957 228.156 176.983Z" fill="#262626"/>
<path d="M228.082 177.048C228.106 177.025 228.132 177.005 228.154 176.983C228.14 176.957 228.125 176.931 228.11 176.906C228.101 176.952 228.092 177 228.081 177.048H228.082Z" fill="#262626"/>
<path d="M227.443 177.593C227.589 177.475 227.729 177.357 227.865 177.239L227.369 177.466C227.393 177.508 227.417 177.551 227.443 177.593Z" fill="#262626"/>
<path d="M228.228 176.34L227.874 176.487C227.953 176.627 228.033 176.765 228.112 176.905C228.151 176.717 228.189 176.53 228.228 176.34Z" fill="#262626"/>
<path d="M227.397 176.858L227.391 176.69L227.198 176.771C227.192 176.802 227.185 176.834 227.18 176.865L227.397 176.858Z" fill="#262626"/>
<path d="M227.397 176.858L227.18 176.865C227.167 176.931 227.152 176.996 227.139 177.062C227.216 177.197 227.292 177.331 227.369 177.466L227.865 177.239C227.939 177.175 228.011 177.112 228.084 177.048C228.093 177.002 228.103 176.954 228.114 176.906C228.035 176.766 227.955 176.629 227.876 176.487L227.395 176.688L227.401 176.856L227.397 176.858Z" fill="#262626"/>
<path d="M227.139 177.062C227.152 176.996 227.167 176.931 227.18 176.865L227.029 176.868C227.065 176.933 227.102 176.996 227.137 177.06L227.139 177.062Z" fill="#262626"/>
<path d="M227.18 176.865C227.185 176.834 227.192 176.802 227.198 176.771L227.016 176.847C227.016 176.847 227.025 176.861 227.029 176.868L227.18 176.865Z" fill="#262626"/>
<path d="M228.589 167.913L232.35 170.098C232.396 169.762 232.411 169.471 232.411 169.235C232.411 168.822 232.366 168.571 232.353 168.51L232.346 168.466V168.448C232.247 167.861 232.009 167.314 231.668 166.867C231.545 166.705 231.406 166.556 231.259 166.421L228.683 167.603C228.622 167.677 228.565 167.747 228.514 167.81C228.538 167.843 228.561 167.878 228.585 167.915L228.589 167.913Z" fill="#262626"/>
<path d="M230.64 171.269C230.938 171.846 231.204 172.423 231.393 172.984C231.439 172.893 231.486 172.805 231.528 172.718C231.659 172.451 231.769 172.195 231.865 171.948L230.616 171.221C230.625 171.238 230.632 171.252 230.642 171.269H230.64Z" fill="#262626"/>
<path d="M228.989 168.507C229.208 168.839 229.455 169.22 229.704 169.628L232.156 171.053C232.25 170.705 232.311 170.386 232.35 170.1L228.589 167.915C228.707 168.086 228.842 168.285 228.989 168.507Z" fill="#262626"/>
<path d="M230.614 171.221L231.863 171.947C231.985 171.632 232.081 171.332 232.156 171.051L229.704 169.626C230.012 170.129 230.327 170.671 230.614 171.221Z" fill="#262626"/>
<path d="M230.316 165.84C230.297 165.833 230.277 165.825 230.257 165.82C230.231 165.847 230.205 165.875 230.179 165.903L230.316 165.84Z" fill="#262626"/>
<path d="M231.261 166.421C231.001 166.185 230.708 165.997 230.389 165.866C230.365 165.857 230.34 165.849 230.316 165.84L230.179 165.903C229.534 166.596 229.031 167.181 228.685 167.603L231.261 166.421Z" fill="#262626"/>
<path d="M229.813 174.485L229.958 174.531L229.835 174.446C229.82 174.468 229.814 174.485 229.814 174.485H229.813Z" fill="#262626"/>
<path d="M229.835 174.446L229.958 174.531L230.035 174.584L230.043 174.58L229.897 174.381C229.875 174.398 229.849 174.424 229.835 174.446Z" fill="#262626"/>
<path d="M230.041 174.58L230.527 174.375C230.594 174.283 230.658 174.191 230.721 174.099C230.588 173.083 229.813 171.587 229.039 170.306L227.301 169.297C227.596 169.734 227.952 170.284 228.305 170.874C228.707 171.545 229.103 172.27 229.387 172.915C229.529 173.238 229.643 173.54 229.717 173.796C229.792 174.053 229.822 174.265 229.822 174.383C229.822 174.409 229.822 174.429 229.818 174.444C229.842 174.422 229.868 174.399 229.895 174.379L230.041 174.578V174.58Z" fill="#262626"/>
<path d="M229.958 174.531L229.813 174.485V174.481L229.816 174.468C229.816 174.463 229.816 174.453 229.818 174.446C229.719 174.536 229.641 174.647 229.59 174.769L230.034 174.582L229.956 174.529L229.958 174.531Z" fill="#262626"/>
<path d="M229.814 174.483V174.486C229.814 174.486 229.82 174.47 229.835 174.448C229.849 174.425 229.873 174.4 229.897 174.383C229.87 174.403 229.844 174.426 229.82 174.448C229.82 174.455 229.82 174.464 229.818 174.47V174.483H229.814Z" fill="#262626"/>
<path d="M227.307 168.236L227.946 168.606C227.81 168.405 227.692 168.236 227.598 168.101L227.307 168.234V168.236Z" fill="#262626"/>
<path d="M227.946 168.606L227.307 168.235L226.745 168.493C226.863 168.659 227.06 168.94 227.301 169.299L229.039 170.308C228.644 169.653 228.252 169.056 227.946 168.608V168.606Z" fill="#262626"/>
<path d="M228.112 166.852C228.386 166.524 228.733 166.122 229.151 165.661C229.035 165.666 228.917 165.678 228.795 165.696C228.256 165.786 227.869 165.991 227.555 166.264C227.325 166.467 227.137 166.714 226.992 166.987L227.356 167.199L228.112 166.852Z" fill="#262626"/>
<path d="M226.789 167.457L227.356 167.197L226.992 166.985C226.942 167.079 226.896 167.177 226.855 167.276C226.831 167.335 226.809 167.396 226.789 167.457Z" fill="#262626"/>
<path d="M228.112 166.852L227.356 167.199L227.677 167.385C227.791 167.241 227.937 167.062 228.112 166.852Z" fill="#262626"/>
<path d="M227.598 168.101C227.456 167.9 227.369 167.782 227.369 167.782L226.997 168.055L227.307 168.233L227.598 168.101Z" fill="#262626"/>
<path d="M226.997 168.055L227.369 167.782C227.369 167.782 227.474 167.64 227.677 167.384L227.356 167.198L226.789 167.458C226.743 167.596 226.708 167.734 226.682 167.873L226.997 168.055Z" fill="#262626"/>
<path d="M226.997 168.055L226.682 167.873C226.671 167.935 226.66 167.996 226.653 168.057C226.643 168.134 226.621 168.208 226.594 168.278C226.605 168.295 226.612 168.313 226.625 168.328L226.995 168.055H226.997Z" fill="#262626"/>
<path d="M226.997 168.055L226.627 168.328C226.636 168.341 226.677 168.399 226.745 168.493L227.307 168.235L226.997 168.057L226.997 168.055Z" fill="#262626"/>
<path d="M230.052 174.597L230.041 174.58L230.035 174.584L230.052 174.597Z" fill="#262626"/>
<path d="M229.521 175.209C229.529 175.292 229.547 175.371 229.575 175.447L229.752 175.366C230.041 175.028 230.299 174.7 230.529 174.378L230.043 174.582L230.054 174.597L230.035 174.584L229.591 174.771C229.534 174.907 229.509 175.056 229.521 175.209Z" fill="#262626"/>
<path d="M229.752 175.364L229.575 175.445C229.586 175.473 229.597 175.501 229.612 175.528C229.66 175.473 229.706 175.419 229.752 175.366V175.364Z" fill="#262626"/>
<path d="M228.517 167.809C228.506 167.824 228.493 167.839 228.482 167.852L228.589 167.913C228.565 167.876 228.541 167.842 228.517 167.807V167.809Z" fill="#262626"/>
<path d="M228.687 167.603L228.449 167.712C228.471 167.743 228.493 167.776 228.517 167.809C228.569 167.747 228.626 167.677 228.687 167.603Z" fill="#262626"/>
<path d="M228.482 167.852C228.493 167.839 228.504 167.824 228.517 167.809C228.493 167.776 228.471 167.743 228.449 167.712L228.333 167.765L228.484 167.852L228.482 167.852Z" fill="#262626"/>
<path d="M230.64 171.269C230.632 171.252 230.623 171.238 230.614 171.221L229.039 170.306C229.813 171.587 230.588 173.083 230.721 174.099C230.983 173.713 231.204 173.339 231.392 172.983C231.202 172.423 230.936 171.846 230.638 171.268L230.64 171.269Z" fill="#262626"/>
<path d="M227.847 168.132L228.112 168.328C228.112 168.328 228.241 168.154 228.482 167.852L228.331 167.765L227.723 168.044L227.847 168.134V168.132Z" fill="#262626"/>
<path d="M228.989 168.507C228.843 168.285 228.707 168.086 228.589 167.915L228.482 167.854C228.239 168.156 228.114 168.328 228.112 168.329L227.847 168.134L227.723 168.044L227.596 168.103C227.69 168.235 227.808 168.407 227.944 168.608L229.702 169.629C229.451 169.222 229.206 168.84 228.987 168.508L228.989 168.507Z" fill="#262626"/>
<path d="M227.847 168.132V168.134L228.112 168.328L227.847 168.132Z" fill="#262626"/>
<path d="M229.704 169.628L227.946 168.606C228.252 169.056 228.644 169.653 229.039 170.306L230.614 171.221C230.328 170.671 230.013 170.129 229.704 169.626L229.704 169.628Z" fill="#262626"/>
<path d="M230.181 165.903C230.207 165.875 230.233 165.848 230.258 165.82C229.962 165.715 229.645 165.654 229.304 165.654C229.254 165.654 229.203 165.658 229.151 165.66C228.733 166.121 228.385 166.523 228.112 166.851L230.181 165.901V165.903Z" fill="#262626"/>
<path d="M228.449 167.712C228.245 167.419 228.116 167.244 228.112 167.238L227.808 167.461L228.331 167.765L228.447 167.712L228.449 167.712Z" fill="#262626"/>
<path d="M227.808 167.461L228.112 167.238C228.112 167.238 228.245 167.419 228.449 167.712L228.687 167.603C229.035 167.181 229.536 166.596 230.181 165.903L228.112 166.852C227.937 167.062 227.791 167.241 227.677 167.385L227.808 167.461Z" fill="#262626"/>
<path d="M227.677 167.384C227.474 167.64 227.369 167.782 227.369 167.782L227.808 167.459L227.677 167.384Z" fill="#262626"/>
<path d="M228.333 167.765L227.808 167.461L227.369 167.782L227.725 168.044L228.333 167.765Z" fill="#262626"/>
<path d="M227.725 168.044L227.369 167.782C227.369 167.782 227.456 167.9 227.598 168.101L227.725 168.042V168.044Z" fill="#262626"/>
<path d="M219.601 169.742L222.068 168.61C221.556 168.387 220.956 168.14 220.274 167.88C220.274 167.88 220.274 167.88 220.272 167.882C219.878 168.393 219.642 169.049 219.601 169.74V169.742Z" fill="#262626"/>
<path d="M222.706 175.156L223.019 175.146C223.017 175.124 223.014 175.104 223.012 175.082C222.977 174.735 222.962 174.372 222.962 173.999C222.962 172.768 223.115 171.422 223.266 170.369C223.281 170.265 223.296 170.164 223.31 170.066L219.944 171.61C220.027 171.818 220.13 172.049 220.266 172.299C220.703 173.112 221.438 174.128 222.706 175.154V175.156Z" fill="#262626"/>
<path d="M219.64 170.526L219.644 170.541L219.651 170.588C219.655 170.611 219.66 170.655 219.673 170.721L223.179 169.113C223.021 169.038 222.842 168.955 222.643 168.863C222.468 168.783 222.273 168.697 222.068 168.608L219.601 169.74C219.598 169.809 219.594 169.875 219.594 169.943C219.594 170.137 219.609 170.33 219.642 170.524L219.64 170.526Z" fill="#262626"/>
<path d="M219.946 171.612L223.312 170.068C223.36 169.755 223.406 169.475 223.445 169.244C223.364 169.205 223.275 169.161 223.179 169.115L219.673 170.723C219.692 170.817 219.723 170.953 219.776 171.13C219.819 171.269 219.874 171.433 219.946 171.612Z" fill="#262626"/>
<path d="M223.021 175.147L222.708 175.156C222.82 175.246 222.936 175.338 223.058 175.429C223.043 175.337 223.032 175.242 223.023 175.147H223.021Z" fill="#262626"/>
<path d="M224.276 167.597C223.85 167.389 223.226 167.094 222.426 166.756C222.33 166.762 222.232 166.771 222.129 166.788C221.718 166.856 221.366 166.991 221.057 167.177C221.051 167.181 221.046 167.184 221.04 167.188C221.906 167.527 222.627 167.842 223.183 168.099L224.276 167.597Z" fill="#262626"/>
<path d="M223.944 175.117L224.871 175.09C224.867 175.066 224.864 175.042 224.86 175.018C224.823 174.723 224.806 174.374 224.806 174C224.806 172.921 224.948 171.634 225.092 170.631C225.164 170.129 225.236 169.698 225.289 169.392C225.306 169.294 225.322 169.209 225.335 169.139L224.318 169.605C224.099 170.927 223.745 173.463 223.944 175.117Z" fill="#262626"/>
<path d="M224.801 168.137L224.63 168.447L224.9 168.324C224.871 168.261 224.836 168.198 224.801 168.137Z" fill="#262626"/>
<path d="M224.631 168.447L224.803 168.137C224.718 167.992 224.618 167.848 224.508 167.711C224.44 167.676 224.362 167.638 224.278 167.597L223.185 168.099C223.682 168.329 224.047 168.512 224.259 168.62L224.633 168.449L224.631 168.447Z" fill="#262626"/>
<path d="M224.318 169.605L225.335 169.139C225.343 169.1 225.348 169.065 225.354 169.036C225.361 168.995 225.367 168.964 225.372 168.943L225.376 168.921L225.376 168.916C225.385 168.875 225.389 168.835 225.39 168.794C225.184 168.709 225.009 168.554 224.908 168.342C224.906 168.337 224.902 168.331 224.899 168.326L224.628 168.449L224.471 168.735C224.471 168.735 224.405 169.073 224.314 169.607L224.318 169.605Z" fill="#262626"/>
<path d="M224.631 168.447L224.257 168.619C224.399 168.693 224.475 168.733 224.475 168.733L224.631 168.447Z" fill="#262626"/>
<path d="M225.68 176.909L225.521 176.915C225.567 176.937 225.613 176.959 225.66 176.981C225.667 176.957 225.674 176.933 225.68 176.909Z" fill="#262626"/>
<path d="M224.152 176.033L224.921 176.009L224.965 175.783C224.998 175.79 225.031 175.799 225.063 175.808C225.048 175.784 225.028 175.746 225.007 175.692C224.956 175.561 224.904 175.347 224.869 175.089L223.942 175.117C223.985 175.469 224.051 175.781 224.15 176.033H224.152Z" fill="#262626"/>
<path d="M225.084 175.842H225.083V175.843L225.084 175.842Z" fill="#262626"/>
<path d="M225.083 175.843V175.842L225.079 175.838L225.026 175.899L225.083 175.843Z" fill="#262626"/>
<path d="M225.059 175.821C225.037 175.806 224.998 175.788 224.965 175.783L224.921 176.009L224.935 176.009L225.061 175.821H225.059Z" fill="#262626"/>
<path d="M225.079 175.838L225.083 175.842C225.083 175.842 225.072 175.829 225.061 175.811C225.029 175.801 224.996 175.79 224.963 175.785C224.994 175.79 225.035 175.807 225.057 175.824L225.079 175.84L225.079 175.838Z" fill="#262626"/>
<path d="M225.079 175.838L225.059 175.821L224.963 175.967L225.079 175.838Z" fill="#262626"/>
<path d="M225.083 175.843L225.026 175.899L225.079 175.84L224.961 175.969L225.057 175.823L224.932 176.011L225.392 175.996C225.297 175.911 225.184 175.849 225.061 175.81C225.072 175.828 225.081 175.842 225.083 175.842V175.843Z" fill="#262626"/>
<path d="M225.519 176.915L225.678 176.909C225.72 176.734 225.715 176.548 225.652 176.374C225.599 176.225 225.508 176.096 225.394 175.997L224.934 176.011L224.913 176.041L224.919 176.011L224.15 176.035C224.176 176.102 224.206 176.164 224.237 176.223C224.63 176.459 225.055 176.692 225.519 176.917V176.915Z" fill="#262626"/>
<path d="M224.934 176.009L224.921 176.011L224.915 176.041L224.934 176.009Z" fill="#262626"/>
<path d="M223.183 168.097C222.629 167.841 221.906 167.525 221.04 167.186C220.742 167.371 220.486 167.605 220.272 167.878C220.954 168.138 221.556 168.385 222.067 168.608L223.181 168.097H223.183Z" fill="#262626"/>
<path d="M222.964 173.999C222.964 174.372 222.979 174.735 223.014 175.082C223.015 175.104 223.019 175.124 223.021 175.147L223.944 175.119C223.745 173.465 224.099 170.929 224.318 169.607L223.312 170.068C223.297 170.166 223.283 170.265 223.268 170.371C223.117 171.423 222.964 172.769 222.964 174.001V173.999Z" fill="#262626"/>
<path d="M223.179 169.115L223.493 168.971C223.539 168.711 223.57 168.56 223.57 168.554L224.149 168.671L224.255 168.621C224.044 168.512 223.679 168.329 223.181 168.099L222.067 168.61C222.271 168.698 222.466 168.785 222.641 168.864C222.84 168.954 223.019 169.039 223.178 169.115L223.179 169.115Z" fill="#262626"/>
<path d="M223.57 168.553C223.57 168.553 223.539 168.709 223.493 168.969L224.15 168.669L223.572 168.553H223.57Z" fill="#262626"/>
<path d="M224.475 168.733L224.069 169.473L224.031 169.543H224.029L224.014 169.536C224.001 169.528 223.979 169.517 223.95 169.501C223.891 169.469 223.802 169.423 223.684 169.364C223.614 169.329 223.533 169.288 223.445 169.244C223.404 169.475 223.36 169.755 223.312 170.068L224.318 169.607C224.407 169.072 224.475 168.735 224.475 168.735L224.475 168.733Z" fill="#262626"/>
<path d="M224.257 168.619L224.15 168.669L224.475 168.733C224.475 168.733 224.399 168.693 224.257 168.619Z" fill="#262626"/>
<path d="M223.493 168.969L223.179 169.113C223.275 169.159 223.366 169.202 223.445 169.242C223.461 169.143 223.478 169.05 223.493 168.969Z" fill="#262626"/>
<path d="M224.031 169.543L224.068 169.473L224.031 169.541L224.031 169.543Z" fill="#262626"/>
<path d="M223.684 169.362C223.802 169.421 223.891 169.467 223.95 169.498C223.979 169.513 223.999 169.526 224.014 169.533L224.029 169.541L224.031 169.541L224.069 169.473L224.475 168.733L224.15 168.669L223.493 168.969C223.478 169.05 223.461 169.141 223.445 169.242C223.533 169.287 223.614 169.327 223.684 169.362Z" fill="#262626"/>
<path d="M223.34 175.635C223.531 175.771 223.734 175.906 223.946 176.041L224.152 176.035C224.053 175.782 223.986 175.471 223.944 175.119L223.021 175.147C223.032 175.242 223.043 175.336 223.056 175.428C223.148 175.497 223.242 175.567 223.338 175.635H223.34Z" fill="#262626"/>
<path d="M224.064 176.114C224.064 176.114 224.069 176.109 224.071 176.105L224.138 176.159C224.171 176.179 224.204 176.199 224.237 176.219C224.206 176.16 224.178 176.1 224.15 176.031L223.944 176.037C223.985 176.063 224.023 176.087 224.064 176.112V176.114Z" fill="#262626"/>
<path d="M224.071 176.108C224.071 176.108 224.066 176.113 224.064 176.117C224.088 176.132 224.112 176.146 224.138 176.161L224.071 176.108Z" fill="#262626"/>
<path d="M236.155 297.168C236.155 331.365 240.12 334.546 244.665 332.471C247.392 331.227 249.623 327.653 249.623 324.002V298.446C249.623 295.89 249.623 293.456 246.401 294.926L245.822 295.189V292.999L260.942 286.101V288.291L260.446 288.518C257.307 289.951 257.224 292.543 257.224 294.977V328.201L255.737 328.879C255.737 327.176 253.837 327.19 252.927 327.605C250.117 328.887 248.464 333.535 244.665 335.269C234.421 339.943 227.976 321.343 227.976 299.803C227.976 278.262 236.155 254.085 245.905 249.637C248.054 248.656 249.54 249.803 251.359 248.975C252.184 248.599 253.095 248.184 253.424 246.329L254.828 245.687V265.403L253.424 266.042C252.267 257.321 250.119 250.391 245.988 252.276C240.534 254.763 236.156 268.81 236.156 297.166L236.155 297.168Z" fill="#262626"/>
<path d="M272.178 315.295C272.178 318.46 273.499 318.1 274.16 317.798L277.63 316.214C281.348 314.517 285.149 311.445 286.387 294.085L287.874 293.406V314.217L260.36 326.77V324.701L261.434 324.211C264.325 322.891 264.491 319.044 264.491 316.367V250.406C264.491 247.972 264.491 244.443 260.938 246.064L260.443 246.29V244.343L275.894 237.294V239.241L275.15 239.58C272.176 240.938 272.176 244.467 272.176 246.901V315.295H272.178Z" fill="#262626"/>
<path d="M301.177 264.215L303.572 263.121C306.382 261.84 309.107 258.04 309.107 252.807V250.129L310.76 249.375V274.81L309.107 275.564V271.67C309.107 266.558 306.629 264.403 303.572 265.799L301.177 266.892V302.063C301.177 305.227 302.498 304.868 303.16 304.565L306.878 302.869C310.596 301.173 314.397 298.101 315.635 280.74L317.122 280.062V300.872L289.361 313.538V311.469L290.435 310.979C293.326 309.658 293.492 305.812 293.492 303.134V237.174C293.492 234.74 293.492 231.211 290.269 232.68L289.361 233.095V231.148L316.131 218.934V237.432L314.644 238.11C314.066 229.855 312.249 223.383 305.804 226.322L301.177 228.434V264.215Z" fill="#262626"/>
<path d="M331.004 250.607L333.399 249.514C336.209 248.232 338.934 244.432 338.934 239.199V236.521L340.587 235.767V261.202L338.934 261.956V258.062C338.934 252.951 336.456 250.795 333.399 252.191L331.004 253.284V288.455C331.004 291.62 332.327 291.26 332.986 290.958L336.705 289.261C340.423 287.565 344.224 284.493 345.462 267.132L346.949 266.454V287.264L319.188 299.93V297.861L320.262 297.371C323.155 296.051 323.319 292.204 323.319 289.527V223.566C323.319 221.132 323.319 217.603 320.096 219.072L319.188 219.487V217.54L345.958 205.326V223.824L344.471 224.503C343.892 216.247 342.076 209.775 335.63 212.715L331.004 214.826V250.607Z" fill="#262626"/>
<path d="M110.97 238.9C110.97 272.01 114.81 279.079 119.21 281.646C121.85 283.186 124.009 281.971 124.009 278.436V253.692C124.009 251.218 124.009 248.861 120.89 247.043L120.33 246.717V244.596L134.969 253.132V255.252L134.488 254.972C131.448 253.2 131.368 255.627 131.368 257.983V290.15L129.929 289.311C129.929 287.661 128.089 285.764 127.21 285.251C124.49 283.665 122.891 286.503 119.21 284.357C109.29 278.571 103.051 254.078 103.051 233.221C103.051 212.365 110.97 197.189 120.409 202.693C122.489 203.906 123.928 206.514 125.688 207.539C126.488 208.006 127.368 208.518 127.687 207.056L129.047 207.849V226.937L127.687 226.144C126.567 216.535 124.487 207.664 120.488 205.332C115.21 202.252 110.97 211.446 110.97 238.9Z" fill="#262626"/>
<path d="M149.527 222.855L149.127 222.622C146.087 220.85 146.007 224.219 146.007 226.576V290.438C146.007 293.267 146.087 296.729 148.966 298.409L149.687 298.83V300.832L134.409 291.922V289.92L135.369 290.48C138.409 292.252 138.569 288.93 138.569 286.101V222.239C138.569 219.882 138.569 216.465 135.21 214.505L134.65 214.179V212.294L149.528 220.97V222.855H149.527Z" fill="#262626"/>
<path d="M165.286 310.046L153.845 230.911C153.206 226.531 152.246 224.44 150.326 223.319L149.766 222.993V221.108L164.644 229.784V231.669L164.324 231.482C162.564 230.455 161.604 231.429 161.925 234.09L169.124 290.84C170.962 280.012 177.282 244.814 177.282 243.047C177.282 240.455 176.643 238.668 173.603 236.896V235.012L185.043 241.683V243.567C182.323 241.982 180.404 243.689 179.843 246.897L168.084 311.68L165.284 310.048L165.286 310.046Z" fill="#262626"/>
<path d="M195.123 284.792L197.443 286.145C200.163 287.731 202.803 286.796 202.803 281.729V279.137L204.402 280.07V304.695L202.803 303.762V299.991C202.803 295.042 200.402 290.462 197.443 288.736L195.123 287.383V321.434C195.123 324.497 196.404 325.48 197.043 325.852L200.644 327.951C204.244 330.049 207.923 330.899 209.123 315.338L210.562 316.177V336.326L183.683 320.653V318.65L184.722 319.257C187.523 320.889 187.681 317.33 187.681 314.737V250.875C187.681 248.518 187.681 245.102 184.562 243.282L183.681 242.769V240.885L209.6 255.997V273.907L208.161 273.068C207.601 264.494 205.841 256.398 199.603 252.759L195.123 250.147V284.792Z" fill="#262626"/>
</svg>
