<svg width="450" height="450" viewBox="0 0 450 450" fill="none" xmlns="http://www.w3.org/2000/svg">
<rect x="0.5" y="0.5" width="449" height="449" fill="#EAEAEA"/>
<rect x="0.5" y="0.5" width="449" height="449" stroke="#262626"/>
<path fill-rule="evenodd" clip-rule="evenodd" d="M223.756 143.463C234.793 143.463 243.741 134.515 243.741 123.478C243.741 112.441 234.793 103.493 223.756 103.493C212.719 103.493 203.771 112.441 203.771 123.478C203.771 134.515 212.719 143.463 223.756 143.463ZM223.756 120.643C222.314 120.643 221.146 121.811 221.146 123.253C221.146 124.695 222.314 125.864 223.756 125.864C225.198 125.864 226.367 124.695 226.367 123.253C226.367 121.811 225.198 120.643 223.756 120.643ZM221.91 129.239C222.4 128.749 223.064 128.474 223.756 128.474C224.449 128.474 225.113 128.749 225.602 129.239C226.092 129.728 226.367 130.392 226.367 131.085C226.367 131.512 226.24 132.6 226.11 133.688C226.076 133.969 226.041 134.258 226.005 134.549L226.003 134.57C225.897 135.443 225.789 136.33 225.712 137.047C225.69 137.534 225.487 137.997 225.141 138.343C224.774 138.71 224.275 138.916 223.756 138.916C223.237 138.916 222.739 138.71 222.372 138.343C222.025 137.997 221.822 137.534 221.8 137.047C221.723 136.329 221.616 135.444 221.51 134.57C221.473 134.272 221.437 133.976 221.403 133.688C221.272 132.6 221.146 131.512 221.146 131.085C221.146 130.392 221.421 129.728 221.91 129.239ZM221.012 118.811C221.836 118.301 222.787 118.031 223.757 118.031C224.726 118.031 225.677 118.301 226.502 118.811C227.326 119.321 227.993 120.05 228.427 120.918C228.86 121.785 229.044 122.756 228.957 123.722C228.87 124.687 228.515 125.61 227.934 126.385C227.501 126.962 227.618 127.78 228.195 128.213C228.771 128.645 229.59 128.529 230.022 127.952C230.895 126.788 231.426 125.405 231.557 123.956C231.687 122.507 231.412 121.051 230.762 119.75C230.111 118.449 229.111 117.355 227.874 116.591C226.637 115.826 225.211 115.421 223.757 115.421C222.302 115.421 220.876 115.826 219.639 116.591C218.402 117.355 217.402 118.449 216.752 119.75C216.101 121.051 215.826 122.507 215.956 123.956C216.087 125.405 216.618 126.788 217.491 127.952C217.924 128.529 218.742 128.645 219.319 128.213C219.895 127.78 220.012 126.962 219.58 126.385C218.998 125.61 218.644 124.687 218.556 123.722C218.469 122.756 218.653 121.785 219.087 120.918C219.52 120.05 220.187 119.321 221.012 118.811ZM215.98 112.79C218.229 111.122 220.955 110.221 223.756 110.221C226.556 110.221 229.282 111.122 231.531 112.79C233.781 114.458 235.434 116.806 236.247 119.485C237.06 122.165 236.989 125.035 236.046 127.672C235.102 130.309 233.336 132.572 231.007 134.128C230.408 134.528 229.597 134.367 229.197 133.768C228.796 133.168 228.958 132.358 229.557 131.957C231.42 130.712 232.833 128.902 233.588 126.792C234.343 124.683 234.399 122.387 233.749 120.243C233.098 118.099 231.776 116.221 229.976 114.887C228.177 113.552 225.996 112.832 223.756 112.832C221.515 112.832 219.335 113.552 217.535 114.887C215.736 116.221 214.413 118.099 213.763 120.243C213.113 122.387 213.169 124.683 213.924 126.792C214.678 128.902 216.092 130.712 217.954 131.957C218.554 132.358 218.715 133.168 218.315 133.768C217.914 134.367 217.103 134.528 216.504 134.128C214.176 132.572 212.409 130.309 211.466 127.672C210.522 125.035 210.452 122.165 211.265 119.485C212.078 116.806 213.731 114.458 215.98 112.79Z" fill="#262626"/>
<path d="M223.81 160.446L151.268 202.995L143.326 207.674L131.965 188.392L141.962 182.503L147.268 191.509L223.81 147.466L302.371 193.718L308.038 184.099L318.035 189.989L306.675 209.27L296.678 203.381L296.706 203.333L223.81 160.446Z" fill="#262626"/>
<path d="M136.393 232.523L136.396 232.521L136.399 232.525L223.756 181.147L313.556 234.121L313.555 234.094L313.602 234.121L334.418 198.789L324.422 192.9L309.285 218.592L223.756 168.167L140.7 216.97L125.578 191.304L115.582 197.194L136.39 232.511L136.393 232.523Z" fill="#262626"/>
<path d="M226.311 191.41V317.117H237.487V226.789L251.138 259.425V317.117H262.339V212.191L251.138 205.745V232.405L240.544 199.668L226.311 191.41Z" fill="#262626"/>
<path fill-rule="evenodd" clip-rule="evenodd" d="M187.483 317.118L187.483 210.814L220.286 191.816V317.118L209.003 317.117V256.533L198.763 262.216V317.117L187.483 317.118ZM209.003 243.977V211.419L198.763 217.354V249.941L209.003 243.977Z" fill="#262626"/>
<path d="M169.957 220.752L181.458 214.21L181.458 317.117H169.957V278.992L162.147 283.327V317.118H150.646V232.037L162.147 225.447V271.016L169.957 266.467V220.752Z" fill="#262626"/>
<path fill-rule="evenodd" clip-rule="evenodd" d="M164.034 341.125C164.034 344.58 165.838 346.506 169.14 346.506C172.442 346.506 174.246 344.58 174.246 341.125V329.996C174.246 326.541 172.442 324.615 169.14 324.615C165.838 324.615 164.034 326.541 164.034 329.996V341.125ZM167.397 341.339V329.782C167.397 328.223 168.07 327.672 169.14 327.672C170.21 327.672 170.883 328.223 170.883 329.782V341.339C170.883 342.899 170.21 343.449 169.14 343.449C168.07 343.449 167.397 342.899 167.397 341.339Z" fill="#262626"/>
<path d="M151.151 324.859L154.453 346.262H159.467L162.769 324.859H159.681L157.113 342.318L154.545 324.859H151.151Z" fill="#262626"/>
<path d="M176.432 346.262V324.859H179.795V346.262H176.432Z" fill="#262626"/>
<path d="M186.993 324.615C183.691 324.615 181.979 326.541 181.979 329.996V341.125C181.979 344.58 183.691 346.506 186.993 346.506C190.295 346.506 192.007 344.58 192.007 341.125V338.282H188.827V341.339C188.827 342.899 188.155 343.418 187.085 343.418C186.015 343.418 185.342 342.899 185.342 341.339V329.782C185.342 328.223 186.015 327.672 187.085 327.672C188.155 327.672 188.827 328.223 188.827 329.782V332.075H192.007V329.996C192.007 326.541 190.295 324.615 186.993 324.615Z" fill="#262626"/>
<path d="M194.048 346.262V324.859H203.22V327.917H197.411V333.879H202.028V336.936H197.411V343.204H203.22V346.262H194.048Z" fill="#262626"/>
<path d="M210.021 324.859V346.262H212.956V331.127L215.463 346.262H218.643L220.967 330.913V346.262H224.147V324.859H219.469L217.176 340.055L214.699 324.859H210.021Z" fill="#262626"/>
<path d="M226.593 346.262V324.859H235.765V327.917H229.956V333.879H234.573V336.936H229.956V343.204H235.765V346.262H226.593Z" fill="#262626"/>
<path d="M237.819 324.859V346.262H240.754V331.127L243.261 346.262H246.441L248.765 330.913V346.262H251.944V324.859H247.267L244.973 340.055L242.497 324.859H237.819Z" fill="#262626"/>
<path fill-rule="evenodd" clip-rule="evenodd" d="M259.222 346.506C255.92 346.506 254.116 344.58 254.116 341.125V329.996C254.116 326.541 255.92 324.615 259.222 324.615C262.524 324.615 264.328 326.541 264.328 329.996V341.125C264.328 344.58 262.524 346.506 259.222 346.506ZM257.479 329.782V341.339C257.479 342.899 258.152 343.449 259.222 343.449C260.292 343.449 260.964 342.899 260.964 341.339V329.782C260.964 328.223 260.292 327.672 259.222 327.672C258.152 327.672 257.479 328.223 257.479 329.782Z" fill="#262626"/>
<path fill-rule="evenodd" clip-rule="evenodd" d="M266.513 346.262H269.877V337.548H271.038C272.598 337.548 273.24 338.282 273.24 340.269V343.632C273.24 345.212 273.361 345.627 273.495 346.088L273.496 346.089C273.512 346.145 273.529 346.202 273.545 346.262H276.97C276.633 345.436 276.603 344.733 276.603 343.663V340.361C276.603 338.129 276.083 336.508 274.371 335.805C275.839 335.102 276.572 333.665 276.572 331.464V329.782C276.572 326.48 275.105 324.859 271.589 324.859H266.513V346.262ZM271.191 334.491H269.877V327.917H271.497C272.689 327.917 273.209 328.559 273.209 330.118V332.228C273.209 333.94 272.445 334.491 271.191 334.491Z" fill="#262626"/>
<path d="M278.815 346.262V324.859H282.178V346.262H278.815Z" fill="#262626"/>
<path fill-rule="evenodd" clip-rule="evenodd" d="M283.75 346.262H286.839L287.419 342.379H291.547L292.128 346.262H295.522L292.097 324.859H287.175L283.75 346.262ZM287.847 339.474L289.468 328.651L291.088 339.474H287.847Z" fill="#262626"/>
<path d="M297.088 346.262V324.859H300.451V343.204H305.985V346.262H297.088Z" fill="#262626"/>
<path d="M277.579 267.476V221.179L308.291 238.906V258.787L296.924 252.27V244.957L288.838 240.126V260.638L306.243 270.652V317.117H273.481V281.164L284.743 286.529V306.931H294.895V277.341L277.579 267.476Z" fill="#262626"/>
<path d="M267.43 215.719L274.578 219.825L267.43 234.121V215.719Z" fill="#262626"/>
<path d="M139.07 238.661L146.218 234.556V252.958L139.07 238.661Z" fill="#262626"/>
</svg>
