<svg width="450" height="450" viewBox="0 0 450 450" fill="none" xmlns="http://www.w3.org/2000/svg">
<rect x="0.5" y="0.5" width="449" height="449" fill="#EAEAEA"/>
<rect x="0.5" y="0.5" width="449" height="449" stroke="#262626"/>
<path d="M74.4724 302.221C95.5828 300.734 112.122 294.007 124.089 282.039C137.755 268.229 144.587 249.185 144.587 224.907C144.587 200.629 137.755 181.658 124.089 167.992C112.122 155.898 95.5828 149.099 74.4724 147.596L74.4724 179.276C83.113 180.799 90.0573 184.452 95.3051 190.235C102.574 197.94 106.208 209.497 106.208 224.907C106.208 240.317 102.574 251.947 95.3051 259.797C90.0573 265.473 83.113 269.059 74.4724 270.553L74.4724 302.221Z" fill="#262626"/>
<path d="M133.038 302.221C154.148 300.734 170.687 294.007 182.655 282.039C196.32 268.229 203.153 249.185 203.153 224.907C203.153 200.629 196.32 181.658 182.655 167.992C170.687 155.898 154.148 149.099 133.038 147.596V179.276C141.678 180.798 148.622 184.452 153.87 190.235C161.139 197.94 164.773 209.497 164.773 224.907C164.773 240.317 161.139 251.947 153.87 259.797C148.622 265.473 141.678 269.059 133.038 270.553V302.221Z" fill="#262626"/>
<path d="M273.269 302.221C252.159 300.734 235.62 294.007 223.652 282.039C209.987 268.228 203.154 249.184 203.154 224.907C203.154 200.629 209.987 181.657 223.652 167.992C235.62 155.897 252.159 149.099 273.269 147.596V179.276C264.629 180.798 257.684 184.451 252.437 190.235C245.168 197.94 241.533 209.497 241.533 224.907C241.533 240.316 245.168 251.946 252.437 259.797C257.684 265.473 264.629 269.058 273.269 270.553V302.221Z" fill="#262626"/>
<path d="M273.266 147.596H373.08V179.145H321.481V302.404H289.931V179.145H273.266V147.596Z" fill="#262626"/>
<path d="M375.527 286.537C375.527 295.249 368.465 302.312 359.753 302.312C351.041 302.312 343.978 295.249 343.978 286.537C343.978 277.825 351.041 270.763 359.753 270.763C368.465 270.763 375.527 277.825 375.527 286.537Z" fill="#262626"/>
<path d="M275.582 179.144C274.706 179.144 273.647 179.237 273.227 179.283L272.582 178.743C273.947 178.877 276.457 179.144 275.582 179.144Z" fill="#262626"/>
</svg>
