<svg width="450" height="450" viewBox="0 0 450 450" fill="none" xmlns="http://www.w3.org/2000/svg">
<rect x="0.5" y="0.5" width="449" height="449" fill="#EAEAEA"/>
<rect x="0.5" y="0.5" width="449" height="449" stroke="#262626"/>
<path fill-rule="evenodd" clip-rule="evenodd" d="M261.988 165.748C259.314 164.208 255.899 165.128 254.359 167.802L235.891 199.88H279.265C282.35 199.88 284.852 197.379 284.852 194.293C284.852 191.208 282.35 188.707 279.265 188.707H255.216L264.042 173.377C265.582 170.703 264.662 167.287 261.988 165.748Z" fill="#262626"/>
<path fill-rule="evenodd" clip-rule="evenodd" d="M261.988 237.502C259.314 239.041 255.899 238.121 254.359 235.447L235.891 203.369H279.265C282.35 203.369 284.852 205.87 284.852 208.956C284.852 212.041 282.35 214.542 279.265 214.542H255.216L264.042 229.873C265.582 232.546 264.662 235.962 261.988 237.502Z" fill="#262626"/>
<path fill-rule="evenodd" clip-rule="evenodd" d="M252.406 153.96C249.732 152.42 246.316 153.34 244.777 156.014L218.42 201.794L244.775 247.25C246.323 249.919 249.741 250.828 252.411 249.28C255.08 247.733 255.989 244.314 254.441 241.645L231.324 201.774L254.46 161.589C255.999 158.915 255.079 155.499 252.406 153.96Z" fill="#262626"/>
<path d="M204.968 156.014C203.428 153.34 200.013 152.42 197.339 153.96C194.665 155.499 193.745 158.915 195.285 161.589L218.42 201.774L195.303 241.645C193.755 244.314 194.665 247.733 197.334 249.28C200.003 250.828 203.421 249.919 204.969 247.25L231.324 201.794L204.968 156.014Z" fill="#262626"/>
<path d="M187.568 165.748C190.242 164.208 193.657 165.128 195.197 167.802L213.665 199.88H170.291C167.206 199.88 164.705 197.379 164.705 194.293C164.705 191.208 167.206 188.707 170.291 188.707H194.34L185.514 173.376C183.974 170.703 184.894 167.287 187.568 165.748Z" fill="#262626"/>
<path d="M187.568 237.501C190.242 239.041 193.657 238.121 195.197 235.447L213.665 203.369H170.291C167.206 203.369 164.705 205.87 164.705 208.956C164.705 212.041 167.206 214.542 170.291 214.542H194.34L185.514 229.872C183.974 232.546 184.894 235.962 187.568 237.501Z" fill="#262626"/>
<path d="M216.417 296.746C216.071 296.746 215.832 296.746 215.592 296.746C207.557 296.746 199.494 296.746 191.459 296.746C189.117 296.746 187.015 296.077 185.153 294.686C183.237 293.242 182.146 291.316 182.119 288.908C182.066 285.19 182.039 281.445 182.119 277.727C182.199 274.276 184.141 272.029 187.175 270.718C188.292 270.237 189.57 269.889 190.767 269.889C199.095 269.809 207.424 269.862 215.752 269.836C216.311 269.836 216.417 270.05 216.417 270.558C216.417 272.056 216.391 273.527 216.417 275.025C216.417 275.613 216.231 275.774 215.646 275.774C210.484 275.774 205.322 275.774 200.16 275.774C197.419 275.774 194.652 275.774 191.911 275.774C191.645 275.774 191.379 275.774 191.113 275.774C189.649 275.961 189.011 276.764 189.091 278.288C189.144 279.572 189.915 280.268 191.326 280.295C198.324 280.295 205.322 280.295 212.346 280.295C213.464 280.295 214.555 280.321 215.672 280.295C216.284 280.295 216.444 280.509 216.417 281.07C216.391 282.568 216.391 284.04 216.417 285.538C216.417 286.126 216.204 286.313 215.646 286.287C211.441 286.287 207.237 286.287 203.007 286.287C199.255 286.287 195.503 286.287 191.778 286.287C191.299 286.287 190.793 286.287 190.341 286.474C189.303 286.875 188.958 287.651 189.091 288.988C189.197 289.951 189.782 290.54 190.82 290.727C191.219 290.807 191.618 290.807 192.017 290.807C199.814 290.807 207.61 290.807 215.406 290.807C216.062 290.807 216.399 291.137 216.417 291.797C216.417 293.429 216.417 295.034 216.417 296.773V296.746Z" fill="#262626"/>
<path d="M277.51 296.746C277.51 294.873 277.51 293.081 277.51 291.289C277.51 291.182 277.723 290.995 277.882 290.941C278.068 290.888 278.281 290.941 278.468 290.941C286.211 290.941 293.927 290.941 301.67 290.941C302.096 290.941 302.575 290.941 302.974 290.807C304.251 290.326 304.677 289.443 304.411 287.972C304.251 287.062 303.293 286.367 302.149 286.367C296.375 286.367 290.628 286.367 284.854 286.367C281.9 286.367 279.346 285.35 277.35 283.13C274.396 279.867 275.062 274.49 278.654 271.922C280.57 270.558 282.672 269.889 284.987 269.889C292.889 269.889 300.818 269.889 308.721 269.889C309.333 269.889 309.546 270.05 309.519 270.665C309.493 272.083 309.466 273.5 309.519 274.918C309.519 275.587 309.306 275.774 308.641 275.774C300.898 275.774 293.129 275.774 285.386 275.774C284.774 275.774 284.108 275.935 283.55 276.175C282.432 276.657 282.432 277.673 282.539 278.663C282.645 279.546 283.284 280 284.055 280.241C284.481 280.375 284.987 280.375 285.439 280.375C290.814 280.375 296.215 280.375 301.59 280.375C303.453 280.375 305.235 280.642 306.912 281.552C309.546 282.97 311.249 285.029 311.435 288.132C311.621 291.209 310.291 293.536 307.763 295.194C306.113 296.264 304.331 296.773 302.309 296.773C294.326 296.719 286.344 296.773 278.388 296.773H277.483L277.51 296.746Z" fill="#262626"/>
<path d="M142.739 296.746C142.739 296.398 142.739 296.157 142.739 295.916C142.739 287.517 142.739 279.144 142.739 270.745C142.739 269.862 142.739 269.862 143.617 269.862C151.653 269.862 159.689 269.862 167.751 269.862C171.024 269.862 173.924 270.905 176.212 273.34C177.596 274.811 178.394 276.576 178.394 278.609C178.394 281.685 178.447 284.788 178.394 287.865C178.314 291.69 176.079 294.071 172.86 295.649C171.263 296.425 169.534 296.746 167.724 296.746C159.689 296.746 151.653 296.746 143.591 296.746H142.739ZM159.21 275.827C156.363 275.827 153.489 275.827 150.642 275.827C149.764 275.827 149.737 275.854 149.737 276.737C149.737 281.097 149.737 285.484 149.737 289.844C149.737 290.78 149.737 290.807 150.722 290.807C156.256 290.807 161.791 290.807 167.325 290.807C167.857 290.807 168.389 290.754 168.895 290.647C170.358 290.379 171.396 289.122 171.396 287.624C171.396 284.735 171.396 281.846 171.396 278.957C171.396 277.86 170.891 277.004 169.986 276.416C169.214 275.908 168.389 275.827 167.511 275.827C164.744 275.827 161.977 275.827 159.21 275.827Z" fill="#262626"/>
<path d="M121.213 296.746C118.552 296.746 115.891 296.853 113.231 296.719C109.798 296.532 106.898 295.167 104.849 292.305C103.811 290.887 103.386 289.256 103.359 287.49C103.359 284.788 103.359 282.087 103.359 279.358C103.359 275.292 105.461 272.617 108.973 270.932C110.543 270.183 112.246 269.862 114.002 269.862C118.818 269.862 123.661 269.862 128.477 269.862C131.803 269.862 134.73 270.986 136.992 273.527C138.296 274.971 138.987 276.71 139.014 278.663C139.014 281.712 139.067 284.788 139.014 287.838C138.934 291.663 136.726 294.044 133.479 295.622C131.883 296.398 130.153 296.746 128.344 296.719C125.976 296.692 123.608 296.719 121.24 296.719L121.213 296.746ZM121.186 275.827C119.696 275.827 118.206 275.827 116.743 275.827C115.545 275.827 114.348 275.827 113.151 275.934C111.474 276.122 110.383 277.379 110.357 279.037C110.33 281.873 110.357 284.708 110.357 287.57C110.357 288.935 111.022 289.924 112.273 290.406C112.885 290.647 113.603 290.78 114.268 290.78C118.898 290.807 123.528 290.78 128.158 290.78C128.557 290.78 128.956 290.727 129.355 290.647C131.005 290.352 132.043 289.122 132.043 287.437C132.043 284.655 132.043 281.899 132.043 279.118C132.043 277.7 131.404 276.683 130.1 276.175C129.488 275.934 128.77 275.827 128.105 275.827C125.79 275.774 123.501 275.827 121.186 275.827Z" fill="#262626"/>
<path d="M99.6339 296.719C99.3412 296.719 99.155 296.746 98.9953 296.746C91.1193 296.746 83.2166 296.799 75.3406 296.719C72.3339 296.692 69.6997 295.488 67.5976 293.268C66.1075 291.69 65.3625 289.791 65.3359 287.597C65.3359 284.708 65.2827 281.819 65.3359 278.93C65.4157 275.052 67.571 272.537 70.9502 270.932C72.5733 270.156 74.3029 269.862 76.1122 269.862C83.6956 269.862 91.2789 269.862 98.8357 269.862C99.5009 269.862 99.6605 270.076 99.6605 270.691C99.6073 272.082 99.6605 273.5 99.6605 274.891C99.6605 275.827 99.6605 275.827 98.7558 275.827C91.3587 275.827 83.9617 275.827 76.5646 275.827C75.7929 275.827 74.9681 275.961 74.2231 276.202C73.0523 276.63 72.3605 277.566 72.3605 278.85C72.3605 281.792 72.3339 284.708 72.3605 287.651C72.3605 289.229 73.478 290.406 75.0479 290.647C75.5801 290.727 76.1388 290.78 76.6976 290.78C83.9883 290.78 91.2789 290.78 98.5696 290.78C99.3146 290.78 99.6871 291.164 99.6871 291.931C99.6871 293.509 99.6871 295.087 99.6871 296.719H99.6339Z" fill="#262626"/>
<path d="M343.658 296.692C343.791 296.425 343.897 296.238 344.004 296.05C349.086 287.517 354.168 278.957 359.25 270.424C359.516 269.996 359.782 269.809 360.288 269.809C362.869 269.836 365.423 269.809 368.004 269.809C368.483 269.809 368.776 269.943 369.015 270.371C374.124 278.957 379.26 287.517 384.368 296.104C384.475 296.264 384.555 296.452 384.688 296.719H383.916C381.814 296.719 379.712 296.719 377.61 296.719C377.104 296.719 376.838 296.585 376.572 296.157C372.687 289.577 368.776 283.023 364.865 276.469C364.306 275.533 364.093 275.533 363.534 276.469C359.596 283.077 355.658 289.657 351.72 296.264C351.507 296.612 351.294 296.746 350.895 296.746C348.713 296.746 346.558 296.746 344.376 296.746C344.19 296.746 344.004 296.746 343.711 296.719L343.658 296.692Z" fill="#262626"/>
<path d="M220.249 269.916C220.595 269.916 220.834 269.862 221.074 269.862C223.123 269.862 225.198 269.862 227.247 269.862C227.752 269.862 228.045 270.023 228.311 270.451C232.196 276.978 236.107 283.478 240.019 290.005C240.072 290.085 240.099 290.165 240.152 290.219C240.604 290.941 240.87 290.914 241.323 290.219C242.307 288.587 243.265 286.955 244.25 285.323C247.203 280.375 250.157 275.426 253.083 270.477C253.35 270.049 253.616 269.862 254.148 269.862C256.25 269.889 258.352 269.862 260.454 269.862C260.667 269.862 260.88 269.862 261.199 269.916C261.066 270.183 260.986 270.397 260.88 270.558C255.744 279.144 250.609 287.731 245.474 296.344C245.287 296.665 245.101 296.746 244.755 296.746C242.068 296.746 239.38 296.746 236.719 296.746C236.347 296.746 236.134 296.639 235.948 296.318C230.866 287.784 225.757 279.225 220.675 270.691C220.542 270.477 220.435 270.237 220.276 269.916H220.249Z" fill="#262626"/>
<path d="M335.755 296.719H328.864C328.864 296.398 328.81 296.104 328.81 295.809C328.81 289.47 328.81 283.103 328.81 276.764C328.81 275.774 328.81 275.747 327.799 275.747C323.861 275.747 319.923 275.747 315.959 275.747C315.081 275.747 315.081 275.747 315.081 274.864C315.081 273.447 315.081 272.029 315.081 270.611C315.081 270.076 315.214 269.862 315.772 269.862C326.762 269.862 337.751 269.862 348.74 269.862C349.219 269.862 349.405 270.023 349.405 270.504C349.405 272.002 349.379 273.473 349.405 274.971C349.405 275.587 349.219 275.774 348.607 275.774C344.616 275.774 340.624 275.774 336.633 275.774C335.755 275.774 335.755 275.774 335.755 276.657C335.755 283.05 335.755 289.443 335.755 295.836V296.746V296.719Z" fill="#262626"/>
<path d="M272.002 296.719H265.084V295.917C265.084 287.517 265.084 279.144 265.084 270.745C265.084 270.139 265.385 269.836 265.988 269.836C267.771 269.836 269.581 269.836 271.363 269.836C271.895 269.836 272.055 269.996 272.055 270.531C272.055 279.064 272.055 287.624 272.055 296.157C272.055 296.318 272.029 296.505 272.002 296.719Z" fill="#262626"/>
</svg>
