<svg width="450" height="450" viewBox="0 0 450 450" fill="none" xmlns="http://www.w3.org/2000/svg">
<rect x="0.5" y="0.5" width="449" height="449" fill="#EAEAEA"/>
<rect x="0.5" y="0.5" width="449" height="449" stroke="#262626"/>
<path d="M195.944 175.471L214.833 121.078C215.122 120.21 214.419 119.342 213.51 119.424C164.532 124.715 125.597 163.484 120.017 212.339C119.893 213.496 121.257 214.199 122.125 213.413C142.171 194.979 167.218 181.836 194.993 176.297C195.448 176.215 195.779 175.884 195.944 175.471Z" fill="#262626"/>
<path d="M253.643 175.471L234.754 121.078C234.465 120.21 235.168 119.342 236.077 119.424C285.056 124.715 323.99 163.484 329.57 212.339C329.694 213.496 328.33 214.199 327.462 213.413C307.416 194.979 282.369 181.836 254.594 176.297C254.139 176.215 253.809 175.884 253.643 175.471Z" fill="#262626"/>
<path d="M226.199 124.053L238.392 172.288C238.598 173.114 237.937 173.9 237.069 173.858C233.06 173.528 229.05 173.362 224.959 173.362C220.867 173.362 216.858 173.528 212.848 173.858C211.98 173.941 211.319 173.114 211.526 172.288L223.719 124.053C224.049 122.772 225.827 122.772 226.157 124.053H226.199Z" fill="#262626"/>
<path d="M190.529 191.094L153 299.26C152.71 300.128 151.594 300.376 150.933 299.756C142.511 291.489 135.497 281.813 130.229 271.133C124.593 269.236 117.92 265.559 113.61 263.135C110.717 261.481 109.312 258.092 110.8 255.116H110.759C113.569 249.495 116.752 244.122 120.306 238.997C120.456 240.091 120.649 241.209 120.878 242.343C120.716 241.398 120.567 240.449 120.43 239.494C120.389 239.164 120.43 238.833 120.637 238.585C124.315 233.336 128.366 228.376 132.788 223.747C147.999 207.834 167.301 195.806 189 189.441C189.992 189.152 190.86 190.102 190.529 191.053V191.094Z" fill="#262626"/>
<path d="M319.671 271.169C314.4 281.834 307.359 291.498 298.985 299.756C298.847 299.756 298.685 299.774 298.514 299.792C297.894 299.859 297.145 299.94 296.918 299.26L259.389 191.094C259.058 190.144 259.967 189.193 260.918 189.482C282.617 195.848 301.919 207.834 317.13 223.788C321.3 228.153 325.139 232.812 328.648 237.73L328.661 237.635C332.215 242.76 336.431 249.497 339.242 255.118H339.2C340.688 258.094 339.283 261.483 336.39 263.137C332.055 265.575 325.328 269.282 319.671 271.169Z" fill="#262626"/>
<path fill-rule="evenodd" clip-rule="evenodd" d="M240.83 185.266C241.368 185.349 241.781 185.721 241.905 186.217H241.864L274.996 317.135H274.999L278.082 329.019H278.247C278.495 330.011 277.545 330.837 276.594 330.465H276.47C271.882 328.812 266.881 326.497 261.467 323.563C250.142 327.737 237.866 330.011 225.094 330.011C212.323 330.011 200.047 327.737 188.722 323.563C183.308 326.497 178.265 328.812 173.719 330.507H173.595C172.644 330.837 171.693 330.011 171.941 329.019L174.793 317.135H174.798L207.93 186.217C208.054 185.721 208.509 185.349 209.005 185.266C214.213 184.605 219.503 184.274 224.918 184.274C230.332 184.274 235.623 184.605 240.83 185.266ZM226.482 261.313L231.102 270.688C231.303 271.156 231.772 271.424 232.241 271.491L242.62 272.964C243.892 273.165 244.361 274.705 243.49 275.576L235.99 282.875C235.656 283.21 235.455 283.745 235.522 284.214L237.263 294.526C237.464 295.798 236.191 296.736 235.053 296.133L225.812 291.245C225.343 291.044 224.808 291.044 224.406 291.245L215.165 296.133C214.027 296.736 212.754 295.798 212.955 294.526L214.696 284.214C214.763 283.745 214.629 283.21 214.228 282.875L206.728 275.576C205.79 274.705 206.326 273.165 207.598 272.964L217.978 271.491C218.446 271.424 218.915 271.089 219.116 270.688L223.736 261.313C224.272 260.174 225.879 260.174 226.482 261.313Z" fill="#262626"/>
</svg>
