<svg width="450" height="450" viewBox="0 0 450 450" fill="none" xmlns="http://www.w3.org/2000/svg">
<rect x="0.5" y="0.5" width="449" height="449" fill="#EAEAEA"/>
<rect x="0.5" y="0.5" width="449" height="449" stroke="#262626"/>
<path d="M56.164 278.421C55.7545 278.421 55.4175 278.341 55.1532 278.18C54.8926 278.02 54.699 277.758 54.5724 277.393C54.4458 277.028 54.3825 276.54 54.3825 275.93V275.433H55.572V275.69C55.572 276.151 55.5888 276.499 55.6223 276.734C55.6595 276.965 55.7284 277.121 55.8289 277.203C55.9295 277.281 56.0728 277.32 56.259 277.32C56.4637 277.32 56.6052 277.257 56.6834 277.131C56.7653 277 56.8137 276.801 56.8286 276.533C56.8435 276.261 56.8509 275.913 56.8509 275.489V274.349C56.7579 274.42 56.6313 274.482 56.4712 274.534C56.3148 274.582 56.138 274.606 55.9406 274.606C55.4827 274.606 55.1309 274.495 54.8851 274.271C54.6394 274.048 54.47 273.718 54.3769 273.283C54.2838 272.843 54.2373 272.305 54.2373 271.669V271.328C54.2373 270.881 54.2596 270.475 54.3043 270.111C54.3527 269.746 54.4421 269.435 54.5724 269.178C54.7064 268.917 54.9 268.718 55.1532 268.58C55.4064 268.439 55.7396 268.368 56.1529 268.368C56.5773 268.368 56.918 268.435 57.1749 268.569C57.4355 268.699 57.6328 268.891 57.7668 269.144C57.9046 269.398 57.9958 269.707 58.0405 270.071C58.0889 270.436 58.1131 270.853 58.1131 271.322V275.366C58.1131 276.092 58.0535 276.678 57.9344 277.125C57.819 277.572 57.6179 277.899 57.3312 278.108C57.0483 278.316 56.6592 278.421 56.164 278.421ZM56.1361 273.562C56.2664 273.562 56.3818 273.545 56.4824 273.512C56.5866 273.478 56.6704 273.443 56.7337 273.406C56.797 273.368 56.8361 273.34 56.8509 273.322V271.043C56.8509 270.503 56.8081 270.111 56.7225 269.865C56.6369 269.615 56.4526 269.491 56.1696 269.491C55.9686 269.491 55.8159 269.545 55.7117 269.653C55.6111 269.757 55.5423 269.923 55.505 270.15C55.4715 270.373 55.4548 270.665 55.4548 271.026V271.814C55.4548 272.242 55.4697 272.583 55.4994 272.836C55.533 273.089 55.5981 273.273 55.6949 273.389C55.7917 273.504 55.9388 273.562 56.1361 273.562Z" fill="#262626"/>
<path d="M59.8946 278.309C59.9616 277.412 60.0715 276.568 60.2241 275.779C60.3805 274.986 60.5573 274.247 60.7547 273.562C60.9557 272.873 61.1512 272.238 61.3411 271.658C61.5272 271.047 61.6892 270.561 61.8269 270.2C61.9647 269.835 62.0391 269.63 62.0503 269.586H59.2524V268.48H63.3515V269.418C63.3292 269.608 63.2212 269.947 63.0276 270.434C62.834 270.918 62.6311 271.523 62.4189 272.249C62.2551 272.786 62.0968 273.374 61.9442 274.014C61.7916 274.655 61.6575 275.336 61.5421 276.058C61.4304 276.777 61.3485 277.527 61.2964 278.309H59.8946Z" fill="#262626"/>
<path d="M66.2947 278.421C65.8479 278.421 65.4905 278.337 65.2224 278.169C64.9581 278.002 64.7682 277.773 64.6528 277.482C64.5374 277.188 64.4797 276.855 64.4797 276.483V275.332H65.7195V276.421C65.7195 276.678 65.7548 276.892 65.8256 277.064C65.9 277.235 66.0564 277.32 66.2947 277.32C66.5069 277.32 66.6558 277.242 66.7415 277.086C66.8308 276.926 66.8755 276.684 66.8755 276.36V273.601C66.8755 273.247 66.8383 272.974 66.7638 272.78C66.6893 272.583 66.5367 272.484 66.3059 272.484C66.1197 272.484 65.9708 272.566 65.8591 272.73C65.7511 272.894 65.6971 273.147 65.6971 273.489L64.5634 273.389V268.48H67.8807V269.647H65.7586V271.814C65.8219 271.684 65.9391 271.581 66.1104 271.507C66.2854 271.432 66.4715 271.395 66.6689 271.395C67.0188 271.395 67.2999 271.496 67.5122 271.697C67.7281 271.894 67.8845 272.225 67.9813 272.691C68.0781 273.156 68.1265 273.785 68.1265 274.578V274.791C68.1265 275.394 68.1097 275.924 68.0762 276.382C68.0427 276.836 67.9682 277.214 67.8528 277.516C67.7374 277.817 67.555 278.045 67.3055 278.197C67.0598 278.346 66.7229 278.421 66.2947 278.421Z" fill="#262626"/>
<path d="M73.6386 278.421C73.2365 278.421 72.9051 278.352 72.6445 278.214C72.3876 278.076 72.1866 277.879 72.0414 277.622C71.8962 277.365 71.7956 277.058 71.7398 276.701C71.6839 276.343 71.656 275.943 71.656 275.5V274.578H72.9014V275.572C72.9014 276.194 72.9479 276.639 73.041 276.907C73.1378 277.175 73.337 277.309 73.6386 277.309C73.8434 277.309 73.996 277.261 74.0965 277.164C74.1971 277.067 74.2622 276.913 74.292 276.701C74.3218 276.488 74.3367 276.207 74.3367 275.857C74.3367 275.448 74.2585 275.088 74.1021 274.779C73.9495 274.467 73.7242 274.156 73.4264 273.847L72.745 273.165C72.5551 272.964 72.3727 272.75 72.1977 272.523C72.0265 272.292 71.8868 272.034 71.7789 271.747C71.6709 271.46 71.6169 271.134 71.6169 270.77C71.6169 270.267 71.6746 269.835 71.79 269.474C71.9055 269.113 72.1047 268.837 72.3876 268.647C72.6743 268.454 73.0745 268.357 73.5883 268.357C73.9867 268.357 74.3088 268.424 74.5545 268.558C74.8002 268.688 74.9882 268.876 75.1185 269.122C75.2488 269.368 75.3382 269.662 75.3866 270.004C75.435 270.347 75.4592 270.73 75.4592 271.155V271.747H74.2417V271.071C74.2417 270.714 74.225 270.418 74.1915 270.183C74.1617 269.945 74.1003 269.766 74.0072 269.647C73.9141 269.528 73.7745 269.468 73.5883 269.468C73.4133 269.468 73.2719 269.509 73.1639 269.591C73.0559 269.673 72.9777 269.8 72.9293 269.971C72.8809 270.138 72.8567 270.356 72.8567 270.624C72.8567 270.863 72.8846 271.062 72.9405 271.222C73.0001 271.382 73.0894 271.535 73.2086 271.68C73.3314 271.821 73.4804 271.985 73.6553 272.171L74.3814 272.948C74.7499 273.339 75.0441 273.761 75.2637 274.215C75.4871 274.67 75.5988 275.187 75.5988 275.768C75.5988 276.33 75.5411 276.808 75.4257 277.203C75.3103 277.598 75.1111 277.899 74.8281 278.108C74.5452 278.316 74.1487 278.421 73.6386 278.421Z" fill="#262626"/>
<path d="M77.1625 278.309V269.58H76.0456V268.48H79.5025V269.58H78.4526V278.309H77.1625Z" fill="#262626"/>
<path d="M80.2509 278.309V277.091H81.3455V278.309H80.2509Z" fill="#262626"/>
<path d="M362.829 278.309V268.48H365.917V269.58H364.125V272.73H365.822V273.819H364.125V277.209H365.956V278.309H362.829Z" fill="#262626"/>
<path d="M368.821 278.421C368.419 278.421 368.088 278.352 367.827 278.214C367.57 278.076 367.369 277.879 367.224 277.622C367.079 277.365 366.978 277.058 366.923 276.701C366.867 276.343 366.839 275.943 366.839 275.5V274.578H368.084V275.572C368.084 276.194 368.131 276.639 368.224 276.907C368.321 277.175 368.52 277.309 368.821 277.309C369.026 277.309 369.179 277.261 369.279 277.164C369.38 277.067 369.445 276.913 369.475 276.701C369.505 276.488 369.519 276.207 369.519 275.857C369.519 275.448 369.441 275.088 369.285 274.779C369.132 274.467 368.907 274.156 368.609 273.847L367.928 273.165C367.738 272.964 367.555 272.75 367.38 272.523C367.209 272.292 367.07 272.034 366.962 271.747C366.854 271.46 366.8 271.134 366.8 270.77C366.8 270.267 366.857 269.835 366.973 269.474C367.088 269.113 367.287 268.837 367.57 268.647C367.857 268.454 368.257 268.357 368.771 268.357C369.169 268.357 369.491 268.424 369.737 268.558C369.983 268.688 370.171 268.876 370.301 269.122C370.432 269.368 370.521 269.662 370.569 270.004C370.618 270.347 370.642 270.73 370.642 271.155V271.747H369.424V271.071C369.424 270.714 369.408 270.418 369.374 270.183C369.344 269.945 369.283 269.766 369.19 269.647C369.097 269.528 368.957 269.468 368.771 269.468C368.596 269.468 368.455 269.509 368.347 269.591C368.239 269.673 368.16 269.8 368.112 269.971C368.064 270.138 368.039 270.356 368.039 270.624C368.039 270.863 368.067 271.062 368.123 271.222C368.183 271.382 368.272 271.535 368.391 271.68C368.514 271.821 368.663 271.985 368.838 272.171L369.564 272.948C369.933 273.339 370.227 273.761 370.446 274.215C370.67 274.67 370.782 275.187 370.782 275.768C370.782 276.33 370.724 276.808 370.608 277.203C370.493 277.598 370.294 277.899 370.011 278.108C369.728 278.316 369.331 278.421 368.821 278.421Z" fill="#262626"/>
<path d="M372.345 278.309V269.58H371.228V268.48H374.685V269.58H373.635V278.309H372.345Z" fill="#262626"/>
<path d="M375.434 278.309V277.091H376.528V278.309H375.434Z" fill="#262626"/>
<path d="M379.036 278.309V270.155C378.946 270.259 378.818 270.354 378.65 270.44C378.487 270.522 378.313 270.587 378.131 270.636C377.952 270.68 377.794 270.703 377.656 270.703V269.703C377.854 269.673 378.064 269.61 378.287 269.513C378.514 269.412 378.725 269.277 378.918 269.105C379.116 268.934 379.267 268.726 379.371 268.48H380.331V278.309H379.036Z" fill="#262626"/>
<path d="M383.928 278.421C383.518 278.421 383.181 278.341 382.917 278.18C382.657 278.02 382.463 277.758 382.336 277.393C382.21 277.028 382.146 276.54 382.146 275.93V275.433H383.336V275.69C383.336 276.151 383.353 276.499 383.386 276.734C383.423 276.965 383.492 277.121 383.593 277.203C383.693 277.281 383.837 277.32 384.023 277.32C384.228 277.32 384.369 277.257 384.447 277.131C384.529 277 384.578 276.801 384.593 276.533C384.607 276.261 384.615 275.913 384.615 275.489V274.349C384.522 274.42 384.395 274.482 384.235 274.534C384.079 274.582 383.902 274.606 383.705 274.606C383.247 274.606 382.895 274.495 382.649 274.271C382.403 274.048 382.234 273.718 382.141 273.283C382.048 272.843 382.001 272.305 382.001 271.669V271.328C382.001 270.881 382.024 270.475 382.068 270.111C382.117 269.746 382.206 269.435 382.336 269.178C382.47 268.917 382.664 268.718 382.917 268.58C383.17 268.439 383.504 268.368 383.917 268.368C384.341 268.368 384.682 268.435 384.939 268.569C385.199 268.699 385.397 268.891 385.531 269.144C385.669 269.398 385.76 269.707 385.804 270.071C385.853 270.436 385.877 270.853 385.877 271.322V275.366C385.877 276.092 385.817 276.678 385.698 277.125C385.583 277.572 385.382 277.899 385.095 278.108C384.812 278.316 384.423 278.421 383.928 278.421ZM383.9 273.562C384.03 273.562 384.146 273.545 384.246 273.512C384.351 273.478 384.434 273.443 384.498 273.406C384.561 273.368 384.6 273.34 384.615 273.322V271.043C384.615 270.503 384.572 270.111 384.486 269.865C384.401 269.615 384.216 269.491 383.934 269.491C383.732 269.491 383.58 269.545 383.476 269.653C383.375 269.757 383.306 269.923 383.269 270.15C383.235 270.373 383.219 270.665 383.219 271.026V271.814C383.219 272.242 383.234 272.583 383.263 272.836C383.297 273.089 383.362 273.273 383.459 273.389C383.556 273.504 383.703 273.562 383.9 273.562Z" fill="#262626"/>
<path d="M388.921 278.421C388.511 278.421 388.174 278.341 387.91 278.18C387.649 278.02 387.456 277.758 387.329 277.393C387.202 277.028 387.139 276.54 387.139 275.93V275.433H388.329V275.69C388.329 276.151 388.345 276.499 388.379 276.734C388.416 276.965 388.485 277.121 388.586 277.203C388.686 277.281 388.829 277.32 389.016 277.32C389.22 277.32 389.362 277.257 389.44 277.131C389.522 277 389.57 276.801 389.585 276.533C389.6 276.261 389.608 275.913 389.608 275.489V274.349C389.515 274.42 389.388 274.482 389.228 274.534C389.071 274.582 388.895 274.606 388.697 274.606C388.239 274.606 387.888 274.495 387.642 274.271C387.396 274.048 387.227 273.718 387.134 273.283C387.04 272.843 386.994 272.305 386.994 271.669V271.328C386.994 270.881 387.016 270.475 387.061 270.111C387.109 269.746 387.199 269.435 387.329 269.178C387.463 268.917 387.657 268.718 387.91 268.58C388.163 268.439 388.496 268.368 388.91 268.368C389.334 268.368 389.675 268.435 389.932 268.569C390.192 268.699 390.389 268.891 390.524 269.144C390.661 269.398 390.752 269.707 390.797 270.071C390.846 270.436 390.87 270.853 390.87 271.322V275.366C390.87 276.092 390.81 276.678 390.691 277.125C390.576 277.572 390.375 277.899 390.088 278.108C389.805 278.316 389.416 278.421 388.921 278.421ZM388.893 273.562C389.023 273.562 389.139 273.545 389.239 273.512C389.343 273.478 389.427 273.443 389.49 273.406C389.554 273.368 389.593 273.34 389.608 273.322V271.043C389.608 270.503 389.565 270.111 389.479 269.865C389.394 269.615 389.209 269.491 388.926 269.491C388.725 269.491 388.573 269.545 388.468 269.653C388.368 269.757 388.299 269.923 388.262 270.15C388.228 270.373 388.211 270.665 388.211 271.026V271.814C388.211 272.242 388.226 272.583 388.256 272.836C388.29 273.089 388.355 273.273 388.452 273.389C388.548 273.504 388.695 273.562 388.893 273.562Z" fill="#262626"/>
<path d="M392.651 278.309C392.718 277.412 392.828 276.568 392.981 275.779C393.137 274.986 393.314 274.247 393.511 273.562C393.712 272.873 393.908 272.238 394.098 271.658C394.284 271.047 394.446 270.561 394.584 270.2C394.721 269.835 394.796 269.63 394.807 269.586H392.009V268.48H396.108V269.418C396.086 269.608 395.978 269.947 395.784 270.434C395.591 270.918 395.388 271.523 395.176 272.249C395.012 272.786 394.854 273.374 394.701 274.014C394.548 274.655 394.414 275.336 394.299 276.058C394.187 276.777 394.105 277.527 394.053 278.309H392.651Z" fill="#262626"/>
<path d="M81.3968 217.389L82.8369 226.774C82.8369 226.774 76.7512 220.502 72.7095 220.502C72.663 220.502 69.7827 220.502 69.7827 220.502C69.7827 220.502 69.7827 238.388 69.7827 241.779C69.7827 246.75 73.0811 249.909 73.0811 249.909H58.6797C58.6797 249.909 61.9781 246.75 61.9781 241.779C61.9781 238.388 61.9781 220.502 61.9781 220.502C61.9781 220.502 60.0269 220.502 59.1907 220.502C55.2419 220.502 48.9238 226.774 48.9238 226.774L50.3175 217.389H81.3968Z" fill="#262626"/>
<path d="M116.207 217.389C116.207 217.389 112.908 220.548 112.908 225.519C112.908 230.815 112.908 237.691 112.908 241.779C112.908 246.425 116.207 249.909 116.207 249.909H101.805C101.805 249.909 105.104 246.75 105.104 241.779C105.104 239.967 105.104 237.691 105.104 235.182H94.7439C94.7439 237.691 94.7439 239.967 94.7439 241.779C94.7439 246.425 98.0423 249.909 98.0423 249.909H83.6409C83.6409 249.909 86.8928 246.75 86.8928 241.779C86.8928 237.691 86.8928 230.815 86.8928 225.519C86.8928 220.502 83.6409 217.389 83.6409 217.389H98.0423C98.0423 217.389 94.7439 220.548 94.7439 225.519C94.7439 227.563 94.7439 229.84 94.7439 232.07H105.104C105.104 229.84 105.104 227.563 105.104 225.519C105.104 220.502 101.805 217.389 101.805 217.389H116.207Z" fill="#262626"/>
<path d="M134.861 246.75C139.181 246.75 145.964 239.735 145.964 239.735L144.524 249.909H117.44C117.44 249.909 120.692 245.867 120.692 241.779V225.519C120.692 220.502 117.44 217.389 117.44 217.389H143.873L145.313 226.774C145.313 226.774 139.088 220.502 134.675 220.502C134.164 220.502 133.328 220.502 131.469 220.502C131.469 220.502 128.543 220.548 128.543 223.057C128.543 224.683 128.543 232.07 128.543 232.07C129.147 232.07 129.658 232.07 130.029 232.07C134.164 232.07 138.066 228.492 138.066 228.492V238.759C138.066 238.759 134.164 235.182 130.029 235.182C129.658 235.182 129.147 235.182 128.543 235.182C128.543 235.182 128.543 241.918 128.543 243.544C128.543 246.796 131.702 246.75 131.702 246.75C131.702 246.75 131.377 246.75 134.861 246.75Z" fill="#262626"/>
<path d="M185.134 246.75C189.268 246.75 194.053 240.478 194.053 240.478L192.613 249.909H165.529C165.529 249.909 168.781 245.867 168.781 241.779V225.519C168.781 220.502 165.529 217.389 165.529 217.389H179.931C179.931 217.389 176.632 220.548 176.632 225.519C176.632 228.911 176.632 238.295 176.632 243.451C176.632 246.657 178.398 246.75 181.278 246.75C183.136 246.75 184.855 246.75 185.134 246.75Z" fill="#262626"/>
<path d="M212.257 249.862C212.257 249.862 215.741 246.796 214.115 242.94C213.976 242.615 213.697 241.872 213.279 240.85H202.501C202.501 240.85 202.036 242.104 201.897 242.522C200.271 246.61 203.616 249.862 203.616 249.862H193.86C193.86 249.862 196.554 246.843 198.598 241.686C200.132 237.877 202.361 232.441 204.777 226.495C206.496 222.36 202.965 217.389 202.965 217.389H211.653C211.653 217.389 219.736 235.693 222.477 241.779C224.707 246.61 228.052 249.862 228.052 249.862H212.257ZM203.523 238.062H212.117L207.565 227.099L203.523 238.062Z" fill="#262626"/>
<path d="M250.993 217.389H261.213C261.213 217.389 257.961 220.548 257.961 225.519V249.909H251.736L235.384 228.911V241.779C235.384 246.425 238.682 249.909 238.682 249.909H228.415C228.415 249.909 231.713 246.75 231.713 241.779V227.935C231.713 221.71 227.858 217.389 227.858 217.389H237.01L254.291 239.503V225.519C254.291 220.827 250.993 217.389 250.993 217.389Z" fill="#262626"/>
<path d="M292.543 233.974C292.543 233.974 290.36 237.226 290.36 240.339C290.36 244.055 290.36 246.982 290.36 246.982C290.36 246.982 285.9 250.141 278.978 250.141C272.056 250.141 262.672 246.564 262.672 233.324C262.672 220.13 273.125 217.111 279.303 217.111C285.482 217.111 291.335 219.48 291.335 219.48L287.851 226.774C287.851 226.774 286.225 220.409 279.257 220.409C272.288 220.409 271.034 228.678 271.034 232.209C271.034 239.503 273.543 246.75 279.628 246.75C283.995 246.75 283.624 242.94 283.624 242.94C283.624 242.94 283.624 242.755 283.624 241.129C283.624 237.505 279.489 233.974 279.489 233.974H292.543Z" fill="#262626"/>
<path d="M325.986 217.389C325.986 217.389 322.688 220.548 322.688 225.519C322.688 230.815 322.688 237.691 322.688 241.779C322.688 246.425 325.986 249.909 325.986 249.909H311.585C311.585 249.909 314.883 246.75 314.883 241.779C314.883 239.967 314.883 237.691 314.883 235.182H304.523C304.523 237.691 304.523 239.967 304.523 241.779C304.523 246.425 307.822 249.909 307.822 249.909H293.42C293.42 249.909 296.672 246.75 296.672 241.779C296.672 237.691 296.672 230.815 296.672 225.519C296.672 220.502 293.42 217.389 293.42 217.389H307.822C307.822 217.389 304.523 220.548 304.523 225.519C304.523 227.563 304.523 229.84 304.523 232.07H314.883C314.883 229.84 314.883 227.563 314.883 225.519C314.883 220.502 311.585 217.389 311.585 217.389H325.986Z" fill="#262626"/>
<path d="M344.594 249.862C344.594 249.862 348.078 246.796 346.452 242.94C346.313 242.615 346.034 241.872 345.616 240.85H334.838C334.838 240.85 334.373 242.104 334.234 242.522C332.608 246.61 335.953 249.862 335.953 249.862H326.197C326.197 249.862 328.891 246.843 330.935 241.686C332.469 237.877 334.698 232.441 337.114 226.495C338.833 222.36 335.302 217.389 335.302 217.389H343.99C343.99 217.389 352.073 235.693 354.814 241.779C357.044 246.61 360.389 249.862 360.389 249.862H344.594ZM335.86 238.062H344.454L339.902 227.099L335.86 238.062Z" fill="#262626"/>
<path d="M401.076 217.389C401.076 217.389 397.778 220.548 397.778 225.519C397.778 230.815 397.778 237.691 397.778 241.779C397.778 246.425 401.076 249.909 401.076 249.909H386.675C386.675 249.909 389.973 246.75 389.973 241.779C389.973 239.549 389.973 232.441 389.973 226.495L381.797 249.723H376.315L367.628 230.444V241.779C367.628 246.425 370.926 249.909 370.926 249.909H360.659C360.659 249.909 363.958 246.75 363.958 241.779V226.588C363.958 220.967 360.148 217.389 360.148 217.389H370.043L381.472 242.336L390.02 217.389H401.076Z" fill="#262626"/>
<path d="M154.355 265.186C154.355 265.685 154.922 265.935 156.056 265.935C156.767 265.935 157.334 265.784 157.758 265.481C157.168 264.831 156.518 264.506 155.807 264.506C154.839 264.506 154.355 264.733 154.355 265.186ZM122.258 273.806C122.726 273.806 123.135 273.965 123.483 274.283C123.83 274.585 124.004 274.971 124.004 275.439C124.004 276.226 123.505 276.906 122.507 277.481C124.095 278.403 125.94 278.865 128.042 278.865C132.276 278.865 136.639 277.088 141.131 273.534C143.021 272.052 146.877 268.302 152.699 262.283C157.478 257.338 161.508 253.966 164.79 252.166C163.111 250.578 160.813 249.376 157.894 248.559C155.414 247.864 152.805 247.516 150.068 247.516C145.199 247.516 140.836 248.4 136.979 250.17C132.639 252.136 129.343 255.062 127.089 258.948C126.303 260.294 125.91 261.618 125.91 262.918C125.91 264.597 126.666 265.89 128.178 266.797C129.448 267.568 130.976 267.954 132.76 267.954C135.664 267.954 139.18 266.888 143.308 264.755C147.981 262.366 150.317 259.871 150.317 257.27C150.317 256.196 149.781 255.342 148.707 254.707C147.8 254.162 146.779 253.89 145.645 253.89C140.231 253.89 135.195 257.406 130.537 264.438L130.333 264.529L130.016 264.302L130.061 264.098C131.286 261.27 133.433 258.774 136.503 256.612C139.649 254.389 142.726 253.277 145.735 253.277C147.006 253.277 148.147 253.603 149.161 254.253C150.325 255.009 150.907 255.999 150.907 257.224C150.907 260.415 148.669 263.183 144.193 265.527C140.367 267.523 136.692 268.521 133.169 268.521C131.142 268.521 129.411 268.135 127.974 267.364C126.174 266.396 125.275 264.975 125.275 263.1C125.275 261.678 125.721 260.196 126.613 258.653C128.881 254.676 132.231 251.682 136.662 249.671C140.594 247.871 145.055 246.971 150.045 246.971C152.873 246.971 155.58 247.342 158.166 248.083C161.221 248.945 163.61 250.2 165.334 251.848C166.786 250.926 168.472 249.958 170.393 248.945L170.574 249.285L170.461 249.535C169.085 250.2 167.497 251.138 165.697 252.347C166.665 253.693 167.149 255.069 167.149 256.476C167.149 258.971 166.287 260.96 164.563 262.442C163.837 263.092 161.909 264.226 158.779 265.844C159.232 266.888 159.459 267.878 159.459 268.816C159.459 271.583 158.098 274.116 155.376 276.415C152.775 278.623 150.068 279.727 147.255 279.727C145.274 279.727 144.284 279.008 144.284 277.572C144.284 276.422 145.63 274.895 148.321 272.99C150.938 271.145 152.851 270.237 154.06 270.268L154.287 270.517L154.106 270.744C152.351 271.394 150.544 272.302 148.684 273.466C146.174 275.054 144.919 276.415 144.919 277.549C144.919 278.018 145.153 278.411 145.622 278.729C146.015 278.986 146.461 279.114 146.96 279.114C149.259 279.114 151.731 277.662 154.378 274.759C156.994 271.901 158.302 269.307 158.302 266.978C158.302 266.706 158.249 266.389 158.143 266.026C157.554 266.358 156.835 266.525 155.988 266.525C155.489 266.525 155.005 266.426 154.537 266.23C153.947 265.973 153.652 265.625 153.652 265.186C153.652 264.34 154.454 263.916 156.056 263.916C156.843 263.916 157.622 264.355 158.393 265.232C160.389 264.022 162.037 262.532 163.338 260.763C164.835 258.737 165.584 256.68 165.584 254.593C165.584 253.973 165.455 253.323 165.198 252.642C162.657 253.943 160.162 256.143 157.712 259.243C153.569 264.461 150.968 267.651 149.909 268.816C146.839 272.234 143.83 274.789 140.881 276.483C137.252 278.57 133.312 279.613 129.063 279.613C127.324 279.613 125.63 279.356 123.982 278.842C121.713 278.131 120.579 277.126 120.579 275.825C120.579 275.311 120.738 274.85 121.055 274.441C121.373 274.018 121.774 273.806 122.258 273.806Z" fill="#262626"/>
<path d="M172.729 274.555L172.956 274.85L172.82 275.099C171.928 275.689 170.68 275.984 169.077 275.984C166.325 278.494 164.034 279.749 162.204 279.749C160.54 279.749 159.709 278.955 159.709 277.368C159.709 275.629 160.865 273.957 163.179 272.354C165.327 270.888 167.308 270.154 169.122 270.154C169.697 270.154 170.204 270.29 170.642 270.562C171.171 270.895 171.436 271.334 171.436 271.878C171.436 272.801 170.861 273.942 169.712 275.303C170.136 275.318 170.665 275.205 171.3 274.963C171.95 274.721 172.427 274.585 172.729 274.555ZM161.932 279.114C163.308 279.114 165.1 278.267 167.308 276.574C169.621 274.804 170.778 273.269 170.778 271.969C170.778 271.198 170.332 270.812 169.44 270.812C168.351 270.812 166.665 271.795 164.381 273.761C162.098 275.727 160.956 277.239 160.956 278.298C160.956 278.842 161.281 279.114 161.932 279.114Z" fill="#262626"/>
<path d="M180.328 270.993L180.079 270.789C179.156 270.774 176.706 272.264 172.729 275.258L172.48 274.986L172.593 274.759C173.727 273.761 174.975 272.823 176.336 271.946C178.181 270.767 179.549 270.177 180.442 270.177C181.198 270.177 181.576 270.578 181.576 271.379C181.576 272.105 181.273 272.967 180.668 273.965C183.859 271.424 186.218 270.154 187.746 270.154C188.577 270.154 188.993 270.646 188.993 271.629C188.993 272.808 188.23 274.207 186.702 275.825C185.175 277.428 184.411 278.351 184.411 278.593C184.411 278.789 184.547 278.887 184.819 278.887C185.908 278.887 187.473 278.199 189.515 276.823C191.572 275.447 192.63 274.751 192.691 274.736L192.827 274.963C192.827 275.598 191.594 276.559 189.129 277.844C186.755 279.084 185.167 279.704 184.366 279.704C183.428 279.704 182.959 279.175 182.959 278.116C182.959 277.194 183.64 275.908 185.001 274.26C186.06 273.126 187.111 271.984 188.154 270.835C187.897 270.759 187.768 270.721 187.768 270.721C185.243 270.721 181.281 273.7 175.882 279.659H173.319C175.617 276.952 177.954 274.063 180.328 270.993Z" fill="#262626"/>
<path d="M200.199 270.993L199.95 270.789C199.027 270.774 196.577 272.264 192.6 275.258L192.35 274.986L192.464 274.759C193.598 273.761 194.846 272.823 196.207 271.946C198.052 270.767 199.42 270.177 200.312 270.177C201.069 270.177 201.447 270.578 201.447 271.379C201.447 272.105 201.144 272.967 200.539 273.965C203.73 271.424 206.089 270.154 207.617 270.154C208.448 270.154 208.864 270.646 208.864 271.629C208.864 272.808 208.101 274.207 206.573 275.825C205.046 277.428 204.282 278.351 204.282 278.593C204.282 278.789 204.418 278.887 204.69 278.887C205.779 278.887 207.344 278.199 209.386 276.823C211.443 275.447 212.501 274.751 212.562 274.736L212.698 274.963C212.698 275.598 211.465 276.559 209 277.844C206.626 279.084 205.038 279.704 204.237 279.704C203.299 279.704 202.83 279.175 202.83 278.116C202.83 277.194 203.511 275.908 204.872 274.26C205.93 273.126 206.982 271.984 208.025 270.835C207.768 270.759 207.639 270.721 207.639 270.721C205.114 270.721 201.152 273.7 195.753 279.659H193.19C195.488 276.952 197.825 274.063 200.199 270.993Z" fill="#262626"/>
<path d="M222.747 274.668L222.974 275.031L222.883 275.258C218.754 278.237 215.904 279.727 214.331 279.727C212.35 279.727 211.359 278.963 211.359 277.436C211.359 275.802 212.395 274.154 214.467 272.491C216.448 270.903 218.27 270.109 219.934 270.109C220.887 270.109 221.363 270.502 221.363 271.288C221.363 272.196 220.637 272.997 219.185 273.693C217.839 274.267 216.494 274.85 215.148 275.439C213.696 276.196 212.97 277.118 212.97 278.207C212.97 278.751 213.31 279.024 213.991 279.024C215.427 279.024 217.235 278.298 219.412 276.846C221.605 275.394 222.716 274.668 222.747 274.668ZM215.579 274.351C218.981 273.232 220.682 272.218 220.682 271.311C220.682 270.963 220.516 270.789 220.183 270.789C219.019 270.789 217.484 271.976 215.579 274.351Z" fill="#262626"/>
<path d="M255.888 261.126C256.78 260.778 259.956 258.918 265.415 255.546L265.642 255.795L265.506 256.068C261.483 258.986 258.065 260.952 255.253 261.965C253.68 263.75 251.563 266.442 248.901 270.041C246.103 273.806 244.001 276.513 242.595 278.162C243.759 277.678 245.143 276.921 246.746 275.893C248.062 275.031 249.385 274.169 250.716 273.307C250.958 273.307 251.079 273.413 251.079 273.625C251.079 273.927 249.695 274.865 246.928 276.438C244.448 277.844 242.754 278.736 241.846 279.114C239.76 281.428 237.4 283.575 234.769 285.556C231.306 288.173 228.554 289.481 226.512 289.481C226.043 289.481 225.605 289.307 225.197 288.959C224.773 288.611 224.561 288.203 224.561 287.734C224.561 286.131 226.527 284.369 230.459 282.449C233.272 281.057 236.002 280.014 238.648 279.318C239.722 278.078 241.914 275.084 245.226 270.336C248.145 266.147 250.239 263.493 251.51 262.374H250.58C249.052 262.389 247.774 262.086 246.746 261.466C245.506 260.71 244.886 259.599 244.886 258.132C244.886 255.455 246.572 253.013 249.945 250.805C252.697 248.99 256.266 247.508 260.651 246.359C264.417 245.361 267.615 244.862 270.246 244.862C271.214 244.862 271.744 244.99 271.834 245.247C271.729 245.444 271.592 245.603 271.426 245.724C268.477 247.705 265.695 250.094 263.078 252.892C260.689 255.644 258.292 258.389 255.888 261.126ZM251.532 261.761L252.19 261.716C259.54 253.58 265.649 248.166 270.519 245.474L270.156 245.452C266.345 245.421 262.194 246.389 257.702 248.355C252.833 250.502 249.521 253.073 247.767 256.068C247.328 256.824 247.109 257.58 247.109 258.336C247.109 259.379 247.608 260.241 248.606 260.922C249.498 261.527 250.474 261.807 251.532 261.761ZM226.58 288.846C228.289 288.846 230.391 287.734 232.886 285.511C233.824 284.679 235.578 282.88 238.149 280.112C235.865 280.747 233.378 281.715 230.686 283.016C227.011 284.815 225.174 286.358 225.174 287.643C225.174 288.445 225.643 288.846 226.58 288.846Z" fill="#262626"/>
<path d="M260.742 274.555L260.969 274.85L260.833 275.099C259.941 275.689 258.693 275.984 257.09 275.984C254.338 278.494 252.047 279.749 250.217 279.749C248.553 279.749 247.722 278.955 247.722 277.368C247.722 275.629 248.878 273.957 251.192 272.354C253.34 270.888 255.321 270.154 257.135 270.154C257.71 270.154 258.217 270.29 258.655 270.562C259.184 270.895 259.449 271.334 259.449 271.878C259.449 272.801 258.874 273.942 257.725 275.303C258.148 275.318 258.678 275.205 259.313 274.963C259.963 274.721 260.44 274.585 260.742 274.555ZM249.945 279.114C251.321 279.114 253.113 278.267 255.321 276.574C257.634 274.804 258.791 273.269 258.791 271.969C258.791 271.198 258.345 270.812 257.453 270.812C256.364 270.812 254.678 271.795 252.394 273.761C250.111 275.727 248.969 277.239 248.969 278.298C248.969 278.842 249.294 279.114 249.945 279.114Z" fill="#262626"/>
<path d="M260.674 275.281L260.402 274.94C260.432 274.804 261.309 274.131 263.033 272.922C264.878 271.591 266.02 270.668 266.458 270.154H269.475C268.144 271.621 266.814 273.095 265.483 274.577C263.305 277.027 262.201 278.403 262.171 278.706L262.489 278.91C264.636 279.016 268.356 276.097 273.649 270.154H276.711C275.381 271.621 274.05 273.088 272.719 274.555C270.526 277.005 269.43 278.373 269.43 278.661C269.43 278.872 269.589 278.978 269.906 278.978C271.751 278.978 274.322 277.549 277.619 274.691L277.777 274.986L277.709 275.19C274.458 278.199 271.691 279.704 269.407 279.704C268.47 279.704 268.001 279.258 268.001 278.366C268.001 277.7 268.296 276.861 268.885 275.848C265.634 278.479 263.275 279.795 261.808 279.795C260.961 279.795 260.538 279.303 260.538 278.32C260.538 277.519 261.513 275.916 263.464 273.511C262.693 274.071 261.763 274.661 260.674 275.281Z" fill="#262626"/>
<path d="M277.324 274.759C279.229 273.171 280.628 271.916 281.52 270.993C280.961 270.812 280.681 270.457 280.681 269.927C280.681 269.02 281.15 268.566 282.087 268.566C282.692 268.566 282.995 268.876 282.995 269.496C282.995 269.859 282.851 270.154 282.564 270.381C283.471 270.381 284.288 270.268 285.014 270.041L285.898 271.833C284.825 272.982 283.751 274.131 282.677 275.281C280.953 277.171 280.091 278.26 280.091 278.547C280.091 278.759 280.242 278.865 280.545 278.865C282.178 278.865 284.734 277.481 288.212 274.714L288.484 275.077C288.469 275.576 287.206 276.483 284.696 277.799C282.261 279.069 280.689 279.704 279.978 279.704C279.025 279.704 278.549 279.137 278.549 278.003C278.549 277.095 279.297 275.802 280.794 274.124C281.823 273.08 282.851 272.037 283.879 270.993C283.35 271.084 282.859 271.114 282.405 271.084C279.638 273.852 277.997 275.25 277.483 275.281L277.233 274.963L277.324 274.759Z" fill="#262626"/>
<path d="M295.834 270.993L295.584 270.789C294.662 270.774 292.212 272.264 288.235 275.258L287.985 274.986L288.099 274.759C289.233 273.761 290.48 272.823 291.841 271.946C293.686 270.767 295.055 270.177 295.947 270.177C296.703 270.177 297.081 270.578 297.081 271.379C297.081 272.105 296.779 272.967 296.174 273.965C299.365 271.424 301.724 270.154 303.251 270.154C304.083 270.154 304.499 270.646 304.499 271.629C304.499 272.808 303.735 274.207 302.208 275.825C300.681 277.428 299.917 278.351 299.917 278.593C299.917 278.789 300.053 278.887 300.325 278.887C301.414 278.887 302.979 278.199 305.021 276.823C307.077 275.447 308.136 274.751 308.196 274.736L308.333 274.963C308.333 275.598 307.1 276.559 304.635 277.844C302.261 279.084 300.673 279.704 299.871 279.704C298.934 279.704 298.465 279.175 298.465 278.116C298.465 277.194 299.146 275.908 300.507 274.26C301.565 273.126 302.616 271.984 303.66 270.835C303.403 270.759 303.274 270.721 303.274 270.721C300.749 270.721 296.786 273.7 291.388 279.659H288.824C291.123 276.952 293.46 274.063 295.834 270.993Z" fill="#262626"/>
<path d="M319.833 262.805C320.257 262.805 320.468 263.084 320.468 263.644C320.468 264.445 319.909 265.353 318.79 266.366C317.897 267.167 316.967 267.803 316 268.271L315.841 268.067C316.915 267.326 317.777 266.192 318.427 264.665C318.941 263.425 319.41 262.805 319.833 262.805ZM318.381 274.668L318.608 275.031L318.518 275.258C314.389 278.237 311.538 279.727 309.966 279.727C307.985 279.727 306.994 278.963 306.994 277.436C306.994 275.802 308.03 274.154 310.102 272.491C312.083 270.903 313.905 270.109 315.569 270.109C316.521 270.109 316.998 270.502 316.998 271.288C316.998 272.196 316.272 272.997 314.82 273.693C313.474 274.267 312.128 274.85 310.782 275.439C309.331 276.196 308.605 277.118 308.605 278.207C308.605 278.751 308.945 279.024 309.625 279.024C311.062 279.024 312.869 278.298 315.047 276.846C317.24 275.394 318.351 274.668 318.381 274.668ZM311.213 274.351C314.616 273.232 316.317 272.218 316.317 271.311C316.317 270.963 316.151 270.789 315.818 270.789C314.654 270.789 313.119 271.976 311.213 274.351Z" fill="#262626"/>
<path d="M328.68 274.668L328.907 275.031L328.816 275.258C324.688 278.237 321.837 279.727 320.264 279.727C318.283 279.727 317.293 278.963 317.293 277.436C317.293 275.802 318.328 274.154 320.4 272.491C322.381 270.903 324.204 270.109 325.867 270.109C326.82 270.109 327.296 270.502 327.296 271.288C327.296 272.196 326.57 272.997 325.118 273.693C323.773 274.267 322.427 274.85 321.081 275.439C319.629 276.196 318.903 277.118 318.903 278.207C318.903 278.751 319.243 279.024 319.924 279.024C321.361 279.024 323.168 278.298 325.345 276.846C327.538 275.394 328.65 274.668 328.68 274.668ZM321.512 274.351C324.914 273.232 326.616 272.218 326.616 271.311C326.616 270.963 326.449 270.789 326.117 270.789C324.952 270.789 323.417 271.976 321.512 274.351Z" fill="#262626"/>
<path d="M139.479 203.051L133.075 195.593L134.952 193.982C135.342 193.647 135.699 193.473 136.022 193.461C136.345 193.449 136.662 193.564 136.974 193.807C137.288 194.047 137.627 194.379 137.991 194.803C138.367 195.241 138.618 195.624 138.743 195.953C138.869 196.277 138.831 196.599 138.63 196.919C138.779 196.83 138.934 196.79 139.095 196.8C139.252 196.806 139.427 196.867 139.619 196.982C139.809 197.094 140.023 197.266 140.261 197.498C140.5 197.725 140.775 198.019 141.085 198.381C141.109 198.409 141.177 198.488 141.289 198.618C141.4 198.748 141.533 198.902 141.685 199.08C141.839 199.253 141.992 199.425 142.145 199.598C142.298 199.771 142.431 199.917 142.543 200.036C142.656 200.156 142.726 200.223 142.754 200.238L141.618 201.213C141.598 201.207 141.529 201.141 141.412 201.015C141.295 200.885 141.146 200.721 140.966 200.522C140.788 200.321 140.598 200.105 140.393 199.873C140.192 199.638 139.994 199.408 139.8 199.182C139.604 198.953 139.431 198.751 139.28 198.576C139.089 198.353 138.927 198.199 138.796 198.116C138.666 198.026 138.537 197.997 138.411 198.027C138.288 198.054 138.142 198.133 137.973 198.263L137.591 198.555L140.614 202.076L139.479 203.051ZM136.838 197.67L137.292 197.28C137.43 197.162 137.508 197.041 137.525 196.918C137.545 196.793 137.496 196.636 137.379 196.447C137.264 196.256 137.072 196.004 136.803 195.691L136.763 195.644C136.537 195.381 136.351 195.19 136.204 195.071C136.057 194.952 135.92 194.9 135.792 194.917C135.667 194.931 135.52 195.011 135.35 195.156L134.965 195.488L136.838 197.67Z" fill="#262626"/>
<path d="M145.303 198.183L139.315 190.388L141.928 188.381L142.714 189.404L141.288 190.499L143.03 192.767L144.385 191.726L145.154 192.727L143.799 193.768L145.704 196.248L147.183 195.112L147.969 196.135L145.303 198.183Z" fill="#262626"/>
<path d="M152.038 193.364C151.701 193.597 151.383 193.739 151.084 193.791C150.786 193.838 150.502 193.805 150.231 193.694C149.96 193.577 149.697 193.392 149.441 193.139C149.183 192.883 148.926 192.568 148.668 192.194L148.17 191.472L149.338 190.667L149.899 191.481C150.199 191.916 150.451 192.203 150.656 192.343C150.861 192.482 151.072 192.477 151.289 192.327C151.437 192.225 151.524 192.116 151.551 191.998C151.579 191.874 151.553 191.729 151.474 191.562C151.396 191.39 151.273 191.181 151.104 190.936C150.895 190.632 150.639 190.399 150.337 190.236C150.038 190.071 149.667 189.943 149.224 189.851L148.201 189.646C147.917 189.589 147.641 189.51 147.373 189.41C147.108 189.307 146.855 189.166 146.612 188.984C146.371 188.798 146.149 188.558 145.946 188.264C145.652 187.837 145.456 187.441 145.358 187.075C145.259 186.709 145.282 186.365 145.427 186.044C145.57 185.719 145.857 185.408 146.29 185.11C146.615 184.887 146.916 184.753 147.194 184.711C147.474 184.663 147.738 184.696 147.987 184.809C148.238 184.916 148.483 185.091 148.722 185.333C148.959 185.572 149.199 185.868 149.442 186.221L149.787 186.722L148.652 187.505L148.252 186.925C148.083 186.68 147.929 186.486 147.79 186.342C147.653 186.197 147.522 186.108 147.397 186.077C147.269 186.043 147.138 186.072 147.003 186.165C146.874 186.254 146.79 186.355 146.75 186.468C146.709 186.578 146.711 186.706 146.756 186.851C146.803 186.99 146.891 187.154 147.019 187.341C147.136 187.509 147.257 187.64 147.385 187.733C147.512 187.826 147.66 187.899 147.827 187.951C147.994 188.003 148.192 188.055 148.421 188.105L149.585 188.367C150.14 188.491 150.635 188.677 151.068 188.925C151.502 189.174 151.876 189.526 152.191 189.983C152.524 190.468 152.753 190.911 152.877 191.314C152.999 191.714 152.995 192.083 152.866 192.42C152.737 192.758 152.461 193.073 152.038 193.364Z" fill="#262626"/>
<path d="M158.005 189.487C157.569 189.753 157.157 189.878 156.768 189.862C156.382 189.844 156.014 189.694 155.663 189.411C155.311 189.128 154.973 188.719 154.647 188.185L152.307 184.347C152.013 183.864 151.824 183.411 151.742 182.991C151.66 182.57 151.701 182.183 151.865 181.83C152.029 181.477 152.335 181.164 152.784 180.89C153.121 180.685 153.437 180.564 153.733 180.527C154.029 180.491 154.31 180.529 154.575 180.642C154.838 180.752 155.089 180.931 155.327 181.178C155.566 181.42 155.796 181.723 156.017 182.085L158.357 185.924C158.683 186.458 158.892 186.945 158.986 187.385C159.083 187.823 159.053 188.216 158.895 188.565C158.737 188.914 158.441 189.222 158.005 189.487ZM157.331 188.381C157.49 188.284 157.58 188.164 157.601 188.02C157.622 187.876 157.587 187.699 157.494 187.49C157.402 187.275 157.265 187.019 157.083 186.72L154.699 182.81C154.477 182.444 154.27 182.184 154.08 182.03C153.891 181.87 153.684 181.859 153.458 181.997C153.226 182.138 153.128 182.331 153.163 182.575C153.197 182.817 153.328 183.125 153.557 183.5L155.944 187.415C156.13 187.72 156.295 187.963 156.441 188.145C156.588 188.321 156.731 188.43 156.87 188.472C157.012 188.512 157.165 188.482 157.331 188.381Z" fill="#262626"/>
<path d="M162.702 186.601L158.086 177.923L160.27 176.762C160.724 176.52 161.11 176.429 161.428 176.488C161.746 176.546 162.03 176.728 162.281 177.033C162.535 177.337 162.793 177.735 163.055 178.228C163.326 178.737 163.487 179.166 163.537 179.515C163.589 179.858 163.482 180.164 163.216 180.432C163.381 180.378 163.541 180.373 163.695 180.418C163.848 180.459 164.005 180.557 164.167 180.711C164.328 180.862 164.499 181.076 164.681 181.355C164.864 181.628 165.068 181.976 165.291 182.396C165.309 182.429 165.358 182.521 165.438 182.672C165.519 182.824 165.614 183.003 165.724 183.21C165.836 183.412 165.948 183.614 166.059 183.816C166.171 184.018 166.268 184.19 166.352 184.331C166.435 184.472 166.489 184.553 166.513 184.574L165.192 185.277C165.173 185.266 165.12 185.186 165.033 185.039C164.948 184.886 164.839 184.693 164.706 184.46C164.577 184.225 164.438 183.972 164.29 183.701C164.145 183.428 164.002 183.16 163.862 182.897C163.721 182.631 163.596 182.396 163.487 182.192C163.349 181.932 163.226 181.747 163.116 181.637C163.008 181.521 162.89 181.464 162.76 181.466C162.633 181.466 162.473 181.51 162.281 181.6L161.844 181.801L164.023 185.898L162.702 186.601ZM161.303 180.773L161.831 180.492C161.992 180.407 162.094 180.306 162.138 180.19C162.185 180.072 162.172 179.908 162.098 179.699C162.028 179.487 161.896 179.199 161.702 178.834L161.673 178.78C161.51 178.474 161.37 178.247 161.253 178.098C161.136 177.95 161.014 177.87 160.885 177.858C160.76 177.844 160.598 177.89 160.401 177.995L159.953 178.234L161.303 180.773Z" fill="#262626"/>
<path d="M169.925 182.909L166.312 175.178L165.27 175.665L164.721 174.492L168.116 172.905L168.665 174.079L167.663 174.547L171.276 182.278L169.925 182.909Z" fill="#262626"/>
<path d="M179.785 178.84C179.265 179.033 178.789 179.006 178.356 178.762C177.923 178.513 177.581 178.052 177.332 177.378C177.199 177.019 177.141 176.649 177.159 176.269C177.176 175.886 177.237 175.499 177.344 175.111C177.452 174.717 177.576 174.33 177.717 173.948C177.298 173.472 176.931 173.026 176.614 172.612C176.297 172.193 176.091 171.857 175.996 171.602C175.776 171.008 175.762 170.498 175.953 170.069C176.147 169.64 176.499 169.331 177.009 169.142C177.379 169.005 177.713 168.963 178.01 169.016C178.306 169.065 178.566 169.203 178.789 169.43C179.01 169.653 179.193 169.959 179.337 170.347C179.457 170.671 179.516 171.009 179.515 171.358C179.512 171.705 179.472 172.057 179.394 172.416C179.315 172.77 179.219 173.126 179.104 173.482L180.403 174.913C180.455 174.635 180.517 174.346 180.588 174.046C180.661 173.741 180.755 173.43 180.868 173.114L181.796 173.866C181.669 174.188 181.576 174.526 181.517 174.881C181.461 175.235 181.411 175.587 181.366 175.937L182.909 177.563L181.611 178.045L181.06 177.474C180.988 177.676 180.897 177.864 180.787 178.04C180.681 178.214 180.546 178.369 180.382 178.506C180.218 178.642 180.019 178.753 179.785 178.84ZM179.576 177.553C179.681 177.514 179.768 177.449 179.837 177.356C179.905 177.263 179.964 177.148 180.013 177.011C180.06 176.87 180.102 176.71 180.138 176.529L178.628 174.945C178.559 175.177 178.502 175.402 178.456 175.622C178.414 175.84 178.392 176.049 178.39 176.248C178.388 176.447 178.416 176.633 178.472 176.807C178.584 177.143 178.732 177.376 178.916 177.506C179.101 177.632 179.321 177.648 179.576 177.553ZM178.239 172.48C178.345 172.143 178.415 171.824 178.45 171.521C178.484 171.218 178.454 170.939 178.36 170.684C178.249 170.384 178.132 170.181 178.01 170.076C177.887 169.97 177.723 169.956 177.517 170.032C177.395 170.077 177.304 170.139 177.246 170.216C177.187 170.293 177.152 170.382 177.141 170.481C177.133 170.575 177.139 170.674 177.162 170.777C177.184 170.88 177.213 170.98 177.249 171.078C177.301 171.218 177.414 171.41 177.588 171.655C177.765 171.896 177.982 172.171 178.239 172.48Z" fill="#262626"/>
<path d="M191.076 175.169C190.681 175.277 190.334 175.307 190.035 175.258C189.738 175.204 189.48 175.08 189.261 174.885C189.044 174.686 188.856 174.425 188.698 174.102C188.539 173.775 188.399 173.392 188.278 172.954L188.046 172.109L189.414 171.733L189.676 172.686C189.816 173.196 189.96 173.55 190.107 173.749C190.254 173.948 190.455 174.013 190.71 173.943C190.883 173.895 191.001 173.82 191.065 173.718C191.133 173.61 191.156 173.465 191.137 173.281C191.12 173.093 191.072 172.855 190.993 172.568C190.895 172.212 190.73 171.908 190.499 171.655C190.271 171.401 189.962 171.158 189.574 170.925L188.676 170.395C188.427 170.248 188.192 170.082 187.972 169.9C187.755 169.716 187.562 169.499 187.393 169.248C187.226 168.992 187.096 168.692 187.001 168.348C186.864 167.849 186.809 167.41 186.836 167.032C186.864 166.654 186.999 166.337 187.241 166.081C187.483 165.822 187.857 165.622 188.363 165.483C188.743 165.379 189.072 165.352 189.349 165.403C189.628 165.45 189.867 165.568 190.065 165.757C190.266 165.941 190.44 166.187 190.586 166.494C190.732 166.798 190.861 167.156 190.974 167.569L191.136 168.156L189.806 168.521L189.619 167.843C189.54 167.555 189.458 167.321 189.374 167.14C189.293 166.957 189.198 166.831 189.09 166.76C188.981 166.686 188.847 166.671 188.689 166.714C188.539 166.755 188.426 166.823 188.351 166.917C188.276 167.007 188.236 167.128 188.231 167.28C188.229 167.427 188.258 167.611 188.318 167.83C188.372 168.027 188.444 168.191 188.534 168.32C188.624 168.45 188.739 168.567 188.88 168.671C189.02 168.776 189.19 168.889 189.39 169.012L190.403 169.643C190.887 169.942 191.293 170.281 191.621 170.658C191.948 171.035 192.185 171.491 192.332 172.026C192.488 172.593 192.558 173.087 192.543 173.509C192.526 173.926 192.402 174.273 192.169 174.55C191.936 174.826 191.572 175.032 191.076 175.169Z" fill="#262626"/>
<path d="M195.947 173.798L193.863 164.193L196.068 163.714C196.45 163.631 196.779 163.621 197.055 163.683C197.335 163.744 197.573 163.873 197.768 164.071C197.964 164.269 198.129 164.53 198.264 164.855C198.399 165.176 198.514 165.557 198.609 165.997L198.653 166.199C198.787 166.818 198.847 167.357 198.833 167.817C198.821 168.273 198.702 168.644 198.474 168.93C198.246 169.215 197.882 169.412 197.38 169.521L196.588 169.693L197.41 173.481L195.947 173.798ZM196.326 168.487L196.829 168.378C197.043 168.331 197.191 168.242 197.273 168.11C197.355 167.978 197.385 167.783 197.363 167.525C197.345 167.262 197.289 166.92 197.198 166.498L197.157 166.312C197.041 165.793 196.91 165.41 196.765 165.163C196.619 164.913 196.392 164.821 196.083 164.888L195.57 164.999L196.326 168.487Z" fill="#262626"/>
<path d="M202.446 172.445L202.286 162.518L204.238 162.207L207.255 171.68L205.877 171.899L205.369 170.204L203.803 170.454L203.869 172.219L202.446 172.445ZM203.758 169.245L205.026 169.043L203.6 164.271L203.577 164.275L203.758 169.245Z" fill="#262626"/>
<path d="M214.124 170.908L213.383 161.106L214.876 160.994L215.52 169.525L217.408 169.382L217.504 170.652L214.124 170.908Z" fill="#262626"/>
<path d="M222.299 170.576C221.789 170.588 221.37 170.489 221.041 170.28C220.716 170.072 220.473 169.757 220.311 169.336C220.149 168.915 220.06 168.392 220.047 167.766L219.946 163.272C219.933 162.706 219.997 162.221 220.137 161.815C220.277 161.41 220.506 161.096 220.825 160.872C221.144 160.649 221.566 160.532 222.091 160.52C222.486 160.511 222.82 160.565 223.095 160.682C223.369 160.799 223.593 160.973 223.765 161.203C223.938 161.43 224.065 161.711 224.147 162.044C224.233 162.373 224.28 162.75 224.29 163.175L224.39 167.669C224.404 168.295 224.342 168.821 224.202 169.249C224.066 169.676 223.843 170.002 223.531 170.225C223.22 170.448 222.809 170.565 222.299 170.576ZM222.27 169.281C222.456 169.277 222.595 169.218 222.685 169.104C222.776 168.99 222.833 168.819 222.858 168.592C222.886 168.36 222.897 168.07 222.889 167.72L222.786 163.141C222.777 162.713 222.729 162.385 222.642 162.156C222.558 161.923 222.384 161.81 222.12 161.816C221.848 161.822 221.667 161.939 221.575 162.168C221.483 162.394 221.442 162.726 221.452 163.166L221.554 167.749C221.562 168.107 221.584 168.401 221.619 168.631C221.657 168.857 221.726 169.023 221.825 169.129C221.928 169.234 222.077 169.285 222.27 169.281Z" fill="#262626"/>
<path d="M229.824 170.619C229.348 170.602 228.956 170.478 228.647 170.248C228.339 170.017 228.112 169.689 227.966 169.263C227.825 168.833 227.765 168.319 227.786 167.72L227.935 163.439C227.951 162.989 228.002 162.584 228.089 162.226C228.176 161.868 228.308 161.563 228.484 161.312C228.661 161.061 228.891 160.872 229.175 160.744C229.459 160.616 229.805 160.559 230.214 160.574C230.587 160.587 230.901 160.659 231.157 160.791C231.417 160.919 231.625 161.1 231.781 161.332C231.94 161.565 232.051 161.845 232.115 162.171C232.181 162.494 232.208 162.856 232.194 163.258L232.147 164.609L230.701 164.558L230.745 163.302C230.762 162.819 230.733 162.462 230.659 162.232C230.586 161.999 230.426 161.878 230.18 161.869C229.909 161.859 229.722 161.978 229.62 162.224C229.523 162.466 229.466 162.809 229.45 163.252L229.29 167.839C229.278 168.182 229.287 168.463 229.316 168.684C229.35 168.901 229.411 169.064 229.501 169.171C229.59 169.275 229.719 169.33 229.886 169.336C230.139 169.344 230.314 169.231 230.412 168.996C230.51 168.761 230.568 168.385 230.586 167.868L230.635 166.461L232.103 166.513L232.054 167.902C232.032 168.524 231.942 169.04 231.782 169.452C231.622 169.86 231.381 170.161 231.058 170.354C230.738 170.548 230.327 170.636 229.824 170.619Z" fill="#262626"/>
<path d="M234.445 170.725L236.732 161.063L238.701 161.242L239.295 171.166L237.905 171.039L237.83 169.272L236.251 169.128L235.88 170.855L234.445 170.725ZM236.504 167.945L237.783 168.062L237.575 163.086L237.552 163.084L236.504 167.945Z" fill="#262626"/>
<path d="M242.727 171.603L243.927 163.155L242.788 162.993L242.97 161.71L246.68 162.237L246.498 163.52L245.403 163.364L244.203 171.813L242.727 171.603Z" fill="#262626"/>
<path d="M247.918 172.408L249.76 162.753L252.997 163.37L252.755 164.638L250.989 164.3L250.453 167.109L252.131 167.429L251.895 168.669L250.216 168.349L249.63 171.421L251.462 171.771L251.22 173.038L247.918 172.408Z" fill="#262626"/>
<path d="M254.274 173.693L256.639 164.152L258.78 164.683C259.265 164.803 259.629 164.997 259.873 165.265C260.118 165.529 260.261 165.86 260.301 166.257C260.344 166.655 260.301 167.112 260.173 167.629L259.112 171.935C258.957 172.56 258.759 173.063 258.519 173.445C258.283 173.823 257.99 174.077 257.64 174.205C257.29 174.333 256.865 174.335 256.366 174.211L254.274 173.693ZM256.006 172.925L256.483 173.044C256.653 173.086 256.803 173.086 256.932 173.045C257.064 173.005 257.179 172.905 257.276 172.745C257.378 172.583 257.469 172.34 257.549 172.019L258.711 167.307C258.832 166.819 258.859 166.454 258.793 166.211C258.726 165.968 258.543 165.81 258.243 165.735L257.815 165.629L256.006 172.925Z" fill="#262626"/>
<path d="M265.455 176.814L268.571 167.492L269.99 167.966L266.874 177.288L265.455 176.814Z" fill="#262626"/>
<path d="M270.171 178.435L273.752 169.282L274.844 169.709L274.636 175.96L275.514 173.425L276.685 170.429L277.939 170.92L274.358 180.073L273.37 179.687L273.602 173.223L272.74 175.656L271.456 178.938L270.171 178.435Z" fill="#262626"/>
<path d="M281.139 183.082L285.535 174.291L286.874 174.96L285.096 178.517L286.295 179.116L288.073 175.56L289.412 176.229L285.016 185.02L283.677 184.351L285.72 180.265L284.521 179.666L282.478 183.752L281.139 183.082Z" fill="#262626"/>
<path d="M289.612 187.682C289.17 187.427 288.862 187.126 288.689 186.777C288.519 186.43 288.474 186.034 288.554 185.59C288.633 185.146 288.829 184.653 289.141 184.111L291.384 180.215C291.666 179.725 291.972 179.342 292.302 179.068C292.632 178.794 292.991 178.644 293.379 178.619C293.768 178.593 294.189 178.711 294.644 178.973C294.986 179.17 295.244 179.39 295.419 179.632C295.593 179.874 295.694 180.138 295.722 180.425C295.752 180.709 295.716 181.014 295.613 181.342C295.516 181.668 295.361 182.015 295.149 182.383L292.906 186.279C292.594 186.821 292.268 187.239 291.927 187.533C291.59 187.828 291.23 187.99 290.848 188.02C290.466 188.049 290.054 187.936 289.612 187.682ZM290.258 186.559C290.419 186.652 290.568 186.673 290.705 186.623C290.841 186.572 290.979 186.456 291.118 186.274C291.262 186.091 291.422 185.847 291.596 185.544L293.881 181.575C294.095 181.204 294.223 180.898 294.268 180.657C294.317 180.415 294.227 180.228 293.998 180.096C293.762 179.96 293.546 179.967 293.349 180.115C293.153 180.261 292.946 180.524 292.727 180.905L290.439 184.878C290.261 185.188 290.127 185.45 290.038 185.665C289.954 185.879 289.926 186.056 289.957 186.198C289.99 186.342 290.09 186.462 290.258 186.559Z" fill="#262626"/>
<path d="M294.442 190.461L299.756 182.193L301.015 183.002L295.701 191.271L294.442 190.461Z" fill="#262626"/>
<path d="M301.39 195.154L308.451 188.174L310.025 189.369L305.269 198.099L304.157 197.255L305.03 195.716L303.767 194.757L302.538 196.025L301.39 195.154ZM304.609 193.889L305.632 194.665L308.093 190.335L308.075 190.322L304.609 193.889Z" fill="#262626"/>
<path d="M307.546 199.93L313.938 192.464L314.829 193.227L312.576 199.062L314.239 196.956L316.331 194.513L317.353 195.388L310.961 202.854L310.155 202.164L312.5 196.136L310.885 198.151L308.593 200.828L307.546 199.93Z" fill="#262626"/>
</svg>
