<svg width="450" height="450" viewBox="0 0 450 450" fill="none" xmlns="http://www.w3.org/2000/svg">
<rect x="0.5" y="0.5" width="449" height="449" fill="#EAEAEA"/>
<rect x="0.5" y="0.5" width="449" height="449" stroke="#262626"/>
<path d="M155.968 221.524C158.565 220.416 161.211 219.267 163.906 218.076L164.547 217.112L162.124 213.813L163.249 213.262L166.321 215.78L171.661 212.804L167.977 207.792L169.64 206.977L174.572 211.183L177.51 209.545C178.411 209.043 179.363 208.993 180.069 209.426L180.527 209.706C180.928 209.951 181.084 210.385 180.954 210.889L180.807 211.467C180.579 212.357 179.885 213.114 178.945 213.513L175.886 214.814L175.228 224.516L173.566 225.331L172.854 216.103L167.292 218.468L166.856 224.898L165.73 225.45L165.233 219.012L164.213 218.875C158.151 222.31 152.315 225.481 146.702 228.403C125.16 239.615 106.918 247.141 91.9422 251.74C17.4946 274.604 23.7316 225.142 106.428 196.523C53.308 221.376 39.6809 244.473 65.3709 246.285C62.9947 241.503 61.3887 236.249 60.727 230.673C65.6913 223.899 72.9116 217.968 76.6943 215.359L76.8201 215.261C75.6239 219.117 75.1224 223.258 75.4515 227.528C75.9671 234.217 78.4495 240.283 82.2879 245.205C82.852 245.116 83.4242 245.023 84.0044 244.924C84.0044 244.924 112.659 238.585 141.027 227.658C141.163 225.958 141.168 224.226 141.033 222.472C139.637 204.363 123.824 190.813 105.715 192.209C96.2376 192.94 88.0095 197.618 82.5186 204.508C70.1684 209.786 63.8758 213.211 61.5339 214.544C66.0022 194.552 83.077 178.946 104.564 177.29C130.914 175.259 153.921 194.973 155.952 221.322C155.958 221.39 155.963 221.457 155.968 221.524Z" fill="#262626"/>
<path d="M110.77 257.791C105.493 258.198 100.41 257.335 95.823 255.461C90.1278 257.375 83.8303 259.231 76.7508 261.029C86.0901 269.191 98.5764 273.739 111.92 272.71C137.447 270.743 156.747 249.087 156.08 223.779C152.359 226.064 148.858 228.297 145.438 230.48L145.437 230.48C143.569 231.672 141.724 232.849 139.881 234.01C136.218 246.866 124.878 256.703 110.77 257.791Z" fill="#262626"/>
<path fill-rule="evenodd" clip-rule="evenodd" d="M199.308 269.449C200.449 269.449 201.374 268.523 201.374 267.382V225C201.374 217.191 204.104 210.593 209.609 205.089C215.157 199.541 221.776 196.794 229.581 196.794C237.385 196.794 243.981 199.541 249.487 205.084L249.497 205.094C255.04 210.599 257.787 217.196 257.787 225V267.382C257.787 268.523 258.712 269.449 259.853 269.449H271.963C273.104 269.449 274.029 268.523 274.029 267.382V225C274.029 212.747 269.674 202.231 261.012 193.569C252.35 184.906 241.834 180.552 229.581 180.552C217.327 180.552 206.811 184.906 198.149 193.569C189.487 202.231 185.132 212.747 185.132 225V267.382C185.132 268.523 186.057 269.449 187.199 269.449H199.308ZM229.581 182.618C229.581 182.618 229.581 182.618 229.581 182.618V182.618ZM229.581 194.727C229.581 194.727 229.581 194.727 229.581 194.727V194.727Z" fill="#262626"/>
<path fill-rule="evenodd" clip-rule="evenodd" d="M305.687 255.273C305.687 254.132 304.762 253.206 303.621 253.206H291.511C290.37 253.206 289.445 254.132 289.445 255.273V267.382C289.445 268.523 290.37 269.449 291.511 269.449H303.621C304.762 269.449 305.687 268.523 305.687 267.382V255.273Z" fill="#262626"/>
<path fill-rule="evenodd" clip-rule="evenodd" d="M410 255.273C410 254.132 409.075 253.206 407.933 253.206H365.551C357.747 253.206 351.151 250.46 345.645 244.916L345.634 244.905C342.117 241.421 339.736 237.499 338.45 233.121H407.933C409.075 233.121 410 232.196 410 231.055V218.946C410 217.804 409.075 216.879 407.933 216.879H338.45C339.736 212.494 342.119 208.549 345.64 205.028C351.145 199.524 357.743 196.794 365.551 196.794H407.933C409.075 196.794 410 195.869 410 194.727V182.618C410 181.477 409.075 180.552 407.933 180.552H365.551C353.298 180.552 342.782 184.906 334.12 193.569C325.458 202.231 321.103 212.747 321.103 225C321.103 237.253 325.458 247.769 334.12 256.431C342.782 265.094 353.298 269.449 365.551 269.449H407.933C409.075 269.449 410 268.523 410 267.382V255.273ZM365.551 182.618C365.551 182.618 365.552 182.618 365.551 182.618V182.618Z" fill="#262626"/>
</svg>
