<svg width="450" height="450" viewBox="0 0 450 450" fill="none" xmlns="http://www.w3.org/2000/svg">
<rect x="0.5" y="0.5" width="449" height="449" fill="#EAEAEA"/>
<rect x="0.5" y="0.5" width="449" height="449" stroke="#262626"/>
<mask id="path-2-inside-1_3990_7793" fill="white">
<path d="M70.197 239.842C73.3993 239.472 75.1237 238.302 75.9243 235.592L81.4668 217.425H64.2233L58.5576 236.085C57.8186 238.487 59.1119 239.534 62.0063 239.842L61.76 240.581H46.8567L47.103 239.842C50.3054 239.472 52.0297 238.302 52.8303 235.592L63.4843 200.736C64.2849 198.026 63.2996 196.856 60.3435 196.487L60.5899 195.748H75.4932L75.2468 196.487C72.2292 196.794 70.2585 197.718 69.5195 200.12L64.5928 216.255H81.8363L86.5783 200.736C87.3788 198.026 86.4551 196.856 83.4375 196.487L83.6838 195.748H98.5871L98.3408 196.487C95.3847 196.794 93.3525 197.718 92.6135 200.182L81.6516 236.085C80.9125 238.487 82.2058 239.534 85.1002 239.842L84.8539 240.581H69.9506L70.197 239.842Z"/>
<path d="M96.7223 241.196C90.4407 241.196 88.1005 236.023 90.5023 226.847C93.3967 216.009 100.233 209.173 107.992 209.173C114.274 209.173 116.614 214.346 114.15 223.522C111.318 234.361 104.482 241.196 96.7223 241.196ZM96.5375 225.985C94.0126 235.161 94.2589 240.088 97.5844 240.088C101.587 240.088 105.344 234.545 108.115 224.322C110.702 215.208 110.455 210.281 107.253 210.281C103.127 210.281 99.3704 215.824 96.5375 225.985Z"/>
<path d="M123.698 216.809C125.053 212.56 123.452 211.082 118.895 217.795L118.094 217.24C121.605 211.575 124.93 209.173 127.517 209.173C130.042 209.173 130.781 210.712 129.61 214.592L125.238 228.88C133.983 210.836 140.634 209.173 143.775 209.173C146.3 209.173 147.531 210.836 145.314 216.809L139.772 231.897C137.124 238.979 139.649 238.733 143.836 232.575L144.637 233.129C141.127 238.795 137.801 241.196 135.03 241.196C132.505 241.196 131.581 239.534 133.552 234.114L139.033 219.026C140.88 213.976 140.449 213.237 139.464 213.237C136.446 213.237 129.857 218.718 121.728 240.581H116.37L123.698 216.809Z"/>
<path d="M153.717 241.196C147.928 241.196 145.896 235.223 148.42 226.478C151.13 217.056 157.904 209.173 165.479 209.173C170.591 209.173 172.931 212.314 171.761 216.193C170.344 220.997 164.494 224.877 154.271 225.061C151.931 232.698 153.101 237.871 156.857 237.871C159.629 237.871 163.816 236.147 166.957 230.912L167.758 231.466C163.816 238.056 157.781 241.196 153.717 241.196ZM154.64 224.015C160.799 223.768 164.986 221.059 166.588 216.317C167.819 212.622 166.649 210.281 164.74 210.281C161.168 210.281 157.289 215.824 154.64 224.015Z"/>
<path d="M165.93 254.252C163.713 254.252 162.42 252.836 162.42 251.358C162.42 249.51 163.96 247.724 166.177 247.724C168.394 247.724 169.194 249.325 171.535 249.325C175.168 249.325 179.233 245.63 180.649 239.226C183.297 226.786 180.587 212.683 176.892 212.683C175.784 212.683 174.86 213.853 173.752 217.548L172.705 217.24C174.552 210.959 176.584 209.173 179.048 209.173C185.453 209.173 188.162 220.012 185.576 237.625C191.611 230.481 195.922 222.475 195.922 218.534C195.922 215.146 190.441 215.639 190.441 212.314C190.441 210.651 192.227 209.173 194.013 209.173C196.784 209.173 198.693 211.144 198.693 214.346C198.693 226.909 176.4 254.252 165.93 254.252Z"/>
<path d="M258.001 239.842C261.265 239.472 262.681 238.302 262.681 235.531V200.736C262.681 198.026 261.265 196.856 258.001 196.487V195.748H273.705V196.487C270.379 196.794 268.839 197.965 268.839 200.736V235.531C268.839 238.364 270.379 239.534 273.581 239.534H275.983C284.174 239.534 288.669 236.578 289.778 228.449H290.579L289.347 240.581H258.001V239.842Z"/>
<path d="M291.785 239.842C294.433 239.472 295.85 238.056 295.85 236.516V217.117C295.85 215.578 294.926 214.1 291.785 213.915V213.176L300.715 209.05L301.392 209.481V236.516C301.392 238.117 302.932 239.534 305.642 239.842V240.581H291.785V239.842ZM294.68 200.551C294.68 198.58 296.342 196.979 298.251 196.979C300.222 196.979 301.823 198.58 301.823 200.551C301.823 202.522 300.222 204.123 298.251 204.123C296.342 204.123 294.68 202.522 294.68 200.551Z"/>
<path d="M345.131 222.66C345.131 214.223 343.099 212.314 339.465 212.314C337.064 212.314 334.292 213.976 333.307 216.809C333.369 217.918 333.43 219.273 333.43 220.566V236.516C333.43 238.117 334.97 239.534 337.68 239.842V240.581H323.823V239.842C326.471 239.472 327.888 238.056 327.888 236.516V222.66C327.888 214.223 325.855 212.314 322.222 212.314C319.882 212.314 317.295 213.853 316.187 216.44V236.516C316.187 238.117 317.726 239.534 320.436 239.842V240.581H306.58V239.842C309.228 239.472 310.644 238.056 310.644 236.516V217.425C310.644 214.654 309.351 212.991 306.58 212.991V212.252L315.386 209.05L316.064 209.481V214.839L316.125 214.962C318.034 211.267 321.791 209.173 324.685 209.173C328.811 209.173 331.829 210.959 332.938 215.824C334.724 211.575 338.85 209.173 341.929 209.173C347.225 209.173 350.674 212.067 350.674 220.566V236.516C350.674 238.117 352.213 239.534 354.923 239.842V240.581H341.067V239.842C343.715 239.472 345.131 238.056 345.131 236.516V222.66Z"/>
<path d="M369.535 241.196C361.714 241.196 355.556 234.669 355.556 225.185C355.556 214.592 361.283 209.173 369.35 209.173C376.309 209.173 380.867 214.1 380.867 220.689L380.62 221.059H361.653C361.591 221.859 361.591 222.66 361.591 223.522C361.591 232.575 365.717 237.932 372.245 237.932C375.694 237.932 378.773 235.962 380.436 233.683L381.113 234.176C378.65 238.795 374.831 241.196 369.535 241.196ZM361.714 220.012H375.139C375.078 213.422 372.553 210.097 368.858 210.097C364.609 210.097 362.33 213.484 361.714 220.012Z"/>
<path d="M387.209 205.372C387.798 205.304 388.116 205.088 388.263 204.589L390.428 197.504C389.487 197.583 388.331 198.501 387.447 199.896H387.254L388.286 197.311H394.521L393.965 199.896H393.773C393.739 198.433 393.24 197.572 392.265 197.504L390.1 204.589C389.941 205.099 390.145 205.315 390.712 205.372L390.644 205.564H387.152L387.209 205.372Z"/>
<path d="M392.475 205.372C392.906 205.315 393.371 205.088 393.7 204.227C394.323 202.571 394.981 200.463 395.695 198.354C395.888 197.787 395.536 197.56 395.196 197.504L395.253 197.311H397.656L397.736 201.948L400.536 197.311H403.143L403.087 197.504C402.645 197.56 402.259 197.787 402.089 198.354L400.241 204.567C400.082 205.088 400.32 205.315 400.876 205.372L400.819 205.564H397.237L397.294 205.372C397.974 205.292 398.257 205.077 398.416 204.567L400.354 198.105L396.273 204.884H396.092L395.91 198.581C395.208 200.655 394.527 202.639 394.074 204.227C393.836 205.077 394.029 205.292 394.743 205.372L394.686 205.564H392.419L392.475 205.372Z"/>
<path d="M226.108 223.084C224.973 223.754 223.78 224.423 222.557 225.005C222.441 220.96 223.605 217.584 225.73 217.584C226.545 217.584 227.01 218.428 227.01 219.825C227.01 221.105 226.777 222.066 226.108 223.084Z"/>
<path fill-rule="evenodd" clip-rule="evenodd" d="M228.79 240.744C238.504 240.744 246.379 232.868 246.379 223.154C246.379 213.439 238.504 205.564 228.79 205.564C219.075 205.564 211.2 213.439 211.2 223.154C211.2 232.868 219.075 240.744 228.79 240.744ZM218.832 226.46C218.89 230.971 221.713 233.707 225.613 233.707C229.659 233.707 233.413 230.418 234.694 225.18C235.683 226.431 236.731 227.595 237.924 227.595C239.496 227.595 240.427 225.995 241.155 221.949L240.602 221.891C240.165 223.957 239.583 224.801 239.03 224.801C238.566 224.801 238.097 224.228 237.524 223.528C236.625 222.43 235.471 221.018 233.675 221.018C231.405 221.018 228.349 223.521 228.349 225.907C228.349 226.926 228.989 227.828 230.299 227.828C231.318 227.828 232.336 227.217 232.336 226.14C232.336 225.559 231.894 225.05 231.475 224.567C231.096 224.131 230.736 223.716 230.736 223.288C230.736 222.706 231.114 222.386 231.783 222.386C232.536 222.386 233.318 223.395 234.215 224.552L234.228 224.569C233.239 229.429 230.328 231.67 227.301 231.67C224.973 231.67 222.936 230.04 222.616 225.995L222.586 225.675C228.96 222.473 234.374 217.991 235.421 214.761C235.916 213.364 235.276 211.297 233.326 211.297C232.307 211.297 231.405 211.879 231.405 212.898C231.405 213.796 231.899 214.31 232.353 214.782C232.738 215.182 233.093 215.552 233.093 216.099C233.093 217.176 231.812 218.777 229.833 220.436C229.892 220.116 229.921 219.796 229.921 219.446C229.921 218.078 228.757 217.031 226.632 217.031C222.878 217.031 218.745 221.018 218.832 226.46Z"/>
</mask>
<path d="M70.197 239.842C73.3993 239.472 75.1237 238.302 75.9243 235.592L81.4668 217.425H64.2233L58.5576 236.085C57.8186 238.487 59.1119 239.534 62.0063 239.842L61.76 240.581H46.8567L47.103 239.842C50.3054 239.472 52.0297 238.302 52.8303 235.592L63.4843 200.736C64.2849 198.026 63.2996 196.856 60.3435 196.487L60.5899 195.748H75.4932L75.2468 196.487C72.2292 196.794 70.2585 197.718 69.5195 200.12L64.5928 216.255H81.8363L86.5783 200.736C87.3788 198.026 86.4551 196.856 83.4375 196.487L83.6838 195.748H98.5871L98.3408 196.487C95.3847 196.794 93.3525 197.718 92.6135 200.182L81.6516 236.085C80.9125 238.487 82.2058 239.534 85.1002 239.842L84.8539 240.581H69.9506L70.197 239.842Z" fill="#262626"/>
<path d="M96.7223 241.196C90.4407 241.196 88.1005 236.023 90.5023 226.847C93.3967 216.009 100.233 209.173 107.992 209.173C114.274 209.173 116.614 214.346 114.15 223.522C111.318 234.361 104.482 241.196 96.7223 241.196ZM96.5375 225.985C94.0126 235.161 94.2589 240.088 97.5844 240.088C101.587 240.088 105.344 234.545 108.115 224.322C110.702 215.208 110.455 210.281 107.253 210.281C103.127 210.281 99.3704 215.824 96.5375 225.985Z" fill="#262626"/>
<path d="M123.698 216.809C125.053 212.56 123.452 211.082 118.895 217.795L118.094 217.24C121.605 211.575 124.93 209.173 127.517 209.173C130.042 209.173 130.781 210.712 129.61 214.592L125.238 228.88C133.983 210.836 140.634 209.173 143.775 209.173C146.3 209.173 147.531 210.836 145.314 216.809L139.772 231.897C137.124 238.979 139.649 238.733 143.836 232.575L144.637 233.129C141.127 238.795 137.801 241.196 135.03 241.196C132.505 241.196 131.581 239.534 133.552 234.114L139.033 219.026C140.88 213.976 140.449 213.237 139.464 213.237C136.446 213.237 129.857 218.718 121.728 240.581H116.37L123.698 216.809Z" fill="#262626"/>
<path d="M153.717 241.196C147.928 241.196 145.896 235.223 148.42 226.478C151.13 217.056 157.904 209.173 165.479 209.173C170.591 209.173 172.931 212.314 171.761 216.193C170.344 220.997 164.494 224.877 154.271 225.061C151.931 232.698 153.101 237.871 156.857 237.871C159.629 237.871 163.816 236.147 166.957 230.912L167.758 231.466C163.816 238.056 157.781 241.196 153.717 241.196ZM154.64 224.015C160.799 223.768 164.986 221.059 166.588 216.317C167.819 212.622 166.649 210.281 164.74 210.281C161.168 210.281 157.289 215.824 154.64 224.015Z" fill="#262626"/>
<path d="M165.93 254.252C163.713 254.252 162.42 252.836 162.42 251.358C162.42 249.51 163.96 247.724 166.177 247.724C168.394 247.724 169.194 249.325 171.535 249.325C175.168 249.325 179.233 245.63 180.649 239.226C183.297 226.786 180.587 212.683 176.892 212.683C175.784 212.683 174.86 213.853 173.752 217.548L172.705 217.24C174.552 210.959 176.584 209.173 179.048 209.173C185.453 209.173 188.162 220.012 185.576 237.625C191.611 230.481 195.922 222.475 195.922 218.534C195.922 215.146 190.441 215.639 190.441 212.314C190.441 210.651 192.227 209.173 194.013 209.173C196.784 209.173 198.693 211.144 198.693 214.346C198.693 226.909 176.4 254.252 165.93 254.252Z" fill="#262626"/>
<path d="M258.001 239.842C261.265 239.472 262.681 238.302 262.681 235.531V200.736C262.681 198.026 261.265 196.856 258.001 196.487V195.748H273.705V196.487C270.379 196.794 268.839 197.965 268.839 200.736V235.531C268.839 238.364 270.379 239.534 273.581 239.534H275.983C284.174 239.534 288.669 236.578 289.778 228.449H290.579L289.347 240.581H258.001V239.842Z" fill="#262626"/>
<path d="M291.785 239.842C294.433 239.472 295.85 238.056 295.85 236.516V217.117C295.85 215.578 294.926 214.1 291.785 213.915V213.176L300.715 209.05L301.392 209.481V236.516C301.392 238.117 302.932 239.534 305.642 239.842V240.581H291.785V239.842ZM294.68 200.551C294.68 198.58 296.342 196.979 298.251 196.979C300.222 196.979 301.823 198.58 301.823 200.551C301.823 202.522 300.222 204.123 298.251 204.123C296.342 204.123 294.68 202.522 294.68 200.551Z" fill="#262626"/>
<path d="M345.131 222.66C345.131 214.223 343.099 212.314 339.465 212.314C337.064 212.314 334.292 213.976 333.307 216.809C333.369 217.918 333.43 219.273 333.43 220.566V236.516C333.43 238.117 334.97 239.534 337.68 239.842V240.581H323.823V239.842C326.471 239.472 327.888 238.056 327.888 236.516V222.66C327.888 214.223 325.855 212.314 322.222 212.314C319.882 212.314 317.295 213.853 316.187 216.44V236.516C316.187 238.117 317.726 239.534 320.436 239.842V240.581H306.58V239.842C309.228 239.472 310.644 238.056 310.644 236.516V217.425C310.644 214.654 309.351 212.991 306.58 212.991V212.252L315.386 209.05L316.064 209.481V214.839L316.125 214.962C318.034 211.267 321.791 209.173 324.685 209.173C328.811 209.173 331.829 210.959 332.938 215.824C334.724 211.575 338.85 209.173 341.929 209.173C347.225 209.173 350.674 212.067 350.674 220.566V236.516C350.674 238.117 352.213 239.534 354.923 239.842V240.581H341.067V239.842C343.715 239.472 345.131 238.056 345.131 236.516V222.66Z" fill="#262626"/>
<path d="M369.535 241.196C361.714 241.196 355.556 234.669 355.556 225.185C355.556 214.592 361.283 209.173 369.35 209.173C376.309 209.173 380.867 214.1 380.867 220.689L380.62 221.059H361.653C361.591 221.859 361.591 222.66 361.591 223.522C361.591 232.575 365.717 237.932 372.245 237.932C375.694 237.932 378.773 235.962 380.436 233.683L381.113 234.176C378.65 238.795 374.831 241.196 369.535 241.196ZM361.714 220.012H375.139C375.078 213.422 372.553 210.097 368.858 210.097C364.609 210.097 362.33 213.484 361.714 220.012Z" fill="#262626"/>
<path d="M387.209 205.372C387.798 205.304 388.116 205.088 388.263 204.589L390.428 197.504C389.487 197.583 388.331 198.501 387.447 199.896H387.254L388.286 197.311H394.521L393.965 199.896H393.773C393.739 198.433 393.24 197.572 392.265 197.504L390.1 204.589C389.941 205.099 390.145 205.315 390.712 205.372L390.644 205.564H387.152L387.209 205.372Z" fill="#262626"/>
<path d="M392.475 205.372C392.906 205.315 393.371 205.088 393.7 204.227C394.323 202.571 394.981 200.463 395.695 198.354C395.888 197.787 395.536 197.56 395.196 197.504L395.253 197.311H397.656L397.736 201.948L400.536 197.311H403.143L403.087 197.504C402.645 197.56 402.259 197.787 402.089 198.354L400.241 204.567C400.082 205.088 400.32 205.315 400.876 205.372L400.819 205.564H397.237L397.294 205.372C397.974 205.292 398.257 205.077 398.416 204.567L400.354 198.105L396.273 204.884H396.092L395.91 198.581C395.208 200.655 394.527 202.639 394.074 204.227C393.836 205.077 394.029 205.292 394.743 205.372L394.686 205.564H392.419L392.475 205.372Z" fill="#262626"/>
<path d="M226.108 223.084C224.973 223.754 223.78 224.423 222.557 225.005C222.441 220.96 223.605 217.584 225.73 217.584C226.545 217.584 227.01 218.428 227.01 219.825C227.01 221.105 226.777 222.066 226.108 223.084Z" fill="#262626"/>
<path fill-rule="evenodd" clip-rule="evenodd" d="M228.79 240.744C238.504 240.744 246.379 232.868 246.379 223.154C246.379 213.439 238.504 205.564 228.79 205.564C219.075 205.564 211.2 213.439 211.2 223.154C211.2 232.868 219.075 240.744 228.79 240.744ZM218.832 226.46C218.89 230.971 221.713 233.707 225.613 233.707C229.659 233.707 233.413 230.418 234.694 225.18C235.683 226.431 236.731 227.595 237.924 227.595C239.496 227.595 240.427 225.995 241.155 221.949L240.602 221.891C240.165 223.957 239.583 224.801 239.03 224.801C238.566 224.801 238.097 224.228 237.524 223.528C236.625 222.43 235.471 221.018 233.675 221.018C231.405 221.018 228.349 223.521 228.349 225.907C228.349 226.926 228.989 227.828 230.299 227.828C231.318 227.828 232.336 227.217 232.336 226.14C232.336 225.559 231.894 225.05 231.475 224.567C231.096 224.131 230.736 223.716 230.736 223.288C230.736 222.706 231.114 222.386 231.783 222.386C232.536 222.386 233.318 223.395 234.215 224.552L234.228 224.569C233.239 229.429 230.328 231.67 227.301 231.67C224.973 231.67 222.936 230.04 222.616 225.995L222.586 225.675C228.96 222.473 234.374 217.991 235.421 214.761C235.916 213.364 235.276 211.297 233.326 211.297C232.307 211.297 231.405 211.879 231.405 212.898C231.405 213.796 231.899 214.31 232.353 214.782C232.738 215.182 233.093 215.552 233.093 216.099C233.093 217.176 231.812 218.777 229.833 220.436C229.892 220.116 229.921 219.796 229.921 219.446C229.921 218.078 228.757 217.031 226.632 217.031C222.878 217.031 218.745 221.018 218.832 226.46Z" fill="#262626"/>
<path d="M70.197 239.842C73.3993 239.472 75.1237 238.302 75.9243 235.592L81.4668 217.425H64.2233L58.5576 236.085C57.8186 238.487 59.1119 239.534 62.0063 239.842L61.76 240.581H46.8567L47.103 239.842C50.3054 239.472 52.0297 238.302 52.8303 235.592L63.4843 200.736C64.2849 198.026 63.2996 196.856 60.3435 196.487L60.5899 195.748H75.4932L75.2468 196.487C72.2292 196.794 70.2585 197.718 69.5195 200.12L64.5928 216.255H81.8363L86.5783 200.736C87.3788 198.026 86.4551 196.856 83.4375 196.487L83.6838 195.748H98.5871L98.3408 196.487C95.3847 196.794 93.3525 197.718 92.6135 200.182L81.6516 236.085C80.9125 238.487 82.2058 239.534 85.1002 239.842L84.8539 240.581H69.9506L70.197 239.842Z" stroke="#262626" stroke-width="9.62445" mask="url(#path-2-inside-1_3990_7793)"/>
<path d="M96.7223 241.196C90.4407 241.196 88.1005 236.023 90.5023 226.847C93.3967 216.009 100.233 209.173 107.992 209.173C114.274 209.173 116.614 214.346 114.15 223.522C111.318 234.361 104.482 241.196 96.7223 241.196ZM96.5375 225.985C94.0126 235.161 94.2589 240.088 97.5844 240.088C101.587 240.088 105.344 234.545 108.115 224.322C110.702 215.208 110.455 210.281 107.253 210.281C103.127 210.281 99.3704 215.824 96.5375 225.985Z" stroke="#262626" stroke-width="9.62445" mask="url(#path-2-inside-1_3990_7793)"/>
<path d="M123.698 216.809C125.053 212.56 123.452 211.082 118.895 217.795L118.094 217.24C121.605 211.575 124.93 209.173 127.517 209.173C130.042 209.173 130.781 210.712 129.61 214.592L125.238 228.88C133.983 210.836 140.634 209.173 143.775 209.173C146.3 209.173 147.531 210.836 145.314 216.809L139.772 231.897C137.124 238.979 139.649 238.733 143.836 232.575L144.637 233.129C141.127 238.795 137.801 241.196 135.03 241.196C132.505 241.196 131.581 239.534 133.552 234.114L139.033 219.026C140.88 213.976 140.449 213.237 139.464 213.237C136.446 213.237 129.857 218.718 121.728 240.581H116.37L123.698 216.809Z" stroke="#262626" stroke-width="9.62445" mask="url(#path-2-inside-1_3990_7793)"/>
<path d="M153.717 241.196C147.928 241.196 145.896 235.223 148.42 226.478C151.13 217.056 157.904 209.173 165.479 209.173C170.591 209.173 172.931 212.314 171.761 216.193C170.344 220.997 164.494 224.877 154.271 225.061C151.931 232.698 153.101 237.871 156.857 237.871C159.629 237.871 163.816 236.147 166.957 230.912L167.758 231.466C163.816 238.056 157.781 241.196 153.717 241.196ZM154.64 224.015C160.799 223.768 164.986 221.059 166.588 216.317C167.819 212.622 166.649 210.281 164.74 210.281C161.168 210.281 157.289 215.824 154.64 224.015Z" stroke="#262626" stroke-width="9.62445" mask="url(#path-2-inside-1_3990_7793)"/>
<path d="M165.93 254.252C163.713 254.252 162.42 252.836 162.42 251.358C162.42 249.51 163.96 247.724 166.177 247.724C168.394 247.724 169.194 249.325 171.535 249.325C175.168 249.325 179.233 245.63 180.649 239.226C183.297 226.786 180.587 212.683 176.892 212.683C175.784 212.683 174.86 213.853 173.752 217.548L172.705 217.24C174.552 210.959 176.584 209.173 179.048 209.173C185.453 209.173 188.162 220.012 185.576 237.625C191.611 230.481 195.922 222.475 195.922 218.534C195.922 215.146 190.441 215.639 190.441 212.314C190.441 210.651 192.227 209.173 194.013 209.173C196.784 209.173 198.693 211.144 198.693 214.346C198.693 226.909 176.4 254.252 165.93 254.252Z" stroke="#262626" stroke-width="9.62445" mask="url(#path-2-inside-1_3990_7793)"/>
<path d="M258.001 239.842C261.265 239.472 262.681 238.302 262.681 235.531V200.736C262.681 198.026 261.265 196.856 258.001 196.487V195.748H273.705V196.487C270.379 196.794 268.839 197.965 268.839 200.736V235.531C268.839 238.364 270.379 239.534 273.581 239.534H275.983C284.174 239.534 288.669 236.578 289.778 228.449H290.579L289.347 240.581H258.001V239.842Z" stroke="#262626" stroke-width="9.62445" mask="url(#path-2-inside-1_3990_7793)"/>
<path d="M291.785 239.842C294.433 239.472 295.85 238.056 295.85 236.516V217.117C295.85 215.578 294.926 214.1 291.785 213.915V213.176L300.715 209.05L301.392 209.481V236.516C301.392 238.117 302.932 239.534 305.642 239.842V240.581H291.785V239.842ZM294.68 200.551C294.68 198.58 296.342 196.979 298.251 196.979C300.222 196.979 301.823 198.58 301.823 200.551C301.823 202.522 300.222 204.123 298.251 204.123C296.342 204.123 294.68 202.522 294.68 200.551Z" stroke="#262626" stroke-width="9.62445" mask="url(#path-2-inside-1_3990_7793)"/>
<path d="M345.131 222.66C345.131 214.223 343.099 212.314 339.465 212.314C337.064 212.314 334.292 213.976 333.307 216.809C333.369 217.918 333.43 219.273 333.43 220.566V236.516C333.43 238.117 334.97 239.534 337.68 239.842V240.581H323.823V239.842C326.471 239.472 327.888 238.056 327.888 236.516V222.66C327.888 214.223 325.855 212.314 322.222 212.314C319.882 212.314 317.295 213.853 316.187 216.44V236.516C316.187 238.117 317.726 239.534 320.436 239.842V240.581H306.58V239.842C309.228 239.472 310.644 238.056 310.644 236.516V217.425C310.644 214.654 309.351 212.991 306.58 212.991V212.252L315.386 209.05L316.064 209.481V214.839L316.125 214.962C318.034 211.267 321.791 209.173 324.685 209.173C328.811 209.173 331.829 210.959 332.938 215.824C334.724 211.575 338.85 209.173 341.929 209.173C347.225 209.173 350.674 212.067 350.674 220.566V236.516C350.674 238.117 352.213 239.534 354.923 239.842V240.581H341.067V239.842C343.715 239.472 345.131 238.056 345.131 236.516V222.66Z" stroke="#262626" stroke-width="9.62445" mask="url(#path-2-inside-1_3990_7793)"/>
<path d="M369.535 241.196C361.714 241.196 355.556 234.669 355.556 225.185C355.556 214.592 361.283 209.173 369.35 209.173C376.309 209.173 380.867 214.1 380.867 220.689L380.62 221.059H361.653C361.591 221.859 361.591 222.66 361.591 223.522C361.591 232.575 365.717 237.932 372.245 237.932C375.694 237.932 378.773 235.962 380.436 233.683L381.113 234.176C378.65 238.795 374.831 241.196 369.535 241.196ZM361.714 220.012H375.139C375.078 213.422 372.553 210.097 368.858 210.097C364.609 210.097 362.33 213.484 361.714 220.012Z" stroke="#262626" stroke-width="9.62445" mask="url(#path-2-inside-1_3990_7793)"/>
<path d="M387.209 205.372C387.798 205.304 388.116 205.088 388.263 204.589L390.428 197.504C389.487 197.583 388.331 198.501 387.447 199.896H387.254L388.286 197.311H394.521L393.965 199.896H393.773C393.739 198.433 393.24 197.572 392.265 197.504L390.1 204.589C389.941 205.099 390.145 205.315 390.712 205.372L390.644 205.564H387.152L387.209 205.372Z" stroke="#262626" stroke-width="9.62445" mask="url(#path-2-inside-1_3990_7793)"/>
<path d="M392.475 205.372C392.906 205.315 393.371 205.088 393.7 204.227C394.323 202.571 394.981 200.463 395.695 198.354C395.888 197.787 395.536 197.56 395.196 197.504L395.253 197.311H397.656L397.736 201.948L400.536 197.311H403.143L403.087 197.504C402.645 197.56 402.259 197.787 402.089 198.354L400.241 204.567C400.082 205.088 400.32 205.315 400.876 205.372L400.819 205.564H397.237L397.294 205.372C397.974 205.292 398.257 205.077 398.416 204.567L400.354 198.105L396.273 204.884H396.092L395.91 198.581C395.208 200.655 394.527 202.639 394.074 204.227C393.836 205.077 394.029 205.292 394.743 205.372L394.686 205.564H392.419L392.475 205.372Z" stroke="#262626" stroke-width="9.62445" mask="url(#path-2-inside-1_3990_7793)"/>
<path d="M226.108 223.084C224.973 223.754 223.78 224.423 222.557 225.005C222.441 220.96 223.605 217.584 225.73 217.584C226.545 217.584 227.01 218.428 227.01 219.825C227.01 221.105 226.777 222.066 226.108 223.084Z" stroke="#262626" stroke-width="9.62445" mask="url(#path-2-inside-1_3990_7793)"/>
<path fill-rule="evenodd" clip-rule="evenodd" d="M228.79 240.744C238.504 240.744 246.379 232.868 246.379 223.154C246.379 213.439 238.504 205.564 228.79 205.564C219.075 205.564 211.2 213.439 211.2 223.154C211.2 232.868 219.075 240.744 228.79 240.744ZM218.832 226.46C218.89 230.971 221.713 233.707 225.613 233.707C229.659 233.707 233.413 230.418 234.694 225.18C235.683 226.431 236.731 227.595 237.924 227.595C239.496 227.595 240.427 225.995 241.155 221.949L240.602 221.891C240.165 223.957 239.583 224.801 239.03 224.801C238.566 224.801 238.097 224.228 237.524 223.528C236.625 222.43 235.471 221.018 233.675 221.018C231.405 221.018 228.349 223.521 228.349 225.907C228.349 226.926 228.989 227.828 230.299 227.828C231.318 227.828 232.336 227.217 232.336 226.14C232.336 225.559 231.894 225.05 231.475 224.567C231.096 224.131 230.736 223.716 230.736 223.288C230.736 222.706 231.114 222.386 231.783 222.386C232.536 222.386 233.318 223.395 234.215 224.552L234.228 224.569C233.239 229.429 230.328 231.67 227.301 231.67C224.973 231.67 222.936 230.04 222.616 225.995L222.586 225.675C228.96 222.473 234.374 217.991 235.421 214.761C235.916 213.364 235.276 211.297 233.326 211.297C232.307 211.297 231.405 211.879 231.405 212.898C231.405 213.796 231.899 214.31 232.353 214.782C232.738 215.182 233.093 215.552 233.093 216.099C233.093 217.176 231.812 218.777 229.833 220.436C229.892 220.116 229.921 219.796 229.921 219.446C229.921 218.078 228.757 217.031 226.632 217.031C222.878 217.031 218.745 221.018 218.832 226.46Z" stroke="#262626" stroke-width="9.62445" mask="url(#path-2-inside-1_3990_7793)"/>
</svg>
