<svg width="450" height="450" viewBox="0 0 450 450" fill="none" xmlns="http://www.w3.org/2000/svg">
<rect x="0.5" y="0.5" width="449" height="449" fill="#EAEAEA"/>
<rect x="0.5" y="0.5" width="449" height="449" stroke="#262626"/>
<path d="M147.247 159.362C147.247 159.519 147.14 159.711 146.927 159.938C146.714 160.151 146.465 160.372 146.181 160.599C145.897 160.826 145.62 161.032 145.35 161.217C145.079 161.402 144.888 161.537 144.774 161.622C144.902 161.708 145.101 161.857 145.371 162.07C145.641 162.283 145.911 162.518 146.181 162.774C146.465 163.015 146.714 163.264 146.927 163.52C147.14 163.761 147.247 163.968 147.247 164.138C147.247 164.252 147.211 164.323 147.14 164.351C147.069 164.38 146.991 164.394 146.906 164.394C146.721 164.394 146.487 164.351 146.202 164.266C145.918 164.181 145.627 164.074 145.328 163.946C145.044 163.818 144.767 163.69 144.497 163.562C144.227 163.435 144.006 163.328 143.836 163.243C143.836 163.371 143.822 163.619 143.793 163.989C143.779 164.344 143.743 164.721 143.687 165.119C143.63 165.503 143.544 165.851 143.431 166.163C143.331 166.462 143.189 166.611 143.004 166.611C142.777 166.611 142.592 166.469 142.45 166.185C142.322 165.886 142.223 165.552 142.152 165.183C142.08 164.799 142.031 164.429 142.002 164.074C141.974 163.705 141.953 163.442 141.938 163.285C141.768 163.371 141.555 163.484 141.299 163.626C141.057 163.754 140.801 163.875 140.531 163.989C140.261 164.103 139.991 164.202 139.721 164.287C139.465 164.373 139.238 164.415 139.039 164.415C138.911 164.415 138.797 164.387 138.698 164.33C138.598 164.259 138.548 164.145 138.548 163.989C138.548 163.804 138.648 163.598 138.847 163.371C139.06 163.129 139.302 162.902 139.572 162.688C139.842 162.461 140.112 162.255 140.382 162.07C140.652 161.885 140.858 161.75 141 161.665C140.872 161.58 140.673 161.452 140.403 161.281C140.133 161.096 139.863 160.897 139.593 160.684C139.337 160.471 139.103 160.258 138.89 160.045C138.691 159.817 138.591 159.618 138.591 159.448C138.591 159.291 138.648 159.185 138.762 159.128C138.89 159.071 139.017 159.043 139.145 159.043C139.33 159.043 139.55 159.078 139.806 159.149C140.062 159.22 140.318 159.306 140.574 159.405C140.83 159.505 141.071 159.611 141.299 159.725C141.54 159.839 141.746 159.938 141.917 160.023C141.931 159.91 141.96 159.668 142.002 159.298C142.059 158.929 142.13 158.552 142.215 158.168C142.315 157.771 142.429 157.422 142.557 157.124C142.685 156.811 142.834 156.655 143.004 156.655C143.146 156.655 143.267 156.811 143.367 157.124C143.466 157.422 143.544 157.771 143.601 158.168C143.658 158.566 143.701 158.95 143.729 159.32C143.772 159.675 143.8 159.91 143.814 160.023C143.999 159.938 144.212 159.846 144.454 159.746C144.71 159.632 144.973 159.533 145.243 159.448C145.527 159.362 145.797 159.291 146.053 159.234C146.323 159.163 146.565 159.128 146.778 159.128C146.849 159.128 146.941 159.142 147.055 159.171C147.183 159.185 147.247 159.249 147.247 159.362Z" fill="#262626"/>
<path d="M311.372 159.362C311.372 159.519 311.265 159.711 311.052 159.938C310.839 160.151 310.59 160.372 310.306 160.599C310.021 160.826 309.744 161.032 309.474 161.217C309.204 161.402 309.012 161.537 308.899 161.622C309.027 161.708 309.225 161.857 309.496 162.07C309.766 162.283 310.036 162.518 310.306 162.774C310.59 163.015 310.839 163.264 311.052 163.52C311.265 163.761 311.372 163.968 311.372 164.138C311.372 164.252 311.336 164.323 311.265 164.351C311.194 164.38 311.116 164.394 311.031 164.394C310.846 164.394 310.611 164.351 310.327 164.266C310.043 164.181 309.751 164.074 309.453 163.946C309.169 163.818 308.891 163.69 308.621 163.562C308.351 163.435 308.131 163.328 307.96 163.243C307.96 163.371 307.946 163.619 307.918 163.989C307.904 164.344 307.868 164.721 307.811 165.119C307.754 165.503 307.669 165.851 307.555 166.163C307.456 166.462 307.314 166.611 307.129 166.611C306.902 166.611 306.717 166.469 306.575 166.185C306.447 165.886 306.347 165.552 306.276 165.183C306.205 164.799 306.155 164.429 306.127 164.074C306.099 163.705 306.077 163.442 306.063 163.285C305.892 163.371 305.679 163.484 305.423 163.626C305.182 163.754 304.926 163.875 304.656 163.989C304.386 164.103 304.116 164.202 303.846 164.287C303.59 164.373 303.362 164.415 303.163 164.415C303.036 164.415 302.922 164.387 302.822 164.33C302.723 164.259 302.673 164.145 302.673 163.989C302.673 163.804 302.773 163.598 302.972 163.371C303.185 163.129 303.426 162.902 303.697 162.688C303.967 162.461 304.237 162.255 304.507 162.07C304.777 161.885 304.983 161.75 305.125 161.665C304.997 161.58 304.798 161.452 304.528 161.281C304.258 161.096 303.988 160.897 303.718 160.684C303.462 160.471 303.227 160.258 303.014 160.045C302.815 159.817 302.716 159.618 302.716 159.448C302.716 159.291 302.773 159.185 302.886 159.128C303.014 159.071 303.142 159.043 303.27 159.043C303.455 159.043 303.675 159.078 303.931 159.149C304.187 159.22 304.443 159.306 304.699 159.405C304.954 159.505 305.196 159.611 305.423 159.725C305.665 159.839 305.871 159.938 306.042 160.023C306.056 159.91 306.084 159.668 306.127 159.298C306.184 158.929 306.255 158.552 306.34 158.168C306.44 157.771 306.553 157.422 306.681 157.124C306.809 156.811 306.958 156.655 307.129 156.655C307.271 156.655 307.392 156.811 307.491 157.124C307.591 157.422 307.669 157.771 307.726 158.168C307.783 158.566 307.825 158.95 307.854 159.32C307.897 159.675 307.925 159.91 307.939 160.023C308.124 159.938 308.337 159.846 308.579 159.746C308.835 159.632 309.098 159.533 309.368 159.448C309.652 159.362 309.922 159.291 310.178 159.234C310.448 159.163 310.689 159.128 310.903 159.128C310.974 159.128 311.066 159.142 311.18 159.171C311.308 159.185 311.372 159.249 311.372 159.362Z" fill="#262626"/>
<path d="M147.014 144.256L147.561 143.506L151.27 149.26L150.754 149.966L144.176 148.142L144.729 147.385L150.108 148.925L147.014 144.256Z" fill="#262626"/>
<path d="M154.223 134.869C154.551 135.205 154.775 135.749 154.527 136.303L157.201 138.733C158.314 139.745 158.242 141.03 157.369 141.991C156.497 142.951 155.224 143.146 154.11 142.134L150.996 139.303L151.584 138.657L154.678 141.469C155.398 142.123 156.163 142.099 156.762 141.439C157.368 140.772 157.307 140.023 156.587 139.368L153.493 136.556L153.778 136.243C154.105 135.883 153.94 135.623 153.732 135.41L154.223 134.869Z" fill="#262626"/>
<path d="M160.396 129.178L159.915 129.599L158.643 129.227L159.376 128.586L160.396 129.178ZM162.018 128.897C163.018 128.741 164.128 129.051 165.005 130.055C166.411 131.663 165.992 133.621 164.785 134.676C163.578 135.732 161.581 135.886 160.176 134.278C158.77 132.67 159.195 130.719 160.402 129.664C160.633 129.462 160.9 129.288 161.183 129.161C161.471 128.861 161.342 128.603 161.171 128.381L161.721 127.9C161.927 128.163 162.062 128.523 162.018 128.897ZM164.251 134.066C165.147 133.283 165.424 131.903 164.327 130.648C163.23 129.393 161.831 129.491 160.936 130.274C160.041 131.057 159.757 132.43 160.854 133.685C161.951 134.94 163.356 134.849 164.251 134.066Z" fill="#262626"/>
<path d="M174.846 126.809L169.057 124.459L171.998 128.757L171.269 129.256L167.662 123.984L168.636 123.317L174.036 125.561L171.269 121.516L171.998 121.017L175.605 126.29L174.846 126.809Z" fill="#262626"/>
<path d="M191.268 118.196L189.29 113.632L189.267 119.063L188.523 119.385L184.561 115.681L186.539 120.245L185.737 120.592L183.197 114.731L184.296 114.254L188.43 118.129L188.447 112.456L189.53 111.986L192.07 117.848L191.268 118.196Z" fill="#262626"/>
<path d="M195.28 108.284L196.212 108.002L196.898 108.961L196.286 109.147L195.28 108.284ZM196.862 116.175L195.009 110.061L198.726 108.935L198.963 109.719L196.092 110.589L196.662 112.469L199.266 111.68L199.506 112.473L196.902 113.263L197.469 115.134L200.341 114.264L200.579 115.048L196.862 116.175Z" fill="#262626"/>
<path d="M204.684 110.67C204.295 108.571 205.655 107.109 207.231 106.816C208.808 106.524 210.602 107.401 210.992 109.5C211.381 111.6 210.023 113.071 208.446 113.363C206.869 113.656 205.074 112.77 204.684 110.67ZM205.57 110.506C205.874 112.145 207.129 112.783 208.298 112.566C209.468 112.349 210.41 111.304 210.106 109.665C209.802 108.026 208.549 107.397 207.379 107.614C206.21 107.831 205.266 108.867 205.57 110.506Z" fill="#262626"/>
<path d="M223.121 111.644L223.072 105.255L223.955 105.249L223.998 110.808L227.016 110.785L227.022 111.614L223.121 111.644Z" fill="#262626"/>
<path d="M235.432 110.365L232.614 110.106L231.778 111.82L230.836 111.734L233.951 105.605L234.965 105.698L236.91 112.292L235.959 112.205L235.432 110.365ZM233.003 109.318L235.193 109.519L234.351 106.565L233.003 109.318Z" fill="#262626"/>
<path d="M245.575 113.834L243.242 108.038L242.194 113.139L241.329 112.962L242.614 106.704L243.771 106.941L245.909 112.384L246.895 107.583L247.76 107.761L246.475 114.018L245.575 113.834Z" fill="#262626"/>
<path d="M256.182 116.871L256.386 115.99C255.963 116.382 255.138 116.671 254.12 116.336C252.596 115.836 251.54 114.256 252.215 112.202C252.889 110.147 254.758 109.538 256.257 110.029C257.575 110.462 258.352 111.533 258.343 112.744L257.475 112.819C257.487 111.856 256.945 111.109 256.004 110.8C254.916 110.443 253.599 110.873 253.071 112.483C252.542 114.092 253.308 115.226 254.396 115.583C255.748 116.027 256.551 115.228 256.79 114.614L254.684 113.923L254.932 113.17L257.834 114.122L256.859 117.093L256.182 116.871Z" fill="#262626"/>
<path d="M271.929 117.811L269.293 122.716L268.515 122.298L271.151 117.393L269.27 116.383L269.658 115.66L274.198 118.099L273.81 118.822L271.929 117.811Z" fill="#262626"/>
<path d="M278.627 128.499L280.229 126.157L277.537 124.315L275.935 126.658L275.206 126.159L278.813 120.887L279.542 121.385L278 123.638L280.692 125.48L282.234 123.227L282.963 123.725L279.355 128.998L278.627 128.499Z" fill="#262626"/>
<path d="M287.734 133.445L285.59 131.599L283.914 132.51L283.197 131.893L289.29 128.71L290.062 129.374L287.819 135.873L287.096 135.25L287.734 133.445ZM286.364 131.184L288.03 132.618L289.06 129.724L286.364 131.184Z" fill="#262626"/>
<path d="M293.982 142.157L295.445 136.083L291.631 139.63L291.03 138.984L295.708 134.633L296.512 135.497L295.095 141.171L298.684 137.833L299.285 138.48L294.607 142.83L293.982 142.157Z" fill="#262626"/>
<path d="M300.858 150.787L301.535 150.188C300.963 150.262 300.124 150.018 299.488 149.155C298.537 147.863 298.594 145.964 300.336 144.682C302.077 143.4 303.954 143.988 304.888 145.258C305.711 146.376 305.722 147.699 305.012 148.68L304.261 148.237C304.831 147.46 304.823 146.537 304.235 145.739C303.557 144.817 302.234 144.404 300.87 145.408C299.506 146.412 299.472 147.779 300.15 148.701C300.994 149.847 302.111 149.663 302.662 149.302L301.348 147.517L301.987 147.047L303.798 149.507L301.279 151.36L300.858 150.787Z" fill="#262626"/>
<path fill-rule="evenodd" clip-rule="evenodd" d="M224.13 105.071C224.177 105.118 224.203 105.181 224.204 105.247L224.244 110.557L227.014 110.536C227.151 110.535 227.264 110.646 227.265 110.783L227.271 111.612C227.272 111.678 227.246 111.741 227.2 111.788C227.153 111.835 227.09 111.862 227.024 111.862L223.123 111.892C223.057 111.893 222.994 111.867 222.947 111.821C222.9 111.774 222.873 111.711 222.872 111.645L222.824 105.257C222.823 105.12 222.933 105.008 223.07 105.007L223.953 105C224.019 105 224.083 105.025 224.13 105.071ZM223.323 105.502L223.368 111.393L226.772 111.367L226.769 111.035L224 111.056C223.934 111.057 223.87 111.031 223.823 110.985C223.776 110.939 223.75 110.876 223.749 110.81L223.708 105.499L223.323 105.502ZM233.729 105.492C233.776 105.401 233.872 105.348 233.974 105.357L234.988 105.451C235.089 105.46 235.175 105.53 235.203 105.628L237.149 112.222C237.172 112.301 237.155 112.387 237.102 112.45C237.05 112.514 236.969 112.548 236.887 112.54L235.936 112.452C235.834 112.443 235.748 112.372 235.72 112.273L235.239 110.597L232.762 110.369L232.001 111.929C231.956 112.022 231.858 112.077 231.755 112.068L230.813 111.981C230.731 111.974 230.658 111.926 230.618 111.854C230.578 111.782 230.577 111.694 230.614 111.621L233.729 105.492ZM234.096 105.868L231.223 111.52L231.63 111.557L232.391 109.997C232.436 109.904 232.534 109.849 232.637 109.858L235.454 110.117C235.556 110.127 235.642 110.198 235.671 110.296L236.151 111.973L236.568 112.011L234.774 105.93L234.096 105.868ZM234.374 106.317C234.476 106.326 234.562 106.398 234.591 106.497L235.432 109.451C235.454 109.53 235.436 109.615 235.384 109.678C235.332 109.741 235.252 109.775 235.17 109.767L232.981 109.566C232.899 109.558 232.827 109.511 232.787 109.44C232.747 109.369 232.744 109.282 232.78 109.209L234.128 106.455C234.173 106.363 234.271 106.308 234.374 106.317ZM242.371 106.654C242.398 106.519 242.53 106.433 242.664 106.46L243.821 106.698C243.903 106.715 243.971 106.772 244.002 106.851L245.834 111.514L246.651 107.533C246.679 107.399 246.811 107.312 246.945 107.34L247.81 107.517C247.875 107.53 247.931 107.569 247.968 107.624C248.004 107.679 248.017 107.746 248.004 107.811L246.718 114.068C246.691 114.203 246.559 114.29 246.425 114.262L245.525 114.077C245.443 114.06 245.375 114.004 245.344 113.926L243.319 108.896L242.438 113.189C242.41 113.324 242.279 113.411 242.144 113.383L241.279 113.205C241.215 113.192 241.158 113.154 241.122 113.099C241.085 113.044 241.072 112.976 241.086 112.912L242.371 106.654ZM233.385 109.104L234.854 109.239L234.29 107.256L233.385 109.104ZM242.808 106.998L241.623 112.768L242.001 112.846L242.998 107.988C243.02 107.88 243.11 107.8 243.22 107.79C243.329 107.78 243.432 107.843 243.473 107.945L245.755 113.617L246.281 113.725L247.466 107.954L247.089 107.877L246.153 112.435C246.13 112.542 246.04 112.623 245.93 112.632C245.821 112.642 245.718 112.578 245.678 112.475L243.588 107.158L242.808 106.998ZM210.747 109.546C210.386 107.595 208.734 106.791 207.277 107.061C205.82 107.331 204.567 108.675 204.929 110.625C205.291 112.576 206.945 113.389 208.401 113.119C209.857 112.849 211.109 111.497 210.747 109.546ZM207.186 106.572C208.883 106.257 210.819 107.206 211.236 109.455C211.653 111.703 210.189 113.293 208.491 113.608C206.793 113.923 204.857 112.964 204.44 110.716C204.022 108.467 205.489 106.887 207.186 106.572ZM209.206 107.737C209.765 108.114 210.188 108.742 210.35 109.619C210.513 110.496 210.345 111.236 209.959 111.791C209.574 112.342 208.986 112.691 208.344 112.81C207.701 112.93 207.027 112.815 206.47 112.438C205.911 112.059 205.488 111.428 205.326 110.551C205.163 109.675 205.331 108.936 205.719 108.384C206.104 107.834 206.692 107.488 207.334 107.369C207.976 107.25 208.649 107.362 209.206 107.737ZM208.928 108.149C208.49 107.854 207.952 107.76 207.425 107.858C206.898 107.956 206.429 108.237 206.126 108.669C205.824 109.099 205.673 109.699 205.814 110.461C205.956 111.223 206.313 111.731 206.749 112.026C207.188 112.323 207.726 112.419 208.253 112.321C208.779 112.224 209.248 111.941 209.551 111.506C209.852 111.074 210.003 110.472 209.861 109.71C209.72 108.948 209.364 108.443 208.928 108.149ZM196.139 107.764C196.242 107.733 196.352 107.77 196.414 107.857L197.1 108.817C197.147 108.882 197.159 108.965 197.133 109.041C197.107 109.117 197.047 109.176 196.97 109.199L196.358 109.385C196.276 109.409 196.188 109.391 196.124 109.335L195.118 108.473C195.05 108.414 195.018 108.322 195.037 108.233C195.056 108.144 195.121 108.072 195.208 108.046L196.139 107.764ZM195.786 108.39L196.344 108.869L196.494 108.824L196.113 108.291L195.786 108.39ZM198.654 108.697C198.785 108.657 198.924 108.731 198.964 108.862L199.201 109.647C199.221 109.71 199.214 109.778 199.183 109.836C199.152 109.895 199.099 109.938 199.036 109.957L196.402 110.755L196.828 112.159L199.194 111.442C199.257 111.423 199.325 111.43 199.383 111.461C199.441 111.492 199.485 111.545 199.504 111.608L199.744 112.401C199.784 112.533 199.71 112.671 199.578 112.711L197.212 113.428L197.635 114.824L200.269 114.026C200.4 113.986 200.539 114.06 200.579 114.191L200.816 114.976C200.836 115.039 200.829 115.107 200.798 115.165C200.767 115.224 200.714 115.267 200.651 115.286L196.934 116.413C196.871 116.432 196.803 116.425 196.745 116.394C196.687 116.363 196.643 116.31 196.624 116.247L194.771 110.133C194.731 110.002 194.806 109.863 194.937 109.823L198.654 108.697ZM195.319 110.227L197.028 115.865L200.268 114.882L200.175 114.574L197.541 115.372C197.478 115.391 197.41 115.384 197.352 115.353C197.294 115.322 197.25 115.269 197.231 115.206L196.664 113.335C196.624 113.203 196.699 113.064 196.83 113.025L199.196 112.308L199.1 111.99L196.734 112.707C196.602 112.747 196.464 112.673 196.424 112.541L195.854 110.662C195.814 110.53 195.888 110.391 196.02 110.352L198.653 109.553L198.56 109.245L195.319 110.227ZM256.179 110.266C254.799 109.812 253.078 110.368 252.451 112.279C252.132 113.249 252.227 114.088 252.564 114.737C252.902 115.39 253.493 115.869 254.197 116.1C255.135 116.408 255.864 116.135 256.217 115.807C256.297 115.733 256.416 115.72 256.511 115.774C256.605 115.829 256.653 115.939 256.629 116.046L256.476 116.706L256.7 116.779L257.52 114.281L255.09 113.483L254.998 113.764L256.868 114.378C256.933 114.399 256.986 114.446 257.015 114.508C257.044 114.57 257.047 114.641 257.022 114.705C256.884 115.059 256.587 115.461 256.131 115.713C255.667 115.969 255.056 116.061 254.318 115.819C253.717 115.621 253.198 115.207 252.904 114.613C252.61 114.016 252.553 113.262 252.835 112.405C253.117 111.546 253.618 110.979 254.217 110.681C254.812 110.385 255.482 110.367 256.081 110.564C257.033 110.876 257.628 111.605 257.713 112.549L258.086 112.516C258.003 111.516 257.319 110.64 256.179 110.266ZM251.978 112.124C252.7 109.927 254.718 109.263 256.334 109.793C257.745 110.256 258.601 111.417 258.592 112.746C258.591 112.874 258.493 112.98 258.365 112.992L257.496 113.067C257.426 113.073 257.357 113.049 257.305 113.001C257.254 112.953 257.225 112.886 257.226 112.816C257.237 111.965 256.768 111.312 255.926 111.036C255.438 110.876 254.905 110.894 254.438 111.127C253.974 111.357 253.553 111.81 253.307 112.56C253.06 113.313 253.122 113.93 253.35 114.392C253.579 114.856 253.987 115.187 254.473 115.346C255.088 115.548 255.555 115.463 255.89 115.278C256.132 115.144 256.315 114.952 256.438 114.76L254.607 114.159C254.544 114.139 254.492 114.094 254.462 114.035C254.433 113.976 254.428 113.908 254.448 113.845L254.695 113.092C254.738 112.962 254.879 112.891 255.009 112.933L257.911 113.886C258.042 113.929 258.113 114.069 258.07 114.2L257.095 117.171C257.074 117.233 257.03 117.285 256.971 117.315C256.912 117.345 256.844 117.35 256.781 117.329L256.105 117.107C255.982 117.067 255.911 116.94 255.94 116.815L256.007 116.527C255.497 116.751 254.814 116.826 254.042 116.572C253.223 116.303 252.524 115.743 252.122 114.966C251.718 114.187 251.622 113.209 251.978 112.124ZM189.431 111.758C189.557 111.704 189.703 111.762 189.758 111.888L192.298 117.749C192.352 117.875 192.295 118.022 192.169 118.076L191.367 118.424C191.306 118.45 191.238 118.451 191.176 118.427C191.115 118.403 191.066 118.355 191.04 118.294L189.534 114.819L189.516 119.064C189.515 119.162 189.456 119.251 189.366 119.291L188.622 119.613C188.531 119.652 188.425 119.634 188.353 119.567L185.265 116.679L186.767 120.146C186.821 120.272 186.764 120.418 186.638 120.473L185.836 120.82C185.775 120.847 185.707 120.848 185.645 120.824C185.584 120.799 185.535 120.752 185.509 120.691L182.969 114.83C182.942 114.769 182.941 114.701 182.965 114.639C182.99 114.578 183.037 114.529 183.098 114.503L184.197 114.026C184.288 113.987 184.394 114.005 184.466 114.073L188.183 117.557L188.198 112.455C188.198 112.356 188.257 112.267 188.348 112.228L189.431 111.758ZM188.695 112.619L188.679 118.13C188.679 118.229 188.62 118.318 188.529 118.357C188.438 118.396 188.332 118.378 188.26 118.31L184.245 114.547L183.524 114.86L185.866 120.265L186.212 120.116L184.333 115.78C184.286 115.672 184.322 115.546 184.418 115.478C184.514 115.41 184.645 115.419 184.731 115.5L188.574 119.092L189.019 118.899L189.041 113.631C189.042 113.513 189.125 113.412 189.24 113.388C189.355 113.365 189.471 113.425 189.518 113.533L191.397 117.869L191.743 117.719L189.4 112.313L188.695 112.619ZM269.586 115.422C269.649 115.403 269.717 115.41 269.775 115.441L274.316 117.88C274.374 117.912 274.417 117.965 274.436 118.028C274.455 118.091 274.448 118.159 274.417 118.217L274.029 118.939C273.964 119.06 273.813 119.106 273.692 119.041L272.03 118.148L269.512 122.834C269.447 122.955 269.297 123 269.176 122.935L268.398 122.517C268.277 122.452 268.231 122.302 268.296 122.181L270.814 117.494L269.152 116.602C269.031 116.537 268.986 116.386 269.051 116.265L269.439 115.543C269.47 115.484 269.523 115.441 269.586 115.422ZM269.759 115.997L269.606 116.281L271.268 117.174C271.389 117.239 271.435 117.39 271.37 117.511L268.852 122.197L269.192 122.38L271.71 117.693C271.741 117.635 271.794 117.592 271.857 117.573C271.92 117.554 271.988 117.561 272.046 117.592L273.708 118.485L273.861 118.201L269.759 115.997ZM278.608 120.746C278.685 120.633 278.84 120.604 278.953 120.681L279.682 121.18C279.737 121.217 279.774 121.274 279.786 121.339C279.798 121.404 279.784 121.471 279.747 121.525L278.346 123.574L280.627 125.134L282.029 123.086C282.106 122.973 282.261 122.944 282.374 123.022L283.103 123.52C283.157 123.557 283.195 123.615 283.207 123.68C283.219 123.744 283.205 123.811 283.168 123.866L279.561 129.138C279.483 129.252 279.328 129.281 279.215 129.203L278.486 128.705C278.373 128.627 278.344 128.472 278.421 128.359L279.884 126.222L277.602 124.661L276.14 126.798C276.062 126.911 275.908 126.94 275.794 126.863L275.065 126.364C274.952 126.287 274.923 126.132 275.001 126.019L278.608 120.746ZM278.878 121.232L275.551 126.094L275.87 126.312L277.332 124.175C277.41 124.061 277.564 124.032 277.678 124.11L280.37 125.952C280.424 125.989 280.461 126.046 280.474 126.111C280.486 126.176 280.472 126.243 280.434 126.297L278.972 128.435L279.291 128.652L282.617 123.79L282.299 123.572L280.897 125.62C280.86 125.675 280.803 125.712 280.738 125.724C280.673 125.737 280.606 125.723 280.552 125.685L277.86 123.844C277.805 123.806 277.768 123.749 277.756 123.684C277.744 123.619 277.758 123.552 277.795 123.498L279.196 121.45L278.878 121.232ZM172.043 120.773C172.108 120.785 172.166 120.823 172.203 120.877L175.81 126.15C175.847 126.204 175.861 126.271 175.849 126.336C175.837 126.401 175.799 126.458 175.745 126.495L174.987 127.014C174.918 127.061 174.83 127.071 174.753 127.039L169.729 125L172.203 128.617C172.24 128.671 172.254 128.738 172.242 128.803C172.23 128.868 172.193 128.925 172.138 128.963L171.41 129.461C171.355 129.498 171.288 129.513 171.223 129.5C171.158 129.488 171.101 129.451 171.064 129.396L167.457 124.124C167.379 124.011 167.408 123.856 167.522 123.778L168.496 123.112C168.565 123.064 168.654 123.055 168.732 123.087L173.358 125.01L171.064 121.656C170.986 121.543 171.015 121.388 171.128 121.311L171.857 120.812C171.912 120.775 171.979 120.761 172.043 120.773ZM171.614 121.581L174.242 125.421C174.304 125.512 174.299 125.633 174.229 125.718C174.16 125.804 174.043 125.833 173.941 125.791L168.665 123.598L168.008 124.048L171.334 128.91L171.652 128.693L168.852 124.6C168.79 124.509 168.795 124.389 168.864 124.303C168.932 124.218 169.049 124.187 169.151 124.229L174.816 126.528L175.259 126.225L171.933 121.363L171.614 121.581ZM161.744 127.653C161.812 127.659 161.874 127.693 161.917 127.747C162.1 127.981 162.239 128.285 162.269 128.619C163.272 128.548 164.34 128.917 165.193 129.892C166.698 131.613 166.249 133.727 164.949 134.864C163.649 136 161.494 136.163 159.989 134.442C158.633 132.892 158.868 131.03 159.875 129.845C159.865 129.843 159.855 129.841 159.845 129.838L158.574 129.465C158.486 129.44 158.42 129.369 158.401 129.28C158.381 129.191 158.411 129.099 158.48 129.039L159.212 128.399C159.293 128.329 159.409 128.317 159.501 128.371L160.521 128.963C160.59 129.003 160.636 129.074 160.644 129.154C160.644 129.16 160.645 129.165 160.645 129.171C160.769 129.091 160.899 129.019 161.033 128.956C161.106 128.869 161.108 128.812 161.103 128.775C161.094 128.713 161.055 128.637 160.974 128.532C160.894 128.428 160.909 128.28 161.008 128.194L161.557 127.713C161.609 127.668 161.676 127.646 161.744 127.653ZM161.498 128.425C161.544 128.509 161.581 128.603 161.595 128.708C161.625 128.926 161.549 129.139 161.362 129.333C161.34 129.356 161.314 129.374 161.285 129.387C161.025 129.505 160.779 129.665 160.566 129.851C159.45 130.826 159.057 132.621 160.363 134.114C161.669 135.608 163.507 135.464 164.621 134.489C165.736 133.515 166.124 131.713 164.818 130.219C163.998 129.281 162.974 128.999 162.056 129.143C161.98 129.155 161.901 129.13 161.845 129.076C161.789 129.022 161.762 128.945 161.771 128.868C161.795 128.663 161.752 128.459 161.665 128.279L161.498 128.425ZM159.405 128.891L159.148 129.115L159.854 129.322L159.972 129.219L159.405 128.891ZM289.175 128.489C289.266 128.442 289.375 128.455 289.453 128.521L290.224 129.186C290.301 129.252 290.33 129.359 290.297 129.455L288.054 135.954C288.028 136.032 287.964 136.092 287.884 136.113C287.805 136.135 287.72 136.115 287.657 136.061L286.933 135.438C286.856 135.371 286.827 135.264 286.861 135.167L287.443 133.523L285.558 131.9L284.032 132.729C283.942 132.778 283.83 132.766 283.751 132.699L283.035 132.081C282.972 132.028 282.94 131.946 282.95 131.865C282.959 131.783 283.009 131.711 283.082 131.673L289.175 128.489ZM283.637 131.944L283.946 132.21L285.471 131.381C285.562 131.331 285.674 131.343 285.752 131.411L287.896 133.257C287.974 133.324 288.003 133.431 287.968 133.528L287.387 135.172L287.704 135.446L289.772 129.452L289.256 129.008L283.637 131.944ZM162.57 129.449C163.243 129.488 163.927 129.813 164.514 130.485C165.101 131.156 165.334 131.879 165.284 132.552C165.235 133.223 164.907 133.823 164.415 134.253C163.923 134.684 163.285 134.928 162.613 134.888C161.939 134.847 161.254 134.52 160.667 133.849C160.08 133.177 159.849 132.456 159.9 131.784C159.951 131.114 160.281 130.517 160.772 130.087C161.264 129.657 161.9 129.41 162.57 129.449ZM162.541 129.945C162.014 129.915 161.503 130.108 161.1 130.461C160.696 130.814 160.436 131.295 160.396 131.822C160.356 132.345 160.531 132.938 161.041 133.521C161.552 134.105 162.117 134.36 162.643 134.391C163.172 134.423 163.684 134.231 164.088 133.879C164.491 133.526 164.749 133.044 164.788 132.516C164.827 131.99 164.65 131.396 164.14 130.812C163.63 130.228 163.066 129.976 162.541 129.945ZM289.221 129.535C289.299 129.602 289.328 129.71 289.294 129.807L288.264 132.701C288.237 132.779 288.173 132.837 288.094 132.858C288.014 132.879 287.93 132.86 287.868 132.807L286.202 131.372C286.14 131.319 286.108 131.238 286.117 131.157C286.125 131.076 286.174 131.004 286.245 130.965L288.941 129.505C289.032 129.456 289.143 129.468 289.221 129.535ZM286.799 131.231L287.917 132.193L288.608 130.251L286.799 131.231ZM295.717 134.385C295.783 134.387 295.845 134.415 295.89 134.464L296.694 135.328C296.751 135.39 296.773 135.476 296.753 135.558L295.539 140.418L298.515 137.651C298.563 137.606 298.627 137.582 298.693 137.585C298.759 137.587 298.821 137.615 298.866 137.664L299.467 138.31C299.561 138.411 299.555 138.568 299.455 138.662L294.777 143.012C294.676 143.106 294.519 143.1 294.425 142.999L293.799 142.326C293.743 142.265 293.72 142.18 293.74 142.099L295.01 136.828L291.801 139.812C291.7 139.906 291.543 139.9 291.449 139.799L290.848 139.153C290.754 139.052 290.76 138.895 290.861 138.801L295.539 134.451C295.587 134.406 295.651 134.382 295.717 134.385ZM291.381 138.996L291.644 139.279L295.276 135.901C295.356 135.827 295.476 135.813 295.571 135.869C295.665 135.924 295.712 136.035 295.687 136.142L294.255 142.086L294.62 142.479L298.934 138.467L298.671 138.184L295.264 141.353C295.183 141.428 295.063 141.441 294.968 141.385C294.874 141.329 294.827 141.218 294.854 141.111L296.238 135.568L295.695 134.984L291.381 138.996ZM154.218 134.621C154.286 134.62 154.352 134.646 154.4 134.695C154.743 135.045 155.008 135.619 154.819 136.232L157.368 138.549C157.968 139.094 158.265 139.73 158.279 140.376C158.292 141.019 158.024 141.64 157.553 142.158C157.083 142.676 156.49 143.002 155.849 143.05C155.204 143.098 154.542 142.862 153.943 142.318L150.829 139.487C150.728 139.395 150.72 139.238 150.812 139.136L151.4 138.489C151.445 138.441 151.506 138.411 151.572 138.408C151.638 138.405 151.703 138.428 151.751 138.473L154.845 141.285C155.173 141.582 155.485 141.703 155.761 141.698C156.033 141.693 156.313 141.564 156.578 141.272C156.847 140.977 156.947 140.688 156.924 140.42C156.902 140.148 156.749 139.851 156.42 139.552L153.326 136.74C153.277 136.696 153.248 136.634 153.245 136.568C153.242 136.502 153.265 136.438 153.309 136.389L153.594 136.076C153.721 135.936 153.719 135.857 153.711 135.818C153.7 135.758 153.653 135.684 153.554 135.583C153.462 135.489 153.459 135.34 153.548 135.242L154.039 134.702C154.085 134.652 154.15 134.622 154.218 134.621ZM154.211 135.252L154.062 135.416C154.124 135.503 154.177 135.606 154.2 135.724C154.245 135.959 154.162 136.19 153.962 136.41L153.844 136.54L156.754 139.184C157.145 139.539 157.383 139.945 157.42 140.378C157.457 140.815 157.284 141.235 156.946 141.606C156.612 141.975 156.209 142.187 155.77 142.195C155.333 142.204 154.903 142.009 154.511 141.653L151.601 139.008L151.348 139.287L154.278 141.95C154.792 142.417 155.323 142.59 155.812 142.554C156.303 142.517 156.783 142.266 157.185 141.823C157.587 141.381 157.792 140.879 157.781 140.386C157.771 139.897 157.548 139.384 157.034 138.917L154.36 136.487C154.28 136.415 154.256 136.299 154.3 136.201C154.451 135.864 154.383 135.522 154.211 135.252ZM147.568 143.258C147.65 143.26 147.725 143.303 147.77 143.371L151.479 149.125C151.534 149.212 151.531 149.323 151.47 149.407L150.955 150.112C150.894 150.196 150.788 150.233 150.688 150.205L144.11 148.381C144.031 148.359 143.968 148.3 143.941 148.223C143.915 148.146 143.927 148.061 143.975 147.995L144.528 147.238C144.589 147.154 144.697 147.117 144.797 147.146L149.529 148.501L146.806 144.393C146.749 144.306 146.751 144.193 146.813 144.109L147.36 143.36C147.408 143.293 147.486 143.255 147.568 143.258ZM147.316 144.263L150.316 148.788C150.373 148.875 150.37 148.988 150.309 149.072C150.247 149.156 150.14 149.193 150.04 149.164L144.827 147.672L144.589 147.998L150.655 149.68L150.968 149.251L147.548 143.945L147.316 144.263ZM304.688 145.406C303.827 144.236 302.104 143.69 300.483 144.882C299.661 145.487 299.251 146.225 299.149 146.95C299.045 147.677 299.249 148.41 299.688 149.007C300.273 149.802 301.026 150.003 301.503 149.941C301.611 149.927 301.716 149.985 301.761 150.085C301.807 150.184 301.782 150.301 301.7 150.374L301.192 150.823L301.332 151.013L303.45 149.454L301.934 147.395L301.696 147.57L302.862 149.155C302.903 149.21 302.919 149.279 302.907 149.346C302.895 149.413 302.856 149.473 302.798 149.51C302.48 149.719 302.005 149.873 301.488 149.814C300.961 149.753 300.41 149.474 299.95 148.848C299.575 148.339 299.393 147.7 299.499 147.046C299.605 146.389 299.996 145.742 300.723 145.207C301.451 144.671 302.189 144.501 302.849 144.606C303.506 144.71 304.062 145.084 304.435 145.592C305.029 146.398 305.091 147.337 304.612 148.155L304.935 148.346C305.448 147.482 305.4 146.372 304.688 145.406ZM300.188 144.482C302.051 143.111 304.08 143.741 305.089 145.111C305.969 146.307 305.993 147.749 305.214 148.826C305.139 148.93 304.997 148.959 304.886 148.894L304.135 148.451C304.075 148.415 304.032 148.356 304.018 148.287C304.004 148.218 304.019 148.147 304.061 148.09C304.564 147.404 304.56 146.6 304.035 145.886C303.731 145.473 303.286 145.179 302.771 145.097C302.259 145.015 301.653 145.14 301.017 145.608C300.379 146.078 300.072 146.616 299.989 147.125C299.907 147.636 300.047 148.142 300.35 148.554C300.734 149.075 301.164 149.276 301.544 149.32C301.819 149.351 302.079 149.302 302.29 149.216L301.148 147.664C301.067 147.554 301.09 147.398 301.201 147.317L301.84 146.847C301.893 146.808 301.959 146.791 302.024 146.801C302.089 146.811 302.148 146.846 302.187 146.9L303.998 149.36C304.079 149.47 304.056 149.626 303.945 149.707L301.427 151.56C301.374 151.6 301.307 151.616 301.242 151.606C301.177 151.596 301.118 151.561 301.079 151.508L300.657 150.934C300.581 150.831 300.596 150.686 300.693 150.601L300.914 150.405C300.369 150.292 299.769 149.956 299.288 149.302C298.777 148.608 298.533 147.745 298.656 146.88C298.78 146.011 299.269 145.158 300.188 144.482ZM142.944 156.944C142.9 156.99 142.845 157.076 142.787 157.218L142.785 157.222C142.664 157.505 142.554 157.839 142.458 158.226C142.374 158.602 142.304 158.97 142.249 159.332C142.206 159.698 142.178 159.94 142.164 160.054L142.12 160.403L141.806 160.246C141.638 160.162 141.433 160.063 141.193 159.95L141.187 159.947C140.967 159.837 140.733 159.734 140.484 159.637C140.235 159.54 139.987 159.458 139.74 159.389C139.497 159.321 139.3 159.291 139.145 159.291C139.057 159.291 138.966 159.31 138.869 159.352C138.859 159.358 138.856 159.363 138.853 159.367C138.849 159.376 138.84 159.399 138.84 159.448C138.84 159.526 138.889 159.665 139.071 159.875C139.276 160.08 139.503 160.285 139.75 160.491C140.014 160.699 140.277 160.893 140.54 161.073C140.808 161.243 141.008 161.371 141.138 161.458L141.465 161.676L141.128 161.878C140.993 161.96 140.791 162.091 140.522 162.275C140.26 162.455 139.996 162.656 139.732 162.879L139.729 162.881L139.726 162.883C139.467 163.088 139.236 163.305 139.033 163.535C138.851 163.744 138.797 163.893 138.797 163.989C138.797 164.075 138.818 164.107 138.834 164.121C138.889 164.15 138.956 164.167 139.039 164.167C139.203 164.167 139.404 164.131 139.642 164.051L139.646 164.05C139.909 163.967 140.171 163.871 140.435 163.76C140.698 163.649 140.946 163.532 141.18 163.408C141.437 163.265 141.653 163.15 141.827 163.063L142.153 162.9L142.186 163.263C142.2 163.421 142.222 163.685 142.25 164.055C142.278 164.4 142.326 164.761 142.396 165.137C142.463 165.488 142.557 165.802 142.676 166.08C142.794 166.313 142.908 166.363 143.004 166.363C143.02 166.363 143.039 166.359 143.069 166.328C143.106 166.29 143.151 166.216 143.195 166.085L143.197 166.078C143.304 165.784 143.386 165.453 143.441 165.083C143.496 164.693 143.531 164.325 143.545 163.979L143.545 163.974L143.545 163.97C143.574 163.599 143.587 163.36 143.587 163.243V162.84L143.947 163.02C144.115 163.104 144.334 163.21 144.603 163.338C144.871 163.465 145.146 163.592 145.428 163.719C145.718 163.843 146 163.946 146.274 164.028C146.547 164.11 146.755 164.145 146.906 164.145C146.94 164.145 146.971 164.142 146.998 164.136C146.997 164.06 146.943 163.914 146.741 163.684L146.738 163.682L146.736 163.679C146.533 163.435 146.295 163.197 146.02 162.963L146.015 162.959L146.01 162.954C145.745 162.703 145.481 162.473 145.217 162.265C144.947 162.052 144.755 161.909 144.636 161.829L144.344 161.634L144.625 161.423C144.743 161.335 144.939 161.197 145.209 161.012C145.474 160.831 145.746 160.629 146.026 160.405C146.303 160.183 146.544 159.97 146.749 159.765C146.907 159.595 146.97 159.479 146.99 159.411C146.888 159.385 146.819 159.377 146.778 159.377C146.592 159.377 146.372 159.408 146.116 159.475L146.112 159.476L146.107 159.477C145.858 159.532 145.595 159.602 145.316 159.685C145.055 159.768 144.802 159.864 144.555 159.973L144.549 159.976C144.31 160.075 144.1 160.166 143.919 160.249L143.61 160.392L143.568 160.054C143.553 159.94 143.525 159.705 143.482 159.349L143.482 159.344L143.481 159.339C143.453 158.975 143.411 158.597 143.355 158.204C143.3 157.817 143.225 157.484 143.131 157.202L143.13 157.199C143.084 157.055 143.04 156.969 143.005 156.924C142.999 156.917 142.994 156.911 142.99 156.907C142.981 156.912 142.965 156.922 142.944 156.944ZM142.585 156.6C142.693 156.487 142.834 156.406 143.004 156.406C143.18 156.406 143.31 156.506 143.398 156.62C143.484 156.731 143.55 156.879 143.603 157.047C143.708 157.362 143.789 157.725 143.847 158.133C143.905 158.534 143.948 158.922 143.977 159.295C143.994 159.436 144.008 159.557 144.02 159.659C144.126 159.614 144.238 159.566 144.356 159.518C144.62 159.401 144.89 159.298 145.168 159.211L145.171 159.21C145.459 159.123 145.733 159.051 145.994 158.993C146.277 158.919 146.539 158.879 146.778 158.879C146.874 158.879 146.984 158.897 147.101 158.926C147.193 158.939 147.294 158.973 147.375 159.053C147.465 159.143 147.496 159.257 147.496 159.362C147.496 159.621 147.328 159.874 147.109 160.108L147.106 160.111L147.103 160.114C146.882 160.335 146.626 160.561 146.336 160.793C146.048 161.024 145.766 161.234 145.49 161.422C145.38 161.498 145.283 161.565 145.2 161.623C145.295 161.695 145.403 161.779 145.525 161.875C145.8 162.092 146.074 162.33 146.347 162.589C146.638 162.836 146.894 163.092 147.116 163.358C147.337 163.609 147.496 163.873 147.496 164.138C147.496 164.296 147.442 164.498 147.233 164.582C147.129 164.624 147.019 164.643 146.906 164.643C146.687 164.643 146.426 164.593 146.131 164.504C145.837 164.416 145.537 164.306 145.23 164.175L145.226 164.173C144.94 164.044 144.662 163.916 144.39 163.787C144.274 163.732 144.166 163.681 144.068 163.633C144.061 163.74 144.052 163.864 144.041 164.003C144.027 164.367 143.99 164.75 143.933 165.154L143.933 165.155C143.874 165.552 143.785 165.915 143.666 166.245C143.559 166.564 143.36 166.86 143.004 166.86C142.646 166.86 142.393 166.626 142.228 166.296L142.224 166.289L142.221 166.283C142.086 165.966 141.981 165.614 141.907 165.23L141.907 165.228C141.835 164.837 141.784 164.459 141.754 164.094L141.754 164.093C141.742 163.935 141.731 163.797 141.722 163.678C141.629 163.728 141.528 163.783 141.419 163.844L141.415 163.846C141.167 163.978 140.904 164.102 140.628 164.218C140.351 164.334 140.075 164.436 139.798 164.524C139.526 164.614 139.272 164.664 139.039 164.664C138.873 164.664 138.716 164.627 138.574 164.546L138.563 164.54L138.553 164.532C138.37 164.402 138.3 164.201 138.3 163.989C138.3 163.716 138.445 163.453 138.66 163.207L138.66 163.206C138.883 162.954 139.135 162.717 139.415 162.496C139.69 162.264 139.965 162.054 140.242 161.865C140.351 161.79 140.451 161.723 140.541 161.663C140.461 161.612 140.371 161.555 140.271 161.491L140.267 161.489L140.263 161.486C139.988 161.298 139.713 161.096 139.439 160.879L139.434 160.875C139.173 160.658 138.933 160.439 138.714 160.22L138.708 160.215L138.702 160.208C138.491 159.967 138.342 159.71 138.342 159.448C138.342 159.223 138.431 159.015 138.65 158.906L138.656 158.903L138.661 158.901C138.817 158.831 138.98 158.794 139.145 158.794C139.36 158.794 139.604 158.835 139.873 158.91C140.137 158.983 140.401 159.071 140.664 159.173C140.925 159.275 141.173 159.384 141.407 159.501C141.516 159.552 141.617 159.6 141.712 159.646C141.724 159.541 141.739 159.415 141.755 159.27L141.756 159.265L141.757 159.261C141.814 158.885 141.886 158.503 141.973 158.115L141.974 158.108C142.076 157.701 142.193 157.341 142.327 157.028C142.397 156.858 142.48 156.71 142.585 156.6ZM307.069 156.944C307.024 156.99 306.969 157.076 306.911 157.218L306.91 157.222C306.789 157.505 306.679 157.839 306.582 158.225C306.499 158.601 306.429 158.97 306.373 159.332C306.331 159.698 306.303 159.94 306.288 160.054L306.245 160.403L305.93 160.246C305.762 160.162 305.558 160.063 305.318 159.95L305.312 159.947C305.092 159.837 304.858 159.734 304.608 159.637C304.36 159.54 304.112 159.458 303.864 159.389C303.622 159.321 303.425 159.291 303.27 159.291C303.182 159.291 303.091 159.31 302.994 159.352C302.984 159.358 302.98 159.363 302.978 159.367C302.973 159.376 302.964 159.399 302.964 159.448C302.964 159.526 303.013 159.665 303.196 159.875C303.401 160.079 303.627 160.285 303.875 160.491C304.138 160.699 304.402 160.893 304.665 161.073C304.933 161.243 305.133 161.371 305.263 161.458L305.59 161.676L305.253 161.878C305.117 161.96 304.916 162.091 304.647 162.275C304.384 162.455 304.121 162.656 303.857 162.879L303.854 162.881L303.851 162.883C303.591 163.088 303.361 163.305 303.158 163.535C302.976 163.744 302.922 163.893 302.922 163.989C302.922 164.075 302.943 164.107 302.959 164.121C303.014 164.15 303.08 164.167 303.163 164.167C303.328 164.167 303.528 164.131 303.767 164.051L303.771 164.05C304.033 163.967 304.296 163.871 304.559 163.76C304.822 163.649 305.071 163.532 305.305 163.408C305.561 163.265 305.777 163.15 305.952 163.063L306.278 162.9L306.311 163.263C306.325 163.421 306.346 163.685 306.375 164.055L306.127 164.074L306.375 164.054C306.375 164.055 306.375 164.055 306.375 164.055C306.403 164.401 306.451 164.761 306.521 165.137C306.52 165.136 306.52 165.136 306.52 165.136L306.276 165.183L306.521 165.138C306.521 165.137 306.521 165.137 306.521 165.137C306.588 165.488 306.682 165.802 306.8 166.08C306.799 166.078 306.798 166.076 306.797 166.074L306.575 166.185L306.803 166.087C306.802 166.085 306.801 166.082 306.8 166.08C306.918 166.313 307.033 166.363 307.129 166.363C307.145 166.363 307.164 166.359 307.194 166.328C307.23 166.29 307.276 166.216 307.32 166.085L307.322 166.079C307.429 165.784 307.51 165.452 307.565 165.082C307.565 165.083 307.565 165.083 307.565 165.084L307.811 165.119L307.565 165.082C307.621 164.692 307.656 164.324 307.669 163.979L307.67 163.974L307.67 163.97C307.698 163.599 307.712 163.36 307.712 163.243V162.84L308.072 163.02C308.24 163.104 308.459 163.21 308.728 163.338C308.996 163.465 309.271 163.592 309.553 163.719C309.552 163.718 309.552 163.718 309.551 163.718L309.453 163.946L309.555 163.719C309.554 163.719 309.554 163.719 309.553 163.719C309.843 163.843 310.125 163.946 310.398 164.028C310.672 164.11 310.88 164.145 311.031 164.145C311.065 164.145 311.096 164.142 311.123 164.136C311.123 164.137 311.123 164.137 311.123 164.138C311.123 164.154 311.122 164.164 311.121 164.168C311.12 164.173 311.12 164.171 311.123 164.165C311.126 164.159 311.132 164.15 311.142 164.14C311.143 164.139 311.144 164.139 311.144 164.138C311.154 164.13 311.164 164.124 311.173 164.12C311.157 164.127 311.141 164.132 311.123 164.136C311.122 164.06 311.068 163.914 310.865 163.684L310.863 163.682L310.861 163.679C310.658 163.435 310.419 163.197 310.145 162.963L310.14 162.959L310.135 162.954C309.87 162.703 309.605 162.473 309.341 162.265C309.072 162.052 308.88 161.909 308.761 161.829L308.468 161.634L308.749 161.423C308.868 161.335 309.064 161.197 309.334 161.012C309.598 160.831 309.87 160.629 310.15 160.405C310.428 160.183 310.668 159.97 310.873 159.765C310.872 159.766 310.871 159.767 310.87 159.768L311.052 159.938L310.876 159.762C310.875 159.763 310.874 159.764 310.873 159.765C311.032 159.595 311.095 159.479 311.115 159.411C311.116 159.411 311.118 159.411 311.12 159.412L311.136 159.416L311.152 159.418C311.162 159.419 311.168 159.42 311.17 159.421C311.167 159.42 311.161 159.417 311.153 159.41C311.152 159.408 311.15 159.407 311.148 159.405C311.139 159.396 311.132 159.386 311.128 159.377C311.127 159.375 311.126 159.373 311.126 159.371C311.124 159.367 311.124 159.364 311.123 159.362C311.123 159.359 311.123 159.359 311.123 159.362C311.123 159.375 311.121 159.391 311.115 159.411C311.012 159.385 310.944 159.377 310.903 159.377C310.716 159.377 310.496 159.408 310.241 159.475L310.236 159.476L310.232 159.477C309.983 159.532 309.719 159.602 309.441 159.685C309.441 159.685 309.442 159.685 309.442 159.685L309.368 159.448L309.439 159.686C309.44 159.686 309.44 159.685 309.441 159.685C309.18 159.768 308.926 159.864 308.68 159.973L308.673 159.976C308.434 160.075 308.224 160.166 308.043 160.249L307.735 160.392L307.692 160.054C307.678 159.94 307.65 159.705 307.607 159.349L307.606 159.344L307.606 159.339C307.578 158.975 307.536 158.597 307.48 158.204C307.425 157.817 307.349 157.484 307.256 157.202L307.255 157.199C307.209 157.055 307.164 156.969 307.129 156.924C307.124 156.917 307.119 156.911 307.115 156.907C307.105 156.912 307.09 156.922 307.069 156.944ZM306.709 156.6C306.818 156.487 306.959 156.406 307.129 156.406C307.304 156.406 307.435 156.506 307.523 156.62C307.609 156.731 307.674 156.879 307.728 157.047C307.833 157.362 307.914 157.725 307.972 158.133C308.029 158.534 308.073 158.922 308.101 159.295C308.118 159.436 308.133 159.557 308.145 159.659C308.251 159.614 308.363 159.566 308.481 159.517C308.745 159.401 309.015 159.298 309.293 159.211L309.296 159.21C309.584 159.123 309.858 159.051 310.119 158.993C310.402 158.919 310.664 158.879 310.903 158.879C310.999 158.879 311.108 158.897 311.225 158.926C311.318 158.939 311.419 158.973 311.5 159.053C311.589 159.143 311.62 159.257 311.62 159.362C311.62 159.621 311.453 159.874 311.233 160.108L311.231 160.111L311.228 160.114C311.007 160.335 310.751 160.561 310.461 160.793C310.172 161.024 309.89 161.234 309.615 161.422C309.504 161.498 309.408 161.565 309.324 161.623C309.419 161.695 309.528 161.779 309.65 161.875C309.924 162.092 310.198 162.33 310.472 162.589C310.763 162.836 311.019 163.093 311.241 163.358C311.462 163.609 311.62 163.873 311.62 164.138C311.62 164.296 311.567 164.498 311.357 164.582C311.254 164.624 311.144 164.643 311.031 164.643C310.812 164.643 310.551 164.593 310.256 164.504C309.962 164.416 309.661 164.306 309.355 164.175L309.351 164.173C309.065 164.044 308.787 163.916 308.515 163.787C308.398 163.732 308.291 163.681 308.192 163.633C308.186 163.74 308.177 163.864 308.166 164.004C308.151 164.367 308.115 164.75 308.057 165.154L308.057 165.155C307.998 165.552 307.91 165.916 307.79 166.246C307.683 166.564 307.485 166.86 307.129 166.86C306.771 166.86 306.517 166.626 306.352 166.296L306.349 166.289L306.346 166.283C306.21 165.966 306.106 165.614 306.032 165.23L306.032 165.228C305.959 164.837 305.908 164.459 305.879 164.094L305.879 164.093C305.867 163.935 305.856 163.797 305.847 163.678C305.754 163.728 305.653 163.783 305.544 163.844L305.54 163.846C305.291 163.978 305.029 164.102 304.752 164.218C304.476 164.334 304.2 164.436 303.923 164.524C303.65 164.614 303.396 164.664 303.163 164.664C302.997 164.664 302.84 164.627 302.699 164.546L302.688 164.54L302.678 164.532C302.495 164.402 302.424 164.201 302.424 163.989C302.424 163.716 302.569 163.453 302.785 163.207L302.785 163.206C303.008 162.953 303.26 162.717 303.539 162.496C303.814 162.264 304.09 162.054 304.366 161.865C304.476 161.79 304.576 161.723 304.665 161.663C304.585 161.612 304.495 161.555 304.395 161.491L304.391 161.489L304.388 161.486C304.113 161.298 303.838 161.096 303.564 160.879L303.559 160.875C303.298 160.658 303.057 160.44 302.838 160.22L302.833 160.215L302.827 160.208C302.616 159.967 302.467 159.71 302.467 159.448C302.467 159.223 302.556 159.015 302.775 158.906L302.78 158.903L302.785 158.901C302.942 158.831 303.104 158.794 303.27 158.794C303.485 158.794 303.729 158.835 303.998 158.91C304.262 158.983 304.525 159.071 304.789 159.173C305.05 159.275 305.298 159.384 305.532 159.501C305.64 159.552 305.742 159.6 305.836 159.646C305.849 159.541 305.863 159.415 305.88 159.27L305.881 159.265L305.881 159.261C305.939 158.885 306.011 158.503 306.097 158.115L306.099 158.108C306.201 157.701 306.318 157.34 306.452 157.027C306.522 156.858 306.605 156.71 306.709 156.6Z" fill="#262626"/>
<path d="M303.002 290.636C303.002 290.479 303.108 290.287 303.322 290.06C303.535 289.847 303.783 289.626 304.068 289.399C304.352 289.172 304.629 288.965 304.899 288.781C305.169 288.596 305.361 288.461 305.475 288.376C305.347 288.29 305.148 288.141 304.878 287.928C304.608 287.715 304.338 287.48 304.068 287.224C303.783 286.983 303.535 286.734 303.322 286.478C303.108 286.236 303.002 286.03 303.002 285.86C303.002 285.746 303.037 285.675 303.108 285.647C303.179 285.618 303.258 285.604 303.343 285.604C303.528 285.604 303.762 285.647 304.046 285.732C304.331 285.817 304.622 285.924 304.921 286.052C305.205 286.18 305.482 286.308 305.752 286.435C306.022 286.563 306.242 286.67 306.413 286.755C306.413 286.627 306.427 286.379 306.456 286.009C306.47 285.654 306.505 285.277 306.562 284.879C306.619 284.495 306.704 284.147 306.818 283.834C306.918 283.536 307.06 283.387 307.244 283.387C307.472 283.387 307.657 283.529 307.799 283.813C307.927 284.112 308.026 284.446 308.097 284.815C308.168 285.199 308.218 285.568 308.246 285.924C308.275 286.293 308.296 286.556 308.31 286.713C308.481 286.627 308.694 286.514 308.95 286.372C309.192 286.244 309.447 286.123 309.718 286.009C309.988 285.895 310.258 285.796 310.528 285.711C310.784 285.625 311.011 285.583 311.21 285.583C311.338 285.583 311.452 285.611 311.551 285.668C311.651 285.739 311.7 285.853 311.7 286.009C311.7 286.194 311.601 286.4 311.402 286.627C311.189 286.869 310.947 287.096 310.677 287.31C310.407 287.537 310.137 287.743 309.867 287.928C309.597 288.113 309.391 288.248 309.249 288.333C309.376 288.418 309.575 288.546 309.845 288.717C310.116 288.901 310.386 289.1 310.656 289.314C310.911 289.527 311.146 289.74 311.359 289.953C311.558 290.181 311.658 290.38 311.658 290.55C311.658 290.707 311.601 290.813 311.487 290.87C311.359 290.927 311.231 290.955 311.103 290.955C310.919 290.955 310.698 290.92 310.442 290.849C310.187 290.778 309.931 290.692 309.675 290.593C309.419 290.493 309.177 290.387 308.95 290.273C308.708 290.159 308.502 290.06 308.332 289.975C308.318 290.088 308.289 290.33 308.246 290.699C308.19 291.069 308.119 291.446 308.033 291.829C307.934 292.227 307.82 292.576 307.692 292.874C307.564 293.187 307.415 293.343 307.244 293.343C307.102 293.343 306.981 293.187 306.882 292.874C306.783 292.576 306.704 292.227 306.647 291.829C306.591 291.431 306.548 291.048 306.52 290.678C306.477 290.323 306.448 290.088 306.434 289.975C306.249 290.06 306.036 290.152 305.795 290.252C305.539 290.365 305.276 290.465 305.006 290.55C304.722 290.636 304.452 290.707 304.196 290.763C303.926 290.835 303.684 290.87 303.471 290.87C303.4 290.87 303.307 290.856 303.194 290.827C303.066 290.813 303.002 290.749 303.002 290.636Z" fill="#262626"/>
<path d="M138.877 290.636C138.877 290.479 138.984 290.287 139.197 290.06C139.41 289.847 139.659 289.626 139.943 289.399C140.227 289.172 140.504 288.965 140.774 288.781C141.044 288.596 141.236 288.461 141.35 288.376C141.222 288.29 141.023 288.141 140.753 287.928C140.483 287.715 140.213 287.48 139.943 287.224C139.659 286.983 139.41 286.734 139.197 286.478C138.984 286.236 138.877 286.03 138.877 285.86C138.877 285.746 138.912 285.675 138.984 285.647C139.055 285.618 139.133 285.604 139.218 285.604C139.403 285.604 139.637 285.647 139.922 285.732C140.206 285.817 140.497 285.924 140.796 286.052C141.08 286.18 141.357 286.308 141.627 286.435C141.897 286.563 142.118 286.67 142.288 286.755C142.288 286.627 142.302 286.379 142.331 286.009C142.345 285.654 142.381 285.277 142.437 284.879C142.494 284.495 142.58 284.147 142.693 283.834C142.793 283.536 142.935 283.387 143.12 283.387C143.347 283.387 143.532 283.529 143.674 283.813C143.802 284.112 143.901 284.446 143.972 284.815C144.044 285.199 144.093 285.568 144.122 285.924C144.15 286.293 144.171 286.556 144.186 286.713C144.356 286.627 144.569 286.514 144.825 286.372C145.067 286.244 145.323 286.123 145.593 286.009C145.863 285.895 146.133 285.796 146.403 285.711C146.659 285.625 146.886 285.583 147.085 285.583C147.213 285.583 147.327 285.611 147.426 285.668C147.526 285.739 147.576 285.853 147.576 286.009C147.576 286.194 147.476 286.4 147.277 286.627C147.064 286.869 146.822 287.096 146.552 287.31C146.282 287.537 146.012 287.743 145.742 287.928C145.472 288.113 145.266 288.248 145.124 288.333C145.252 288.418 145.451 288.546 145.721 288.717C145.991 288.901 146.261 289.1 146.531 289.314C146.787 289.527 147.021 289.74 147.234 289.953C147.433 290.181 147.533 290.38 147.533 290.55C147.533 290.707 147.476 290.813 147.362 290.87C147.234 290.927 147.106 290.955 146.979 290.955C146.794 290.955 146.573 290.92 146.318 290.849C146.062 290.778 145.806 290.692 145.55 290.593C145.294 290.493 145.053 290.387 144.825 290.273C144.584 290.159 144.378 290.06 144.207 289.975C144.193 290.088 144.164 290.33 144.122 290.699C144.065 291.069 143.994 291.446 143.908 291.829C143.809 292.227 143.695 292.576 143.567 292.874C143.439 293.187 143.29 293.343 143.12 293.343C142.978 293.343 142.857 293.187 142.757 292.874C142.658 292.576 142.58 292.227 142.523 291.829C142.466 291.431 142.423 291.048 142.395 290.678C142.352 290.323 142.324 290.088 142.309 289.975C142.125 290.06 141.912 290.152 141.67 290.252C141.414 290.365 141.151 290.465 140.881 290.55C140.597 290.636 140.327 290.707 140.071 290.763C139.801 290.835 139.559 290.87 139.346 290.87C139.275 290.87 139.183 290.856 139.069 290.827C138.941 290.813 138.877 290.749 138.877 290.636Z" fill="#262626"/>
<path d="M303.235 305.745L302.688 306.494L298.979 300.74L299.494 300.034L306.072 301.859L305.52 302.615L300.14 301.075L303.235 305.745Z" fill="#262626"/>
<path fill-rule="evenodd" clip-rule="evenodd" d="M306.307 301.777C306.334 301.854 306.321 301.939 306.273 302.005L305.721 302.762C305.659 302.846 305.552 302.883 305.451 302.854L300.72 301.5L303.442 305.607C303.5 305.694 303.497 305.807 303.436 305.891L302.889 306.641C302.84 306.707 302.763 306.745 302.681 306.743C302.599 306.74 302.523 306.698 302.479 306.629L298.77 300.875C298.714 300.789 298.718 300.677 298.778 300.594L299.294 299.888C299.355 299.804 299.461 299.767 299.561 299.795L306.139 301.619C306.218 301.641 306.281 301.7 306.307 301.777ZM305.66 302.002L299.594 300.32L299.281 300.749L302.701 306.055L302.932 305.738L299.933 301.212C299.876 301.126 299.878 301.012 299.94 300.928C300.001 300.844 300.109 300.807 300.209 300.836L305.421 302.329L305.66 302.002Z" fill="#262626"/>
<path d="M296.026 315.131C295.698 314.796 295.474 314.251 295.722 313.697L293.048 311.267C291.934 310.255 292.007 308.97 292.88 308.01C293.752 307.049 295.025 306.855 296.139 307.867L299.252 310.697L298.665 311.344L295.571 308.532C294.851 307.877 294.086 307.901 293.486 308.561C292.88 309.228 292.942 309.978 293.662 310.632L296.756 313.444L296.471 313.757C296.144 314.117 296.309 314.377 296.517 314.591L296.026 315.131Z" fill="#262626"/>
<path fill-rule="evenodd" clip-rule="evenodd" d="M296.695 314.417C296.787 314.511 296.789 314.661 296.701 314.758L296.21 315.298C296.164 315.349 296.099 315.378 296.031 315.379C295.962 315.381 295.897 315.354 295.849 315.305C295.505 314.955 295.241 314.381 295.43 313.768L292.881 311.451C292.281 310.907 291.984 310.27 291.97 309.624C291.957 308.981 292.225 308.36 292.696 307.842C293.166 307.324 293.759 306.998 294.4 306.951C295.045 306.903 295.706 307.138 296.306 307.683L299.42 310.513C299.521 310.605 299.529 310.762 299.436 310.864L298.849 311.511C298.756 311.612 298.599 311.62 298.497 311.528L295.403 308.716C295.076 308.418 294.763 308.297 294.488 308.302C294.215 308.307 293.935 308.437 293.67 308.728C293.402 309.024 293.302 309.312 293.325 309.58C293.347 309.852 293.5 310.149 293.829 310.448L296.923 313.26C297.025 313.352 297.032 313.51 296.94 313.611L296.655 313.925C296.528 314.065 296.53 314.143 296.537 314.182C296.549 314.242 296.596 314.316 296.695 314.417ZM296.187 314.585C296.125 314.497 296.072 314.395 296.049 314.276C296.004 314.042 296.087 313.81 296.287 313.59L296.404 313.461L293.495 310.816C293.104 310.461 292.865 310.056 292.829 309.622C292.792 309.185 292.965 308.765 293.302 308.394C293.637 308.025 294.039 307.813 294.479 307.805C294.916 307.797 295.345 307.991 295.738 308.348L298.648 310.992L298.901 310.714L295.971 308.051C295.457 307.583 294.926 307.41 294.437 307.447C293.946 307.483 293.465 307.735 293.064 308.177C292.662 308.619 292.457 309.121 292.467 309.614C292.478 310.104 292.701 310.616 293.215 311.083L295.889 313.513C295.968 313.586 295.993 313.701 295.949 313.799C295.798 314.137 295.866 314.478 296.038 314.748L296.187 314.585Z" fill="#262626"/>
<path d="M289.852 320.822L290.334 320.401L291.605 320.774L290.873 321.414L289.852 320.822ZM288.231 321.103C287.231 321.26 286.121 320.949 285.243 319.945C283.838 318.337 284.256 316.38 285.464 315.324C286.671 314.268 288.667 314.115 290.073 315.722C291.479 317.33 291.054 319.281 289.847 320.337C289.616 320.538 289.349 320.712 289.066 320.84C288.778 321.14 288.907 321.397 289.077 321.62L288.528 322.1C288.322 321.837 288.187 321.477 288.231 321.103ZM285.998 315.934C285.102 316.717 284.824 318.097 285.922 319.352C287.019 320.607 288.418 320.509 289.313 319.726C290.208 318.943 290.492 317.57 289.395 316.315C288.297 315.06 286.893 315.151 285.998 315.934Z" fill="#262626"/>
<path fill-rule="evenodd" clip-rule="evenodd" d="M291.848 320.72C291.868 320.809 291.837 320.901 291.769 320.961L291.036 321.601C290.956 321.672 290.84 321.683 290.748 321.629L289.728 321.037C289.658 320.997 289.613 320.926 289.605 320.846C289.604 320.84 289.604 320.835 289.604 320.829C289.48 320.909 289.35 320.981 289.216 321.044C289.143 321.131 289.141 321.189 289.146 321.225C289.154 321.287 289.194 321.363 289.275 321.468C289.355 321.572 289.34 321.72 289.241 321.807L288.692 322.287C288.64 322.332 288.573 322.354 288.505 322.348C288.437 322.341 288.374 322.307 288.332 322.253C288.149 322.02 288.01 321.715 287.98 321.382C286.977 321.452 285.909 321.084 285.056 320.109C283.551 318.387 284 316.273 285.3 315.137C286.6 314 288.755 313.837 290.26 315.559C291.615 317.109 291.381 318.971 290.373 320.156C290.384 320.157 290.394 320.16 290.404 320.163L291.675 320.535C291.762 320.561 291.829 320.632 291.848 320.72ZM291.1 320.885L290.395 320.678L290.277 320.781L290.843 321.11L291.1 320.885ZM288.75 321.575C288.705 321.492 288.667 321.397 288.653 321.292C288.624 321.074 288.7 320.862 288.887 320.667C288.909 320.645 288.935 320.626 288.964 320.613C289.224 320.496 289.47 320.335 289.683 320.149C290.798 319.174 291.191 317.379 289.886 315.886C288.58 314.392 286.742 314.536 285.627 315.511C284.513 316.486 284.124 318.287 285.431 319.781C286.251 320.72 287.275 321.001 288.192 320.857C288.269 320.845 288.347 320.87 288.403 320.924C288.459 320.978 288.487 321.055 288.478 321.132C288.454 321.337 288.497 321.541 288.584 321.721L288.75 321.575ZM290.349 318.217C290.298 318.886 289.968 319.483 289.477 319.913C288.985 320.343 288.349 320.59 287.679 320.551C287.005 320.513 286.322 320.187 285.735 319.516C285.148 318.844 284.915 318.122 284.964 317.448C285.014 316.777 285.342 316.178 285.834 315.747C286.326 315.317 286.964 315.072 287.635 315.112C288.31 315.153 288.995 315.48 289.582 316.152C290.169 316.823 290.4 317.544 290.349 318.217ZM289.853 318.179C289.893 317.655 289.718 317.062 289.207 316.479C288.697 315.895 288.131 315.641 287.605 315.609C287.076 315.577 286.564 315.769 286.161 316.121C285.758 316.474 285.499 316.956 285.46 317.484C285.422 318.01 285.599 318.605 286.109 319.188C286.619 319.772 287.183 320.025 287.707 320.055C288.235 320.085 288.746 319.892 289.149 319.539C289.553 319.186 289.813 318.705 289.853 318.179Z" fill="#262626"/>
<path d="M275.403 323.191L281.191 325.541L278.251 321.243L278.98 320.744L282.587 326.017L281.613 326.683L276.212 324.439L278.98 328.484L278.251 328.983L274.644 323.71L275.403 323.191Z" fill="#262626"/>
<path fill-rule="evenodd" clip-rule="evenodd" d="M282.792 325.876C282.869 325.99 282.84 326.144 282.727 326.222L281.753 326.888C281.684 326.936 281.595 326.945 281.517 326.913L276.891 324.99L279.185 328.344C279.263 328.457 279.234 328.612 279.12 328.689L278.392 329.188C278.278 329.266 278.124 329.237 278.046 329.123L274.439 323.851C274.361 323.737 274.39 323.583 274.504 323.505L275.262 322.986C275.331 322.939 275.419 322.93 275.496 322.961L280.52 325L278.046 321.383C277.968 321.27 277.997 321.115 278.11 321.038L278.839 320.539C278.953 320.461 279.107 320.491 279.185 320.604L282.792 325.876ZM282.241 325.952L278.915 321.09L278.596 321.308L281.397 325.401C281.459 325.491 281.454 325.612 281.385 325.697C281.316 325.783 281.2 325.813 281.098 325.772L275.433 323.472L274.99 323.775L278.316 328.637L278.634 328.419L276.007 324.579C275.945 324.488 275.95 324.367 276.019 324.282C276.089 324.197 276.206 324.167 276.308 324.209L281.583 326.402L282.241 325.952Z" fill="#262626"/>
<path d="M258.981 331.805L260.959 336.368L260.982 330.938L261.726 330.615L265.688 334.319L263.71 329.755L264.512 329.408L267.052 335.27L265.953 335.746L261.818 331.871L261.802 337.545L260.719 338.014L258.179 332.152L258.981 331.805Z" fill="#262626"/>
<path fill-rule="evenodd" clip-rule="evenodd" d="M267.28 335.171C267.335 335.297 267.277 335.443 267.151 335.498L266.051 335.974C265.96 336.014 265.855 335.995 265.782 335.927L262.065 332.444L262.051 337.545C262.051 337.644 261.992 337.733 261.901 337.773L260.818 338.242C260.692 338.297 260.546 338.239 260.491 338.113L257.951 332.251C257.896 332.125 257.954 331.979 258.08 331.924L258.882 331.577C259.008 331.522 259.155 331.58 259.209 331.706L260.715 335.181L260.733 330.937C260.734 330.838 260.792 330.749 260.883 330.71L261.627 330.387C261.718 330.348 261.823 330.366 261.896 330.434L264.984 333.321L263.482 329.854C263.427 329.728 263.485 329.582 263.611 329.527L264.413 329.18C264.539 329.125 264.686 329.183 264.74 329.309L267.28 335.171ZM266.725 335.14L264.383 329.735L264.037 329.885L265.916 334.22C265.963 334.328 265.927 334.454 265.831 334.522C265.735 334.59 265.604 334.581 265.518 334.501L261.675 330.908L261.23 331.101L261.207 336.369C261.207 336.487 261.124 336.588 261.009 336.612C260.893 336.636 260.777 336.575 260.731 336.467L258.852 332.132L258.506 332.282L260.848 337.687L261.554 337.381L261.57 331.871C261.57 331.772 261.629 331.682 261.72 331.643C261.811 331.604 261.916 331.622 261.988 331.69L266.003 335.453L266.725 335.14Z" fill="#262626"/>
<path d="M254.968 341.716L254.037 341.999L253.351 341.039L253.963 340.853L254.968 341.716ZM253.387 333.826L255.24 339.939L251.523 341.066L251.285 340.281L254.157 339.411L253.587 337.531L250.983 338.32L250.742 337.527L253.347 336.738L252.78 334.866L249.908 335.737L249.67 334.952L253.387 333.826Z" fill="#262626"/>
<path fill-rule="evenodd" clip-rule="evenodd" d="M255.212 341.767C255.193 341.856 255.127 341.928 255.041 341.954L254.109 342.236C254.007 342.267 253.897 342.23 253.835 342.143L253.149 341.184C253.102 341.118 253.09 341.035 253.116 340.959C253.141 340.883 253.202 340.824 253.279 340.801L253.891 340.616C253.972 340.591 254.061 340.609 254.125 340.665L255.13 341.528C255.199 341.587 255.23 341.679 255.212 341.767ZM254.463 341.61L253.905 341.131L253.755 341.176L254.136 341.709L254.463 341.61ZM255.478 339.867C255.517 339.999 255.443 340.138 255.312 340.177L251.595 341.304C251.464 341.344 251.325 341.269 251.285 341.138L251.047 340.353C251.008 340.222 251.082 340.083 251.213 340.043L253.847 339.245L253.421 337.841L251.055 338.558C250.924 338.598 250.785 338.524 250.745 338.392L250.505 337.599C250.465 337.468 250.539 337.329 250.67 337.289L253.037 336.572L252.614 335.177L249.98 335.975C249.849 336.014 249.71 335.94 249.67 335.809L249.432 335.024C249.392 334.893 249.467 334.754 249.598 334.714L253.315 333.588C253.446 333.548 253.585 333.622 253.625 333.754L255.478 339.867ZM254.93 339.774L253.221 334.136L249.98 335.118L250.074 335.427L252.707 334.629C252.839 334.589 252.978 334.663 253.018 334.794L253.585 336.666C253.624 336.797 253.55 336.936 253.419 336.976L251.053 337.693L251.149 338.01L253.515 337.293C253.646 337.253 253.785 337.327 253.825 337.459L254.395 339.339C254.435 339.47 254.36 339.609 254.229 339.649L251.595 340.447L251.689 340.756L254.93 339.774Z" fill="#262626"/>
<path d="M245.565 339.33C245.954 341.429 244.594 342.891 243.017 343.184C241.44 343.476 239.647 342.6 239.257 340.5C238.867 338.4 240.226 336.93 241.803 336.637C243.38 336.344 245.175 337.23 245.565 339.33ZM244.679 339.494C244.375 337.855 243.12 337.217 241.951 337.434C240.781 337.651 239.839 338.697 240.143 340.336C240.447 341.975 241.7 342.604 242.869 342.387C244.039 342.17 244.983 341.133 244.679 339.494Z" fill="#262626"/>
<path fill-rule="evenodd" clip-rule="evenodd" d="M242.972 342.939C244.429 342.669 245.682 341.325 245.32 339.375C244.958 337.424 243.304 336.611 241.848 336.881C240.392 337.152 239.14 338.504 239.501 340.455C239.863 342.405 241.515 343.21 242.972 342.939ZM245.809 339.284C246.226 341.534 244.76 343.114 243.063 343.428C241.366 343.743 239.43 342.794 239.013 340.545C238.595 338.297 240.059 336.708 241.757 336.393C243.455 336.078 245.392 337.036 245.809 339.284ZM244.53 341.616C244.145 342.166 243.557 342.512 242.915 342.631C242.273 342.75 241.6 342.638 241.043 342.263C240.483 341.887 240.061 341.258 239.898 340.381C239.736 339.504 239.904 338.764 240.29 338.21C240.675 337.658 241.262 337.309 241.905 337.19C242.548 337.071 243.222 337.185 243.779 337.562C244.338 337.941 244.761 338.572 244.923 339.449C245.086 340.326 244.917 341.064 244.53 341.616ZM244.123 341.331C244.424 340.901 244.576 340.302 244.434 339.539C244.293 338.777 243.936 338.27 243.5 337.974C243.061 337.677 242.522 337.581 241.996 337.679C241.47 337.776 241.001 338.059 240.698 338.494C240.397 338.926 240.246 339.528 240.387 340.29C240.529 341.052 240.885 341.558 241.321 341.851C241.759 342.146 242.297 342.24 242.824 342.142C243.351 342.044 243.82 341.763 244.123 341.331Z" fill="#262626"/>
<path d="M227.128 338.357L227.177 344.745L226.294 344.752L226.251 339.192L223.233 339.215L223.226 338.387L227.128 338.357Z" fill="#262626"/>
<path fill-rule="evenodd" clip-rule="evenodd" d="M227.425 344.743C227.426 344.88 227.316 344.992 227.179 344.993L226.296 345C226.158 345.001 226.046 344.891 226.045 344.754L226.004 339.443L223.235 339.464C223.097 339.465 222.985 339.355 222.984 339.217L222.978 338.388C222.977 338.251 223.087 338.139 223.225 338.138L227.126 338.108C227.263 338.107 227.375 338.218 227.376 338.355L227.425 344.743ZM226.926 344.498L226.881 338.607L223.477 338.633L223.479 338.965L226.249 338.944C226.387 338.943 226.499 339.053 226.5 339.191L226.54 344.501L226.926 344.498Z" fill="#262626"/>
<path d="M214.817 339.635L217.635 339.895L218.471 338.18L219.413 338.267L216.298 344.395L215.284 344.302L213.339 337.708L214.29 337.795L214.817 339.635ZM217.245 340.682L215.056 340.481L215.897 343.436L217.245 340.682Z" fill="#262626"/>
<path fill-rule="evenodd" clip-rule="evenodd" d="M216.519 344.508C216.473 344.599 216.376 344.652 216.275 344.643L215.261 344.55C215.16 344.54 215.074 344.47 215.045 344.372L213.1 337.778C213.077 337.699 213.094 337.614 213.147 337.55C213.199 337.486 213.279 337.453 213.361 337.46L214.312 337.548C214.415 337.557 214.5 337.628 214.529 337.727L215.009 339.403L217.486 339.631L218.247 338.071C218.293 337.978 218.391 337.923 218.494 337.932L219.436 338.019C219.518 338.027 219.591 338.074 219.631 338.146C219.67 338.219 219.672 338.306 219.635 338.379L216.519 344.508ZM216.152 344.132L219.025 338.481L218.619 338.443L217.858 340.004C217.813 340.096 217.715 340.152 217.612 340.142L214.794 339.883C214.692 339.874 214.606 339.803 214.578 339.704L214.098 338.027L213.681 337.989L215.475 344.07L216.152 344.132ZM215.875 343.683C215.773 343.674 215.686 343.603 215.658 343.504L214.817 340.549C214.795 340.47 214.812 340.385 214.865 340.322C214.917 340.259 214.997 340.226 215.079 340.233L217.268 340.435C217.35 340.442 217.422 340.489 217.462 340.56C217.502 340.632 217.505 340.718 217.469 340.792L216.121 343.545C216.075 343.637 215.978 343.692 215.875 343.683ZM215.959 342.744L216.864 340.897L215.395 340.762L215.959 342.744Z" fill="#262626"/>
<path d="M204.674 336.166L207.007 341.961L208.055 336.86L208.92 337.037L207.634 343.295L206.478 343.058L204.34 337.615L203.354 342.416L202.489 342.238L203.774 335.981L204.674 336.166Z" fill="#262626"/>
<path fill-rule="evenodd" clip-rule="evenodd" d="M207.878 343.345C207.85 343.48 207.719 343.566 207.584 343.539L206.428 343.301C206.346 343.284 206.278 343.227 206.247 343.149L204.415 338.485L203.597 342.466C203.57 342.601 203.438 342.687 203.304 342.66L202.439 342.482C202.304 342.454 202.218 342.323 202.245 342.188L203.53 335.931C203.558 335.796 203.689 335.709 203.824 335.737L204.724 335.922C204.806 335.939 204.874 335.995 204.905 336.073L206.929 341.103L207.811 336.81C207.839 336.675 207.97 336.589 208.105 336.616L208.97 336.794C209.104 336.821 209.191 336.953 209.163 337.087L207.878 343.345ZM207.441 343.002L208.626 337.231L208.248 337.153L207.25 342.011C207.228 342.119 207.139 342.199 207.029 342.209C206.92 342.219 206.817 342.156 206.776 342.054L204.493 336.382L203.967 336.274L202.782 342.045L203.16 342.122L204.096 337.565C204.118 337.457 204.209 337.376 204.318 337.367C204.428 337.357 204.531 337.421 204.571 337.524L206.66 342.841L207.441 343.002Z" fill="#262626"/>
<path d="M194.067 333.129L193.863 334.011C194.285 333.618 195.11 333.33 196.129 333.664C197.653 334.164 198.709 335.744 198.034 337.798C197.36 339.853 195.49 340.463 193.992 339.971C192.674 339.538 191.897 338.467 191.906 337.256L192.774 337.181C192.762 338.144 193.304 338.891 194.245 339.2C195.332 339.557 196.65 339.127 197.178 337.517C197.706 335.908 196.94 334.775 195.853 334.418C194.501 333.974 193.698 334.772 193.459 335.386L195.564 336.077L195.317 336.831L192.415 335.878L193.39 332.907L194.067 333.129Z" fill="#262626"/>
<path fill-rule="evenodd" clip-rule="evenodd" d="M194.07 339.735C195.45 340.188 197.17 339.633 197.798 337.721C198.116 336.751 198.022 335.912 197.685 335.263C197.347 334.611 196.756 334.132 196.052 333.9C195.114 333.593 194.385 333.865 194.032 334.193C193.952 334.267 193.832 334.281 193.738 334.226C193.643 334.171 193.596 334.061 193.62 333.955L193.773 333.295L193.549 333.221L192.729 335.719L195.158 336.517L195.251 336.236L193.381 335.622C193.316 335.601 193.263 335.554 193.234 335.492C193.204 335.43 193.202 335.359 193.227 335.296C193.365 334.941 193.662 334.54 194.118 334.287C194.582 334.031 195.193 333.939 195.931 334.181C196.532 334.379 197.051 334.793 197.344 335.388C197.639 335.984 197.696 336.738 197.414 337.595C197.132 338.454 196.631 339.021 196.032 339.319C195.436 339.615 194.767 339.633 194.168 339.437C193.216 339.124 192.621 338.395 192.536 337.451L192.163 337.484C192.246 338.485 192.929 339.36 194.07 339.735ZM198.27 337.876C197.549 340.073 195.531 340.738 193.915 340.207C192.503 339.744 191.647 338.584 191.657 337.255C191.658 337.126 191.756 337.02 191.884 337.009L192.753 336.934C192.823 336.927 192.892 336.951 192.944 336.999C192.995 337.047 193.024 337.114 193.023 337.185C193.012 338.035 193.481 338.688 194.323 338.964C194.811 339.124 195.344 339.106 195.81 338.874C196.274 338.643 196.696 338.19 196.942 337.44C197.189 336.687 197.127 336.07 196.899 335.608C196.669 335.144 196.262 334.813 195.776 334.654C195.161 334.452 194.694 334.537 194.359 334.723C194.116 334.857 193.933 335.048 193.811 335.24L195.642 335.841C195.773 335.884 195.844 336.024 195.801 336.155L195.553 336.908C195.511 337.039 195.37 337.11 195.24 337.067L192.337 336.114C192.207 336.071 192.136 335.931 192.179 335.8L193.154 332.83C193.197 332.699 193.337 332.628 193.468 332.671L194.144 332.893C194.266 332.933 194.338 333.06 194.309 333.185L194.242 333.474C194.751 333.249 195.435 333.175 196.207 333.428C197.026 333.697 197.724 334.258 198.127 335.034C198.53 335.813 198.626 336.791 198.27 337.876Z" fill="#262626"/>
<path d="M178.32 332.189L180.955 327.284L181.733 327.702L179.098 332.607L180.979 333.618L180.591 334.34L176.051 331.901L176.439 331.179L178.32 332.189Z" fill="#262626"/>
<path fill-rule="evenodd" clip-rule="evenodd" d="M180.81 334.458C180.745 334.579 180.594 334.624 180.473 334.559L175.933 332.12C175.812 332.055 175.767 331.904 175.832 331.783L176.22 331.061C176.285 330.94 176.436 330.895 176.557 330.96L178.219 331.853L180.736 327.166C180.801 327.045 180.952 327 181.073 327.065L181.851 327.483C181.972 327.548 182.017 327.699 181.952 327.819L179.435 332.506L181.097 333.399C181.218 333.464 181.263 333.614 181.198 333.735L180.81 334.458ZM180.49 334.003L180.642 333.719L178.98 332.826C178.859 332.761 178.814 332.61 178.879 332.489L181.397 327.803L181.057 327.621L178.539 332.307C178.474 332.428 178.323 332.473 178.202 332.408L176.54 331.515L176.388 331.8L180.49 334.003Z" fill="#262626"/>
<path d="M171.622 321.501L170.02 323.843L172.712 325.685L174.314 323.343L175.043 323.841L171.436 329.114L170.707 328.615L172.249 326.362L169.557 324.52L168.015 326.773L167.286 326.275L170.893 321.002L171.622 321.501Z" fill="#262626"/>
<path fill-rule="evenodd" clip-rule="evenodd" d="M171.641 329.254C171.564 329.367 171.409 329.396 171.295 329.319L170.567 328.82C170.453 328.743 170.424 328.588 170.502 328.475L171.903 326.427L169.621 324.866L168.22 326.914C168.143 327.027 167.988 327.056 167.875 326.979L167.146 326.48C167.033 326.403 167.004 326.248 167.081 326.134L170.688 320.862C170.766 320.749 170.92 320.72 171.034 320.797L171.763 321.296C171.876 321.373 171.905 321.528 171.827 321.641L170.365 323.779L172.647 325.34L174.109 323.202C174.187 323.089 174.341 323.06 174.455 323.137L175.183 323.636C175.297 323.714 175.326 323.868 175.248 323.982L171.641 329.254ZM171.371 328.768L174.697 323.906L174.379 323.688L172.917 325.826C172.839 325.939 172.685 325.968 172.571 325.89L169.879 324.049C169.766 323.971 169.737 323.816 169.814 323.703L171.277 321.566L170.958 321.348L167.632 326.21L167.95 326.428L169.351 324.38C169.429 324.266 169.584 324.237 169.697 324.315L172.389 326.157C172.502 326.234 172.531 326.389 172.454 326.502L171.053 328.55L171.371 328.768Z" fill="#262626"/>
<path d="M162.515 316.555L164.659 318.401L166.335 317.49L167.052 318.107L160.958 321.291L160.187 320.626L162.429 314.127L163.153 314.75L162.515 316.555ZM163.885 318.817L162.219 317.382L161.189 320.277L163.885 318.817Z" fill="#262626"/>
<path fill-rule="evenodd" clip-rule="evenodd" d="M161.074 321.511C160.983 321.558 160.873 321.545 160.796 321.479L160.025 320.815C159.947 320.748 159.919 320.641 159.952 320.545L162.194 314.046C162.221 313.968 162.285 313.909 162.365 313.887C162.444 313.866 162.529 313.885 162.592 313.939L163.315 314.562C163.393 314.629 163.422 314.737 163.388 314.833L162.806 316.478L164.691 318.101L166.216 317.271C166.307 317.222 166.419 317.234 166.497 317.302L167.214 317.919C167.277 317.973 167.309 318.054 167.299 318.136C167.29 318.218 167.24 318.289 167.167 318.328L161.074 321.511ZM160.993 320.992L166.612 318.057L166.303 317.79L164.778 318.619C164.687 318.669 164.575 318.657 164.497 318.589L162.353 316.743C162.275 316.677 162.246 316.569 162.281 316.472L162.862 314.828L162.545 314.555L160.477 320.548L160.993 320.992ZM161.028 320.466C160.949 320.399 160.921 320.29 160.955 320.193L161.985 317.299C162.012 317.222 162.076 317.163 162.155 317.142C162.234 317.121 162.319 317.14 162.381 317.194L164.047 318.628C164.109 318.682 164.141 318.762 164.132 318.843C164.123 318.925 164.075 318.996 164.003 319.035L161.308 320.495C161.217 320.544 161.106 320.532 161.028 320.466ZM161.641 319.749L163.449 318.77L162.332 317.807L161.641 319.749Z" fill="#262626"/>
<path d="M156.267 307.843L154.804 313.917L158.617 310.37L159.219 311.017L154.541 315.367L153.737 314.503L155.154 308.829L151.565 312.167L150.963 311.521L155.641 307.17L156.267 307.843Z" fill="#262626"/>
<path fill-rule="evenodd" clip-rule="evenodd" d="M154.71 315.549C154.609 315.643 154.452 315.637 154.359 315.537L153.555 314.672C153.497 314.611 153.475 314.524 153.496 314.443L154.71 309.582L151.734 312.349C151.633 312.443 151.476 312.437 151.383 312.337L150.781 311.69C150.688 311.589 150.693 311.432 150.794 311.339L155.472 306.988C155.573 306.895 155.73 306.9 155.823 307.001L156.449 307.674C156.506 307.735 156.528 307.82 156.509 307.901L155.239 313.173L158.448 310.188C158.549 310.095 158.706 310.1 158.799 310.201L159.401 310.847C159.494 310.948 159.489 311.105 159.388 311.199L154.71 315.549ZM154.553 315.016L158.867 311.004L158.605 310.722L154.973 314.099C154.893 314.174 154.773 314.187 154.678 314.131C154.583 314.076 154.536 313.965 154.562 313.859L155.994 307.915L155.629 307.521L151.315 311.533L151.577 311.816L154.985 308.647C155.065 308.572 155.186 308.559 155.28 308.615C155.375 308.671 155.422 308.783 155.395 308.889L154.011 314.432L154.553 315.016Z" fill="#262626"/>
<path d="M149.391 299.213L148.714 299.813C149.286 299.739 150.125 299.982 150.761 300.846C151.711 302.137 151.655 304.036 149.913 305.318C148.171 306.6 146.295 306.012 145.361 304.742C144.538 303.624 144.527 302.302 145.236 301.32L145.987 301.763C145.418 302.54 145.426 303.463 146.014 304.261C146.692 305.183 148.015 305.597 149.379 304.593C150.743 303.588 150.777 302.221 150.099 301.299C149.255 300.153 148.138 300.337 147.587 300.698L148.9 302.483L148.262 302.953L146.451 300.493L148.969 298.64L149.391 299.213Z" fill="#262626"/>
<path fill-rule="evenodd" clip-rule="evenodd" d="M145.561 304.595C146.422 305.765 148.145 306.311 149.766 305.118C150.588 304.513 150.997 303.775 151.1 303.051C151.203 302.324 151 301.591 150.56 300.993C149.975 300.198 149.223 299.997 148.746 300.059C148.637 300.073 148.533 300.015 148.487 299.916C148.442 299.816 148.467 299.699 148.549 299.626L149.056 299.178L148.916 298.988L146.799 300.546L148.315 302.606L148.553 302.43L147.386 300.846C147.346 300.791 147.33 300.721 147.342 300.654C147.354 300.587 147.393 300.528 147.45 300.49C147.769 300.282 148.244 300.127 148.761 300.186C149.288 300.247 149.839 300.527 150.299 301.152C150.674 301.662 150.856 302.3 150.75 302.955C150.644 303.611 150.252 304.258 149.526 304.793C148.798 305.329 148.06 305.5 147.4 305.395C146.743 305.29 146.187 304.917 145.813 304.409C145.22 303.602 145.158 302.663 145.637 301.845L145.314 301.655C144.801 302.518 144.849 303.628 145.561 304.595ZM150.06 305.518C148.198 306.889 146.168 306.259 145.16 304.889C144.28 303.693 144.256 302.251 145.035 301.175C145.11 301.071 145.252 301.041 145.363 301.106L146.114 301.549C146.174 301.585 146.217 301.644 146.231 301.713C146.245 301.782 146.23 301.854 146.188 301.91C145.685 302.597 145.689 303.4 146.214 304.114C146.518 304.527 146.963 304.822 147.478 304.903C147.99 304.985 148.595 304.86 149.231 304.392C149.869 303.923 150.177 303.384 150.259 302.875C150.342 302.364 150.202 301.859 149.899 301.447C149.515 300.925 149.085 300.724 148.705 300.681C148.429 300.649 148.169 300.699 147.958 300.784L149.101 302.336C149.182 302.447 149.158 302.602 149.048 302.684L148.409 303.154C148.299 303.235 148.143 303.211 148.062 303.101L146.251 300.641C146.17 300.53 146.193 300.374 146.304 300.293L148.822 298.44C148.933 298.358 149.088 298.382 149.17 298.493L149.592 299.066C149.668 299.17 149.652 299.314 149.556 299.4L149.334 299.596C149.88 299.708 150.479 300.044 150.961 300.698C151.472 301.393 151.715 302.255 151.593 303.121C151.469 303.989 150.98 304.842 150.06 305.518Z" fill="#262626"/>
<mask id="mask0_3990_7770" style="mask-type:alpha" maskUnits="userSpaceOnUse" x="157" y="132" width="136" height="188">
<rect x="157.5" y="132.94" width="135.421" height="186.513" rx="67.7107" fill="white"/>
</mask>
<g mask="url(#mask0_3990_7770)">
<path d="M248.595 169.352C247.723 171.725 246.941 178.766 246.093 184.572C225.031 187.079 222.456 202.23 222.456 214.369C222.456 217.051 218.927 213.7 218.927 219.451C218.614 231.988 232.616 233.153 241.392 235.034C250.168 236.914 246.093 242.869 237.631 242.869C209.21 245.457 198.139 250.705 188.109 262.615C178.079 274.525 180.9 294.898 188.109 308.689C165.229 327.181 186.855 341.285 198.139 342.853C209.422 344.42 226.974 341.285 243.899 344.733C260.824 348.181 273.048 354.136 275.869 341.285C278.69 328.435 256.436 327.495 246.093 327.181C235.75 326.868 205.034 332.509 193.437 329.375C184.16 326.868 189.572 317.465 193.437 313.077C194.169 316.107 204.784 322.166 241.392 322.166C287.152 322.166 294.675 314.958 294.988 310.883C295.301 306.808 293.421 302.734 279.317 302.734C305.644 267.317 294.988 214.369 275.869 189.9C257.15 165.943 250.344 164.591 248.595 169.352Z" fill="#262626"/>
<path d="M169.144 229.963C169.59 228.658 169.832 227.259 169.832 225.803C169.832 218.702 164.076 212.945 156.975 212.945C149.874 212.945 144.118 218.702 144.118 225.803C144.118 229.52 145.695 232.868 148.217 235.216C144.872 238.781 142.824 243.576 142.824 248.849C142.824 259.857 151.748 268.781 162.756 268.781C173.764 268.781 182.688 259.857 182.688 248.849C182.688 240.076 177.019 232.626 169.144 229.963Z" fill="#262626"/>
</g>
<path d="M179.644 212.304C183.383 214.94 187.853 211.508 189.621 209.463C189.128 210.771 191.231 229.25 199.326 228.94C207.421 228.629 206.356 218.957 202.611 210.181C205.503 213.776 214.175 214.868 212.74 201.71C211.592 191.183 205.33 192.559 202.343 194.563C203.917 192.075 206.916 185.838 206.314 180.796C205.561 174.493 201.386 169.032 196.285 170.485C192.204 171.647 191.388 181.19 191.49 185.816C191.12 182.33 189.662 174.712 186.79 172.125C183.2 168.891 178.922 170.11 177.164 174.867C175.405 179.624 177.919 186.888 183.703 191.891C179.324 189.946 172.681 193.169 172.777 199.127C172.873 205.085 174.969 209.01 179.644 212.304Z" fill="#262626"/>
<path d="M192.406 192.881C193.941 192.444 196.003 194.963 197.013 198.508C198.023 202.053 197.597 205.281 196.063 205.718C194.528 206.156 192.466 203.636 191.456 200.091C190.446 196.546 190.872 193.318 192.406 192.881Z" fill="#262626"/>
<path d="M235.116 158.589C235.29 155.476 235.033 152.317 233.976 149.41C232.513 145.29 227.047 138.384 222.204 142.723C218.935 145.683 219.684 152.957 220.062 156.843C219.757 153.579 215.302 147.971 212.183 147.301C208.366 146.477 204.283 149.45 204.218 153.407C204.119 158.787 209.225 164.049 213.069 167.214C215.895 169.517 218.92 171.624 221.213 174.465C223.733 177.588 224.15 180.546 224.362 184.314C225.662 183.839 226.486 182.242 227.165 181.086C231.144 174.257 234.364 167.863 235.043 159.83C235.085 159.438 235.109 159.024 235.134 158.61L235.116 158.589Z" fill="#262626"/>
<path fill-rule="evenodd" clip-rule="evenodd" d="M297.864 199.524V250.616C297.864 290.74 265.337 323.268 225.212 323.268C185.087 323.268 152.56 290.74 152.56 250.615V199.524C152.56 159.399 185.087 126.872 225.212 126.872C265.337 126.872 297.864 159.399 297.864 199.524ZM225.212 131.813C187.816 131.813 157.501 162.128 157.501 199.524V250.615C157.501 288.011 187.816 318.326 225.212 318.326C262.607 318.326 292.923 288.011 292.923 250.616V199.524C292.923 162.128 262.607 131.813 225.212 131.813Z" fill="#262626"/>
</svg>
