<svg width="450" height="450" viewBox="0 0 450 450" fill="none" xmlns="http://www.w3.org/2000/svg">
<rect x="0.5" y="0.5" width="449" height="449" fill="#EAEAEA"/>
<rect x="0.5" y="0.5" width="449" height="449" stroke="#262626"/>
<g opacity="0.3">
<path d="M225.315 308.982C225.315 310.377 224.184 311.508 222.789 311.508C221.394 311.508 220.263 310.377 220.263 308.982V288.3C220.263 286.92 221.408 285.819 222.789 285.819C224.17 285.819 225.315 286.92 225.315 288.302V308.982Z" fill="#262626"/>
<path d="M240.127 307.419C240.345 308.797 239.405 310.091 238.027 310.309C236.65 310.528 235.355 309.587 235.137 308.21L231.903 287.791C231.686 286.427 232.654 285.158 234.02 284.944C235.383 284.73 236.677 285.64 236.893 287.002L240.127 307.419Z" fill="#262626"/>
<path d="M208.682 287.002C208.897 285.639 210.192 284.729 211.555 284.943C212.921 285.158 213.889 286.427 213.672 287.792L210.439 308.209C210.221 309.587 208.927 310.527 207.549 310.309C206.171 310.09 205.23 308.796 205.449 307.418L208.682 287.002Z" fill="#262626"/>
<path d="M254.514 303.558C254.945 304.884 254.219 306.309 252.892 306.741C251.565 307.172 250.139 306.446 249.708 305.119L243.323 285.468C242.896 284.155 243.65 282.752 244.964 282.325C246.277 281.898 247.702 282.593 248.128 283.906L254.514 303.558Z" fill="#262626"/>
<path d="M197.446 283.906C197.873 282.593 199.297 281.898 200.611 282.325C201.924 282.751 202.678 284.154 202.251 285.467L195.867 305.118C195.436 306.445 194.011 307.171 192.684 306.74C191.357 306.309 190.631 304.884 191.062 303.557L197.446 283.906Z" fill="#262626"/>
<path d="M268.119 297.493C268.752 298.736 268.258 300.257 267.015 300.89C265.772 301.524 264.251 301.03 263.618 299.787L254.236 281.374C253.609 280.144 254.131 278.642 255.36 278.014C256.59 277.385 258.109 277.848 258.736 279.079L268.119 297.493Z" fill="#262626"/>
<path d="M186.839 279.079C187.466 277.848 188.985 277.385 190.215 278.014C191.444 278.642 191.966 280.143 191.34 281.373L181.958 299.786C181.325 301.029 179.804 301.524 178.561 300.89C177.318 300.257 176.824 298.736 177.457 297.492L186.839 279.079Z" fill="#262626"/>
<path d="M177.12 272.646C177.932 271.528 179.506 271.31 180.623 272.124C181.739 272.936 182.018 274.5 181.207 275.617L169.054 292.344C168.234 293.473 166.655 293.723 165.526 292.903C164.397 292.083 164.147 290.503 164.967 289.375L177.12 272.646Z" fill="#262626"/>
<path d="M280.609 289.375C281.429 290.503 281.179 292.083 280.051 292.903C278.922 293.723 277.341 293.473 276.521 292.344L264.369 275.617C263.557 274.501 263.837 272.937 264.953 272.124C266.069 271.311 267.643 271.529 268.456 272.647L280.609 289.375Z" fill="#262626"/>
<path d="M168.524 264.778C169.501 263.802 171.09 263.833 172.066 264.809C173.043 265.786 173.074 267.375 172.097 268.351L157.474 282.975C156.487 283.962 154.887 283.962 153.901 282.975C152.914 281.989 152.915 280.389 153.901 279.403L168.524 264.778Z" fill="#262626"/>
<path d="M291.674 279.403C292.661 280.389 292.661 281.988 291.674 282.975C290.688 283.961 289.089 283.961 288.102 282.975L273.478 268.351C272.502 267.375 272.533 265.786 273.509 264.81C274.485 263.833 276.074 263.802 277.05 264.779L291.674 279.403Z" fill="#262626"/>
<path d="M161.259 255.669C162.375 254.857 163.94 255.137 164.752 256.253C165.565 257.37 165.347 258.944 164.229 259.756L147.502 271.91C146.373 272.73 144.793 272.48 143.973 271.351C143.153 270.222 143.403 268.643 144.532 267.823L161.259 255.669Z" fill="#262626"/>
<path d="M301.044 267.822C302.172 268.642 302.423 270.222 301.603 271.35C300.783 272.479 299.202 272.729 298.074 271.909L281.347 259.756C280.229 258.944 280.011 257.37 280.824 256.253C281.636 255.137 283.2 254.858 284.317 255.669L301.044 267.822Z" fill="#262626"/>
<path d="M155.502 245.536C156.732 244.91 158.234 245.432 158.862 246.661C159.491 247.891 159.029 249.411 157.798 250.038L139.383 259.421C138.14 260.054 136.618 259.56 135.985 258.317C135.352 257.074 135.846 255.552 137.09 254.919L155.502 245.536Z" fill="#262626"/>
<path d="M308.486 254.918C309.729 255.552 310.223 257.073 309.589 258.316C308.956 259.559 307.435 260.053 306.192 259.42L287.779 250.038C286.548 249.411 286.086 247.891 286.714 246.661C287.342 245.432 288.844 244.91 290.073 245.536L308.486 254.918Z" fill="#262626"/>
<path d="M151.408 234.624C152.722 234.198 154.125 234.952 154.551 236.265C154.977 237.578 154.282 239.003 152.969 239.43L133.318 245.815C131.991 246.246 130.566 245.52 130.135 244.193C129.704 242.866 130.43 241.441 131.757 241.01L151.408 234.624Z" fill="#262626"/>
<path d="M313.818 241.01C315.144 241.441 315.871 242.867 315.44 244.193C315.008 245.52 313.583 246.246 312.256 245.815L292.606 239.43C291.293 239.004 290.598 237.579 291.025 236.266C291.452 234.952 292.855 234.198 294.168 234.625L313.818 241.01Z" fill="#262626"/>
<path d="M149.084 223.204C150.449 222.988 151.718 223.956 151.932 225.321C152.146 226.684 151.237 227.978 149.874 228.194L129.457 231.429C128.079 231.647 126.784 230.707 126.566 229.329C126.348 227.951 127.288 226.657 128.666 226.438L149.084 223.204Z" fill="#262626"/>
<path d="M316.908 226.438C318.286 226.657 319.226 227.951 319.008 229.329C318.79 230.707 317.496 231.647 316.118 231.429L295.703 228.195C294.34 227.979 293.43 226.684 293.644 225.321C293.859 223.956 295.128 222.988 296.493 223.204L316.908 226.438Z" fill="#262626"/>
<path d="M317.682 211.562C319.077 211.562 320.208 212.693 320.208 214.089C320.208 215.484 319.077 216.615 317.682 216.615H297.003C295.621 216.615 294.52 215.469 294.52 214.088C294.52 212.707 295.621 211.562 297.001 211.562H317.682Z" fill="#262626"/>
<path d="M148.576 211.562C149.957 211.562 151.057 212.707 151.057 214.088C151.057 215.469 149.956 216.615 148.575 216.615H127.893C126.498 216.615 125.367 215.484 125.367 214.089C125.367 212.693 126.498 211.562 127.893 211.562H148.576Z" fill="#262626"/>
<path d="M126.566 198.849C126.784 197.471 128.079 196.53 129.457 196.749L149.873 199.982C151.236 200.198 152.146 201.492 151.932 202.855C151.718 204.221 150.449 205.189 149.084 204.973L128.666 201.739C127.288 201.521 126.348 200.227 126.566 198.849Z" fill="#262626"/>
<path d="M316.118 196.749C317.496 196.531 318.79 197.471 319.008 198.849C319.226 200.227 318.286 201.521 316.908 201.739L296.492 204.972C295.127 205.188 293.859 204.22 293.644 202.855C293.43 201.492 294.34 200.198 295.703 199.982L316.118 196.749Z" fill="#262626"/>
<path d="M130.135 183.984C130.566 182.657 131.991 181.931 133.318 182.362L152.969 188.747C154.282 189.173 154.977 190.598 154.551 191.911C154.125 193.225 152.722 193.979 151.408 193.552L131.757 187.167C130.43 186.736 129.704 185.311 130.135 183.984Z" fill="#262626"/>
<path d="M312.256 182.363C313.583 181.932 315.008 182.658 315.44 183.985C315.871 185.311 315.144 186.736 313.818 187.168L294.168 193.552C292.855 193.978 291.452 193.224 291.025 191.911C290.599 190.598 291.293 189.174 292.606 188.747L312.256 182.363Z" fill="#262626"/>
<path d="M135.985 169.86C136.618 168.617 138.14 168.123 139.383 168.756L157.798 178.139C159.029 178.766 159.491 180.285 158.862 181.515C158.234 182.744 156.732 183.266 155.503 182.64L137.09 173.258C135.846 172.625 135.352 171.103 135.985 169.86Z" fill="#262626"/>
<path d="M306.192 168.757C307.435 168.124 308.956 168.618 309.589 169.861C310.223 171.104 309.729 172.626 308.486 173.259L290.073 182.64C288.844 183.266 287.342 182.744 286.714 181.515C286.086 180.284 286.548 178.765 287.779 178.138L306.192 168.757Z" fill="#262626"/>
<path d="M143.973 156.826C144.793 155.698 146.373 155.447 147.502 156.267L164.229 168.42C165.347 169.232 165.565 170.806 164.752 171.923C163.94 173.039 162.376 173.319 161.259 172.507L144.532 160.355C143.403 159.535 143.153 157.955 143.973 156.826Z" fill="#262626"/>
<path d="M298.074 156.268C299.202 155.448 300.783 155.698 301.603 156.827C302.423 157.955 302.172 159.535 301.044 160.355L284.318 172.507C283.201 173.318 281.637 173.038 280.824 171.923C280.011 170.806 280.229 169.232 281.347 168.42L298.074 156.268Z" fill="#262626"/>
<path d="M153.901 145.202C154.887 144.215 156.487 144.215 157.474 145.202L172.097 159.825C173.073 160.801 173.042 162.39 172.066 163.366C171.089 164.343 169.5 164.374 168.524 163.397L153.901 148.775C152.914 147.788 152.914 146.188 153.901 145.202Z" fill="#262626"/>
<path d="M288.102 145.203C289.089 144.216 290.688 144.216 291.674 145.203C292.661 146.189 292.661 147.788 291.674 148.775L277.05 163.397C276.074 164.374 274.485 164.343 273.509 163.366C272.533 162.39 272.502 160.801 273.478 159.825L288.102 145.203Z" fill="#262626"/>
<path d="M165.526 135.274C166.655 134.454 168.234 134.704 169.054 135.833L181.207 152.559C182.018 153.676 181.738 155.24 180.623 156.052C179.506 156.865 177.932 156.647 177.12 155.529L164.967 138.802C164.147 137.674 164.397 136.094 165.526 135.274Z" fill="#262626"/>
<path d="M276.521 135.833C277.341 134.704 278.922 134.454 280.051 135.274C281.179 136.094 281.429 137.674 280.609 138.802L268.456 155.529C267.644 156.647 266.07 156.865 264.953 156.052C263.837 155.239 263.558 153.675 264.369 152.558L276.521 135.833Z" fill="#262626"/>
<path d="M178.559 127.287C179.802 126.653 181.323 127.148 181.957 128.391L191.338 146.804C191.965 148.033 191.443 149.535 190.214 150.163C188.984 150.791 187.465 150.329 186.837 149.098L177.456 130.685C176.822 129.442 177.316 127.92 178.559 127.287Z" fill="#262626"/>
<path d="M263.619 128.39C264.253 127.147 265.773 126.653 267.016 127.287C268.26 127.92 268.754 129.441 268.12 130.684L258.738 149.097C258.111 150.328 256.591 150.79 255.361 150.162C254.132 149.534 253.61 148.032 254.236 146.803L263.619 128.39Z" fill="#262626"/>
<path d="M192.682 121.436C194.009 121.005 195.434 121.732 195.865 123.059L202.25 142.709C202.677 144.022 201.923 145.425 200.609 145.852C199.296 146.278 197.871 145.583 197.445 144.27L191.061 124.62C190.629 123.293 191.356 121.868 192.682 121.436Z" fill="#262626"/>
<path d="M249.71 123.058C250.141 121.731 251.567 121.005 252.893 121.436C254.22 121.867 254.946 123.293 254.515 124.62L248.13 144.27C247.703 145.583 246.278 146.277 244.965 145.851C243.652 145.424 242.898 144.021 243.324 142.708L249.71 123.058Z" fill="#262626"/>
<path d="M207.548 117.868C208.925 117.65 210.219 118.59 210.438 119.968L213.671 140.384C213.887 141.749 212.919 143.018 211.554 143.232C210.191 143.446 208.896 142.536 208.68 141.173L205.447 120.758C205.229 119.38 206.17 118.086 207.548 117.868Z" fill="#262626"/>
<path d="M235.138 119.967C235.357 118.589 236.651 117.649 238.029 117.867C239.407 118.085 240.347 119.38 240.129 120.758L236.895 141.173C236.679 142.536 235.384 143.446 234.021 143.232C232.656 143.017 231.688 141.748 231.904 140.383L235.138 119.967Z" fill="#262626"/>
<path d="M222.789 116.667C224.184 116.667 225.315 117.799 225.315 119.194V139.874C225.315 141.256 224.17 142.357 222.789 142.357C221.408 142.357 220.263 141.255 220.263 139.875V119.194C220.263 117.799 221.394 116.667 222.789 116.667Z" fill="#262626"/>
</g>
<path d="M56.5408 185.1H64.0062V231.43C64.0062 240.286 66.1654 247.203 70.4836 252.18C74.8751 257.083 81.0231 259.535 88.9277 259.535C93.9047 259.535 98.2229 258.584 101.882 256.681C105.615 254.705 108.47 251.997 110.446 248.557C112.495 245.117 113.447 241.164 113.3 236.7L111.434 185.1H118.899L117.033 236.7C116.74 245.483 114.105 252.143 109.128 256.681C104.225 261.219 97.1983 263.488 88.0494 263.488C78.1686 263.488 70.447 260.633 64.8845 254.924C59.322 249.142 56.5408 241.238 56.5408 231.211V185.1Z" fill="#262626"/>
<path d="M192.659 261.951L156.649 222.537L190.024 185.1H199.466L163.346 219.463L202.54 261.951H192.659ZM145.232 261.951V185.1H152.697V261.951H145.232Z" fill="#262626"/>
<path d="M218.994 261.951V185.1H226.46V261.951H218.994Z" fill="#262626"/>
<path d="M271.486 261.951V229.454L244.259 185.1H252.603L277.085 225.282H277.744L297.286 185.1H305.629L279.39 227.917V261.951H271.486Z" fill="#262626"/>
<path d="M313.535 223.526C313.535 217.89 314.523 212.657 316.499 207.826C318.548 202.922 321.366 198.677 324.953 195.091C328.612 191.431 332.857 188.614 337.688 186.637C342.592 184.588 347.861 183.563 353.497 183.563C359.133 183.563 364.366 184.588 369.196 186.637C374.1 188.614 378.345 191.431 381.932 195.091C385.591 198.677 388.409 202.922 390.385 207.826C392.434 212.657 393.459 217.89 393.459 223.526C393.459 229.161 392.434 234.431 390.385 239.335C388.409 244.165 385.591 248.41 381.932 252.07C378.345 255.656 374.1 258.474 369.196 260.523C364.366 262.5 359.133 263.488 353.497 263.488C347.861 263.488 342.592 262.5 337.688 260.523C332.857 258.474 328.612 255.656 324.953 252.07C321.366 248.41 318.548 244.165 316.499 239.335C314.523 234.431 313.535 229.161 313.535 223.526ZM321.879 223.526C321.879 230.991 323.196 237.542 325.831 243.177C328.466 248.74 332.162 253.095 336.919 256.242C341.677 259.316 347.203 260.853 353.497 260.853C359.791 260.853 365.317 259.316 370.075 256.242C374.832 253.095 378.528 248.703 381.163 243.067C383.798 237.432 385.115 230.918 385.115 223.526C385.115 216.133 383.798 209.656 381.163 204.093C378.528 198.458 374.832 194.066 370.075 190.919C365.317 187.772 359.791 186.198 353.497 186.198C347.203 186.198 341.677 187.772 336.919 190.919C332.235 193.993 328.539 198.348 325.831 203.984C323.196 209.546 321.879 216.06 321.879 223.526Z" fill="#262626"/>
<path d="M123.406 313.123C122.598 313.123 121.864 313.009 121.203 312.782C120.543 312.542 119.883 312.155 119.222 311.62L120.008 310.015C120.623 310.482 121.209 310.823 121.767 311.04C122.325 311.256 122.871 311.364 123.406 311.364C124.158 311.364 124.733 311.216 125.131 310.92C125.541 310.624 125.746 310.208 125.746 309.673C125.746 309.309 125.621 308.996 125.37 308.734C125.12 308.472 124.75 308.296 124.26 308.205L122.536 307.88C121.488 307.687 120.731 307.339 120.264 306.838C119.797 306.326 119.564 305.706 119.564 304.977C119.564 304.305 119.712 303.702 120.008 303.167C120.304 302.62 120.754 302.188 121.357 301.869C121.961 301.539 122.729 301.374 123.663 301.374C124.334 301.374 124.989 301.465 125.627 301.647C126.264 301.829 126.896 302.159 127.522 302.637L126.737 304.243C126.213 303.901 125.706 303.633 125.217 303.44C124.727 303.235 124.226 303.133 123.714 303.133C123.031 303.133 122.518 303.275 122.177 303.559C121.847 303.833 121.682 304.208 121.682 304.687C121.682 305.051 121.807 305.341 122.057 305.558C122.308 305.774 122.678 305.928 123.167 306.019L124.892 306.343C125.928 306.537 126.68 306.924 127.147 307.504C127.625 308.085 127.864 308.734 127.864 309.451C127.864 310.567 127.482 311.461 126.72 312.133C125.957 312.793 124.852 313.123 123.406 313.123Z" fill="#262626"/>
<path d="M134.743 313.123C133.217 313.123 132.016 312.73 131.139 311.945C130.274 311.159 129.841 309.935 129.841 308.273V301.544H131.925V308.273C131.925 308.967 132.033 309.542 132.249 309.998C132.466 310.442 132.784 310.772 133.206 310.988C133.627 311.205 134.139 311.313 134.743 311.313C135.346 311.313 135.858 311.205 136.28 310.988C136.701 310.772 137.02 310.442 137.236 309.998C137.452 309.542 137.561 308.967 137.561 308.273V301.544H139.644V308.273C139.644 309.935 139.206 311.159 138.329 311.945C137.464 312.73 136.268 313.123 134.743 313.123Z" fill="#262626"/>
<path d="M145.804 313.123C144.996 313.123 144.262 313.009 143.601 312.782C142.941 312.542 142.281 312.155 141.62 311.62L142.406 310.015C143.021 310.482 143.607 310.823 144.165 311.04C144.723 311.256 145.269 311.364 145.804 311.364C146.556 311.364 147.131 311.216 147.529 310.92C147.939 310.624 148.144 310.208 148.144 309.673C148.144 309.309 148.019 308.996 147.768 308.734C147.518 308.472 147.148 308.296 146.658 308.205L144.934 307.88C143.886 307.687 143.129 307.339 142.662 306.838C142.195 306.326 141.962 305.706 141.962 304.977C141.962 304.305 142.11 303.702 142.406 303.167C142.702 302.62 143.152 302.188 143.755 301.869C144.359 301.539 145.127 301.374 146.061 301.374C146.732 301.374 147.387 301.465 148.025 301.647C148.662 301.829 149.294 302.159 149.92 302.637L149.135 304.243C148.611 303.901 148.104 303.633 147.615 303.44C147.125 303.235 146.624 303.133 146.112 303.133C145.429 303.133 144.916 303.275 144.575 303.559C144.245 303.833 144.08 304.208 144.08 304.687C144.08 305.051 144.205 305.341 144.455 305.558C144.706 305.774 145.076 305.928 145.565 306.019L147.29 306.343C148.326 306.537 149.078 306.924 149.545 307.504C150.023 308.085 150.262 308.734 150.262 309.451C150.262 310.567 149.88 311.461 149.118 312.133C148.355 312.793 147.25 313.123 145.804 313.123Z" fill="#262626"/>
<path d="M152.239 312.952V301.544H154.323V306.172H159.959V301.544H162.042V312.952H159.959V307.983H154.323V312.952H152.239Z" fill="#262626"/>
<path d="M164.531 312.952V301.544H166.614V312.952H164.531Z" fill="#262626"/>
<path d="M282.108 312.952V301.544H287.521C288.421 301.544 289.172 301.647 289.776 301.852C290.391 302.045 290.852 302.358 291.159 302.791C291.478 303.224 291.637 303.793 291.637 304.499C291.637 305.148 291.495 305.689 291.21 306.121C290.926 306.554 290.459 306.867 289.81 307.06C290.573 307.254 291.125 307.584 291.466 308.051C291.808 308.506 291.979 309.098 291.979 309.827C291.979 310.931 291.614 311.728 290.886 312.218C290.157 312.708 289.036 312.952 287.521 312.952H282.108ZM284.191 311.262H287.248C287.897 311.262 288.41 311.205 288.785 311.091C289.172 310.977 289.446 310.795 289.605 310.544C289.776 310.294 289.861 309.969 289.861 309.571C289.861 309.161 289.776 308.837 289.605 308.597C289.446 308.347 289.172 308.165 288.785 308.051C288.41 307.937 287.897 307.88 287.248 307.88H284.191V311.262ZM284.191 306.275H287.248C288.091 306.275 288.677 306.161 289.007 305.933C289.349 305.706 289.52 305.313 289.52 304.755C289.52 304.197 289.354 303.804 289.024 303.577C288.694 303.349 288.102 303.235 287.248 303.235H284.191V306.275Z" fill="#262626"/>
<path d="M292.56 312.952L297.102 301.544H299.374L303.916 312.952H301.662L300.825 310.749H295.634L294.797 312.952H292.56ZM296.231 309.041H300.245L298.247 303.713L296.231 309.041Z" fill="#262626"/>
<path d="M305.506 312.952V301.544H310.22C311.609 301.544 312.668 301.835 313.396 302.415C314.136 302.985 314.506 303.85 314.506 305.011C314.506 305.979 314.256 306.725 313.755 307.248C313.265 307.772 312.565 308.131 311.654 308.324L315.087 312.952H312.645L309.503 308.478H307.59V312.952H305.506ZM307.59 306.804H309.861C310.727 306.804 311.364 306.668 311.774 306.394C312.195 306.11 312.406 305.654 312.406 305.028C312.406 304.379 312.207 303.918 311.808 303.645C311.41 303.372 310.761 303.235 309.861 303.235H307.59V306.804Z" fill="#262626"/>
<path d="M123.515 333.332C122.707 333.332 121.972 333.219 121.312 332.991C120.652 332.752 119.991 332.365 119.331 331.83L120.116 330.224C120.731 330.691 121.318 331.033 121.875 331.249C122.433 331.465 122.98 331.573 123.515 331.573C124.266 331.573 124.841 331.425 125.24 331.129C125.65 330.833 125.855 330.418 125.855 329.883C125.855 329.518 125.729 329.205 125.479 328.943C125.228 328.682 124.858 328.505 124.369 328.414L122.644 328.09C121.596 327.896 120.839 327.549 120.373 327.048C119.906 326.535 119.672 325.915 119.672 325.186C119.672 324.515 119.82 323.911 120.116 323.376C120.412 322.83 120.862 322.397 121.466 322.078C122.069 321.748 122.837 321.583 123.771 321.583C124.443 321.583 125.097 321.674 125.735 321.856C126.373 322.038 127.004 322.368 127.631 322.847L126.845 324.452C126.321 324.11 125.815 323.843 125.325 323.649C124.836 323.444 124.335 323.342 123.822 323.342C123.139 323.342 122.627 323.484 122.285 323.769C121.955 324.042 121.79 324.418 121.79 324.896C121.79 325.26 121.915 325.551 122.166 325.767C122.416 325.983 122.786 326.137 123.276 326.228L125.001 326.553C126.037 326.746 126.788 327.133 127.255 327.714C127.733 328.294 127.972 328.943 127.972 329.661C127.972 330.776 127.591 331.67 126.828 332.342C126.065 333.002 124.961 333.332 123.515 333.332Z" fill="#262626"/>
<path d="M132.268 333.162V323.564H128.836V321.754H137.785V323.564H134.352V333.162H132.268Z" fill="#262626"/>
<path d="M139.74 333.162V321.754H144.453C145.842 321.754 146.901 322.044 147.629 322.625C148.37 323.194 148.74 324.059 148.74 325.22C148.74 326.188 148.489 326.934 147.988 327.458C147.499 327.981 146.798 328.34 145.888 328.534L149.32 333.162H146.878L143.736 328.687H141.823V333.162H139.74ZM141.823 327.014H144.094C144.96 327.014 145.597 326.877 146.007 326.604C146.428 326.319 146.639 325.864 146.639 325.238C146.639 324.589 146.44 324.127 146.041 323.854C145.643 323.581 144.994 323.444 144.094 323.444H141.823V327.014Z" fill="#262626"/>
<path d="M149.808 333.162L154.351 321.754H156.622L161.165 333.162H158.91L158.074 330.959H152.882L152.045 333.162H149.808ZM153.48 329.251H157.493L155.495 323.923L153.48 329.251Z" fill="#262626"/>
<path d="M162.755 333.162V321.754H164.838V333.162H162.755Z" fill="#262626"/>
<path d="M172.738 333.332C171.531 333.332 170.478 333.082 169.579 332.581C168.69 332.069 168.007 331.374 167.529 330.498C167.051 329.609 166.812 328.596 166.812 327.458C166.812 326.319 167.051 325.312 167.529 324.435C168.019 323.547 168.708 322.852 169.596 322.351C170.484 321.839 171.531 321.583 172.738 321.583C173.524 321.583 174.275 321.691 174.992 321.907C175.709 322.112 176.37 322.431 176.973 322.864L176.205 324.435C175.658 324.105 175.095 323.849 174.514 323.666C173.933 323.484 173.341 323.393 172.738 323.393C171.975 323.393 171.303 323.564 170.723 323.905C170.153 324.247 169.709 324.725 169.391 325.34C169.083 325.943 168.93 326.649 168.93 327.458C168.93 328.255 169.083 328.961 169.391 329.575C169.709 330.19 170.153 330.668 170.723 331.01C171.303 331.351 171.975 331.522 172.738 331.522C173.341 331.522 173.882 331.42 174.36 331.215C174.839 330.998 175.237 330.697 175.556 330.31V328.448H172.567V326.775H177.639V330.993C177.127 331.733 176.455 332.308 175.624 332.718C174.804 333.128 173.842 333.332 172.738 333.332Z" fill="#262626"/>
<path d="M179.799 333.162V321.754H181.883V326.382H187.518V321.754H189.602V333.162H187.518V328.192H181.883V333.162H179.799Z" fill="#262626"/>
<path d="M194.96 333.162V323.564H191.527V321.754H200.476V323.564H197.043V333.162H194.96Z" fill="#262626"/>
<path d="M206.467 333.162V321.754H214.561V323.513H208.55V326.467H214.049V328.107H208.55V333.162H206.467Z" fill="#262626"/>
<path d="M216.506 333.162V321.754H221.22C222.609 321.754 223.668 322.044 224.396 322.625C225.136 323.194 225.507 324.059 225.507 325.22C225.507 326.188 225.256 326.934 224.755 327.458C224.266 327.981 223.565 328.34 222.655 328.534L226.087 333.162H223.645L220.503 328.687H218.59V333.162H216.506ZM218.59 327.014H220.861C221.727 327.014 222.364 326.877 222.774 326.604C223.195 326.319 223.406 325.864 223.406 325.238C223.406 324.589 223.207 324.127 222.808 323.854C222.41 323.581 221.761 323.444 220.861 323.444H218.59V327.014Z" fill="#262626"/>
<path d="M232.911 333.332C231.704 333.332 230.656 333.082 229.768 332.581C228.88 332.069 228.192 331.374 227.702 330.498C227.224 329.609 226.985 328.596 226.985 327.458C226.985 326.319 227.224 325.312 227.702 324.435C228.192 323.547 228.88 322.852 229.768 322.351C230.656 321.839 231.704 321.583 232.911 321.583C234.118 321.583 235.165 321.839 236.053 322.351C236.941 322.852 237.624 323.547 238.102 324.435C238.592 325.312 238.837 326.319 238.837 327.458C238.837 328.596 238.592 329.609 238.102 330.498C237.624 331.374 236.941 332.069 236.053 332.581C235.165 333.082 234.118 333.332 232.911 333.332ZM232.928 331.522C233.691 331.522 234.357 331.351 234.926 331.01C235.495 330.668 235.933 330.19 236.241 329.575C236.56 328.961 236.719 328.255 236.719 327.458C236.719 326.649 236.56 325.943 236.241 325.34C235.933 324.725 235.495 324.247 234.926 323.905C234.357 323.564 233.685 323.393 232.911 323.393C232.148 323.393 231.476 323.564 230.896 323.905C230.326 324.247 229.882 324.725 229.563 325.34C229.256 325.943 229.102 326.649 229.102 327.458C229.102 328.255 229.256 328.961 229.563 329.575C229.882 330.19 230.326 330.668 230.896 331.01C231.476 331.351 232.154 331.522 232.928 331.522Z" fill="#262626"/>
<path d="M240.822 333.162V321.754H244.101L247.312 330.6L250.54 321.754H253.819V333.162H251.735V323.718L248.217 333.162H246.424L242.906 323.718V333.162H240.822Z" fill="#262626"/>
<path d="M263.238 333.162V323.564H259.805V321.754H268.754V323.564H265.321V333.162H263.238Z" fill="#262626"/>
<path d="M274.805 333.332C273.598 333.332 272.551 333.082 271.662 332.581C270.774 332.069 270.086 331.374 269.596 330.498C269.118 329.609 268.879 328.596 268.879 327.458C268.879 326.319 269.118 325.312 269.596 324.435C270.086 323.547 270.774 322.852 271.662 322.351C272.551 321.839 273.598 321.583 274.805 321.583C276.012 321.583 277.059 321.839 277.947 322.351C278.835 322.852 279.518 323.547 279.996 324.435C280.486 325.312 280.731 326.319 280.731 327.458C280.731 328.596 280.486 329.609 279.996 330.498C279.518 331.374 278.835 332.069 277.947 332.581C277.059 333.082 276.012 333.332 274.805 333.332ZM274.822 331.522C275.585 331.522 276.251 331.351 276.82 331.01C277.389 330.668 277.828 330.19 278.135 329.575C278.454 328.961 278.613 328.255 278.613 327.458C278.613 326.649 278.454 325.943 278.135 325.34C277.828 324.725 277.389 324.247 276.82 323.905C276.251 323.564 275.579 323.393 274.805 323.393C274.042 323.393 273.37 323.564 272.79 323.905C272.22 324.247 271.776 324.725 271.458 325.34C271.15 325.943 270.996 326.649 270.996 327.458C270.996 328.255 271.15 328.961 271.458 329.575C271.776 330.19 272.22 330.668 272.79 331.01C273.37 331.351 274.048 331.522 274.822 331.522Z" fill="#262626"/>
<path d="M282.717 333.162V321.754H284.8V327.202L289.548 321.754H292.024L287.601 326.74L292.195 333.162H289.718L286.286 328.226L284.8 329.9V333.162H282.717Z" fill="#262626"/>
<path d="M297.326 333.162V328.807L292.868 321.754H295.31L298.384 326.86L301.441 321.754H303.883L299.426 328.807V333.162H297.326Z" fill="#262626"/>
<path d="M308.477 333.332C307.27 333.332 306.223 333.082 305.335 332.581C304.446 332.069 303.758 331.374 303.268 330.498C302.79 329.609 302.551 328.596 302.551 327.458C302.551 326.319 302.79 325.312 303.268 324.435C303.758 323.547 304.446 322.852 305.335 322.351C306.223 321.839 307.27 321.583 308.477 321.583C309.684 321.583 310.731 321.839 311.619 322.351C312.507 322.852 313.19 323.547 313.669 324.435C314.158 325.312 314.403 326.319 314.403 327.458C314.403 328.596 314.158 329.609 313.669 330.498C313.19 331.374 312.507 332.069 311.619 332.581C310.731 333.082 309.684 333.332 308.477 333.332ZM308.494 331.522C309.257 331.522 309.923 331.351 310.492 331.01C311.061 330.668 311.5 330.19 311.807 329.575C312.126 328.961 312.285 328.255 312.285 327.458C312.285 326.649 312.126 325.943 311.807 325.34C311.5 324.725 311.061 324.247 310.492 323.905C309.923 323.564 309.251 323.393 308.477 323.393C307.714 323.393 307.042 323.564 306.462 323.905C305.892 324.247 305.448 324.725 305.13 325.34C304.822 325.943 304.668 326.649 304.668 327.458C304.668 328.255 304.822 328.961 305.13 329.575C305.448 330.19 305.892 330.668 306.462 331.01C307.042 331.351 307.72 331.522 308.494 331.522Z" fill="#262626"/>
</svg>
