<svg width="450" height="450" viewBox="0 0 450 450" fill="none" xmlns="http://www.w3.org/2000/svg">
<rect x="0.5" y="0.5" width="449" height="449" fill="#EAEAEA"/>
<rect x="0.5" y="0.5" width="449" height="449" stroke="#262626"/>
<path d="M218.143 192.206L229.115 208.808V192.052C229.115 190.963 229.346 190.15 229.807 189.612C230.281 189.061 230.915 188.786 231.71 188.786C232.529 188.786 233.176 189.061 233.65 189.612C234.124 190.15 234.361 190.963 234.361 192.052V214.208C234.361 216.68 233.336 217.916 231.287 217.916C230.774 217.916 230.313 217.839 229.903 217.686C229.493 217.545 229.109 217.314 228.75 216.994C228.392 216.674 228.059 216.302 227.751 215.879C227.444 215.444 227.136 215.002 226.829 214.554L216.126 198.144V214.65C216.126 215.726 215.876 216.539 215.376 217.09C214.877 217.641 214.236 217.916 213.455 217.916C212.648 217.916 212.001 217.641 211.514 217.09C211.027 216.526 210.784 215.713 210.784 214.65V192.917C210.784 191.995 210.886 191.271 211.091 190.746C211.335 190.169 211.738 189.701 212.302 189.343C212.865 188.971 213.474 188.786 214.127 188.786C214.64 188.786 215.075 188.869 215.434 189.035C215.805 189.202 216.126 189.426 216.395 189.708C216.677 189.99 216.958 190.355 217.24 190.803C217.535 191.252 217.836 191.719 218.143 192.206Z" fill="#262626"/>
<path d="M246.352 192.244V200.315H258.669V192.244C258.669 191.091 258.925 190.227 259.438 189.65C259.963 189.074 260.648 188.786 261.494 188.786C262.352 188.786 263.044 189.074 263.569 189.65C264.107 190.214 264.376 191.079 264.376 192.244V214.438C264.376 215.604 264.107 216.475 263.569 217.052C263.031 217.628 262.339 217.916 261.494 217.916C260.635 217.916 259.95 217.628 259.438 217.052C258.925 216.462 258.669 215.591 258.669 214.438V204.965H246.352V214.438C246.352 215.604 246.083 216.475 245.545 217.052C245.007 217.628 244.315 217.916 243.469 217.916C242.611 217.916 241.926 217.628 241.413 217.052C240.901 216.462 240.645 215.591 240.645 214.438V192.244C240.645 191.091 240.895 190.227 241.394 189.65C241.907 189.074 242.598 188.786 243.469 188.786C244.328 188.786 245.02 189.074 245.545 189.65C246.083 190.214 246.352 191.079 246.352 192.244Z" fill="#262626"/>
<path d="M288.53 214.246L287.185 210.711H275.732L274.387 214.323C273.862 215.732 273.414 216.687 273.042 217.186C272.671 217.673 272.062 217.916 271.217 217.916C270.499 217.916 269.865 217.654 269.314 217.129C268.764 216.603 268.488 216.008 268.488 215.341C268.488 214.957 268.552 214.56 268.68 214.15C268.808 213.74 269.02 213.17 269.314 212.44L276.52 194.147C276.725 193.621 276.969 192.994 277.25 192.264C277.545 191.521 277.853 190.906 278.173 190.419C278.506 189.932 278.935 189.541 279.46 189.247C279.998 188.939 280.658 188.786 281.439 188.786C282.234 188.786 282.893 188.939 283.419 189.247C283.957 189.541 284.386 189.926 284.706 190.4C285.039 190.874 285.315 191.386 285.532 191.937C285.763 192.475 286.051 193.199 286.397 194.108L293.757 212.286C294.333 213.67 294.621 214.675 294.621 215.303C294.621 215.956 294.346 216.558 293.795 217.109C293.257 217.647 292.604 217.916 291.835 217.916C291.387 217.916 291.002 217.833 290.682 217.667C290.362 217.513 290.093 217.301 289.875 217.032C289.657 216.751 289.42 216.328 289.164 215.764C288.921 215.188 288.709 214.682 288.53 214.246ZM277.231 206.425H285.648L281.401 194.8L277.231 206.425ZM282.15 184.097L283.015 185.711C283.361 186.262 283.534 186.64 283.534 186.845C283.534 187.165 283.259 187.325 282.708 187.325C281.862 187.325 281.074 187.139 280.344 186.768C279.986 186.589 279.102 185.826 277.692 184.481C276.283 183.136 275.579 182.38 275.579 182.214C275.579 182.022 275.905 181.926 276.559 181.926H279.153C279.909 181.926 280.479 182.06 280.863 182.329C281.247 182.598 281.676 183.187 282.15 184.097Z" fill="#262626"/>
<path d="M318.18 213.189L313.664 195.242V214.688C313.664 215.764 313.421 216.571 312.934 217.109C312.46 217.647 311.826 217.916 311.031 217.916C310.263 217.916 309.635 217.654 309.148 217.129C308.662 216.59 308.418 215.777 308.418 214.688V192.398C308.418 191.168 308.738 190.342 309.379 189.919C310.019 189.484 310.884 189.266 311.973 189.266H313.741C314.804 189.266 315.573 189.362 316.047 189.554C316.534 189.746 316.892 190.092 317.123 190.592C317.353 191.091 317.616 191.905 317.911 193.032L322.004 208.462L326.096 193.032C326.391 191.905 326.654 191.091 326.884 190.592C327.115 190.092 327.467 189.746 327.941 189.554C328.428 189.362 329.203 189.266 330.266 189.266H332.034C333.123 189.266 333.988 189.484 334.628 189.919C335.269 190.342 335.589 191.168 335.589 192.398V214.688C335.589 215.764 335.346 216.571 334.859 217.109C334.385 217.647 333.744 217.916 332.937 217.916C332.181 217.916 331.56 217.647 331.073 217.109C330.587 216.571 330.343 215.764 330.343 214.688V195.242L325.827 213.189C325.533 214.355 325.289 215.213 325.097 215.764C324.918 216.302 324.578 216.795 324.079 217.244C323.579 217.692 322.887 217.916 322.004 217.916C321.337 217.916 320.774 217.769 320.313 217.474C319.851 217.193 319.493 216.827 319.237 216.379C318.98 215.931 318.775 215.438 318.622 214.899C318.481 214.349 318.333 213.779 318.18 213.189Z" fill="#262626"/>
<path d="M360.012 193.666H347.157V200.584H358.994C359.865 200.584 360.512 200.782 360.934 201.18C361.37 201.564 361.588 202.076 361.588 202.717C361.588 203.357 361.376 203.883 360.954 204.292C360.531 204.69 359.877 204.888 358.994 204.888H347.157V212.901H360.454C361.351 212.901 362.023 213.112 362.472 213.535C362.933 213.945 363.163 214.496 363.163 215.188C363.163 215.854 362.933 216.398 362.472 216.821C362.023 217.231 361.351 217.436 360.454 217.436H344.947C343.704 217.436 342.808 217.161 342.257 216.61C341.719 216.059 341.45 215.169 341.45 213.939V192.763C341.45 191.943 341.571 191.277 341.815 190.765C342.058 190.24 342.436 189.862 342.949 189.631C343.474 189.388 344.14 189.266 344.947 189.266H360.012C360.922 189.266 361.594 189.471 362.03 189.881C362.478 190.278 362.702 190.803 362.702 191.456C362.702 192.123 362.478 192.661 362.03 193.071C361.594 193.468 360.922 193.666 360.012 193.666ZM353.094 184.097L353.959 185.711C354.305 186.262 354.478 186.64 354.478 186.845C354.478 187.165 354.202 187.325 353.652 187.325C352.806 187.325 352.018 187.139 351.288 186.768C350.929 186.589 350.046 185.826 348.636 184.481C347.227 183.136 346.523 182.38 346.523 182.214C346.523 182.022 346.849 181.926 347.503 181.926H350.097C350.853 181.926 351.423 182.06 351.807 182.329C352.191 182.598 352.62 183.187 353.094 184.097Z" fill="#262626"/>
<path d="M380.092 188.786C383.013 188.786 385.517 189.381 387.606 190.573C389.706 191.751 391.295 193.436 392.371 195.626C393.447 197.804 393.985 200.366 393.985 203.313C393.985 205.49 393.69 207.469 393.101 209.25C392.512 211.031 391.628 212.574 390.449 213.881C389.271 215.188 387.823 216.187 386.107 216.879C384.39 217.57 382.424 217.916 380.208 217.916C378.004 217.916 376.031 217.564 374.289 216.859C372.547 216.142 371.093 215.136 369.927 213.843C368.762 212.549 367.878 210.992 367.275 209.173C366.686 207.354 366.392 205.388 366.392 203.274C366.392 201.109 366.699 199.124 367.314 197.317C367.942 195.511 368.845 193.974 370.023 192.706C371.202 191.437 372.637 190.47 374.328 189.804C376.019 189.125 377.94 188.786 380.092 188.786ZM388.201 203.274C388.201 201.212 387.868 199.425 387.202 197.913C386.536 196.401 385.582 195.261 384.339 194.493C383.109 193.711 381.694 193.32 380.092 193.32C378.952 193.32 377.895 193.538 376.922 193.974C375.961 194.396 375.128 195.018 374.424 195.838C373.732 196.658 373.181 197.708 372.771 198.989C372.374 200.257 372.175 201.686 372.175 203.274C372.175 204.875 372.374 206.323 372.771 207.617C373.181 208.911 373.751 209.987 374.481 210.845C375.224 211.69 376.07 212.325 377.018 212.747C377.979 213.17 379.029 213.381 380.169 213.381C381.629 213.381 382.968 213.016 384.185 212.286C385.415 211.556 386.389 210.429 387.106 208.904C387.836 207.38 388.201 205.503 388.201 203.274Z" fill="#262626"/>
<path d="M220.219 257.674L215.703 239.727V259.173C215.703 260.249 215.46 261.056 214.973 261.594C214.499 262.132 213.865 262.401 213.07 262.401C212.302 262.401 211.674 262.139 211.187 261.613C210.701 261.075 210.457 260.262 210.457 259.173V236.883C210.457 235.653 210.777 234.827 211.418 234.404C212.058 233.969 212.923 233.751 214.012 233.751H215.78C216.843 233.751 217.612 233.847 218.086 234.039C218.573 234.231 218.931 234.577 219.162 235.077C219.392 235.576 219.655 236.39 219.95 237.517L224.043 252.947L228.135 237.517C228.43 236.39 228.693 235.576 228.923 235.077C229.154 234.577 229.506 234.231 229.98 234.039C230.467 233.847 231.242 233.751 232.305 233.751H234.073C235.162 233.751 236.027 233.969 236.667 234.404C237.308 234.827 237.628 235.653 237.628 236.883V259.173C237.628 260.249 237.385 261.056 236.898 261.594C236.424 262.132 235.783 262.401 234.976 262.401C234.22 262.401 233.599 262.132 233.112 261.594C232.625 261.056 232.382 260.249 232.382 259.173V239.727L227.866 257.674C227.572 258.84 227.328 259.698 227.136 260.249C226.957 260.787 226.617 261.28 226.118 261.729C225.618 262.177 224.926 262.401 224.043 262.401C223.376 262.401 222.813 262.254 222.352 261.959C221.89 261.677 221.532 261.312 221.275 260.864C221.019 260.416 220.814 259.922 220.661 259.384C220.52 258.834 220.372 258.263 220.219 257.674Z" fill="#262626"/>
<path d="M255.883 233.27C258.804 233.27 261.308 233.866 263.396 235.057C265.497 236.236 267.085 237.921 268.162 240.111C269.238 242.289 269.776 244.851 269.776 247.797C269.776 249.975 269.481 251.954 268.892 253.735C268.302 255.516 267.419 257.059 266.24 258.366C265.061 259.673 263.614 260.672 261.897 261.364C260.181 262.055 258.214 262.401 255.998 262.401C253.795 262.401 251.822 262.049 250.08 261.344C248.337 260.627 246.883 259.621 245.718 258.328C244.552 257.034 243.668 255.477 243.066 253.658C242.477 251.839 242.182 249.873 242.182 247.759C242.182 245.594 242.49 243.608 243.104 241.802C243.732 239.996 244.635 238.459 245.814 237.19C246.992 235.922 248.427 234.955 250.118 234.289C251.809 233.61 253.731 233.27 255.883 233.27ZM263.992 247.759C263.992 245.697 263.659 243.909 262.993 242.398C262.326 240.886 261.372 239.746 260.129 238.977C258.9 238.196 257.484 237.805 255.883 237.805C254.743 237.805 253.686 238.023 252.712 238.459C251.751 238.881 250.919 239.503 250.214 240.323C249.522 241.142 248.972 242.193 248.562 243.474C248.165 244.742 247.966 246.17 247.966 247.759C247.966 249.36 248.165 250.808 248.562 252.102C248.972 253.396 249.542 254.472 250.272 255.33C251.015 256.175 251.86 256.81 252.808 257.232C253.769 257.655 254.82 257.866 255.96 257.866C257.42 257.866 258.759 257.501 259.976 256.771C261.205 256.041 262.179 254.914 262.896 253.389C263.627 251.865 263.992 249.988 263.992 247.759ZM258.515 230.35L256.594 228.101L254.672 230.35C254.134 230.99 253.769 231.381 253.577 231.522C253.385 231.663 253.026 231.733 252.501 231.733H250.964C250.438 231.733 250.176 231.644 250.176 231.464C250.176 231.323 250.374 231.003 250.771 230.503L252.904 227.948C253.084 227.73 253.289 227.48 253.519 227.198C253.75 226.904 253.948 226.699 254.115 226.583C254.294 226.455 254.55 226.359 254.884 226.295C255.217 226.218 255.601 226.18 256.036 226.18H257.113C257.958 226.18 258.535 226.282 258.842 226.487C259.162 226.692 259.63 227.179 260.245 227.948L262.454 230.542C262.826 231.029 263.012 231.317 263.012 231.407C263.012 231.624 262.724 231.733 262.147 231.733H260.687C260.302 231.733 259.995 231.682 259.764 231.579C259.547 231.464 259.335 231.291 259.13 231.061C258.925 230.83 258.72 230.593 258.515 230.35Z" fill="#262626"/>
<path d="M308.495 253.024C308.495 253.921 308.271 254.894 307.822 255.945C307.387 256.982 306.695 258.007 305.747 259.019C304.799 260.019 303.589 260.832 302.115 261.46C300.642 262.087 298.926 262.401 296.966 262.401C295.48 262.401 294.128 262.26 292.911 261.979C291.694 261.697 290.586 261.261 289.587 260.672C288.6 260.07 287.691 259.282 286.858 258.308C286.115 257.424 285.481 256.438 284.956 255.349C284.431 254.247 284.034 253.075 283.765 251.833C283.508 250.59 283.38 249.271 283.38 247.874C283.38 245.607 283.707 243.576 284.36 241.783C285.026 239.989 285.974 238.459 287.204 237.19C288.434 235.909 289.875 234.936 291.528 234.27C293.18 233.604 294.942 233.27 296.812 233.27C299.092 233.27 301.123 233.725 302.903 234.635C304.684 235.544 306.048 236.672 306.996 238.017C307.944 239.349 308.418 240.611 308.418 241.802C308.418 242.455 308.188 243.032 307.726 243.532C307.265 244.031 306.708 244.281 306.055 244.281C305.324 244.281 304.774 244.108 304.402 243.762C304.043 243.416 303.64 242.821 303.191 241.975C302.449 240.579 301.571 239.535 300.559 238.843C299.56 238.151 298.324 237.805 296.85 237.805C294.506 237.805 292.636 238.696 291.239 240.476C289.856 242.257 289.164 244.787 289.164 248.066C289.164 250.257 289.472 252.082 290.086 253.543C290.701 254.99 291.572 256.073 292.7 256.79C293.827 257.508 295.147 257.866 296.658 257.866C298.298 257.866 299.681 257.463 300.809 256.656C301.949 255.836 302.807 254.638 303.384 253.062C303.627 252.319 303.928 251.717 304.287 251.256C304.646 250.782 305.222 250.545 306.016 250.545C306.695 250.545 307.278 250.782 307.765 251.256C308.252 251.73 308.495 252.319 308.495 253.024Z" fill="#262626"/>
<path d="M326.02 233.27C328.94 233.27 331.445 233.866 333.533 235.057C335.634 236.236 337.222 237.921 338.298 240.111C339.374 242.289 339.912 244.851 339.912 247.797C339.912 249.975 339.618 251.954 339.029 253.735C338.439 255.516 337.555 257.059 336.377 258.366C335.198 259.673 333.751 260.672 332.034 261.364C330.318 262.055 328.351 262.401 326.135 262.401C323.932 262.401 321.959 262.049 320.217 261.344C318.474 260.627 317.02 259.621 315.855 258.328C314.689 257.034 313.805 255.477 313.203 253.658C312.614 251.839 312.319 249.873 312.319 247.759C312.319 245.594 312.626 243.608 313.241 241.802C313.869 239.996 314.772 238.459 315.951 237.19C317.129 235.922 318.564 234.955 320.255 234.289C321.946 233.61 323.867 233.27 326.02 233.27ZM334.129 247.759C334.129 245.697 333.796 243.909 333.129 242.398C332.463 240.886 331.509 239.746 330.266 238.977C329.036 238.196 327.621 237.805 326.02 237.805C324.88 237.805 323.823 238.023 322.849 238.459C321.888 238.881 321.056 239.503 320.351 240.323C319.659 241.142 319.108 242.193 318.698 243.474C318.301 244.742 318.103 246.17 318.103 247.759C318.103 249.36 318.301 250.808 318.698 252.102C319.108 253.396 319.678 254.472 320.409 255.33C321.152 256.175 321.997 256.81 322.945 257.232C323.906 257.655 324.956 257.866 326.096 257.866C327.557 257.866 328.896 257.501 330.113 256.771C331.342 256.041 332.316 254.914 333.033 253.389C333.763 251.865 334.129 249.988 334.129 247.759ZM328.652 230.35L326.731 228.101L324.809 230.35C324.271 230.99 323.906 231.381 323.714 231.522C323.522 231.663 323.163 231.733 322.638 231.733H321.1C320.575 231.733 320.313 231.644 320.313 231.464C320.313 231.323 320.511 231.003 320.908 230.503L323.041 227.948C323.221 227.73 323.426 227.48 323.656 227.198C323.887 226.904 324.085 226.699 324.252 226.583C324.431 226.455 324.687 226.359 325.02 226.295C325.353 226.218 325.738 226.18 326.173 226.18H327.249C328.095 226.18 328.671 226.282 328.979 226.487C329.299 226.692 329.767 227.179 330.382 227.948L332.591 230.542C332.963 231.029 333.149 231.317 333.149 231.407C333.149 231.624 332.86 231.733 332.284 231.733H330.824C330.439 231.733 330.132 231.682 329.901 231.579C329.683 231.464 329.472 231.291 329.267 231.061C329.062 230.83 328.857 230.593 328.652 230.35Z" fill="#262626"/>
<path d="M345.024 258.923V236.729C345.024 235.576 345.286 234.712 345.812 234.135C346.337 233.559 347.016 233.27 347.849 233.27C348.707 233.27 349.399 233.559 349.924 234.135C350.462 234.699 350.731 235.563 350.731 236.729V258.923C350.731 260.089 350.462 260.96 349.924 261.537C349.399 262.113 348.707 262.401 347.849 262.401C347.029 262.401 346.35 262.113 345.812 261.537C345.286 260.947 345.024 260.076 345.024 258.923Z" fill="#262626"/>
<path d="M367.441 235.162H365.761V240.685C365.761 241.003 365.69 241.24 365.549 241.395C365.407 241.547 365.224 241.623 364.999 241.623C364.771 241.623 364.584 241.546 364.439 241.39C364.297 241.234 364.226 240.999 364.226 240.685V235.162H362.546C362.283 235.162 362.088 235.104 361.96 234.99C361.832 234.873 361.768 234.719 361.768 234.529C361.768 234.332 361.834 234.176 361.965 234.062C362.1 233.948 362.293 233.891 362.546 233.891H367.441C367.708 233.891 367.905 233.95 368.033 234.067C368.164 234.185 368.23 234.339 368.23 234.529C368.23 234.719 368.164 234.873 368.033 234.99C367.901 235.104 367.704 235.162 367.441 235.162Z" fill="#262626"/>
<path d="M371.71 240.348L370.491 235.504V240.752C370.491 241.043 370.425 241.26 370.294 241.406C370.166 241.551 369.995 241.623 369.78 241.623C369.573 241.623 369.404 241.553 369.272 241.411C369.141 241.266 369.075 241.046 369.075 240.752V234.736C369.075 234.404 369.162 234.181 369.334 234.067C369.507 233.95 369.741 233.891 370.035 233.891H370.512C370.799 233.891 371.006 233.917 371.134 233.969C371.265 234.021 371.362 234.114 371.424 234.249C371.487 234.384 371.558 234.603 371.637 234.907L372.742 239.072L373.846 234.907C373.926 234.603 373.997 234.384 374.059 234.249C374.121 234.114 374.216 234.021 374.344 233.969C374.476 233.917 374.685 233.891 374.972 233.891H375.449C375.743 233.891 375.976 233.95 376.149 234.067C376.322 234.181 376.408 234.404 376.408 234.736V240.752C376.408 241.043 376.343 241.26 376.211 241.406C376.083 241.551 375.91 241.623 375.693 241.623C375.489 241.623 375.321 241.551 375.19 241.406C375.058 241.26 374.992 241.043 374.992 240.752V235.504L373.774 240.348C373.694 240.662 373.629 240.894 373.577 241.043C373.528 241.188 373.437 241.321 373.302 241.442C373.167 241.563 372.98 241.623 372.742 241.623C372.562 241.623 372.41 241.584 372.285 241.504C372.161 241.428 372.064 241.33 371.995 241.209C371.926 241.088 371.87 240.954 371.829 240.809C371.791 240.661 371.751 240.507 371.71 240.348Z" fill="#262626"/>
<path d="M268.02 226.055L268.885 227.669C269.231 228.22 269.404 228.598 269.404 228.803C269.404 229.123 269.128 229.283 268.577 229.283C267.732 229.283 266.944 229.097 266.214 228.726C265.855 228.546 264.971 227.784 263.562 226.439C262.153 225.094 261.448 224.338 261.448 224.172C261.448 223.98 261.775 223.883 262.428 223.883H265.022C265.778 223.883 266.348 224.018 266.733 224.287C267.117 224.556 267.546 225.145 268.02 226.055Z" fill="#262626"/>
<path d="M177.295 260.219C183.765 250.038 187.513 237.957 187.513 225C187.513 188.688 158.076 159.251 121.764 159.251C85.4516 159.251 56.0146 188.688 56.0146 225C56.0146 237.957 59.7624 250.038 66.233 260.219V240.513C66.233 239.032 66.5387 237.622 67.0906 236.343C67.6303 234.797 68.5653 233.326 69.9453 232.056L114.63 190.949C118.663 187.24 124.865 187.24 128.898 190.949L145.158 205.908V199.746C145.158 195.659 148.471 192.346 152.558 192.346C156.645 192.346 159.958 195.659 159.958 199.746V219.072C159.958 219.22 159.954 219.366 159.945 219.511L173.583 232.056C174.962 233.326 175.897 234.797 176.437 236.343C176.989 237.622 177.295 239.032 177.295 240.513V260.219Z" fill="#262626"/>
<path d="M156.425 280.882L149 245.195C148.925 244.834 148.832 244.481 148.723 244.136L145.132 227.668C144.77 226.008 142.693 225.436 141.533 226.677L131.985 236.891C124.411 237.151 116.887 237.155 110.661 237.023L100.983 226.672C99.824 225.432 97.7497 226.001 97.3853 227.658L94.1089 242.565L94.1038 242.589L85.8061 280.055C96.1393 286.817 108.492 290.75 121.764 290.75C134.485 290.75 146.362 287.137 156.425 280.882Z" fill="#262626"/>
<path d="M121.767 208.135L121.761 208.142C119.162 205.543 114.947 205.543 112.347 208.142L112.277 208.212C109.678 210.811 109.678 215.026 112.277 217.626L120.961 226.31C121.403 226.751 122.119 226.751 122.56 226.31L131.251 217.619C133.85 215.02 133.85 210.805 131.251 208.206L131.18 208.135C128.581 205.536 124.367 205.536 121.767 208.135Z" fill="#262626"/>
<path d="M133.58 256.697C133.58 258.949 131.994 260.775 130.038 260.775C128.082 260.775 126.496 258.949 126.496 256.697C126.496 254.444 128.082 252.618 130.038 252.618C131.994 252.618 133.58 254.444 133.58 256.697Z" fill="#262626"/>
<path d="M117.032 256.697C117.032 258.949 115.446 260.775 113.49 260.775C111.534 260.775 109.948 258.949 109.948 256.697C109.948 254.444 111.534 252.618 113.49 252.618C115.446 252.618 117.032 254.444 117.032 256.697Z" fill="#262626"/>
</svg>
