<svg width="450" height="450" viewBox="0 0 450 450" fill="none" xmlns="http://www.w3.org/2000/svg">
<rect x="0.5" y="0.5" width="449" height="449" fill="#EAEAEA"/>
<rect x="0.5" y="0.5" width="449" height="449" stroke="#262626"/>
<path d="M290.471 331.985C291.186 325.324 291.766 324.744 298.427 324.029C291.766 323.314 291.186 322.735 290.471 316.073C289.756 322.735 289.177 323.314 282.515 324.029C289.177 324.744 289.756 325.324 290.471 331.985Z" fill="#262626"/>
<path d="M151.963 249.067C145.301 249.782 144.722 250.361 144.007 257.023C143.292 250.361 142.713 249.782 136.051 249.067C142.713 248.351 143.292 247.772 144.007 241.111C144.722 247.772 145.301 248.351 151.963 249.067Z" fill="#262626"/>
<path d="M124.756 314.356C128.259 314.356 131.098 311.516 131.098 308.013C131.098 304.51 128.259 301.67 124.756 301.67C121.252 301.67 118.413 304.51 118.413 308.013C118.413 311.516 121.252 314.356 124.756 314.356Z" fill="#262626"/>
<path d="M281.829 219.102C281.829 219.102 277.509 210.692 256.141 224.331C264.779 220.435 279.102 217.398 281.829 224.331C283.533 221.604 281.829 219.102 281.829 219.102Z" fill="#262626"/>
<path d="M277.796 235.518C275.092 238.409 260.842 233.35 260.842 233.35H260.84C273.283 241.234 281.125 240.388 283.783 238.737C282.497 238.935 280.904 238.236 277.796 235.518Z" fill="#262626"/>
<path d="M226.781 236.022C224.063 236.022 221.294 235.465 218.531 234.351C213.969 232.509 211.066 229.82 210.943 229.706C210.54 229.327 210.517 228.692 210.896 228.289C211.275 227.886 211.908 227.863 212.313 228.242L212.314 228.243C212.365 228.29 215.129 230.828 219.345 232.515C224.93 234.752 230.315 234.518 235.348 231.822C238.146 230.323 239.975 228.133 240.786 225.31C242.89 217.984 237.652 208.64 237.537 208.434L237.536 208.431C237.262 207.95 237.426 207.338 237.908 207.064C238.387 206.787 239.002 206.954 239.276 207.433C239.336 207.536 240.742 210.004 241.878 213.491C243.426 218.234 243.707 222.394 242.715 225.856C241.751 229.223 239.59 231.825 236.295 233.589C233.274 235.207 230.065 236.02 226.781 236.02V236.022Z" fill="#262626"/>
<path d="M187.434 194.302C187.454 194.841 187.9 195.265 188.434 195.265V195.267H188.474C189.005 195.247 201.559 194.665 210.738 186.952C220.057 179.123 219.151 168.581 219.108 168.135C219.055 167.583 218.569 167.182 218.014 167.233C217.462 167.286 217.059 167.777 217.112 168.327C217.121 168.425 217.968 178.257 209.448 185.415C200.806 192.676 188.519 193.257 188.396 193.262C187.842 193.282 187.412 193.75 187.434 194.302Z" fill="#262626"/>
<path d="M176.25 276.871C174.628 276.871 173.146 276.637 171.912 276.336C168.49 275.501 165.241 273.656 163.829 271.747C163.499 271.301 163.593 270.673 164.038 270.345C164.484 270.016 165.112 270.111 165.44 270.555C167.38 273.177 175.996 277.274 183.172 272.983C185.957 271.317 186.979 267.897 186.209 262.815C185.605 258.831 184.081 255.351 184.065 255.318C183.842 254.812 184.07 254.22 184.578 253.997C185.083 253.772 185.676 254.003 185.899 254.509C186.173 255.129 192.505 269.739 184.199 274.708C181.463 276.343 178.691 276.875 176.243 276.875L176.25 276.871Z" fill="#262626"/>
<path d="M227.43 289.399C220.768 290.114 220.189 290.693 219.474 297.355C218.759 290.693 218.179 290.114 211.518 289.399C218.179 288.684 218.759 288.105 219.474 281.443C220.189 288.105 220.768 288.684 227.43 289.399Z" fill="#262626"/>
<path d="M331.588 308.013C331.588 311.516 328.748 314.356 325.245 314.356C321.742 314.356 318.902 311.516 318.902 308.013C318.902 304.51 321.742 301.67 325.245 301.67C328.748 301.67 331.588 304.51 331.588 308.013Z" fill="#262626"/>
<path fill-rule="evenodd" clip-rule="evenodd" d="M329.498 320.331V355.6C329.498 356.155 329.05 356.603 328.495 356.603H121.636C121.082 356.603 120.634 356.155 120.634 355.6V320.376C115.462 318.647 111.724 313.758 111.724 308.013C111.724 302.267 115.462 297.378 120.634 295.65V197.829C120.634 183.731 123.394 170.056 128.842 157.179C134.102 144.742 141.632 133.574 151.221 123.985C160.812 114.393 171.979 106.865 184.415 101.605C197.29 96.1579 210.968 93.3975 225.066 93.3975C239.164 93.3975 252.841 96.1579 265.717 101.605C278.153 106.865 289.322 114.396 298.911 123.985C308.502 133.576 316.03 144.742 321.29 157.179C326.735 170.054 329.498 183.731 329.498 197.829V295.694C334.601 297.461 338.276 302.316 338.276 308.013C338.276 313.709 334.601 318.564 329.498 320.331ZM327.493 295.176V197.829C327.493 184.001 324.786 170.586 319.443 157.961C314.286 145.763 306.9 134.81 297.491 125.404C288.083 115.998 277.13 108.612 264.935 103.452C252.307 98.1118 238.895 95.4026 225.066 95.4026C211.237 95.4026 197.823 98.1118 185.197 103.452C172.999 108.612 162.047 115.998 152.64 125.404C143.234 134.81 135.848 145.765 130.689 157.961C125.348 170.589 122.639 184.001 122.639 197.829V294.981H127.128V199.536C127.128 186.315 129.717 173.489 134.824 161.416C139.756 149.755 146.816 139.281 155.811 130.287C164.805 121.293 175.278 114.233 186.939 109.3C199.015 104.194 211.839 101.603 225.061 101.603C238.209 101.603 250.962 104.162 262.975 109.213C263.017 109.228 263.057 109.245 263.096 109.264L263.181 109.3C274.842 114.233 285.316 121.293 294.31 130.287C303.304 139.281 310.364 149.755 315.297 161.416C318.651 169.348 320.92 177.603 322.082 186.081C322.234 186.245 322.332 186.462 322.346 186.703C322.358 186.892 322.315 187.072 322.233 187.229C322.74 191.285 322.994 195.391 322.994 199.536V295.176C323.726 295.048 324.478 294.982 325.245 294.982C326.011 294.982 326.762 295.048 327.493 295.176ZM320.992 295.694V211.475H296.101C295.546 211.475 295.099 211.027 295.099 210.472C295.099 209.917 295.546 209.47 296.101 209.47H320.992V199.536C320.992 195.594 320.757 191.689 320.289 187.829L305.761 188.688H305.701C305.175 188.688 304.732 188.278 304.701 187.745C304.668 187.193 305.091 186.718 305.643 186.685L320.026 185.835C318.868 177.713 316.67 169.803 313.452 162.196C308.62 150.773 301.704 140.514 292.893 131.704C292.496 131.307 292.095 130.914 291.692 130.524L275.357 151.327C279.982 152.936 283.667 155.39 286.372 158.671C287.878 160.498 289.065 162.555 289.929 164.828L302.457 159.27C302.963 159.045 303.556 159.274 303.781 159.78C304.006 160.286 303.776 160.879 303.271 161.104L290.564 166.74C291.168 168.84 291.52 171.105 291.619 173.524C292.585 174.154 294.686 175.659 296.375 177.811C299.124 181.308 299.657 185.051 297.919 188.636C296.821 190.903 294.375 194.459 289.835 194.516C291.283 199.867 291.432 204.61 291.282 207.745V207.778C291.262 208.019 289.368 231.905 293.203 242.445C294.533 246.097 295.967 248.728 297.12 250.842L297.126 250.853L297.126 250.854C299.287 254.812 300.715 257.428 296.21 259.97C294.758 260.79 292.931 261.271 291.166 261.734C287.025 262.824 285.715 263.461 286.122 265.085C286.158 265.228 286.194 265.366 286.228 265.501L286.271 265.671C286.288 265.736 286.304 265.801 286.321 265.865C287.214 269.345 287.452 271.049 283.377 273.072C283.219 277.099 280.177 277.734 278.501 278.084L278.496 278.085C278.16 278.154 277.676 278.254 277.451 278.352C277.451 278.393 277.452 278.436 277.453 278.481C277.454 278.53 277.456 278.581 277.457 278.635C277.459 278.687 277.461 278.741 277.462 278.798C277.507 280.302 277.598 283.432 276.716 286.286C275.571 289.987 273.116 292.096 269.611 292.388C267.564 292.558 264.959 292.157 262.203 291.731L262.201 291.731C256.801 290.898 250.682 289.954 246.913 292.894C244.774 294.563 243.553 297.334 243.179 301.365C242.722 306.293 243.565 311.653 245.057 316.926C246.181 320.52 247.529 324.235 247.764 324.877C250.31 331.363 253.372 337.27 255.567 341.504L255.571 341.512C256.662 343.617 257.503 345.239 258.006 346.392H308.356H320.992V320.331C315.888 318.564 312.214 313.709 312.214 308.013C312.214 302.316 315.888 297.461 320.992 295.694ZM322.997 320.85C323.727 320.977 324.478 321.044 325.245 321.044C326.011 321.044 326.762 320.977 327.493 320.85V354.597H122.639V321.043H124.565C124.628 321.043 124.692 321.044 124.756 321.044C124.819 321.044 124.883 321.043 124.946 321.043H127.133V347.395C127.133 347.949 127.581 348.397 128.135 348.397H257.275C257.293 348.398 257.311 348.399 257.329 348.399L257.335 348.401C257.364 348.401 257.392 348.4 257.42 348.397H321.994C322.549 348.397 322.997 347.949 322.997 347.395V320.85ZM137.787 308.013C137.787 302.363 134.172 297.541 129.133 295.738V212.038H136.051C136.421 212.038 136.72 211.74 136.72 211.37C136.72 211 136.421 210.701 136.051 210.701H129.133V199.531C129.133 195.874 129.336 192.248 129.739 188.66L160.122 190.455H160.182C160.71 190.455 161.151 190.045 161.182 189.513C161.213 188.96 160.792 188.486 160.24 188.452L129.984 186.665C131.108 178.251 133.344 170.059 136.67 162.194C137.308 160.687 137.981 159.201 138.691 157.736L147.576 161.757C147.71 161.817 147.85 161.846 147.988 161.846C148.369 161.846 148.735 161.626 148.902 161.256C149.129 160.752 148.904 160.158 148.401 159.93L139.583 155.94C144.143 147.003 150.06 138.872 157.23 131.702C157.646 131.286 158.065 130.874 158.487 130.467L182.125 156.559C182.323 156.778 182.595 156.889 182.869 156.889C183.109 156.889 183.35 156.802 183.542 156.628C183.952 156.256 183.983 155.621 183.611 155.211L159.946 129.088C167.912 121.711 176.968 115.802 186.92 111.486L190.223 120.084C190.377 120.482 190.756 120.728 191.159 120.728C191.277 120.728 191.4 120.705 191.518 120.661C192.035 120.462 192.293 119.883 192.095 119.366L188.768 110.707C199.982 106.119 211.844 103.734 224.061 103.611V137.132C224.061 137.687 224.509 138.134 225.064 138.134C225.618 138.134 226.066 137.687 226.066 137.132V103.611C238.296 103.735 250.171 106.127 261.395 110.726L256.239 125.883C256.061 126.407 256.342 126.977 256.865 127.155C256.972 127.191 257.081 127.209 257.188 127.209C257.605 127.209 257.995 126.946 258.137 126.529L263.247 111.508C273.204 115.831 282.262 121.752 290.23 129.14L273.31 150.687C270.64 149.942 267.694 149.449 264.476 149.211C258.971 148.804 253.94 149.246 249.415 150.527L254.904 134.992C255.089 134.471 254.815 133.898 254.294 133.713C253.775 133.529 253.2 133.803 253.015 134.324L247.016 151.302C243.751 152.493 240.776 154.158 238.104 156.293C236.702 156.124 232.186 155.679 226.066 156.084V146.086C226.066 145.531 225.618 145.083 225.064 145.083C224.509 145.083 224.061 145.531 224.061 146.086V156.243C223.871 156.261 223.681 156.279 223.488 156.298C218.839 156.766 212.953 157.819 206.865 160.099L195.769 128.703C195.584 128.182 195.011 127.908 194.49 128.093C193.968 128.278 193.694 128.85 193.879 129.372L204.999 160.834C201.246 162.39 197.457 164.431 193.87 167.106C190.387 169.703 187.311 172.719 184.65 176.141L156.359 163.593C155.851 163.368 155.26 163.597 155.035 164.103C154.81 164.609 155.04 165.202 155.546 165.427L183.422 177.791C180.956 181.252 178.884 185.099 177.212 189.323L168.57 188.94H168.525C167.993 188.94 167.55 189.359 167.525 189.898C167.501 190.451 167.931 190.918 168.483 190.943L176.469 191.296C174.94 195.58 173.801 200.228 173.058 205.233C170.243 205.935 167.584 207.314 165.179 209.34C164.792 209.666 164.413 210.009 164.041 210.366H143.225C142.67 210.366 142.223 210.814 142.223 211.369C142.223 211.924 142.67 212.371 143.225 212.371H162.178C159.892 215.11 158.027 218.463 156.778 222.129C155.414 226.128 154.253 232.571 155.08 238.651C155.902 244.697 158.474 248.99 162.559 251.191C159.897 253.084 157.248 255.585 155.144 258.863C150.853 265.547 149.855 273.895 152.181 283.678C154.048 291.529 158.052 296.932 164.085 299.734C167.57 301.354 171.44 301.944 175.234 301.944C179.594 301.944 183.854 301.162 187.307 300.267C191.673 299.133 195.321 297.696 197.476 296.76C196.995 298.002 196.407 299.248 195.729 300.498C195.521 300.848 194.182 303.075 191.259 307.305C191.247 307.322 191.236 307.34 191.225 307.357C188.557 310.893 185.408 314.46 182.129 318.056C181.831 318.384 181.782 318.867 182.009 319.246C182.236 319.627 182.686 319.812 183.114 319.705C200.887 315.262 235.848 335.893 252.667 345.818L252.683 345.827C253.006 346.018 253.324 346.207 253.638 346.392H129.138V320.286C134.174 318.482 137.787 313.661 137.787 308.013ZM135.782 308.013C135.782 314.034 130.93 318.943 124.931 319.037H124.58C118.581 318.943 113.73 314.034 113.73 308.013C113.73 301.933 118.676 296.987 124.756 296.987C130.836 296.987 135.782 301.933 135.782 308.013ZM225.187 158.158C225.159 158.161 225.131 158.164 225.103 158.165C224.619 158.204 224.127 158.248 223.627 158.299C215.918 159.081 204.705 161.523 195.056 168.723C191.536 171.349 188.45 174.425 185.804 177.939C185.79 177.961 185.775 177.982 185.759 178.002C185.752 178.011 185.745 178.019 185.738 178.028C180.373 185.187 176.826 194.157 175.147 204.839C176.635 204.649 178.158 204.64 179.703 204.818C188.866 205.876 193.824 206.901 197.444 207.652C202.328 208.663 204.569 209.126 211.433 208.483C212.965 208.062 214.234 207.7 215.423 207.344C232.757 202.18 243.528 181.36 248.707 171.351L248.709 171.347C250.326 168.217 253.156 165.501 256.671 163.699C261.827 161.054 267.428 160.838 270.943 163.146C272.813 164.374 274.976 166.885 274.648 171.873C274.631 172.176 274.602 172.499 274.564 172.891C274.089 177.53 272.507 180.827 269.863 182.694C266.512 185.06 262.74 184.178 262.582 184.14C262.043 184.009 261.715 183.467 261.844 182.928C261.974 182.389 262.52 182.062 263.056 182.191C263.083 182.197 266.133 182.888 268.727 181.041C270.863 179.52 272.155 176.71 272.568 172.689C272.605 172.326 272.63 172.025 272.648 171.746C272.859 168.511 271.915 166.183 269.843 164.822C266.967 162.933 262.041 163.2 257.587 165.484C254.439 167.097 251.919 169.505 250.491 172.268L250.49 172.27C245.185 182.523 234.148 203.856 215.996 209.265C214.792 209.623 213.508 209.989 211.96 210.416C211.942 210.422 211.924 210.428 211.906 210.433C211.881 210.44 211.856 210.447 211.831 210.452C210.879 210.713 209.949 210.963 209.043 211.207C202.281 213.028 196.938 214.467 193.269 217.43C189.394 220.558 187.668 225.27 187.668 232.705C187.668 237.947 189.192 241.917 192.199 244.506C197.508 249.075 205.814 247.937 206.05 247.904L206.055 247.904C206.601 247.821 207.113 248.198 207.196 248.746C207.278 249.294 206.904 249.804 206.356 249.886C206.226 249.906 205.081 250.074 203.39 250.074L203.388 250.076C200.144 250.076 194.889 249.465 190.901 246.039C187.423 243.051 185.66 238.566 185.66 232.709C185.66 224.611 187.619 219.417 192.008 215.873C194.984 213.469 198.804 212.031 203.444 210.676C201.331 210.502 199.487 210.121 197.04 209.615L197.036 209.614C193.454 208.872 188.548 207.857 179.473 206.809C168.563 205.548 161.454 214.623 158.676 222.775C157.386 226.558 156.285 232.645 157.067 238.379C157.628 242.494 159.381 247.774 164.52 249.901C169.654 246.78 174.342 245.809 174.659 245.745C175.203 245.638 175.731 245.99 175.837 246.534C175.944 247.077 175.592 247.605 175.049 247.712C174.886 247.746 163.056 250.23 156.822 259.961C152.845 266.166 151.941 273.991 154.133 283.214C155.851 290.439 159.482 295.385 164.932 297.916C177.336 303.68 195.569 295.481 198.32 294.174C198.986 291.639 199.155 289.123 198.687 286.627C198.552 285.906 198.287 284.983 197.881 283.825C194.904 285.009 191.602 285.994 187.962 286.656C187.902 286.667 187.842 286.672 187.781 286.672V286.676C187.307 286.676 186.884 286.338 186.797 285.852C186.699 285.306 187.06 284.785 187.603 284.687C191.438 283.99 194.88 282.921 197.947 281.635C198.028 281.586 198.116 281.549 198.21 281.524C204.931 278.661 209.829 274.766 213.088 271.515C215.937 268.677 217.911 265.978 219.117 264.112C218.986 261.779 219.537 259.781 221.194 258.532C223.895 256.496 225.446 255.051 226.33 254.042C226.46 253.814 226.543 253.669 226.561 253.637C226.655 253.472 226.793 253.34 226.955 253.252C227.226 252.861 227.361 252.573 227.423 252.365L227.43 252.336L227.436 252.365C227.499 252.572 227.632 252.86 227.902 253.248C228.067 253.336 228.207 253.47 228.303 253.637C228.321 253.669 228.407 253.819 228.54 254.054C229.427 255.062 230.976 256.503 233.666 258.532C240.476 263.667 228.604 281.453 227.472 283.113V283.237C227.472 283.237 227.465 283.229 227.453 283.211C227.447 283.201 227.439 283.19 227.43 283.175C227.403 283.217 227.387 283.237 227.387 283.237V283.113C226.642 282.017 221.211 273.89 219.568 267.017C218.342 268.714 216.693 270.747 214.568 272.872C211.279 276.161 206.392 280.081 199.732 283.045C200.199 284.365 200.496 285.4 200.657 286.257C201.524 290.887 200.463 295.492 198.191 300.098C200.911 300.387 207.071 301.165 214.303 302.88C222.549 304.836 233.787 308.41 242.376 314.576C241.309 310.031 240.781 305.466 241.178 301.18C241.606 296.568 243.076 293.342 245.674 291.312C250.126 287.839 256.702 288.853 262.504 289.748C265.14 290.156 267.63 290.537 269.44 290.388C275.119 289.915 275.591 283.579 275.453 278.856C275.444 278.591 275.439 278.372 275.439 278.208C275.439 276.671 276.966 276.354 278.082 276.123L278.084 276.122C279.904 275.743 281.477 275.416 281.37 272.477C281.354 272.072 281.586 271.7 281.954 271.53C283.705 270.726 284.552 270.111 284.781 269.476C285.013 268.84 284.759 267.856 284.377 266.371L284.376 266.366C284.311 266.114 284.244 265.851 284.175 265.573C283.22 261.757 287.337 260.671 290.647 259.798L290.654 259.796C292.298 259.364 293.998 258.916 295.223 258.223C297.928 256.697 297.63 255.964 295.364 251.816C294.239 249.755 292.699 246.934 291.316 243.131C287.352 232.232 289.181 208.852 289.279 207.633C289.428 204.501 289.262 199.691 287.689 194.295C287.166 194.183 286.714 194.043 286.358 193.916C284.814 196.213 279.659 203.08 272.69 203.962L272.291 204.012C264.819 204.961 255.525 206.141 252.913 214.32C252.05 217.022 252.113 220.053 252.179 223.262L252.18 223.278C252.322 230.042 252.483 237.711 242.684 242.115C239.668 243.47 236.758 244.615 233.946 245.72L233.94 245.722C224.392 249.478 216.851 252.443 214.947 260.061C214.833 260.516 214.423 260.821 213.975 260.821V260.825C213.895 260.825 213.813 260.816 213.732 260.796C213.195 260.663 212.868 260.117 213.002 259.58C215.155 250.962 223.516 247.673 233.199 243.863L233.271 243.835L233.273 243.834C236.046 242.743 238.911 241.616 241.864 240.288C250.453 236.427 250.319 230.062 250.177 223.323C250.108 220.083 250.039 216.737 251.003 213.711C254.004 204.314 264.008 203.044 272.046 202.024L272.436 201.975C279.675 201.057 285.055 192.241 285.109 192.152C285.383 191.697 285.964 191.535 286.434 191.78L286.441 191.783C286.524 191.824 287.376 192.24 288.574 192.422C288.604 192.425 288.633 192.429 288.661 192.435C290.888 192.75 293.971 192.183 296.115 187.76C298.745 182.336 294.21 177.929 291.631 175.98C291.502 180.248 290.639 183.299 290.596 183.445C290.469 183.884 290.069 184.171 289.635 184.172C289.544 184.172 289.45 184.158 289.357 184.132C288.825 183.978 288.517 183.423 288.671 182.891C288.682 182.853 289.712 179.192 289.64 174.422C289.553 174.205 289.543 173.96 289.622 173.729C289.537 171.421 289.195 168.999 288.44 166.632C288.433 166.619 288.427 166.606 288.421 166.593C288.387 166.515 288.363 166.434 288.349 166.354C286.474 160.732 282.222 155.461 273.474 152.819C273.443 152.812 273.413 152.804 273.384 152.795C273.36 152.788 273.338 152.78 273.315 152.771C270.728 152.004 267.751 151.465 264.331 151.212C254.08 150.454 245.589 152.762 239.096 158.072C239.063 158.104 239.027 158.132 238.99 158.159C237.893 159.063 236.835 160.074 235.842 161.166C228.633 169.126 227.238 179.014 227.225 179.114C227.151 179.662 226.65 180.05 226.097 179.974C225.549 179.901 225.164 179.397 225.237 178.847C225.295 178.417 226.732 168.237 234.356 159.818C234.895 159.225 235.452 158.654 236.023 158.11C233.74 157.938 229.876 157.786 225.187 158.158ZM222.719 263.544C222.856 264.282 223.106 265.013 223.484 265.643C224.344 267.078 225.708 267.836 227.43 267.836H227.432C229.154 267.836 230.518 267.078 231.378 265.643C231.754 265.014 232.004 264.284 232.141 263.547C232.616 266.137 231.842 271.34 227.43 271.34C223.017 271.34 222.243 266.133 222.719 263.544ZM192.595 308.864C190.474 311.649 188.078 314.441 185.565 317.245C193.525 316.39 204.665 319.121 218.743 325.384C231.935 331.252 245.033 338.983 253.701 344.101C254.051 344.307 254.396 344.511 254.734 344.711L255.056 344.901C254.693 344.182 254.277 343.38 253.826 342.512L253.824 342.506L253.815 342.49L253.814 342.489L253.786 342.434C251.6 338.219 248.57 332.374 246.013 325.913C245.064 325.091 240.15 321.005 231.923 317.072C223.561 313.074 209.977 308.424 192.595 308.864ZM243.198 317.726C243.637 319.259 244.128 320.781 244.655 322.282C242.215 320.49 238.254 317.88 232.866 315.298C224.669 311.371 211.585 306.83 194.88 306.83C194.618 306.83 194.355 306.832 194.091 306.834C195.236 305.225 196.275 303.618 197.18 302.011C199.206 302.206 205.866 302.938 213.873 304.838C229.551 308.559 238.45 313.861 243.198 317.726ZM314.219 308.013C314.219 301.933 319.165 296.987 325.245 296.987C331.325 296.987 336.271 301.933 336.271 308.013C336.271 314.093 331.325 319.039 325.245 319.039C319.165 319.039 314.219 314.093 314.219 308.013ZM224.812 260.836C225.269 259.978 226.554 257.705 227.43 256.161C228.305 257.705 229.589 259.978 230.048 260.836C230.304 261.315 230.484 263.231 229.655 264.612C229.165 265.432 228.437 265.831 227.43 265.831C226.423 265.831 225.696 265.432 225.204 264.612C224.377 263.231 224.556 261.315 224.812 260.836Z" fill="#262626"/>
</svg>
