<svg width="450" height="450" viewBox="0 0 450 450" fill="none" xmlns="http://www.w3.org/2000/svg">
<rect x="0.5" y="0.5" width="449" height="449" fill="#EAEAEA"/>
<rect x="0.5" y="0.5" width="449" height="449" stroke="#262626"/>
<path d="M80.1733 266.837H96.1608C103.908 266.837 109.653 268.189 113.396 270.893C117.191 273.596 119.089 278.301 119.089 285.008C119.089 291.715 117.191 296.446 113.396 299.202C109.653 301.906 103.908 303.257 96.1608 303.257H87.2702V321.818H80.1733V266.837ZM96.3947 297.174C99.7742 297.174 102.582 296.862 104.817 296.239C107.053 295.563 108.821 294.341 110.121 292.573C111.42 290.805 112.07 288.284 112.07 285.008C112.07 281.733 111.42 279.211 110.121 277.444C108.821 275.676 107.053 274.48 104.817 273.856C102.582 273.232 99.7742 272.92 96.3947 272.92H87.2702V297.174H96.3947Z" fill="#262626"/>
<path d="M124.108 266.837H144.463C151.482 266.837 156.811 267.903 160.451 270.035C164.09 272.166 165.91 276.014 165.91 281.577C165.91 285.632 164.948 288.648 163.024 290.623C161.152 292.599 158.449 293.899 154.913 294.523V296.472H160.918C164.298 296.472 165.988 298.266 165.988 301.854V321.818H158.969V300.06H131.205V321.818H124.108V266.837ZM144.463 293.977C147.739 293.977 150.39 293.717 152.418 293.197C154.498 292.625 156.083 291.559 157.175 290C158.319 288.388 158.891 286.1 158.891 283.137C158.891 280.121 158.319 277.885 157.175 276.43C156.083 274.974 154.549 274.038 152.574 273.622C150.598 273.154 147.895 272.92 144.463 272.92H131.205V293.977H144.463Z" fill="#262626"/>
<path d="M171.293 294.289C171.293 288.882 172.333 284.046 174.412 279.783C176.492 275.468 179.481 272.088 183.381 269.645C187.332 267.201 191.959 265.979 197.263 265.979C202.566 265.979 207.167 267.201 211.066 269.645C214.966 272.088 217.955 275.468 220.035 279.783C222.115 284.046 223.154 288.882 223.154 294.289C223.154 299.696 222.115 304.557 220.035 308.872C217.955 313.136 214.966 316.515 211.066 319.011C207.167 321.454 202.566 322.676 197.263 322.676C191.959 322.676 187.332 321.454 183.381 319.011C179.481 316.515 176.492 313.136 174.412 308.872C172.333 304.557 171.293 299.696 171.293 294.289ZM178.468 294.289C178.468 300.996 180.053 306.377 183.225 310.432C186.448 314.488 191.128 316.515 197.263 316.515C203.398 316.515 208.051 314.488 211.222 310.432C214.446 306.377 216.058 300.996 216.058 294.289C216.058 287.582 214.446 282.227 211.222 278.223C208.051 274.168 203.398 272.14 197.263 272.14C191.128 272.14 186.448 274.168 183.225 278.223C180.053 282.227 178.468 287.582 178.468 294.289Z" fill="#262626"/>
<path d="M264.689 266.837V272.92H245.816V321.818H238.719V272.92H219.768V266.837H264.689Z" fill="#262626"/>
<path d="M264.037 294.289C264.037 288.882 265.077 284.046 267.156 279.783C269.236 275.468 272.226 272.088 276.125 269.645C280.076 267.201 284.704 265.979 290.007 265.979C295.31 265.979 299.911 267.201 303.811 269.645C307.71 272.088 310.7 275.468 312.779 279.783C314.859 284.046 315.899 288.882 315.899 294.289C315.899 299.696 314.859 304.557 312.779 308.872C310.7 313.136 307.71 316.515 303.811 319.011C299.911 321.454 295.31 322.676 290.007 322.676C284.704 322.676 280.076 321.454 276.125 319.011C272.226 316.515 269.236 313.136 267.156 308.872C265.077 304.557 264.037 299.696 264.037 294.289ZM271.212 294.289C271.212 300.996 272.798 306.377 275.969 310.432C279.193 314.488 283.872 316.515 290.007 316.515C296.142 316.515 300.795 314.488 303.967 310.432C307.19 306.377 308.802 300.996 308.802 294.289C308.802 287.582 307.19 282.227 303.967 278.223C300.795 274.168 296.142 272.14 290.007 272.14C283.872 272.14 279.193 274.168 275.969 278.223C272.798 282.227 271.212 287.582 271.212 294.289Z" fill="#262626"/>
<path d="M321.63 266.837H335.824L362.028 319.869H363.977L362.808 314.956V266.837H369.826V321.818H355.633L329.507 268.787H327.479L328.727 273.7V321.818H321.63V266.837Z" fill="#262626"/>
<path fill-rule="evenodd" clip-rule="evenodd" d="M223.988 153.96L200.865 127.347L203.377 162.643L184.062 144.543L202.18 163.717L166.997 161.249L193.728 184.427L167.285 185.286L193.649 186.033L167.021 209.169L202.318 206.657L184.231 225.959L203.391 207.854L200.922 243.037L224.115 216.291L224.973 242.736L225.719 216.4L248.843 243.014L246.329 207.688L265.646 225.79L247.556 206.645L282.711 209.112L255.951 185.907L282.424 185.048L256.089 184.302L282.688 161.191L247.363 163.705L265.478 144.375L246.319 162.478L248.786 127.323L225.594 154.068L224.735 127.597L223.988 153.96ZM223.988 153.96L223.216 181.234L203.377 162.643L203.46 163.807L202.18 163.717L220.915 183.545L193.728 184.427L194.613 185.195L193.649 186.033L220.922 186.805L202.318 206.657L203.481 206.575L203.391 207.854L223.232 189.106L224.115 216.291L224.869 215.421L225.719 216.4L226.493 189.099L246.329 207.688L246.248 206.553L247.556 206.645L228.793 186.789L255.951 185.907L255.095 185.165L256.089 184.302L228.787 183.528L247.363 163.705L246.227 163.786L246.319 162.478L226.476 181.228L225.594 154.068L224.839 154.939L223.988 153.96Z" fill="#262626"/>
<path d="M240.112 185.18C240.112 193.607 233.281 200.438 224.854 200.438C216.428 200.438 209.597 193.607 209.597 185.18C209.597 176.754 216.428 169.923 224.854 169.923C233.281 169.923 240.112 176.754 240.112 185.18Z" fill="#EAEAEA"/>
<path d="M268.571 140.482V131.376H265.252V130.553H272.798V131.376H269.479V140.482H268.571Z" fill="#262626"/>
<path d="M273.527 140.482V130.553H275.3L278.307 139.943H278.477L281.484 130.553H283.257V140.482H282.378V131.092H282.208L279.201 140.482H277.584L274.577 131.092H274.407V140.482H273.527Z" fill="#262626"/>
</svg>
