<svg width="235" height="270" viewBox="0 0 235 270" fill="none" xmlns="http://www.w3.org/2000/svg">
<path d="M77.1551 3.60938C61.8015 6.4005 40.0775 18.5361 28.35 24.255C24.8891 25.9072 22.6548 31.074 21.9702 33.4508L1.94189 78.0076L38.3974 100.33C39.2226 99.2654 41.7729 96.1912 45.3735 92.414C40.1977 115.597 47.877 121.429 53.6998 142.485L53.7014 142.491C55.0682 147.433 55.9492 150.619 53.6998 163.441C51.4494 176.268 35.247 242.508 30.5212 260.541C41.0978 270.924 179.269 274.913 203.119 260.541C193.694 241.128 178.328 176.939 178.328 158.392C178.328 145.663 184.459 136.022 188.417 124.147C191.583 114.648 189.296 99.5136 188.417 92.414L194.825 100.33L232.145 79.0317C227.621 69.9845 217.255 48.8366 211.977 36.6229C206.7 24.4092 202.239 21.2301 200.668 21.1672C188.106 16.381 165.778 6.16859 155.31 3.60938C146.522 17.5465 116.232 49.5226 116.232 49.5226C116.232 49.5226 84.4853 14.8993 77.1551 3.60938Z" fill="#1D1C57"/>
<path d="M40.4749 98.9713L37.5308 103.927L0 81.6281L2.94414 76.6729L40.4749 98.9713Z" fill="#FEC18C"/>
<path d="M22.9609 88.6592L20.0168 93.6151L0 81.6281L2.94414 76.6729L22.9609 88.6592Z" fill="#F192BB"/>
<path d="M22.9609 88.6592L20.0168 93.6151L0 81.6281L2.94414 76.6729L22.9609 88.6592Z" fill="#3C3FA2"/>
<path d="M193.908 99.569L196.852 104.525L234.383 82.2257L231.439 77.2705L193.908 99.569Z" fill="#FEC18C"/>
<path d="M211.422 89.2569L214.366 94.2128L234.383 82.2257L231.439 77.2705L211.422 89.2569Z" fill="#F192BB"/>
<path d="M211.422 89.2569L214.366 94.2128L234.383 82.2257L231.439 77.2705L211.422 89.2569Z" fill="#3C3FA2"/>
<mask id="mask0_4400_984" style="mask-type:alpha" maskUnits="userSpaceOnUse" x="1" y="2" width="232" height="267">
<path d="M77.1551 2.5332C61.8015 5.32433 40.0775 17.4599 28.35 23.1788C24.8891 24.831 22.6548 29.9978 21.9702 32.3747L1.94189 76.9314L38.3974 99.2542C39.2226 98.1892 41.7729 95.115 45.3735 91.3378C40.1977 114.521 47.877 120.353 53.6998 141.409L53.7014 141.415C55.0682 146.357 55.9492 149.543 53.6998 162.365C51.4494 175.192 35.247 241.431 30.5212 259.465C41.0978 269.848 179.269 273.836 203.119 259.465C193.694 240.051 178.328 175.863 178.328 157.316C178.328 144.587 184.459 134.946 188.417 123.071C191.583 113.572 189.296 98.4374 188.417 91.3378L194.825 99.2542L232.145 77.9555C227.621 68.9083 217.255 47.7605 211.977 35.5467C206.7 23.333 202.239 20.1539 200.668 20.0911C188.106 15.3048 165.778 5.09241 155.31 2.5332C146.522 16.4703 116.232 48.4464 116.232 48.4464C116.232 48.4464 84.4853 13.8231 77.1551 2.5332Z" fill="#1D1C57"/>
</mask>
<g mask="url(#mask0_4400_984)">
<mask id="mask1_4400_984" style="mask-type:luminance" maskUnits="userSpaceOnUse" x="-62" y="-95" width="295" height="461">
<path d="M232.145 -94.6436H-61.4722V365.846H232.145V-94.6436Z" fill="white"/>
</mask>
<g mask="url(#mask1_4400_984)">
<path d="M-126.098 274.414H-127.527L-116.184 263.071H-114.755L-126.098 274.414ZM-120.844 274.414H-122.273L-110.93 263.071H-109.501L-120.844 274.414ZM-115.59 274.414H-117.02L-105.676 263.071H-104.247L-115.59 274.414ZM-110.337 274.414H-111.767L-100.423 263.071H-98.9932L-110.337 274.414ZM-105.084 274.414H-106.513L-95.1689 263.071H-93.7402L-105.084 274.414ZM-99.8291 274.414H-101.258L-47.0449 220.202H-45.6162L-99.8291 274.414ZM-94.5752 274.414H-96.0039L-41.792 220.202H-40.3623L-94.5752 274.414ZM-89.3213 274.414H-90.75L-36.5381 220.202H-35.1084L-89.3213 274.414ZM-84.0674 274.414H-85.4961L-31.2842 220.202H-29.8555L-84.0674 274.414ZM-62.9482 274.414H-64.377L-53.0332 263.071H-51.6045L-62.9482 274.414ZM-57.6943 274.414H-59.123L-47.7803 263.071H-46.3506L-57.6943 274.414ZM-52.4404 274.414H-53.8691L-42.5264 263.071H-41.0967L-52.4404 274.414ZM-47.1865 274.414H-48.6162L-37.2734 263.071H-35.8438L-47.1865 274.414ZM-41.9326 274.414H-43.3623L-32.0186 263.071H-30.5898L-41.9326 274.414ZM-36.6797 274.414H-38.1094L16.1035 220.202H17.5322L-36.6797 274.414ZM-31.4268 274.414H-32.8555L21.3574 220.202H22.7861L-31.4268 274.414ZM-26.1719 274.414H-27.6006L26.6123 220.202H28.041L-26.1719 274.414ZM-20.918 274.414H-22.3467L31.8662 220.202H33.2949L-20.918 274.414ZM0.199219 274.414H-1.23047L10.1133 263.071H11.542L0.199219 274.414ZM5.45312 274.414H4.02344L15.3672 263.071H16.7949L5.45312 274.414ZM10.7061 274.414H9.27734L20.6211 263.071H22.0498L10.7061 274.414ZM15.9609 274.414H14.5312L25.875 263.071H27.3037L15.9609 274.414ZM21.2139 274.414H19.7852L31.1289 263.071H32.5576L21.2139 274.414ZM26.4678 274.414H25.0391L79.252 220.202H80.6807L26.4678 274.414ZM31.7207 274.414H30.293L84.5049 220.202H85.9346L31.7207 274.414ZM36.9746 274.414H35.5459L89.7588 220.202H91.1875L36.9746 274.414ZM42.2295 274.414H40.8008L95.0127 220.202H96.4414L42.2295 274.414ZM63.3486 274.414H61.9199L73.2637 263.07H74.6924L63.3486 274.414ZM68.6025 274.414H67.1738L78.5166 263.07H79.9463L68.6025 274.414ZM73.8574 274.414H72.4287L83.7715 263.07H85.2012L73.8574 274.414ZM79.1113 274.414H77.6816L89.0244 263.07H90.4531L79.1113 274.414ZM84.3662 274.414H82.9365L94.2793 263.07H95.709L84.3662 274.414ZM89.6172 274.414H88.1875L142.4 220.201H143.829L89.6172 274.414ZM94.8701 274.414H93.4414L147.654 220.201H149.083L94.8701 274.414ZM100.125 274.414H98.6963L152.909 220.201H154.338L100.125 274.414ZM105.38 274.414H103.95L158.163 220.201H159.593L105.38 274.414ZM126.499 274.414H125.069L136.412 263.07H137.841L126.499 274.414ZM131.753 274.414H130.323L141.667 263.07H143.096L131.753 274.414ZM137.006 274.414H135.577L146.921 263.07H148.35L137.006 274.414ZM142.261 274.414H140.831L152.175 263.07H153.604L142.261 274.414ZM147.514 274.414H146.085L157.429 263.07H158.857L147.514 274.414ZM152.767 274.414H151.338L205.55 220.201H206.979L152.767 274.414ZM158.02 274.414H156.592L210.804 220.201H212.233L158.02 274.414ZM163.274 274.414H161.845L216.058 220.201H217.486L163.274 274.414ZM168.528 274.414H167.099L221.312 220.201H222.74L168.528 274.414ZM200.986 263.071L189.643 274.414H188.214L199.558 263.071H200.986ZM206.24 263.071L194.896 274.414H193.468L204.812 263.071H206.24ZM211.495 263.071L200.151 274.414H198.723L210.065 263.071H211.495ZM216.748 263.071L205.405 274.414H203.976L215.318 263.071H216.748ZM222.003 263.071L210.66 274.414H209.231L220.573 263.071H222.003ZM270.124 220.202L215.912 274.414H214.482L268.695 220.202H270.124ZM275.378 220.202L221.166 274.414H219.736L273.949 220.202H275.378ZM280.632 220.202L226.419 274.414H224.99L279.203 220.202H280.632ZM285.887 220.202L231.674 274.414H230.244L284.457 220.202H285.887ZM-116.792 249.347H-118.221L-53.7764 184.902H-52.3467L-116.792 249.347ZM-111.538 249.347H-112.968L-83.8223 220.202H-82.3926L-111.538 249.347ZM-106.284 249.347H-107.714L-78.5684 220.202H-77.1396L-106.284 249.347ZM-101.031 249.347H-102.46L-73.3145 220.202H-71.8857L-101.031 249.347ZM-95.7773 249.347H-97.2061L-68.0605 220.202H-66.6318L-95.7773 249.347ZM-90.5225 249.347H-91.9512L-62.8057 220.202H-61.377L-90.5225 249.347ZM-53.6445 249.347H-55.0732L9.37207 184.902H10.8008L-53.6445 249.347ZM-48.3896 249.347H-49.8184L-20.6729 220.202H-19.2441L-48.3896 249.347ZM-43.1357 249.347H-44.5645L-15.4189 220.202H-13.9902L-43.1357 249.347ZM-37.8818 249.347H-39.3105L-10.165 220.202H-8.73633L-37.8818 249.347ZM-32.6279 249.347H-34.0566L-4.91211 220.202H-3.48242L-32.6279 249.347ZM-27.373 249.347H-28.8027L0.342773 220.202H1.77246L-27.373 249.347ZM9.5 249.347H8.07031L72.5156 184.902H73.9453L9.5 249.347ZM14.7568 249.347H13.3262L42.4717 220.202H43.9023L14.7568 249.347ZM20.0107 249.347H18.5811L47.7266 220.202H49.1553L20.0107 249.347ZM25.2646 249.347H23.8359L52.9814 220.202H54.4102L25.2646 249.347ZM30.5186 249.347H29.0898L58.2354 220.202H59.6641L30.5186 249.347ZM35.7715 249.347H34.3438L63.4893 220.202H64.917L35.7715 249.347ZM72.6494 249.347H71.2207L135.666 184.902H137.095L72.6494 249.347ZM77.9053 249.347H76.4766L105.622 220.201H107.051L77.9053 249.347ZM83.1602 249.347H81.7314L110.877 220.201H112.306L83.1602 249.347ZM88.4141 249.347H86.9854L116.131 220.201H117.56L88.4141 249.347ZM93.668 249.347H92.2383L121.384 220.201H122.813L93.668 249.347ZM98.9229 249.347H97.4932L126.639 220.201H128.068L98.9229 249.347ZM135.8 249.347H134.37L198.815 184.902H200.244L135.8 249.347ZM141.057 249.347H139.626L168.771 220.201H170.201L141.057 249.347ZM146.309 249.347H144.88L174.025 220.201H175.454L146.309 249.347ZM151.562 249.347H150.134L179.28 220.201H180.708L151.562 249.347ZM156.817 249.347H155.389L184.534 220.201H185.963L156.817 249.347ZM162.071 249.347H160.643L189.788 220.201H191.217L162.071 249.347ZM263.389 184.902L198.943 249.347H197.515L261.96 184.902H263.389ZM233.345 220.202L204.199 249.347H202.771L231.916 220.202H233.345ZM238.6 220.202L209.454 249.347H208.025L237.171 220.202H238.6ZM243.854 220.202L214.708 249.347H213.279L242.425 220.202H243.854ZM249.107 220.202L219.962 249.347H218.533L247.679 220.202H249.107ZM254.362 220.202L225.217 249.347H223.787L252.933 220.202H254.362ZM-67.0635 231.141H-68.4922L-57.5527 220.202H-56.124L-67.0635 231.141ZM-61.8096 231.141H-63.2383L-52.2988 220.202H-50.8701L-61.8096 231.141ZM-3.91406 231.141H-5.34375L5.5957 220.202H7.02441L-3.91406 231.141ZM1.33984 231.141H-0.0898438L10.8496 220.202H12.2783L1.33984 231.141ZM59.2334 231.141H57.8037L68.7432 220.202H70.1729L59.2334 231.141ZM64.4863 231.141H63.0576L73.9971 220.202H75.4258L64.4863 231.141ZM122.382 231.141H120.952L131.892 220.201H133.32L122.382 231.141ZM127.638 231.141H126.207L137.146 220.201H138.576L127.638 231.141ZM185.532 231.141H184.103L195.042 220.201H196.472L185.532 231.141ZM190.785 231.141H189.356L200.296 220.201H201.725L190.785 231.141ZM259.616 220.202L248.677 231.141H247.248L258.187 220.202H259.616ZM264.87 220.202L253.932 231.141H252.501L263.44 220.202H264.87ZM-70.4424 208.252H-71.8721L-48.5225 184.902H-47.0938L-70.4424 208.252ZM-65.1885 208.252H-66.6182L-43.2686 184.902H-41.8398L-65.1885 208.252ZM-59.9355 208.252H-61.3643L-38.0146 184.902H-36.5859L-59.9355 208.252ZM-54.6816 208.252H-56.1104L-32.7607 184.902H-31.332L-54.6816 208.252ZM-49.4287 208.252H-50.8564L-27.5068 184.902H-26.0791L-49.4287 208.252ZM-44.1729 208.252H-45.6025L-22.2529 184.902H-20.8232L-44.1729 208.252ZM-38.9199 208.252H-40.3486L-16.999 184.902H-15.5703L-38.9199 208.252ZM-7.29492 208.252H-8.72363L14.626 184.902H16.0547L-7.29492 208.252ZM-2.04102 208.252H-3.46973L19.8799 184.902H21.3086L-2.04102 208.252ZM3.21289 208.252H1.78418L25.1328 184.902H26.5625L3.21289 208.252ZM8.46777 208.252H7.03809L30.3877 184.902H31.8174L8.46777 208.252ZM13.7207 208.252H12.292L35.6416 184.902H37.0684L13.7207 208.252ZM18.9746 208.252H17.5449L40.8945 184.902H42.3232L18.9746 208.252ZM24.2295 208.252H22.8008L46.1494 184.902H47.5791L24.2295 208.252ZM55.8496 208.252H54.4199L77.7705 184.902H79.1982L55.8496 208.252ZM61.1035 208.252H59.6748L83.0244 184.902H84.4531L61.1035 208.252ZM66.3574 208.252H64.9287L88.2783 184.902H89.707L66.3574 208.252ZM71.6123 208.252H70.1836L93.5332 184.902H94.9619L71.6123 208.252ZM76.8672 208.252H75.4385L98.7881 184.902H100.216L76.8672 208.252ZM82.1211 208.252H80.6914L104.041 184.902H105.47L82.1211 208.252ZM87.376 208.252H85.9473L109.296 184.902H110.726L87.376 208.252ZM268.644 184.902L245.294 208.252H243.865L267.215 184.902H268.644ZM273.897 184.902L250.548 208.252H249.119L272.469 184.902H273.897ZM279.15 184.902L255.802 208.252H254.373L277.722 184.902H279.15ZM284.405 184.902L261.057 208.252H259.628L282.977 184.902H284.405ZM289.66 184.902L266.312 208.252H264.882L288.231 184.902H289.66ZM294.913 184.902L271.565 208.252H270.135L293.484 184.902H294.913ZM300.169 184.902L276.819 208.252H275.391L298.739 184.902H300.169ZM119 208.251H117.571L140.921 184.902H142.35L119 208.251ZM124.254 208.251H122.825L146.175 184.902H147.604L124.254 208.251ZM129.508 208.251H128.079L151.428 184.902H152.856L129.508 208.251ZM134.763 208.251H133.333L156.683 184.902H158.111L134.763 208.251ZM140.017 208.251H138.587L161.937 184.902H163.364L140.017 208.251ZM145.271 208.251H143.841L167.19 184.902H168.619L145.271 208.251ZM150.524 208.251H149.096L172.444 184.902H173.874L150.524 208.251ZM182.148 208.251H180.72L204.069 184.902H205.498L182.148 208.251ZM187.403 208.251H185.975L209.324 184.902H210.753L187.403 208.251ZM192.657 208.251H191.229L214.578 184.902H216.007L192.657 208.251ZM197.911 208.251H196.482L219.832 184.902H221.261L197.911 208.251ZM203.166 208.251H201.737L225.087 184.902H226.515L203.166 208.251ZM208.42 208.251H206.99L230.339 184.902H231.769L208.42 208.251ZM213.675 208.251H212.246L235.594 184.902H237.024L213.675 208.251ZM-128.065 180.358H-129.494L-118.151 169.015H-116.722L-128.065 180.358ZM-122.812 180.358H-124.24L-112.897 169.015H-111.468L-122.812 180.358ZM-117.558 180.358H-118.986L-107.644 169.015H-106.215L-117.558 180.358ZM-112.304 180.358H-113.734L-102.391 169.015H-100.961L-112.304 180.358ZM-107.051 180.358H-108.48L-97.1367 169.015H-95.708L-107.051 180.358ZM-101.797 180.358H-103.226L-49.0127 126.146H-47.584L-101.797 180.358ZM-96.543 180.358H-97.9717L-43.7588 126.146H-42.3301L-96.543 180.358ZM-91.2891 180.358H-92.7178L-38.5049 126.146H-37.0762L-91.2891 180.358ZM-86.0352 180.358H-87.4639L-33.252 126.146H-31.8223L-86.0352 180.358ZM-64.916 180.358H-66.3447L-55.001 169.015H-53.5723L-64.916 180.358ZM-59.6621 180.358H-61.0908L-49.7471 169.015H-48.3184L-59.6621 180.358ZM-54.4082 180.358H-55.8369L-44.4932 169.015H-43.0645L-54.4082 180.358ZM-49.1543 180.358H-50.584L-39.2412 169.015H-37.8105L-49.1543 180.358ZM-43.9004 180.358H-45.3291L-33.9863 169.015H-32.5566L-43.9004 180.358ZM-38.6475 180.358H-40.0762L14.1357 126.146H15.5645L-38.6475 180.358ZM-33.3936 180.358H-34.8232L19.3896 126.146H20.8184L-33.3936 180.358ZM-28.1387 180.358H-29.5684L24.6445 126.146H26.0732L-28.1387 180.358ZM-22.8857 180.358H-24.3145L29.8984 126.146H31.3271L-22.8857 180.358ZM-1.76855 180.358H-3.19727L8.14551 169.015H9.5752L-1.76855 180.358ZM3.48633 180.358H2.05762L13.4004 169.015H14.8281L3.48633 180.358ZM8.74023 180.358H7.31055L18.6543 169.015H20.083L8.74023 180.358ZM13.9941 180.358H12.5635L23.9072 169.015H25.3359L13.9941 180.358ZM19.2471 180.358H17.8184L29.1621 169.015H30.5908L19.2471 180.358ZM24.5 180.358H23.0713L77.2842 126.146H78.7129L24.5 180.358ZM29.7529 180.358H28.3252L82.5381 126.146H83.9668L29.7529 180.358ZM35.0068 180.358H33.5781L87.791 126.146H89.2197L35.0068 180.358ZM40.2617 180.358H38.833L93.0449 126.146H94.4746L40.2617 180.358ZM61.3809 180.358H59.9521L71.2959 169.015H72.7246L61.3809 180.358ZM66.6348 180.358H65.2061L76.5498 169.015H77.9785L66.6348 180.358ZM71.8896 180.358H70.4609L81.8047 169.015H83.2334L71.8896 180.358ZM77.1436 180.358H75.7139L87.0576 169.015H88.4863L77.1436 180.358ZM82.3984 180.358H80.9697L92.3115 169.015H93.7422L82.3984 180.358ZM87.6504 180.358H86.2217L140.434 126.146H141.863L87.6504 180.358ZM92.9043 180.358H91.4756L145.688 126.146H147.116L92.9043 180.358ZM98.1582 180.358H96.7285L150.941 126.146H152.37L98.1582 180.358ZM103.413 180.358H101.982L156.195 126.146H157.625L103.413 180.358ZM124.531 180.358H123.103L134.444 169.015H135.874L124.531 180.358ZM129.786 180.358H128.356L139.699 169.015H141.128L129.786 180.358ZM135.04 180.358H133.61L144.954 169.015H146.383L135.04 180.358ZM140.294 180.358H138.863L150.207 169.015H151.636L140.294 180.358ZM145.547 180.358H144.118L155.462 169.015H156.891L145.547 180.358ZM150.799 180.358H149.37L203.583 126.146H205.012L150.799 180.358ZM156.052 180.358H154.624L208.837 126.146H210.266L156.052 180.358ZM161.308 180.358H159.878L214.091 126.146H215.521L161.308 180.358ZM166.562 180.358H165.133L219.345 126.146H220.774L166.562 180.358ZM187.678 180.358H186.249L197.593 169.015H199.021L187.678 180.358ZM192.932 180.358H191.503L202.847 169.015H204.275L192.932 180.358ZM198.186 180.358H196.757L208.1 169.015H209.529L198.186 180.358ZM203.44 180.358H202.011L213.354 169.015H214.783L203.44 180.358ZM208.694 180.358H207.266L218.607 169.015H220.037L208.694 180.358ZM213.946 180.358H212.517L266.729 126.146H268.158L213.946 180.358ZM219.2 180.358H217.771L271.983 126.146H273.412L219.2 180.358ZM224.453 180.358H223.024L277.237 126.146H278.666L224.453 180.358ZM229.708 180.358H228.278L282.491 126.146H283.921L229.708 180.358ZM-118.76 155.291H-120.188L-55.7432 90.8457H-54.3145L-118.76 155.291ZM-113.506 155.291H-114.935L-85.7891 126.146H-84.3604L-113.506 155.291ZM-108.252 155.291H-109.681L-80.5352 126.146H-79.1064L-108.252 155.291ZM-102.998 155.291H-104.428L-75.2822 126.146H-73.8525L-102.998 155.291ZM-97.7441 155.291H-99.1738L-70.0283 126.146H-68.5986L-97.7441 155.291ZM-92.4902 155.291H-93.9189L-64.7734 126.146H-63.3447L-92.4902 155.291ZM-55.6123 155.291H-57.041L7.4043 90.8457H8.83301L-55.6123 155.291ZM-50.3574 155.291H-51.7861L-22.6406 126.146H-21.2119L-50.3574 155.291ZM-45.1035 155.291H-46.5322L-17.3867 126.146H-15.958L-45.1035 155.291ZM-39.8496 155.291H-41.2783L-12.1328 126.146H-10.7041L-39.8496 155.291ZM-34.5957 155.291H-36.0244L-6.87891 126.146H-5.4502L-34.5957 155.291ZM-29.3408 155.291H-30.7695L-1.62402 126.146H-0.195312L-29.3408 155.291ZM7.5332 155.291H6.10449L70.5488 90.8457H71.9785L7.5332 155.291ZM12.79 155.291H11.3604L40.5059 126.146H41.9355L12.79 155.291ZM18.043 155.291H16.6133L45.7588 126.146H47.1885L18.043 155.291ZM23.2979 155.291H21.8682L51.0137 126.146H52.4434L23.2979 155.291ZM28.5508 155.291H27.1221L56.2676 126.146H57.6963L28.5508 155.291ZM33.8037 155.291H32.376L61.5215 126.146H62.9492L33.8037 155.291ZM70.6826 155.291H69.2529L133.698 90.8457H135.127L70.6826 155.291ZM75.9375 155.291H74.5088L103.654 126.146H105.083L75.9375 155.291ZM81.1924 155.291H79.7637L108.909 126.146H110.338L81.1924 155.291ZM86.4463 155.291H85.0176L114.163 126.146H115.592L86.4463 155.291ZM91.7002 155.291H90.2715L119.417 126.146H120.846L91.7002 155.291ZM96.9551 155.291H95.5264L124.672 126.146H126.101L96.9551 155.291ZM133.832 155.291H132.403L196.848 90.8457H198.277L133.832 155.291ZM139.089 155.291H137.659L166.805 126.146H168.234L139.089 155.291ZM144.343 155.291H142.913L172.059 126.146H173.488L144.343 155.291ZM149.596 155.291H148.166L177.312 126.146H178.741L149.596 155.291ZM154.85 155.291H153.421L182.566 126.146H183.995L154.85 155.291ZM160.104 155.291H158.676L187.821 126.146H189.25L160.104 155.291ZM196.979 155.291H195.55L259.995 90.8457H261.424L196.979 155.291ZM202.234 155.291H200.806L229.951 126.146H231.38L202.234 155.291ZM207.488 155.291H206.06L235.205 126.146H236.634L207.488 155.291ZM212.742 155.291H211.313L240.459 126.146H241.888L212.742 155.291ZM217.996 155.291H216.567L245.713 126.146H247.142L217.996 155.291ZM223.251 155.291H221.821L250.967 126.146H252.396L223.251 155.291ZM-69.0303 137.085H-70.46L-59.5205 126.146H-58.0918L-69.0303 137.085ZM-63.7773 137.085H-65.2061L-54.2666 126.146H-52.8379L-63.7773 137.085ZM-5.88184 137.085H-7.31055L3.62793 126.146H5.05762L-5.88184 137.085ZM-0.62793 137.085H-2.05664L8.88184 126.146H10.3105L-0.62793 137.085ZM57.2656 137.085H55.8359L66.7754 126.146H68.2051L57.2656 137.085ZM62.5186 137.085H61.0898L72.0293 126.146H73.458L62.5186 137.085ZM120.414 137.085H118.985L129.925 126.146H131.354L120.414 137.085ZM125.67 137.085H124.24L135.179 126.146H136.609L125.67 137.085ZM183.564 137.085H182.135L193.074 126.146H194.504L183.564 137.085ZM188.818 137.085H187.39L198.329 126.146H199.758L188.818 137.085ZM246.711 137.085H245.282L256.221 126.146H257.65L246.711 137.085ZM251.966 137.085H250.535L261.475 126.146H262.904L251.966 137.085ZM-72.4102 114.195H-73.8389L-50.4902 90.8457H-49.0605L-72.4102 114.195ZM-67.1562 114.195H-68.585L-45.2363 90.8457H-43.8066L-67.1562 114.195ZM-61.9023 114.195H-63.332L-39.9824 90.8457H-38.5537L-61.9023 114.195ZM-56.6484 114.195H-58.0781L-34.7285 90.8457H-33.2998L-56.6484 114.195ZM-51.3965 114.195H-52.8242L-29.4746 90.8457H-28.0469L-51.3965 114.195ZM-46.1406 114.195H-47.5703L-24.2207 90.8457H-22.791L-46.1406 114.195ZM-40.8877 114.195H-42.3164L-18.9668 90.8457H-17.5381L-40.8877 114.195ZM-9.2627 114.195H-10.6914L12.6582 90.8457H14.0869L-9.2627 114.195ZM-4.00879 114.195H-5.4375L17.9121 90.8457H19.3408L-4.00879 114.195ZM1.24512 114.195H-0.183594L23.166 90.8457H24.5947L1.24512 114.195ZM6.5 114.195H5.07129L28.4199 90.8457H29.8496L6.5 114.195ZM11.7539 114.195H10.3262L33.6748 90.8457H35.1025L11.7539 114.195ZM17.0078 114.195H15.5771L38.9268 90.8457H40.3555L17.0078 114.195ZM22.2627 114.195H20.833L44.1816 90.8457H45.6113L22.2627 114.195ZM53.8818 114.195H52.4531L75.8027 90.8457H77.2314L53.8818 114.195ZM59.1377 114.195H57.708L81.0576 90.8457H82.4863L59.1377 114.195ZM64.3916 114.195H62.9619L86.3115 90.8457H87.7402L64.3916 114.195ZM69.6445 114.195H68.2158L91.5654 90.8457H92.9941L69.6445 114.195ZM74.8994 114.195H73.4707L96.8203 90.8457H98.248L74.8994 114.195ZM80.1533 114.195H78.7236L102.073 90.8457H103.502L80.1533 114.195ZM85.4082 114.195H83.9795L107.328 90.8457H108.758L85.4082 114.195ZM117.032 114.195H115.604L138.953 90.8457H140.382L117.032 114.195ZM122.286 114.195H120.857L144.207 90.8457H145.637L122.286 114.195ZM127.54 114.195H126.111L149.461 90.8457H150.889L127.54 114.195ZM132.795 114.195H131.366L154.716 90.8457H156.144L132.795 114.195ZM138.049 114.195H136.62L159.969 90.8457H161.397L138.049 114.195ZM143.304 114.195H141.874L165.223 90.8457H166.652L143.304 114.195ZM148.558 114.195H147.128L170.477 90.8457H171.906L148.558 114.195ZM180.182 114.195H178.753L202.102 90.8457H203.531L180.182 114.195ZM185.437 114.195H184.007L207.356 90.8457H208.785L185.437 114.195ZM190.69 114.195H189.261L212.61 90.8457H214.039L190.69 114.195ZM195.944 114.195H194.516L217.865 90.8457H219.294L195.944 114.195ZM201.198 114.195H199.77L223.119 90.8457H224.547L201.198 114.195ZM206.453 114.195H205.023L228.373 90.8457H229.802L206.453 114.195ZM211.707 114.195H210.278L233.627 90.8457H235.057L211.707 114.195ZM243.328 114.195H241.899L265.249 90.8457H266.678L243.328 114.195ZM248.583 114.195H247.154L270.504 90.8457H271.934L248.583 114.195ZM253.837 114.195H252.408L275.758 90.8457H277.186L253.837 114.195ZM259.091 114.195H257.662L281.011 90.8457H282.439L259.091 114.195ZM264.346 114.195H262.916L286.266 90.8457H287.694L264.346 114.195ZM269.6 114.195H268.169L291.519 90.8457H292.947L269.6 114.195ZM274.854 114.195H273.425L296.773 90.8457H298.203L274.854 114.195ZM-99.8291 86.3008H-101.258L-47.0449 32.0889H-45.6162L-99.8291 86.3008ZM-94.5752 86.3008H-96.0039L-41.792 32.0889H-40.3623L-94.5752 86.3008ZM-89.3213 86.3008H-90.75L-36.5381 32.0889H-35.1084L-89.3213 86.3008ZM-84.0674 86.3008H-85.4961L-31.2842 32.0889H-29.8555L-84.0674 86.3008ZM-36.6797 86.3008H-38.1094L16.1035 32.0889H17.5322L-36.6797 86.3008ZM-31.4268 86.3008H-32.8555L21.3574 32.0889H22.7861L-31.4268 86.3008ZM-26.1719 86.3008H-27.6006L26.6123 32.0889H28.041L-26.1719 86.3008ZM-20.918 86.3008H-22.3467L31.8662 32.0889H33.2949L-20.918 86.3008ZM26.4678 86.3008H25.0391L79.252 32.0889H80.6807L26.4678 86.3008ZM31.7207 86.3008H30.293L84.5049 32.0889H85.9346L31.7207 86.3008ZM36.9746 86.3008H35.5459L89.7588 32.0889H91.1875L36.9746 86.3008ZM42.2295 86.3008H40.8008L95.0127 32.0889H96.4414L42.2295 86.3008ZM89.6172 86.3008H88.1875L142.4 32.0889H143.829L89.6172 86.3008ZM94.8701 86.3008H93.4414L147.654 32.0889H149.083L94.8701 86.3008ZM100.125 86.3008H98.6963L152.909 32.0889H154.338L100.125 86.3008ZM105.38 86.3008H103.95L158.163 32.0889H159.593L105.38 86.3008ZM152.767 86.3008H151.338L205.55 32.0889H206.979L152.767 86.3008ZM158.02 86.3008H156.592L210.804 32.0889H212.233L158.02 86.3008ZM163.274 86.3008H161.845L216.058 32.0889H217.486L163.274 86.3008ZM168.528 86.3008H167.099L221.312 32.0889H222.74L168.528 86.3008ZM215.912 86.3008H214.482L268.695 32.0889H270.124L215.912 86.3008ZM221.166 86.3008H219.736L273.949 32.0889H275.378L221.166 86.3008ZM226.419 86.3008H224.99L279.203 32.0889H280.632L226.419 86.3008ZM231.674 86.3008H230.244L284.457 32.0889H285.887L231.674 86.3008ZM-126.098 86.2998H-127.527L-116.184 74.957H-114.755L-126.098 86.2998ZM-120.844 86.2998H-122.273L-110.93 74.957H-109.501L-120.844 86.2998ZM-115.59 86.2998H-117.02L-105.676 74.957H-104.247L-115.59 86.2998ZM-110.337 86.2998H-111.767L-100.423 74.957H-98.9932L-110.337 86.2998ZM-105.084 86.2998H-106.513L-95.1689 74.957H-93.7402L-105.084 86.2998ZM-62.9482 86.2998H-64.377L-53.0332 74.9561H-51.6045L-62.9482 86.2998ZM-57.6943 86.2998H-59.123L-47.7803 74.9561H-46.3506L-57.6943 86.2998ZM-52.4404 86.2998H-53.8691L-42.5264 74.9561H-41.0967L-52.4404 86.2998ZM-47.1865 86.2998H-48.6162L-37.2734 74.9561H-35.8438L-47.1865 86.2998ZM-41.9326 86.2998H-43.3623L-32.0186 74.9561H-30.5898L-41.9326 86.2998ZM0.199219 86.2998H-1.23047L10.1133 74.9561H11.542L0.199219 86.2998ZM5.45312 86.2998H4.02344L15.3672 74.9561H16.7949L5.45312 86.2998ZM10.7061 86.2998H9.27734L20.6211 74.9561H22.0498L10.7061 86.2998ZM15.9609 86.2998H14.5312L25.875 74.9561H27.3037L15.9609 86.2998ZM21.2139 86.2998H19.7852L31.1289 74.9561H32.5576L21.2139 86.2998ZM63.3486 86.2998H61.9199L73.2637 74.9561H74.6924L63.3486 86.2998ZM68.6025 86.2998H67.1738L78.5166 74.9561H79.9463L68.6025 86.2998ZM73.8574 86.2998H72.4287L83.7715 74.9561H85.2012L73.8574 86.2998ZM79.1113 86.2998H77.6816L89.0244 74.9561H90.4531L79.1113 86.2998ZM84.3662 86.2998H82.9365L94.2793 74.9561H95.709L84.3662 86.2998ZM126.499 86.2998H125.069L136.412 74.9561H137.841L126.499 86.2998ZM131.753 86.2998H130.323L141.667 74.9561H143.096L131.753 86.2998ZM137.006 86.2998H135.577L146.921 74.9561H148.35L137.006 86.2998ZM142.261 86.2998H140.831L152.175 74.9561H153.604L142.261 86.2998ZM147.514 86.2998H146.085L157.429 74.9561H158.857L147.514 86.2998ZM189.643 86.2998H188.214L199.558 74.9561H200.986L189.643 86.2998ZM194.896 86.2998H193.468L204.812 74.9561H206.24L194.896 86.2998ZM200.151 86.2998H198.723L210.065 74.9561H211.495L200.151 86.2998ZM205.405 86.2998H203.976L215.318 74.9561H216.748L205.405 86.2998ZM210.66 86.2998H209.231L220.573 74.9561H222.003L210.66 86.2998ZM-111.538 61.2344H-112.968L-83.8223 32.0889H-82.3926L-111.538 61.2344ZM-106.284 61.2344H-107.714L-78.5684 32.0889H-77.1396L-106.284 61.2344ZM-101.031 61.2344H-102.46L-73.3145 32.0889H-71.8857L-101.031 61.2344ZM-95.7773 61.2344H-97.2061L-68.0605 32.0889H-66.6318L-95.7773 61.2344ZM-90.5225 61.2344H-91.9512L-62.8057 32.0889H-61.377L-90.5225 61.2344ZM-116.792 61.2334H-118.221L-53.7764 -3.21191H-52.3467L-116.792 61.2334ZM-53.6445 61.2334H-55.0732L9.37207 -3.21094H10.8008L-53.6445 61.2334ZM-48.3896 61.2334H-49.8184L-20.6729 32.0889H-19.2441L-48.3896 61.2334ZM-43.1357 61.2334H-44.5645L-15.4189 32.0889H-13.9902L-43.1357 61.2334ZM-37.8818 61.2334H-39.3105L-10.165 32.0889H-8.73633L-37.8818 61.2334ZM-32.6279 61.2334H-34.0566L-4.91211 32.0889H-3.48242L-32.6279 61.2334ZM-27.373 61.2334H-28.8027L0.342773 32.0889H1.77246L-27.373 61.2334ZM9.5 61.2334H8.07031L72.5156 -3.21094H73.9453L9.5 61.2334ZM14.7568 61.2334H13.3262L42.4717 32.0889H43.9023L14.7568 61.2334ZM20.0107 61.2334H18.5811L47.7266 32.0889H49.1553L20.0107 61.2334ZM25.2646 61.2334H23.8359L52.9814 32.0889H54.4102L25.2646 61.2334ZM30.5186 61.2334H29.0898L58.2354 32.0889H59.6641L30.5186 61.2334ZM35.7715 61.2334H34.3438L63.4893 32.0889H64.917L35.7715 61.2334ZM72.6494 61.2334H71.2207L135.666 -3.21094H137.095L72.6494 61.2334ZM77.9053 61.2334H76.4766L105.622 32.0889H107.051L77.9053 61.2334ZM83.1602 61.2334H81.7314L110.877 32.0889H112.306L83.1602 61.2334ZM88.4141 61.2334H86.9854L116.131 32.0889H117.56L88.4141 61.2334ZM93.668 61.2334H92.2383L121.384 32.0889H122.813L93.668 61.2334ZM98.9229 61.2334H97.4932L126.639 32.0889H128.068L98.9229 61.2334ZM135.8 61.2334H134.37L198.815 -3.21094H200.244L135.8 61.2334ZM141.057 61.2334H139.626L168.771 32.0889H170.201L141.057 61.2334ZM146.309 61.2334H144.88L174.025 32.0889H175.454L146.309 61.2334ZM151.562 61.2334H150.134L179.28 32.0889H180.708L151.562 61.2334ZM156.817 61.2334H155.389L184.534 32.0889H185.963L156.817 61.2334ZM162.071 61.2334H160.643L189.788 32.0889H191.217L162.071 61.2334ZM198.943 61.2334H197.515L261.96 -3.21094H263.389L198.943 61.2334ZM204.199 61.2334H202.771L231.916 32.0889H233.345L204.199 61.2334ZM209.454 61.2334H208.025L237.171 32.0889H238.6L209.454 61.2334ZM214.708 61.2334H213.279L242.425 32.0889H243.854L214.708 61.2334ZM219.962 61.2334H218.533L247.679 32.0889H249.107L219.962 61.2334ZM225.217 61.2334H223.787L252.933 32.0889H254.362L225.217 61.2334ZM-67.0635 43.0283H-68.4922L-57.5527 32.0889H-56.124L-67.0635 43.0283ZM-61.8096 43.0283H-63.2383L-52.2988 32.0889H-50.8701L-61.8096 43.0283ZM-3.91406 43.0273H-5.34375L5.5957 32.0889H7.02441L-3.91406 43.0273ZM1.33984 43.0273H-0.0898438L10.8496 32.0889H12.2783L1.33984 43.0273ZM59.2334 43.0273H57.8037L68.7432 32.0889H70.1729L59.2334 43.0273ZM64.4863 43.0273H63.0576L73.9971 32.0889H75.4258L64.4863 43.0273ZM122.382 43.0273H120.952L131.892 32.0889H133.32L122.382 43.0273ZM127.638 43.0273H126.207L137.146 32.0889H138.576L127.638 43.0273ZM185.532 43.0273H184.103L195.042 32.0889H196.472L185.532 43.0273ZM190.785 43.0273H189.356L200.296 32.0889H201.725L190.785 43.0273ZM248.677 43.0273H247.248L258.187 32.0889H259.616L248.677 43.0273ZM253.932 43.0273H252.501L263.44 32.0889H264.87L253.932 43.0273ZM-70.4424 20.1387H-71.8721L-48.5225 -3.21094H-47.0938L-70.4424 20.1387ZM-65.1885 20.1387H-66.6182L-43.2686 -3.21094H-41.8398L-65.1885 20.1387ZM-59.9355 20.1387H-61.3643L-38.0146 -3.21094H-36.5859L-59.9355 20.1387ZM-54.6816 20.1387H-56.1104L-32.7607 -3.21094H-31.332L-54.6816 20.1387ZM-49.4287 20.1387H-50.8564L-27.5068 -3.21094H-26.0791L-49.4287 20.1387ZM-44.1729 20.1387H-45.6025L-22.2529 -3.21094H-20.8232L-44.1729 20.1387ZM-38.9199 20.1387H-40.3486L-16.999 -3.21094H-15.5703L-38.9199 20.1387ZM-7.29492 20.1377H-8.72363L14.626 -3.21094H16.0547L-7.29492 20.1377ZM-2.04102 20.1377H-3.46973L19.8799 -3.21094H21.3086L-2.04102 20.1377ZM3.21289 20.1377H1.78418L25.1328 -3.21094H26.5625L3.21289 20.1377ZM8.46777 20.1377H7.03809L30.3877 -3.21094H31.8174L8.46777 20.1377ZM13.7207 20.1377H12.292L35.6416 -3.21094H37.0684L13.7207 20.1377ZM18.9746 20.1377H17.5449L40.8945 -3.21094H42.3232L18.9746 20.1377ZM24.2295 20.1377H22.8008L46.1494 -3.21094H47.5791L24.2295 20.1377ZM55.8496 20.1377H54.4199L77.7705 -3.21094H79.1982L55.8496 20.1377ZM61.1035 20.1377H59.6748L83.0244 -3.21094H84.4531L61.1035 20.1377ZM66.3574 20.1377H64.9287L88.2783 -3.21094H89.707L66.3574 20.1377ZM71.6123 20.1377H70.1836L93.5332 -3.21094H94.9619L71.6123 20.1377ZM76.8672 20.1377H75.4385L98.7881 -3.21094H100.216L76.8672 20.1377ZM82.1211 20.1377H80.6914L104.041 -3.21094H105.47L82.1211 20.1377ZM87.376 20.1377H85.9473L109.296 -3.21094H110.726L87.376 20.1377ZM119 20.1377H117.571L140.921 -3.21094H142.35L119 20.1377ZM124.254 20.1377H122.825L146.175 -3.21094H147.604L124.254 20.1377ZM129.508 20.1377H128.079L151.428 -3.21094H152.856L129.508 20.1377ZM134.763 20.1377H133.333L156.683 -3.21094H158.111L134.763 20.1377ZM140.017 20.1377H138.587L161.937 -3.21094H163.364L140.017 20.1377ZM145.271 20.1377H143.841L167.19 -3.21094H168.619L145.271 20.1377ZM150.524 20.1377H149.096L172.444 -3.21094H173.874L150.524 20.1377ZM182.148 20.1377H180.72L204.069 -3.21094H205.498L182.148 20.1377ZM187.403 20.1377H185.975L209.324 -3.21094H210.753L187.403 20.1377ZM192.657 20.1377H191.229L214.578 -3.21094H216.007L192.657 20.1377ZM197.911 20.1377H196.482L219.832 -3.21094H221.261L197.911 20.1377ZM203.166 20.1377H201.737L225.087 -3.21094H226.515L203.166 20.1377ZM208.42 20.1377H206.99L230.339 -3.21094H231.769L208.42 20.1377ZM213.675 20.1377H212.246L235.594 -3.21094H237.024L213.675 20.1377ZM245.294 20.1377H243.865L267.215 -3.21094H268.644L245.294 20.1377ZM250.548 20.1377H249.119L272.469 -3.21094H273.897L250.548 20.1377ZM255.802 20.1377H254.373L277.722 -3.21094H279.15L255.802 20.1377ZM261.057 20.1377H259.628L282.977 -3.21094H284.405L261.057 20.1377ZM266.312 20.1377H264.882L288.231 -3.21094H289.66L266.312 20.1377ZM271.565 20.1377H270.135L293.484 -3.21094H294.913L271.565 20.1377ZM276.819 20.1377H275.391L298.739 -3.21094H300.169L276.819 20.1377Z" fill="#2C2B80"/>
</g>
<path d="M73.0882 122.957C80.833 163.618 47.8104 214.659 30.3311 235.097V198.019C73.8269 158.534 74.242 136.434 73.0882 122.957Z" fill="url(#paint0_linear_4400_984)"/>
<path d="M160.996 122.957C153.251 163.618 186.274 214.659 203.753 235.097V198.019C160.258 158.534 159.842 136.434 160.996 122.957Z" fill="url(#paint1_linear_4400_984)"/>
<path d="M164.264 3.704L148.437 19.6508C148.437 19.6508 170.642 36.0737 180.289 57.7878C189.935 79.5019 187.984 89.8485 187.984 89.8485L195.579 100.102L233.174 78.9623C226.488 65.1167 212.44 35.8816 209.741 29.7051C207.043 23.5287 203.354 19.6263 202.125 18.8484L164.264 3.704Z" fill="#1D1C57"/>
<path d="M68.0051 5.85099L83.1749 22.6202C83.1749 22.6202 67.8606 34.598 59.9058 48.1123C51.9509 61.6265 42.4355 91.8312 42.4355 91.8312L38.0173 96.4544L33.9542 101.245L-2.069 79.1477C5.07268 65.5315 18.6686 36.7202 21.5708 30.6366C24.4731 24.553 27.7078 21.5586 28.9625 20.8219L58.5938 8.69914L68.0051 5.85099Z" fill="#1D1C57"/>
<path d="M45.5439 92.0774C50.8799 48.4157 71.9764 29.8527 85.4681 20.8037" stroke="#100F45" stroke-width="0.720554"/>
<path d="M188.546 92.0774C183.21 48.4157 162.113 29.8527 148.622 20.8037" stroke="#100F45" stroke-width="0.720554"/>
<path d="M117.043 77.665C122.225 77.665 126.901 78.2997 130.269 79.3164C131.955 79.8255 133.292 80.4238 134.198 81.0703C135.113 81.7238 135.515 82.3711 135.515 82.9678C135.515 83.5644 135.113 84.2109 134.198 84.8643C133.292 85.5107 131.955 86.109 130.269 86.6182C126.901 87.6349 122.225 88.2695 117.043 88.2695C111.862 88.2695 107.186 87.6349 103.818 86.6182C102.132 86.109 100.795 85.5107 99.8892 84.8643C98.974 84.2109 98.572 83.5643 98.5718 82.9678C98.5718 82.3711 98.9737 81.7238 99.8892 81.0703C100.795 80.4238 102.132 79.8256 103.818 79.3164C107.186 78.2997 111.862 77.665 117.043 77.665Z" fill="#1D1C57" stroke="white" stroke-width="0.787464"/>
<path d="M111.286 80.5476V81.5927H108.933V85.3926H107.687V81.5927H105.334V80.5476H111.286ZM117.827 82.9632C117.827 84.6451 116.907 85.4618 114.782 85.4618C112.65 85.4618 111.736 84.652 111.736 82.9632V80.5476H112.982V82.9632C112.982 83.6415 113.169 84.4167 114.782 84.4167C116.395 84.4167 116.581 83.6345 116.581 82.9632V80.5476H117.827V82.9632ZM126.959 80.5476H128.309L126.399 85.3926H124.675L123.249 81.745L121.817 85.3926H120.1L118.19 80.5476H119.533L120.965 84.3544L122.481 80.5476H124.011L125.533 84.3613L126.959 80.5476Z" fill="white"/>
</g>
<path d="M156.705 2.20117L165.854 6.04785L166.311 6.24121L165.985 6.61621L117.459 62.6416L117.458 62.6406L117.324 62.7969L117.052 63.1123L116.779 62.7969L116.646 62.6406H116.645L68.0977 6.28125L67.7637 5.89355L68.2422 5.70996L77.4102 2.19727L77.6484 2.10547L77.8135 2.30078L117.163 48.749L156.289 2.30078L156.46 2.09863L156.705 2.20117Z" fill="#1D1C57" stroke="#100F45" stroke-width="0.720554"/>
<path d="M157.148 1.3877L114.832 51.9019" stroke="url(#paint2_linear_4400_984)" stroke-width="4.32333"/>
<path d="M75.8301 2.5332L121.83 57.9314" stroke="url(#paint3_linear_4400_984)" stroke-width="4.32333"/>
<mask id="mask2_4400_984" style="mask-type:alpha" maskUnits="userSpaceOnUse" x="0" y="21" width="38" height="66">
<path d="M37.2787 50.764L26.5009 72.8225L22.5617 81.2014L10.1748 86.0576L0.543053 81.2014C7.2294 67.3559 19.8627 38.1097 22.5617 31.9332C25.2606 25.7567 28.3944 22.6568 29.6238 21.8789L37.2803 24.735L37.2787 50.764Z" fill="#D9D9D9"/>
</mask>
<g mask="url(#mask2_4400_984)">
<path d="M11.3345 25.2872C11.4978 25.2648 11.5295 25.4201 11.5829 25.5204C12.0241 26.3594 12.4612 27.1999 12.8973 28.0423C13.0513 28.3405 13.0536 28.6317 12.9034 28.9455C11.1393 32.6158 9.44589 36.3203 7.60079 39.953C6.42903 42.2589 6.24633 44.4909 7.70998 46.6557C10.1139 50.2135 14.5971 51.1768 18.2488 48.9154C19.116 48.3787 19.7189 47.5773 20.1511 46.6819C21.7545 43.3623 23.3405 40.0348 24.9248 36.7054C25.2343 36.0564 25.5059 35.3914 25.7997 34.7352C26.0083 34.2697 26.3611 33.9962 26.8894 33.9011C27.5963 33.7742 28.2943 33.6039 28.9977 33.4569C29.1328 33.4287 29.2932 33.3102 29.4043 33.4191C29.5493 33.5618 29.3812 33.7091 29.3202 33.8389C28.1505 36.2948 26.9734 38.7487 25.7988 41.2024L25.7694 41.1892L25.7681 41.1896C24.6386 43.5491 23.5654 45.9352 22.3646 48.2592C21.1241 50.6589 19.0349 52.032 16.3323 52.5623C14.0693 53.0061 11.8744 52.7523 9.79578 51.8422C6.03693 50.1958 3.33127 46.4039 3.63384 42.5093C3.70373 41.6138 3.94654 40.7601 4.33481 39.9465C6.12159 36.209 7.91448 32.4742 9.6944 28.7336C10.1996 27.6732 10.6708 26.5965 11.1594 25.5287C11.2011 25.4365 11.2121 25.3038 11.3345 25.2872Z" fill="white"/>
<path d="M23.6878 34.61C23.8406 34.577 24.1116 34.4852 24.1516 34.5858C24.2008 34.7097 24.1003 34.9089 24.0297 35.0563C23.1425 36.9272 22.2852 38.8128 21.4412 40.3519L21.4402 40.3538C20.4983 42.3215 19.6247 43.9721 18.9083 45.6853C17.8984 48.0987 15.1396 49.1619 12.7205 48.5795C10.1664 47.9653 8.40194 46.0975 8.13275 43.5766C8.06528 42.9406 8.18732 42.3297 8.46684 41.7457C9.64189 39.2911 10.8071 36.832 11.9831 34.3778C12.5663 33.1595 13.1133 31.9191 13.7006 30.6922C13.7745 30.5602 13.8175 30.3818 14.0018 30.3654C14.1396 30.3532 14.1765 30.5011 14.2835 30.698C14.5851 31.2534 14.8678 31.8188 15.1728 32.3721C15.3738 32.7365 15.392 33.0696 15.202 33.4614C13.8457 36.2575 12.5105 39.0642 11.1688 41.8669C10.4604 43.3468 11.028 44.8507 12.5582 45.5393C14.0903 46.2288 15.6274 45.6825 16.3495 44.2088C17.1364 42.6025 17.9409 41.0041 18.7376 39.4022C19.3084 38.2546 19.7328 37.0446 20.3378 35.9101C20.5811 35.4543 20.8737 35.1791 21.4227 35.0956C22.1851 34.9798 22.9316 34.7725 23.6878 34.61Z" fill="white"/>
</g>
<defs>
<linearGradient id="paint0_linear_4400_984" x1="43.6291" y1="210.353" x2="25.1773" y2="148.702" gradientUnits="userSpaceOnUse">
<stop stop-color="#323AA2"/>
<stop offset="0.349481" stop-color="#6C56A0"/>
<stop offset="0.689074" stop-color="#FF99BE"/>
<stop offset="1" stop-color="#FFD278"/>
</linearGradient>
<linearGradient id="paint1_linear_4400_984" x1="190.455" y1="210.353" x2="208.907" y2="148.702" gradientUnits="userSpaceOnUse">
<stop stop-color="#323AA2"/>
<stop offset="0.349481" stop-color="#6C56A0"/>
<stop offset="0.689074" stop-color="#FF99BE"/>
<stop offset="1" stop-color="#FFD278"/>
</linearGradient>
<linearGradient id="paint2_linear_4400_984" x1="137.128" y1="1.3877" x2="137.128" y2="49.2545" gradientUnits="userSpaceOnUse">
<stop stop-color="#323AA2"/>
<stop offset="0.528846" stop-color="#E38CB8"/>
<stop offset="1" stop-color="#FFC488"/>
</linearGradient>
<linearGradient id="paint3_linear_4400_984" x1="95.8503" y1="2.5332" x2="95.8503" y2="50.4001" gradientUnits="userSpaceOnUse">
<stop stop-color="#FFC488"/>
<stop offset="0.471154" stop-color="#E38CB8"/>
<stop offset="1" stop-color="#323AA2"/>
</linearGradient>
</defs>
</svg>
