<svg width="235" height="267" viewBox="0 0 235 267" fill="none" xmlns="http://www.w3.org/2000/svg">
<path d="M157.228 0C172.581 2.79113 194.305 14.9267 206.033 20.6456C209.494 22.2978 211.728 27.4646 212.413 29.8415L232.441 74.3982L195.985 96.7209C195.16 95.656 192.61 92.5818 189.009 88.8046C194.185 111.987 186.506 117.82 180.683 138.876L180.681 138.882C179.315 143.824 178.434 147.01 180.683 159.832C182.933 172.658 199.136 238.898 203.862 256.932C193.285 267.315 55.114 271.303 31.2643 256.932C40.6885 237.518 56.0552 173.329 56.0552 154.782C56.0552 142.054 49.9242 132.412 45.966 120.538C42.7995 111.038 45.0864 95.9042 45.966 88.8046L39.5576 96.7209L2.23784 75.4223C6.76144 66.3751 17.1281 45.2273 22.4056 33.0135C27.6831 20.7998 32.1439 17.6207 33.7146 17.5579C46.2773 12.7716 68.6051 2.55921 79.0732 0C89.5794 3.35982 119.919 8.06357 157.228 0Z" fill="#1D1C57"/>
<mask id="mask0_4400_1040" style="mask-type:alpha" maskUnits="userSpaceOnUse" x="2" y="0" width="231" height="267">
<path d="M157.228 0C172.581 2.79113 194.305 14.9267 206.033 20.6456C209.494 22.2978 211.728 27.4646 212.413 29.8415L232.441 74.3982L195.985 96.7209C195.16 95.656 192.61 92.5818 189.009 88.8046C194.185 111.987 186.506 117.82 180.683 138.876L180.681 138.882C179.315 143.824 178.434 147.01 180.683 159.832C182.933 172.658 199.136 238.898 203.862 256.932C193.285 267.315 55.114 271.303 31.2643 256.932C40.6885 237.518 56.0552 173.329 56.0552 154.782C56.0552 142.054 49.9242 132.412 45.966 120.538C42.7995 111.038 45.0864 95.9042 45.966 88.8046L39.5576 96.7209L2.23784 75.4223C6.76144 66.3751 17.1281 45.2273 22.4056 33.0135C27.6831 20.7998 32.1439 17.6207 33.7146 17.5579C46.2773 12.7716 68.6051 2.55921 79.0732 0C86.7297 2.86961 113.08 6.88706 157.228 0Z" fill="#1D1C57"/>
</mask>
<g mask="url(#mask0_4400_1040)">
<mask id="mask1_4400_1040" style="mask-type:luminance" maskUnits="userSpaceOnUse" x="-28" y="-82" width="295" height="461">
<path d="M266.121 -81.6758H-27.4966V378.814H266.121V-81.6758Z" fill="white"/>
</mask>
<g mask="url(#mask1_4400_1040)">
<path fill-rule="evenodd" clip-rule="evenodd" d="M97.3252 287.381H95.8965L107.239 276.037H108.669L97.3252 287.381ZM102.579 287.381H101.15L112.493 276.037H113.922L102.579 287.381ZM107.834 287.381H106.404L117.748 276.037H119.177L107.834 287.381ZM113.088 287.381H111.657L123.001 276.037H124.43L113.088 287.381ZM118.342 287.381H116.913L128.256 276.037H129.686L118.342 287.381ZM123.593 287.381H122.164L176.377 233.168H177.806L123.593 287.381ZM128.847 287.381H127.418L181.631 233.168H183.06L128.847 287.381ZM134.102 287.381H132.673L186.885 233.168H188.314L134.102 287.381ZM139.356 287.381H137.927L192.139 233.168H193.569L139.356 287.381ZM160.475 287.381H159.046L170.389 276.037H171.817L160.475 287.381ZM165.729 287.381H164.3L175.644 276.037H177.072L165.729 287.381ZM170.982 287.381H169.554L180.897 276.037H182.326L170.982 287.381ZM176.237 287.381H174.808L186.15 276.037H187.58L176.237 287.381ZM181.49 287.381H180.062L191.404 276.037H192.834L181.49 287.381ZM186.743 287.381H185.314L239.526 233.168H240.955L186.743 287.381ZM191.996 287.381H190.567L244.78 233.168H246.209L191.996 287.381ZM197.251 287.381H195.82L250.034 233.168H251.463L197.251 287.381ZM202.504 287.381H201.075L255.288 233.168H256.717L202.504 287.381ZM-92.1221 287.38H-93.5508L-82.207 276.037H-80.7783L-92.1221 287.38ZM-86.8682 287.38H-88.2969L-76.9531 276.037H-75.5244L-86.8682 287.38ZM-81.6143 287.38H-83.043L-71.7002 276.037H-70.2705L-81.6143 287.38ZM-76.3604 287.38H-77.79L-66.4473 276.037H-65.0166L-76.3604 287.38ZM-71.1074 287.38H-72.5361L-61.1934 276.037H-59.7646L-71.1074 287.38ZM-65.8525 287.38H-67.2822L-13.0693 233.168H-11.6406L-65.8525 287.38ZM-60.5986 287.38H-62.0283L-7.81543 233.168H-6.38672L-60.5986 287.38ZM-55.3457 287.38H-56.7744L-2.56152 233.168H-1.13281L-55.3457 287.38ZM-50.0918 287.38H-51.5205L2.69238 233.168H4.12109L-50.0918 287.38ZM-28.9717 287.38H-30.4014L-19.0576 276.037H-17.6289L-28.9717 287.38ZM-23.7178 287.38H-25.1475L-13.8037 276.037H-12.375L-23.7178 287.38ZM-18.4648 287.38H-19.8936L-8.5498 276.037H-7.12109L-18.4648 287.38ZM-13.2109 287.38H-14.6406L-3.29688 276.037H-1.86719L-13.2109 287.38ZM-7.95703 287.38H-9.38574L1.95801 276.037H3.38672L-7.95703 287.38ZM-2.7041 287.38H-4.13281L50.0791 233.168H51.5088L-2.7041 287.38ZM2.5498 287.38H1.12109L55.333 233.168H56.7627L2.5498 287.38ZM7.80469 287.38H6.37598L60.5879 233.168H62.0166L7.80469 287.38ZM13.0586 287.38H11.6299L65.8418 233.168H67.2705L13.0586 287.38ZM34.1748 287.38H32.7461L44.0898 276.037H45.5186L34.1748 287.38ZM39.4287 287.38H38L49.3438 276.037H50.7715L39.4287 287.38ZM44.6826 287.38H43.2539L54.5967 276.037H56.0264L44.6826 287.38ZM49.9375 287.38H48.5078L59.8506 276.037H61.2803L49.9375 287.38ZM55.1904 287.38H53.7617L65.1045 276.037H66.5332L55.1904 287.38ZM60.4443 287.38H59.0146L113.228 233.168H114.656L60.4443 287.38ZM65.6963 287.38H64.2686L118.481 233.168H119.91L65.6963 287.38ZM70.9502 287.38H69.5215L123.735 233.168H125.163L70.9502 287.38ZM76.2051 287.38H74.7764L128.989 233.168H130.418L76.2051 287.38ZM234.962 276.037L223.619 287.38H222.189L233.533 276.037H234.962ZM240.216 276.037L228.873 287.38H227.443L238.787 276.037H240.216ZM245.471 276.037L234.127 287.38H232.698L244.042 276.037H245.471ZM250.724 276.037L239.381 287.38H237.951L249.295 276.037H250.724ZM255.979 276.037L244.636 287.38H243.207L254.55 276.037H255.979ZM304.101 233.168L249.888 287.38H248.459L302.672 233.168H304.101ZM309.354 233.168L255.142 287.38H253.713L307.925 233.168H309.354ZM314.608 233.168L260.396 287.38H258.967L313.179 233.168H314.608ZM319.862 233.168L265.65 287.38H264.221L318.433 233.168H319.862ZM-82.8164 262.313H-84.2451L-19.7998 197.868H-18.3711L-82.8164 262.313ZM-77.5625 262.313H-78.9912L-49.8457 233.168H-48.417L-77.5625 262.313ZM-72.3086 262.313H-73.7373L-44.5918 233.168H-43.1631L-72.3086 262.313ZM-67.0547 262.313H-68.4834L-39.3379 233.168H-37.9092L-67.0547 262.313ZM-61.8008 262.313H-63.2295L-34.084 233.168H-32.6553L-61.8008 262.313ZM-56.5459 262.313H-57.9756L-28.8301 233.168H-27.4004L-56.5459 262.313ZM-19.668 262.313H-21.0977L43.3477 197.868H44.7764L-19.668 262.313ZM-14.4131 262.313H-15.8428L13.3027 233.168H14.7324L-14.4131 262.313ZM-9.16016 262.313H-10.5889L18.5566 233.168H19.9854L-9.16016 262.313ZM-3.90625 262.313H-5.33496L23.8105 233.168H25.2393L-3.90625 262.313ZM1.34766 262.313H-0.0810547L29.0645 233.168H30.4932L1.34766 262.313ZM6.60254 262.313H5.17383L34.3193 233.168H35.748L6.60254 262.313ZM43.4756 262.313H42.0469L106.492 197.868H107.921L43.4756 262.313ZM48.7324 262.313H47.3027L76.4482 233.168H77.8779L48.7324 262.313ZM53.9863 262.313H52.5576L81.7031 233.168H83.1318L53.9863 262.313ZM59.2412 262.313H57.8125L86.958 233.168H88.3867L59.2412 262.313ZM64.4951 262.313H63.0664L92.2109 233.168H93.6406L64.4951 262.313ZM69.748 262.313H68.3193L97.4648 233.168H98.8936L69.748 262.313ZM106.626 262.313H105.197L169.642 197.868H171.071L106.626 262.313ZM111.882 262.313H110.453L139.599 233.168H141.027L111.882 262.313ZM117.137 262.313H115.707L144.853 233.168H146.282L117.137 262.313ZM122.391 262.313H120.961L150.106 233.168H151.536L122.391 262.313ZM127.644 262.313H126.215L155.36 233.168H156.789L127.644 262.313ZM132.898 262.313H131.47L160.615 233.168H162.044L132.898 262.313ZM169.775 262.313H168.347L232.792 197.868H234.221L169.775 262.313ZM175.032 262.313H173.603L202.748 233.168H204.178L175.032 262.313ZM180.285 262.313H178.856L208.002 233.168H209.431L180.285 262.313ZM185.539 262.313H184.11L213.257 233.168H214.685L185.539 262.313ZM190.794 262.313H189.365L218.511 233.168H219.939L190.794 262.313ZM196.048 262.313H194.619L223.764 233.168H225.193L196.048 262.313ZM297.365 197.868L232.92 262.313H231.491L295.936 197.868H297.365ZM267.321 233.168L238.176 262.313H236.746L265.892 233.168H267.321ZM272.575 233.168L243.431 262.313H242.001L271.146 233.168H272.575ZM277.829 233.168L248.684 262.313H247.255L276.4 233.168H277.829ZM283.083 233.168L253.938 262.313H252.509L281.654 233.168H283.083ZM288.338 233.168L259.192 262.313H257.764L286.909 233.168H288.338ZM-33.0869 244.107H-34.5156L-23.5771 233.168H-22.1475L-33.0869 244.107ZM-27.833 244.107H-29.2627L-18.3232 233.168H-16.8945L-27.833 244.107ZM30.0615 244.107H28.6328L39.5723 233.168H41.001L30.0615 244.107ZM35.3154 244.107H33.8867L44.8262 233.168H46.2549L35.3154 244.107ZM93.21 244.107H91.7803L102.719 233.168H104.148L93.21 244.107ZM98.4629 244.107H97.0332L107.973 233.168H109.401L98.4629 244.107ZM156.357 244.107H154.929L165.868 233.168H167.297L156.357 244.107ZM161.613 244.107H160.184L171.123 233.168H172.553L161.613 244.107ZM219.509 244.107H218.079L229.018 233.168H230.448L219.509 244.107ZM224.762 244.107H223.333L234.271 233.168H235.7L224.762 244.107ZM293.592 233.168L282.652 244.107H281.224L292.163 233.168H293.592ZM298.847 233.168L287.907 244.107H286.478L297.417 233.168H298.847ZM-36.4668 221.218H-37.8955L-14.5459 197.868H-13.1172L-36.4668 221.218ZM-31.2129 221.218H-32.6416L-9.29199 197.868H-7.86328L-31.2129 221.218ZM-25.959 221.218H-27.3877L-4.03906 197.868H-2.60938L-25.959 221.218ZM-20.7051 221.218H-22.1338L1.21484 197.868H2.64453L-20.7051 221.218ZM-15.4521 221.218H-16.8809L6.46875 197.868H7.89648L-15.4521 221.218ZM-10.1963 221.218H-11.627L11.7227 197.868H13.1523L-10.1963 221.218ZM-4.94434 221.218H-6.37305L16.9766 197.868H18.4053L-4.94434 221.218ZM26.6816 221.218H25.252L48.6016 197.868H50.0303L26.6816 221.218ZM31.9346 221.218H30.5059L53.8555 197.868H55.2842L31.9346 221.218ZM37.1885 221.218H35.7598L59.1094 197.868H60.5381L37.1885 221.218ZM42.4434 221.218H41.0146L64.3643 197.868H65.793L42.4434 221.218ZM47.6963 221.218H46.2686L69.6182 197.868H71.0449L47.6963 221.218ZM52.9512 221.218H51.5215L74.8711 197.868H76.2998L52.9512 221.218ZM58.2061 221.218H56.7773L80.125 197.868H81.5557L58.2061 221.218ZM89.8252 221.218H88.3965L111.747 197.868H113.175L89.8252 221.218ZM95.0801 221.218H93.6514L117.001 197.868H118.43L95.0801 221.218ZM100.334 221.218H98.9053L122.254 197.868H123.684L100.334 221.218ZM105.589 221.218H104.16L127.509 197.868H128.938L105.589 221.218ZM110.844 221.218H109.414L132.764 197.868H134.191L110.844 221.218ZM116.098 221.218H114.667L138.017 197.868H139.445L116.098 221.218ZM121.352 221.218H119.923L143.271 197.868H144.701L121.352 221.218ZM152.977 221.218H151.548L174.896 197.868H176.326L152.977 221.218ZM158.23 221.218H156.801L180.15 197.868H181.579L158.23 221.218ZM163.484 221.218H162.055L185.404 197.868H186.832L163.484 221.218ZM168.738 221.218H167.31L190.659 197.868H192.087L168.738 221.218ZM173.992 221.218H172.563L195.913 197.868H197.341L173.992 221.218ZM179.247 221.218H177.817L201.167 197.868H202.596L179.247 221.218ZM184.501 221.218H183.072L206.421 197.868H207.851L184.501 221.218ZM216.125 221.218H214.696L238.046 197.868H239.475L216.125 221.218ZM221.38 221.218H219.951L243.301 197.868H244.729L221.38 221.218ZM226.634 221.218H225.205L248.555 197.868H249.983L226.634 221.218ZM231.888 221.218H230.459L253.808 197.868H255.237L231.888 221.218ZM237.143 221.218H235.714L259.062 197.868H260.491L237.143 221.218ZM242.396 221.218H240.966L264.315 197.868H265.744L242.396 221.218ZM247.651 221.218H246.222L269.57 197.868H271L247.651 221.218ZM302.619 197.868L279.271 221.218H277.841L301.19 197.868H302.619ZM307.873 197.868L284.524 221.218H283.095L306.444 197.868H307.873ZM313.126 197.868L289.777 221.218H288.349L311.698 197.868H313.126ZM318.381 197.868L295.032 221.218H293.604L316.953 197.868H318.381ZM323.636 197.868L300.287 221.218H298.858L322.208 197.868H323.636ZM328.89 197.868L305.541 221.218H304.111L327.461 197.868H328.89ZM334.146 197.868L310.796 221.218H309.367L332.716 197.868H334.146ZM-94.0898 193.323H-95.5186L-84.1748 181.979H-82.7461L-94.0898 193.323ZM-88.8359 193.323H-90.2646L-78.9209 181.979H-77.4922L-88.8359 193.323ZM-83.582 193.323H-85.0107L-73.667 181.979H-72.2383L-83.582 193.323ZM-78.3281 193.323H-79.7578L-68.415 181.979H-66.9844L-78.3281 193.323ZM-73.0752 193.323H-74.5039L-63.1611 181.979H-61.7314L-73.0752 193.323ZM-67.8203 193.323H-69.249L-15.0371 139.11H-13.6084L-67.8203 193.323ZM-62.5664 193.323H-63.9961L-9.7832 139.11H-8.35449L-62.5664 193.323ZM-57.3125 193.323H-58.7422L-4.5293 139.11H-3.10059L-57.3125 193.323ZM-52.0596 193.323H-53.4883L0.724609 139.11H2.15332L-52.0596 193.323ZM-30.9395 193.323H-32.3682L-21.0254 181.979H-19.5967L-30.9395 193.323ZM-25.6855 193.323H-27.1152L-15.7715 181.979H-14.3428L-25.6855 193.323ZM-20.4316 193.323H-21.8613L-10.5176 181.979H-9.08887L-20.4316 193.323ZM-15.1787 193.323H-16.6084L-5.26465 181.979H-3.83496L-15.1787 193.323ZM-9.9248 193.323H-11.3535L-0.00976562 181.979H1.41895L-9.9248 193.323ZM-4.67188 193.323H-6.10059L48.1123 139.11H49.541L-4.67188 193.323ZM0.582031 193.323H-0.84668L53.3662 139.11H54.7949L0.582031 193.323ZM5.83691 193.323H4.4082L58.6201 139.11H60.0498L5.83691 193.323ZM11.0908 193.323H9.66211L63.874 139.11H65.3037L11.0908 193.323ZM32.207 193.323H30.7783L42.1221 181.979H43.5508L32.207 193.323ZM37.4619 193.323H36.0332L47.377 181.979H48.8047L37.4619 193.323ZM42.7158 193.323H41.2871L52.6309 181.979H54.0596L42.7158 193.323ZM47.9697 193.323H46.54L57.8828 181.979H59.3125L47.9697 193.323ZM53.2236 193.323H51.7949L63.1377 181.979H64.5674L53.2236 193.323ZM58.4766 193.323H57.0479L111.26 139.11H112.688L58.4766 193.323ZM63.7295 193.323H62.3008L116.514 139.11H117.942L63.7295 193.323ZM68.9834 193.323H67.5537L121.768 139.11H123.195L68.9834 193.323ZM74.2373 193.323H72.8086L127.021 139.11H128.45L74.2373 193.323ZM95.3574 193.323H93.9287L105.272 181.98H106.701L95.3574 193.323ZM100.611 193.323H99.1826L110.526 181.98H111.955L100.611 193.323ZM105.866 193.323H104.438L115.78 181.98H117.21L105.866 193.323ZM111.12 193.323H109.69L121.033 181.98H122.463L111.12 193.323ZM116.375 193.323H114.946L126.288 181.98H127.718L116.375 193.323ZM121.627 193.323H120.197L174.41 139.111H175.839L121.627 193.323ZM126.881 193.323H125.451L179.664 139.111H181.093L126.881 193.323ZM132.134 193.323H130.705L184.918 139.111H186.347L132.134 193.323ZM137.389 193.323H135.959L190.172 139.111H191.602L137.389 193.323ZM158.508 193.323H157.078L168.421 181.98H169.85L158.508 193.323ZM163.763 193.323H162.332L173.676 181.98H175.104L163.763 193.323ZM169.016 193.323H167.587L178.931 181.98H180.359L169.016 193.323ZM174.27 193.323H172.84L184.184 181.98H185.612L174.27 193.323ZM179.523 193.323H178.095L189.438 181.98H190.867L179.523 193.323ZM184.775 193.323H183.347L237.559 139.111H238.988L184.775 193.323ZM190.028 193.323H188.601L242.812 139.111H244.242L190.028 193.323ZM195.284 193.323H193.854L248.067 139.111H249.496L195.284 193.323ZM200.538 193.323H199.108L253.321 139.111H254.75L200.538 193.323ZM221.654 193.323H220.226L231.568 181.979H232.997L221.654 193.323ZM226.908 193.323H225.479L236.822 181.979H238.251L226.908 193.323ZM232.162 193.323H230.732L242.076 181.979H243.505L232.162 193.323ZM237.416 193.323H235.986L247.33 181.979H248.759L237.416 193.323ZM242.67 193.323H241.241L252.584 181.979H254.014L242.67 193.323ZM247.922 193.323H246.493L300.706 139.11H302.135L247.922 193.323ZM253.176 193.323H251.747L305.959 139.11H307.389L253.176 193.323ZM258.43 193.323H257.001L311.213 139.11H312.643L258.43 193.323ZM263.685 193.323H262.255L316.467 139.11H317.896L263.685 193.323ZM104.658 168.257H103.229L167.675 103.812H169.104L104.658 168.257ZM109.914 168.257H108.485L137.631 139.111H139.06L109.914 168.257ZM115.169 168.257H113.74L142.886 139.111H144.314L115.169 168.257ZM120.423 168.257H118.994L148.14 139.111H149.568L120.423 168.257ZM125.677 168.257H124.248L153.393 139.111H154.822L125.677 168.257ZM130.932 168.257H129.502L158.647 139.111H160.077L130.932 168.257ZM167.809 168.257H166.379L230.824 103.812H232.253L167.809 168.257ZM173.065 168.257H171.635L200.78 139.111H202.21L173.065 168.257ZM178.318 168.257H176.89L206.035 139.111H207.464L178.318 168.257ZM183.571 168.257H182.143L211.289 139.111H212.717L183.571 168.257ZM188.826 168.257H187.397L216.543 139.111H217.972L188.826 168.257ZM194.081 168.257H192.652L221.798 139.111H223.227L194.081 168.257ZM-84.7842 168.256H-86.2129L-21.7676 103.812H-20.3389L-84.7842 168.256ZM-79.5303 168.256H-80.959L-51.8135 139.11H-50.3848L-79.5303 168.256ZM-74.2764 168.256H-75.7051L-46.5596 139.11H-45.1309L-74.2764 168.256ZM-69.0225 168.256H-70.4512L-41.3057 139.11H-39.877L-69.0225 168.256ZM-63.7686 168.256H-65.1973L-36.0518 139.11H-34.623L-63.7686 168.256ZM-58.5137 168.256H-59.9424L-30.7969 139.11H-29.3682L-58.5137 168.256ZM-21.6357 168.256H-23.0645L41.3799 103.812H42.8096L-21.6357 168.256ZM-16.3809 168.256H-17.8096L11.335 139.11H12.7646L-16.3809 168.256ZM-11.127 168.256H-12.5566L16.5889 139.11H18.0186L-11.127 168.256ZM-5.87305 168.256H-7.30273L21.8428 139.11H23.2715L-5.87305 168.256ZM-0.620117 168.256H-2.04883L27.0967 139.11H28.5254L-0.620117 168.256ZM4.63477 168.256H3.20605L32.3516 139.11H33.7803L4.63477 168.256ZM41.5088 168.256H40.0801L104.525 103.812H105.954L41.5088 168.256ZM46.7656 168.256H45.3359L74.4814 139.11H75.9111L46.7656 168.256ZM52.0186 168.256H50.5898L79.7354 139.11H81.1641L52.0186 168.256ZM57.2734 168.256H55.8447L84.9902 139.11H86.4189L57.2734 168.256ZM62.5273 168.256H61.0986L90.2441 139.11H91.6729L62.5273 168.256ZM67.7803 168.256H66.3525L95.498 139.11H96.9258L67.7803 168.256ZM230.955 168.256H229.526L293.971 103.812H295.4L230.955 168.256ZM236.211 168.256H234.781L263.927 139.11H265.356L236.211 168.256ZM241.465 168.256H240.035L269.181 139.11H270.609L241.465 168.256ZM246.718 168.256H245.289L274.435 139.11H275.863L246.718 168.256ZM251.972 168.256H250.543L279.688 139.11H281.117L251.972 168.256ZM257.227 168.256H255.798L284.943 139.11H286.372L257.227 168.256ZM-35.0547 150.05H-36.4834L-25.5449 139.11H-24.1152L-35.0547 150.05ZM-29.8008 150.05H-31.2295L-20.291 139.11H-18.8613L-29.8008 150.05ZM28.0938 150.05H26.665L37.6045 139.11H39.0332L28.0938 150.05ZM33.3477 150.05H31.9189L42.8584 139.11H44.2871L33.3477 150.05ZM91.2422 150.05H89.8125L100.751 139.11H102.182L91.2422 150.05ZM96.4951 150.05H95.0664L106.005 139.11H107.435L96.4951 150.05ZM154.391 150.05H152.962L163.9 139.111H165.329L154.391 150.05ZM159.646 150.05H158.216L169.155 139.111H170.585L159.646 150.05ZM217.541 150.05H216.111L227.051 139.111H228.48L217.541 150.05ZM222.795 150.05H221.366L232.306 139.111H233.734L222.795 150.05ZM280.687 150.05H279.258L290.197 139.11H291.626L280.687 150.05ZM285.941 150.05H284.512L295.451 139.11H296.881L285.941 150.05ZM151.009 127.161H149.58L172.93 103.812H174.358L151.009 127.161ZM156.263 127.161H154.834L178.184 103.812H179.613L156.263 127.161ZM161.517 127.161H160.088L183.437 103.812H184.865L161.517 127.161ZM166.771 127.161H165.343L188.691 103.812H190.12L166.771 127.161ZM172.025 127.161H170.596L193.945 103.812H195.373L172.025 127.161ZM177.28 127.161H175.85L199.199 103.812H200.628L177.28 127.161ZM182.533 127.161H181.104L204.453 103.812H205.883L182.533 127.161ZM214.158 127.161H212.729L236.078 103.812H237.507L214.158 127.161ZM219.412 127.161H217.983L241.333 103.812H242.762L219.412 127.161ZM224.666 127.161H223.237L246.587 103.812H248.016L224.666 127.161ZM229.921 127.161H228.492L251.842 103.812H253.271L229.921 127.161ZM235.175 127.161H233.746L257.096 103.812H258.523L235.175 127.161ZM240.43 127.161H239L262.35 103.812H263.778L240.43 127.161ZM245.684 127.161H244.255L267.603 103.812H269.033L245.684 127.161ZM-38.4346 127.16H-39.8633L-16.5137 103.812H-15.085L-38.4346 127.16ZM-33.1807 127.16H-34.6094L-11.2598 103.812H-9.83105L-33.1807 127.16ZM-27.9268 127.16H-29.3555L-6.00586 103.812H-4.57715L-27.9268 127.16ZM-22.6729 127.16H-24.1016L-0.751953 103.812H0.676758L-22.6729 127.16ZM-17.4199 127.16H-18.8477L4.50098 103.812H5.92969L-17.4199 127.16ZM-12.1641 127.16H-13.5947L9.75488 103.812H11.1855L-12.1641 127.16ZM-6.91113 127.16H-8.34082L15.0088 103.812H16.4375L-6.91113 127.16ZM24.7139 127.16H23.2842L46.6338 103.812H48.0635L24.7139 127.16ZM29.9678 127.16H28.5381L51.8877 103.812H53.3164L29.9678 127.16ZM35.2207 127.16H33.792L57.1416 103.812H58.5703L35.2207 127.16ZM40.4756 127.16H39.0469L62.3965 103.812H63.8252L40.4756 127.16ZM45.7295 127.16H44.3018L67.6514 103.812H69.0781L45.7295 127.16ZM50.9834 127.16H49.5537L72.9033 103.812H74.332L50.9834 127.16ZM56.2383 127.16H54.8096L78.1582 103.812H79.5879L56.2383 127.16ZM87.8574 127.16H86.4287L109.779 103.812H111.207L87.8574 127.16ZM93.1133 127.16H91.6846L115.034 103.812H116.463L93.1133 127.16ZM98.3672 127.16H96.9385L120.288 103.812H121.717L98.3672 127.16ZM103.621 127.16H102.192L125.542 103.812H126.971L103.621 127.16ZM108.876 127.16H107.447L130.796 103.812H132.225L108.876 127.16ZM114.13 127.16H112.699L136.049 103.812H137.479L114.13 127.16ZM119.385 127.16H117.955L141.304 103.812H142.733L119.385 127.16ZM277.305 127.16H275.875L299.225 103.812H300.653L277.305 127.16ZM282.56 127.16H281.13L304.479 103.812H305.909L282.56 127.16ZM287.812 127.16H286.384L309.733 103.812H311.161L287.812 127.16ZM293.066 127.16H291.638L314.987 103.812H316.415L293.066 127.16ZM298.321 127.16H296.893L320.242 103.812H321.67L298.321 127.16ZM303.575 127.16H302.146L325.495 103.812H326.924L303.575 127.16ZM308.83 127.16H307.401L330.75 103.812H332.18L308.83 127.16ZM-65.8525 99.2666H-67.2822L-13.0693 45.0537H-11.6406L-65.8525 99.2666ZM-60.5986 99.2666H-62.0283L-7.81543 45.0537H-6.38672L-60.5986 99.2666ZM-55.3457 99.2666H-56.7744L-2.56152 45.0537H-1.13281L-55.3457 99.2666ZM-50.0918 99.2666H-51.5205L2.69238 45.0537H4.12109L-50.0918 99.2666ZM-2.7041 99.2666H-4.13281L50.0791 45.0537H51.5088L-2.7041 99.2666ZM2.5498 99.2666H1.12109L55.333 45.0537H56.7627L2.5498 99.2666ZM7.80469 99.2666H6.37598L60.5879 45.0537H62.0166L7.80469 99.2666ZM13.0586 99.2666H11.6299L65.8418 45.0537H67.2705L13.0586 99.2666ZM60.4443 99.2666H59.0146L113.228 45.0537H114.656L60.4443 99.2666ZM65.6963 99.2666H64.2686L118.481 45.0537H119.91L65.6963 99.2666ZM70.9502 99.2666H69.5215L123.735 45.0537H125.163L70.9502 99.2666ZM76.2051 99.2666H74.7764L128.989 45.0537H130.418L76.2051 99.2666ZM123.593 99.2666H122.164L176.376 45.0537H177.806L123.593 99.2666ZM128.847 99.2666H127.418L181.63 45.0537H183.06L128.847 99.2666ZM134.102 99.2666H132.673L186.885 45.0537H188.313L134.102 99.2666ZM139.356 99.2666H137.926L192.139 45.0537H193.568L139.356 99.2666ZM186.742 99.2666H185.313L239.526 45.0537H240.955L186.742 99.2666ZM191.995 99.2666H190.567L244.78 45.0537H246.209L191.995 99.2666ZM197.25 99.2666H195.82L250.034 45.0537H251.463L197.25 99.2666ZM202.504 99.2666H201.075L255.288 45.0537H256.717L202.504 99.2666ZM249.888 99.2666H248.459L302.672 45.0537H304.101L249.888 99.2666ZM255.142 99.2666H253.713L307.925 45.0537H309.354L255.142 99.2666ZM260.396 99.2666H258.967L313.179 45.0537H314.608L260.396 99.2666ZM265.65 99.2666H264.221L318.433 45.0537H319.862L265.65 99.2666ZM-92.1221 99.2656H-93.5508L-82.207 87.9219H-80.7783L-92.1221 99.2656ZM-86.8682 99.2656H-88.2969L-76.9531 87.9219H-75.5244L-86.8682 99.2656ZM-81.6143 99.2656H-83.043L-71.7002 87.9219H-70.2705L-81.6143 99.2656ZM-76.3604 99.2656H-77.79L-66.4473 87.9219H-65.0166L-76.3604 99.2656ZM-71.1074 99.2656H-72.5361L-61.1934 87.9219H-59.7646L-71.1074 99.2656ZM-28.9717 99.2656H-30.4014L-19.0576 87.9219H-17.6289L-28.9717 99.2656ZM-23.7178 99.2656H-25.1475L-13.8037 87.9219H-12.375L-23.7178 99.2656ZM-18.4648 99.2656H-19.8936L-8.5498 87.9219H-7.12109L-18.4648 99.2656ZM-13.2109 99.2656H-14.6406L-3.29688 87.9219H-1.86719L-13.2109 99.2656ZM-7.95703 99.2656H-9.38574L1.95801 87.9219H3.38672L-7.95703 99.2656ZM34.1748 99.2656H32.7461L44.0898 87.9219H45.5186L34.1748 99.2656ZM39.4287 99.2656H38L49.3438 87.9219H50.7715L39.4287 99.2656ZM44.6826 99.2656H43.2539L54.5967 87.9219H56.0264L44.6826 99.2656ZM49.9375 99.2656H48.5078L59.8506 87.9219H61.2803L49.9375 99.2656ZM55.1904 99.2656H53.7617L65.1045 87.9219H66.5332L55.1904 99.2656ZM97.3252 99.2656H95.8955L107.239 87.9219H108.668L97.3252 99.2656ZM102.579 99.2656H101.149L112.493 87.9219H113.922L102.579 99.2656ZM107.833 99.2656H106.404L117.748 87.9219H119.177L107.833 99.2656ZM113.087 99.2656H111.657L123.001 87.9219H124.43L113.087 99.2656ZM118.342 99.2656H116.913L128.256 87.9219H129.686L118.342 99.2656ZM160.475 99.2656H159.046L170.388 87.9219H171.817L160.475 99.2656ZM165.729 99.2656H164.3L175.643 87.9219H177.072L165.729 99.2656ZM170.982 99.2656H169.554L180.896 87.9219H182.326L170.982 99.2656ZM176.237 99.2656H174.807L186.15 87.9219H187.579L176.237 99.2656ZM181.49 99.2656H180.061L191.404 87.9219H192.833L181.49 99.2656ZM223.619 99.2656H222.189L233.533 87.9219H234.962L223.619 99.2656ZM228.873 99.2656H227.443L238.787 87.9219H240.216L228.873 99.2656ZM234.127 99.2656H232.698L244.042 87.9219H245.471L234.127 99.2656ZM239.381 99.2656H237.951L249.295 87.9219H250.724L239.381 99.2656ZM244.636 99.2656H243.207L254.55 87.9219H255.979L244.636 99.2656ZM-77.5625 74.1992H-78.9912L-49.8457 45.0537H-48.417L-77.5625 74.1992ZM-72.3086 74.1992H-73.7373L-44.5918 45.0537H-43.1631L-72.3086 74.1992ZM-67.0547 74.1992H-68.4834L-39.3379 45.0537H-37.9092L-67.0547 74.1992ZM-61.8008 74.1992H-63.2295L-34.084 45.0537H-32.6553L-61.8008 74.1992ZM-56.5459 74.1992H-57.9756L-28.8301 45.0537H-27.4004L-56.5459 74.1992ZM-19.668 74.1992H-21.0977L43.3477 9.75391H44.7764L-19.668 74.1992ZM-14.4131 74.1992H-15.8428L13.3027 45.0537H14.7324L-14.4131 74.1992ZM-9.16016 74.1992H-10.5889L18.5566 45.0537H19.9854L-9.16016 74.1992ZM-3.90625 74.1992H-5.33496L23.8105 45.0537H25.2393L-3.90625 74.1992ZM1.34766 74.1992H-0.0810547L29.0645 45.0537H30.4932L1.34766 74.1992ZM6.60254 74.1992H5.17383L34.3193 45.0537H35.748L6.60254 74.1992ZM43.4756 74.1992H42.0469L106.492 9.75391H107.921L43.4756 74.1992ZM48.7324 74.1992H47.3027L76.4482 45.0537H77.8779L48.7324 74.1992ZM53.9863 74.1992H52.5576L81.7031 45.0537H83.1318L53.9863 74.1992ZM59.2412 74.1992H57.8125L86.958 45.0537H88.3867L59.2412 74.1992ZM64.4951 74.1992H63.0664L92.2109 45.0537H93.6406L64.4951 74.1992ZM69.748 74.1992H68.3193L97.4648 45.0537H98.8936L69.748 74.1992ZM106.626 74.1992H105.196L169.642 9.75391H171.07L106.626 74.1992ZM111.882 74.1992H110.452L139.598 45.0537H141.026L111.882 74.1992ZM117.136 74.1992H115.707L144.853 45.0537H146.281L117.136 74.1992ZM122.39 74.1992H120.961L150.106 45.0537H151.535L122.39 74.1992ZM127.644 74.1992H126.215L155.36 45.0537H156.789L127.644 74.1992ZM132.898 74.1992H131.47L160.615 45.0537H162.044L132.898 74.1992ZM169.775 74.1992H168.347L232.792 9.75391H234.221L169.775 74.1992ZM175.032 74.1992H173.603L202.748 45.0537H204.178L175.032 74.1992ZM180.285 74.1992H178.856L208.002 45.0537H209.431L180.285 74.1992ZM185.539 74.1992H184.11L213.256 45.0537H214.685L185.539 74.1992ZM190.794 74.1992H189.364L218.51 45.0537H219.939L190.794 74.1992ZM196.048 74.1992H194.618L223.764 45.0537H225.192L196.048 74.1992ZM232.92 74.1992H231.491L295.936 9.75391H297.365L232.92 74.1992ZM238.176 74.1992H236.746L265.892 45.0537H267.321L238.176 74.1992ZM243.431 74.1992H242.001L271.146 45.0537H272.575L243.431 74.1992ZM248.684 74.1992H247.255L276.4 45.0537H277.829L248.684 74.1992ZM253.938 74.1992H252.509L281.654 45.0537H283.083L253.938 74.1992ZM259.192 74.1992H257.764L286.909 45.0537H288.338L259.192 74.1992ZM-82.8164 74.1982H-84.2451L-19.7998 9.75293H-18.3711L-82.8164 74.1982ZM-33.0869 55.9932H-34.5156L-23.5771 45.0537H-22.1475L-33.0869 55.9932ZM-27.833 55.9932H-29.2627L-18.3232 45.0537H-16.8945L-27.833 55.9932ZM30.0615 55.9932H28.6328L39.5723 45.0537H41.001L30.0615 55.9932ZM35.3154 55.9932H33.8867L44.8262 45.0537H46.2549L35.3154 55.9932ZM93.21 55.9932H91.7803L102.719 45.0537H104.148L93.21 55.9932ZM98.4629 55.9932H97.0332L107.973 45.0537H109.401L98.4629 55.9932ZM156.357 55.9932H154.929L165.868 45.0537H167.297L156.357 55.9932ZM161.613 55.9932H160.184L171.123 45.0537H172.553L161.613 55.9932ZM219.509 55.9932H218.078L229.018 45.0537H230.447L219.509 55.9932ZM224.761 55.9932H223.332L234.271 45.0537H235.7L224.761 55.9932ZM282.652 55.9932H281.224L292.163 45.0537H293.592L282.652 55.9932ZM287.907 55.9932H286.478L297.417 45.0537H298.847L287.907 55.9932ZM-36.4668 33.1035H-37.8955L-14.5459 9.75391H-13.1172L-36.4668 33.1035ZM-31.2129 33.1035H-32.6416L-9.29199 9.75391H-7.86328L-31.2129 33.1035ZM-25.959 33.1035H-27.3877L-4.03906 9.75391H-2.60938L-25.959 33.1035ZM-20.7051 33.1035H-22.1338L1.21484 9.75391H2.64453L-20.7051 33.1035ZM-15.4521 33.1035H-16.8809L6.46875 9.75391H7.89648L-15.4521 33.1035ZM-10.1963 33.1035H-11.627L11.7227 9.75391H13.1523L-10.1963 33.1035ZM-4.94434 33.1035H-6.37305L16.9766 9.75391H18.4053L-4.94434 33.1035ZM26.6816 33.1035H25.252L48.6016 9.75391H50.0303L26.6816 33.1035ZM31.9346 33.1035H30.5059L53.8555 9.75391H55.2842L31.9346 33.1035ZM37.1885 33.1035H35.7598L59.1094 9.75391H60.5381L37.1885 33.1035ZM42.4434 33.1035H41.0146L64.3643 9.75391H65.793L42.4434 33.1035ZM47.6963 33.1035H46.2686L69.6182 9.75391H71.0449L47.6963 33.1035ZM52.9512 33.1035H51.5215L74.8711 9.75391H76.2998L52.9512 33.1035ZM58.2061 33.1035H56.7773L80.125 9.75391H81.5557L58.2061 33.1035ZM89.8252 33.1035H88.3965L111.747 9.75391H113.175L89.8252 33.1035ZM95.0801 33.1035H93.6514L117.001 9.75391H118.43L95.0801 33.1035ZM100.334 33.1035H98.9053L122.254 9.75391H123.684L100.334 33.1035ZM105.589 33.1035H104.16L127.509 9.75391H128.938L105.589 33.1035ZM110.844 33.1035H109.414L132.764 9.75391H134.191L110.844 33.1035ZM116.098 33.1035H114.667L138.017 9.75391H139.445L116.098 33.1035ZM121.352 33.1035H119.923L143.271 9.75391H144.701L121.352 33.1035ZM152.977 33.1035H151.547L174.896 9.75391H176.325L152.977 33.1035ZM158.229 33.1035H156.801L180.15 9.75391H181.579L158.229 33.1035ZM163.483 33.1035H162.055L185.404 9.75391H186.832L163.483 33.1035ZM168.738 33.1035H167.31L190.659 9.75391H192.087L168.738 33.1035ZM173.992 33.1035H172.563L195.913 9.75391H197.341L173.992 33.1035ZM179.247 33.1035H177.817L201.167 9.75391H202.596L179.247 33.1035ZM184.501 33.1035H183.072L206.42 9.75391H207.851L184.501 33.1035ZM216.125 33.1035H214.696L238.046 9.75391H239.475L216.125 33.1035ZM221.38 33.1035H219.951L243.3 9.75391H244.729L221.38 33.1035ZM226.634 33.1035H225.204L248.554 9.75391H249.983L226.634 33.1035ZM231.888 33.1035H230.458L253.808 9.75391H255.236L231.888 33.1035ZM237.143 33.1035H235.713L259.062 9.75391H260.49L237.143 33.1035ZM242.396 33.1035H240.966L264.315 9.75391H265.744L242.396 33.1035ZM247.65 33.1035H246.222L269.57 9.75391H271L247.65 33.1035ZM279.271 33.1035H277.841L301.19 9.75391H302.619L279.271 33.1035ZM284.524 33.1035H283.095L306.444 9.75391H307.873L284.524 33.1035ZM289.777 33.1035H288.349L311.698 9.75391H313.126L289.777 33.1035ZM295.032 33.1035H293.604L316.953 9.75391H318.381L295.032 33.1035ZM300.287 33.1035H298.858L322.208 9.75391H323.636L300.287 33.1035ZM305.541 33.1035H304.111L327.461 9.75391H328.89L305.541 33.1035ZM310.796 33.1035H309.367L332.716 9.75391H334.146L310.796 33.1035Z" fill="#2C2B80"/>
</g>
<path d="M109.724 15.4762C100.677 15.8696 81.5382 12.8543 73.0996 11.2975L82.9318 4.16895H139.223C146.925 4.66053 160.068 6.52863 151.022 10.0683C139.714 14.4929 121.033 14.9846 109.724 15.4762Z" fill="#1D1C57"/>
<path d="M164.866 -1.22266C159.549 1.27794 144.687 6.16677 120.603 6.16677C96.5192 6.16677 78.0125 2.93184 70.0852 0.431246" stroke="url(#paint0_linear_4400_1040)" stroke-width="7.20554"/>
<path d="M75.7533 111.068C83.498 151.729 50.4755 202.77 32.9961 223.208V186.13C76.492 146.645 76.9071 124.546 75.7533 111.068Z" fill="url(#paint1_linear_4400_1040)"/>
<path d="M75.7533 111.068C83.498 151.729 50.4755 202.77 32.9961 223.208V186.13C76.492 146.645 76.9071 124.546 75.7533 111.068Z" fill="url(#paint2_linear_4400_1040)"/>
<path d="M75.7533 111.068C83.498 151.729 50.4755 202.77 32.9961 223.208V186.13C76.492 146.645 76.9071 124.546 75.7533 111.068Z" fill="url(#paint3_linear_4400_1040)"/>
<path d="M162.556 111.068C154.811 151.729 187.834 202.77 205.313 223.208V186.13C161.817 146.645 161.402 124.546 162.556 111.068Z" fill="#D9D9D9"/>
<path d="M162.556 111.068C154.811 151.729 187.834 202.77 205.313 223.208V186.13C161.817 146.645 161.402 124.546 162.556 111.068Z" fill="url(#paint4_linear_4400_1040)"/>
<path d="M162.556 111.068C154.811 151.729 187.834 202.77 205.313 223.208V186.13C161.817 146.645 161.402 124.546 162.556 111.068Z" fill="url(#paint5_linear_4400_1040)"/>
<path d="M162.556 111.068C154.811 151.729 187.834 202.77 205.313 223.208V186.13C161.817 146.645 161.402 124.546 162.556 111.068Z" fill="url(#paint6_linear_4400_1040)"/>
</g>
<path d="M69.7953 2.67969L89.4893 11.8239C89.4893 11.8239 63.4167 35.0494 53.7705 56.7635C44.1242 78.4776 46.0754 88.8242 46.0754 88.8242L38.4804 99.0775L0.884926 77.9379C7.57127 64.0924 21.6187 34.8573 24.3177 28.6808C27.0166 22.5043 30.7051 18.6019 31.9346 17.824L69.7953 2.67969Z" fill="url(#paint7_linear_4400_1040)"/>
<path d="M69.7953 2.67969L89.4893 11.8239C89.4893 11.8239 63.4167 35.0494 53.7705 56.7635C44.1242 78.4776 46.0754 88.8242 46.0754 88.8242L38.4804 99.0775L0.884926 77.9379C7.57127 64.0924 21.6187 34.8573 24.3177 28.6808C27.0166 22.5043 30.7051 18.6019 31.9346 17.824L69.7953 2.67969Z" fill="#1D1C57"/>
<path d="M166.512 2.36914L147.185 12.5133C147.185 12.5133 166.039 28.2425 173.541 42.013C181.044 55.7836 189.217 89.1497 189.217 89.1497L193.48 93.9169L197.382 98.8394L234.118 77.9487C227.431 64.1032 214.798 34.8569 212.099 28.6805C209.4 22.504 206.266 19.4041 205.037 18.6262L175.824 5.52773L166.512 2.36914Z" fill="#1D1C57"/>
<path d="M193.908 95.3629L196.852 100.319L234.383 78.0197L231.439 73.0645L193.908 95.3629Z" fill="#FEC18C"/>
<path d="M211.422 85.0508L214.366 90.0067L234.383 78.0197L231.439 73.0645L211.422 85.0508Z" fill="#F192BB"/>
<path d="M211.422 85.0508L214.366 90.0067L234.383 78.0197L231.439 73.0645L211.422 85.0508Z" fill="#3C3FA2"/>
<path d="M40.4749 95.9596L37.5308 100.916L0 78.6164L2.94414 73.6611L40.4749 95.9596Z" fill="#FEC18C"/>
<path d="M22.9609 85.6475L20.0168 90.6034L0 78.6164L2.94414 73.6611L22.9609 85.6475Z" fill="#F192BB"/>
<path d="M22.9609 85.6475L20.0168 90.6034L0 78.6164L2.94414 73.6611L22.9609 85.6475Z" fill="#3C3FA2"/>
<mask id="mask2_4400_1040" style="mask-type:alpha" maskUnits="userSpaceOnUse" x="197" y="18" width="38" height="65">
<path d="M197.383 47.5111L208.161 69.5696L212.1 77.9485L224.487 82.8047L234.119 77.9485C227.432 64.103 214.799 34.8567 212.1 28.6803C209.401 22.5038 206.267 19.4039 205.038 18.626L197.381 21.4821L197.383 47.5111Z" fill="#D9D9D9"/>
</mask>
<g mask="url(#mask2_4400_1040)">
<path d="M223.324 22.128C223.161 22.1056 223.129 22.261 223.076 22.3613C222.635 23.2002 222.197 24.0408 221.761 24.8832C221.607 25.1813 221.605 25.4725 221.755 25.7863C223.519 29.4566 225.213 33.1612 227.058 36.7939C228.23 39.0997 228.412 41.3317 226.949 43.4965C224.545 47.0544 220.062 48.0176 216.41 45.7562C215.543 45.2195 214.94 44.4181 214.508 43.5227C212.904 40.2031 211.318 36.8756 209.734 33.5462C209.424 32.8972 209.153 32.2322 208.859 31.5761C208.65 31.1105 208.298 30.8371 207.769 30.7419C207.062 30.615 206.364 30.4447 205.661 30.2978C205.526 30.2695 205.366 30.151 205.254 30.2599C205.109 30.4026 205.278 30.55 205.339 30.6797C206.508 33.1356 207.685 35.5895 208.86 38.0432L208.889 38.03L208.891 38.0304C210.02 40.39 211.093 42.776 212.294 45.1C213.535 47.4998 215.624 48.8728 218.326 49.4031C220.589 49.8469 222.784 49.5931 224.863 48.6831C228.622 47.0366 231.327 43.2447 231.025 39.3502C230.955 38.4546 230.712 37.6009 230.324 36.7874C228.537 33.0498 226.744 29.315 224.964 25.5744C224.459 24.5141 223.988 23.4373 223.499 22.3695C223.458 22.2773 223.447 22.1446 223.324 22.128Z" fill="white"/>
<path d="M210.971 31.4508C210.818 31.4179 210.547 31.326 210.507 31.4266C210.458 31.5506 210.558 31.7497 210.629 31.8971C211.516 33.7681 212.373 35.6537 213.218 37.1927L213.218 37.1946C214.16 39.1623 215.034 40.813 215.75 42.5261C216.76 44.9395 219.519 46.0027 221.938 45.4204C224.492 44.8061 226.257 42.9383 226.526 40.4175C226.593 39.7814 226.471 39.1705 226.192 38.5865C225.017 36.1319 223.852 33.6728 222.676 31.2186C222.092 30.0004 221.545 28.76 220.958 27.5331C220.884 27.401 220.841 27.2227 220.657 27.2062C220.519 27.194 220.482 27.3419 220.375 27.5389C220.074 28.0942 219.791 28.6596 219.486 29.213C219.285 29.5774 219.267 29.9104 219.457 30.3023C220.813 33.0983 222.148 35.9051 223.49 38.7077C224.198 40.1876 223.631 41.6915 222.1 42.3802C220.568 43.0696 219.031 42.5233 218.309 41.0497C217.522 39.4433 216.718 37.8449 215.921 36.243C215.35 35.0954 214.926 33.8854 214.321 32.7509C214.078 32.2952 213.785 32.0199 213.236 31.9364C212.474 31.8206 211.727 31.6133 210.971 31.4508Z" fill="white"/>
</g>
<path d="M45.8369 89.8998C51.1729 46.2381 75.8412 21.9239 89.3328 12.8748" stroke="#100F45" stroke-width="0.720554"/>
<path d="M188.839 89.9C183.503 46.2384 160.168 21.1662 146.676 12.1172" stroke="#100F45" stroke-width="0.720554"/>
<defs>
<linearGradient id="paint0_linear_4400_1040" x1="169.576" y1="2.27841" x2="75.57" y2="2.27841" gradientUnits="userSpaceOnUse">
<stop stop-color="#323AA2"/>
<stop offset="0.528846" stop-color="#E38CB8"/>
<stop offset="1" stop-color="#FFC488"/>
</linearGradient>
<linearGradient id="paint1_linear_4400_1040" x1="46.2942" y1="198.464" x2="27.8424" y2="136.814" gradientUnits="userSpaceOnUse">
<stop stop-color="#323AA2"/>
<stop offset="0.349481" stop-color="#6C56A0"/>
<stop offset="0.689074" stop-color="#FF99BE"/>
<stop offset="1" stop-color="#FFD278"/>
</linearGradient>
<linearGradient id="paint2_linear_4400_1040" x1="67.6344" y1="110.352" x2="108.082" y2="173.65" gradientUnits="userSpaceOnUse">
<stop offset="0.00791785" stop-color="#2277FF"/>
<stop offset="0.403634" stop-color="#5C6EE1"/>
<stop offset="0.712847" stop-color="#ACFCFD"/>
</linearGradient>
<linearGradient id="paint3_linear_4400_1040" x1="46.2942" y1="198.464" x2="27.8424" y2="136.814" gradientUnits="userSpaceOnUse">
<stop stop-color="#323AA2"/>
<stop offset="0.349481" stop-color="#6C56A0"/>
<stop offset="0.689074" stop-color="#FF99BE"/>
<stop offset="1" stop-color="#FFD278"/>
</linearGradient>
<linearGradient id="paint4_linear_4400_1040" x1="192.015" y1="198.464" x2="210.467" y2="136.814" gradientUnits="userSpaceOnUse">
<stop stop-color="#323AA2"/>
<stop offset="0.349481" stop-color="#6C56A0"/>
<stop offset="0.689074" stop-color="#FF99BE"/>
<stop offset="1" stop-color="#FFD278"/>
</linearGradient>
<linearGradient id="paint5_linear_4400_1040" x1="170.675" y1="110.352" x2="130.227" y2="173.65" gradientUnits="userSpaceOnUse">
<stop offset="0.00791785" stop-color="#2277FF"/>
<stop offset="0.403634" stop-color="#5C6EE1"/>
<stop offset="0.712847" stop-color="#ACFCFD"/>
</linearGradient>
<linearGradient id="paint6_linear_4400_1040" x1="192.015" y1="198.464" x2="210.467" y2="136.814" gradientUnits="userSpaceOnUse">
<stop stop-color="#323AA2"/>
<stop offset="0.349481" stop-color="#6C56A0"/>
<stop offset="0.689074" stop-color="#FF99BE"/>
<stop offset="1" stop-color="#FFD278"/>
</linearGradient>
<linearGradient id="paint7_linear_4400_1040" x1="70.7216" y1="7.65324" x2="19.7817" y2="92.068" gradientUnits="userSpaceOnUse">
<stop stop-color="#323AA2"/>
<stop offset="0.349481" stop-color="#6C56A0"/>
<stop offset="0.689074" stop-color="#FF99BE"/>
<stop offset="1" stop-color="#FFD278"/>
</linearGradient>
</defs>
</svg>
