<svg preserveAspectRatio="none" width="100%" height="100%" overflow="visible" style="display: block;" viewBox="0 0 147.337 147.337" fill="none" xmlns="http://www.w3.org/2000/svg">
<g id="Group 1261152966">
<g id="Subtract">
<mask id="path-1-inside-1_5908_917" fill="white">
<path d="M3.22013e-06 73.668C0.000207323 65.1293 6.92227 58.2073 15.4609 58.207L15.9658 58.207L15.5293 57.9551C8.13472 53.6857 5.60125 44.2298 9.87012 36.835C14.1396 29.44 23.5962 26.9063 30.9912 31.1758L31.4287 31.4277L31.1758 30.9902C26.9064 23.5953 29.4402 14.1397 36.835 9.87012C44.2299 5.60089 53.6856 8.13441 57.9551 15.5293L58.208 15.9668L58.208 15.4619C58.208 6.92299 65.131 0.000124353 73.6699 5.56175e-06C82.2088 0.000209414 89.1309 6.92304 89.1309 15.4619L89.1309 15.9639L89.3838 15.5264C93.6533 8.13161 103.109 5.5979 110.504 9.86719C117.899 14.1366 120.432 23.5923 116.163 30.9873L115.907 31.4287L116.349 31.1748C123.744 26.9053 133.2 29.4391 137.47 36.834C141.739 44.2289 139.205 53.6856 131.811 57.9551L131.374 58.207L131.875 58.207C140.414 58.207 147.337 65.1291 147.337 73.668C147.337 82.2069 140.414 89.1299 131.875 89.1299L131.37 89.1299L131.809 89.3828C139.203 93.6524 141.737 103.108 137.468 110.503C133.198 117.898 123.742 120.432 116.347 116.162L115.909 115.909L116.162 116.347C120.432 123.742 117.898 133.198 110.503 137.468C103.108 141.737 93.6523 139.202 89.3828 131.808L89.1309 131.371L89.1309 131.876C89.1305 140.415 82.2085 147.337 73.6699 147.337C65.1313 147.337 58.2084 140.415 58.208 131.876L58.208 131.369L57.9561 131.806C53.6864 139.2 44.2307 141.734 36.8359 137.465C29.4411 133.195 26.9075 123.739 31.1768 116.344L31.4258 115.912L30.9932 116.162C23.5983 120.431 14.1416 117.898 9.87207 110.503C5.60262 103.108 8.13647 93.6514 15.5313 89.3818L15.9678 89.1299L15.4609 89.1299C6.92224 89.1296 0.000143415 82.2067 3.22013e-06 73.668Z"/>
</mask>
<path d="M3.22013e-06 73.668C0.000207323 65.1293 6.92227 58.2073 15.4609 58.207L15.9658 58.207L15.5293 57.9551C8.13472 53.6857 5.60125 44.2298 9.87012 36.835C14.1396 29.44 23.5962 26.9063 30.9912 31.1758L31.4287 31.4277L31.1758 30.9902C26.9064 23.5953 29.4402 14.1397 36.835 9.87012C44.2299 5.60089 53.6856 8.13441 57.9551 15.5293L58.208 15.9668L58.208 15.4619C58.208 6.92299 65.131 0.000124353 73.6699 5.56175e-06C82.2088 0.000209414 89.1309 6.92304 89.1309 15.4619L89.1309 15.9639L89.3838 15.5264C93.6533 8.13161 103.109 5.5979 110.504 9.86719C117.899 14.1366 120.432 23.5923 116.163 30.9873L115.907 31.4287L116.349 31.1748C123.744 26.9053 133.2 29.4391 137.47 36.834C141.739 44.2289 139.205 53.6856 131.811 57.9551L131.374 58.207L131.875 58.207C140.414 58.207 147.337 65.1291 147.337 73.668C147.337 82.2069 140.414 89.1299 131.875 89.1299L131.37 89.1299L131.809 89.3828C139.203 93.6524 141.737 103.108 137.468 110.503C133.198 117.898 123.742 120.432 116.347 116.162L115.909 115.909L116.162 116.347C120.432 123.742 117.898 133.198 110.503 137.468C103.108 141.737 93.6523 139.202 89.3828 131.808L89.1309 131.371L89.1309 131.876C89.1305 140.415 82.2085 147.337 73.6699 147.337C65.1313 147.337 58.2084 140.415 58.208 131.876L58.208 131.369L57.9561 131.806C53.6864 139.2 44.2307 141.734 36.8359 137.465C29.4411 133.195 26.9075 123.739 31.1768 116.344L31.4258 115.912L30.9932 116.162C23.5983 120.431 14.1416 117.898 9.87207 110.503C5.60262 103.108 8.13647 93.6514 15.5313 89.3818L15.9678 89.1299L15.4609 89.1299C6.92224 89.1296 0.000143415 82.2067 3.22013e-06 73.668Z" fill="#FF9424"/>
<path d="M3.22013e-06 73.668L-0.999997 73.668L-0.999997 73.668L3.22013e-06 73.668ZM15.4609 58.207L15.4609 57.207L15.4609 57.207L15.4609 58.207ZM15.9658 58.207L15.9658 59.207L19.6988 59.207L16.4657 57.3409L15.9658 58.207ZM15.5293 57.9551L15.0293 58.8211L15.0294 58.8212L15.5293 57.9551ZM9.87012 36.835L9.00409 36.335L9.00407 36.335L9.87012 36.835ZM30.9912 31.1758L30.4912 32.0418L30.4922 32.0424L30.9912 31.1758ZM31.4287 31.4277L30.9297 32.2943L34.1604 34.1549L32.2944 30.9272L31.4287 31.4277ZM31.1758 30.9902L30.3098 31.4902L30.31 31.4907L31.1758 30.9902ZM36.835 9.87012L36.335 9.00408L36.3349 9.00411L36.835 9.87012ZM57.9551 15.5293L57.0891 16.0293L57.0893 16.0298L57.9551 15.5293ZM58.208 15.9668L57.3423 16.4673L59.208 19.6945L59.208 15.9668L58.208 15.9668ZM58.208 15.4619L57.208 15.4619V15.4619L58.208 15.4619ZM73.6699 5.56175e-06L73.6699 -0.999994L73.6699 -0.999994L73.6699 5.56175e-06ZM89.1309 15.4619L88.1309 15.4619V15.4619L89.1309 15.4619ZM89.1309 15.9639L88.1309 15.9639L88.1309 19.6916L89.9966 16.4644L89.1309 15.9639ZM89.3838 15.5264L90.2495 16.0269L90.2498 16.0264L89.3838 15.5264ZM110.504 9.86719L111.004 9.00116L111.004 9.00116L110.504 9.86719ZM116.163 30.9873L117.028 31.4888L117.029 31.4873L116.163 30.9873ZM115.907 31.4287L115.042 30.9272L113.17 34.1568L116.406 32.2955L115.907 31.4287ZM116.349 31.1748L116.847 32.0416L116.849 32.0408L116.349 31.1748ZM137.47 36.834L138.336 36.334L138.336 36.334L137.47 36.834ZM131.811 57.9551L132.31 58.8212L132.311 58.8211L131.811 57.9551ZM131.374 58.207L130.874 57.3409L127.641 59.207L131.374 59.207L131.374 58.207ZM131.875 58.207L131.875 57.207V57.207L131.875 58.207ZM147.337 73.668L148.337 73.668L148.337 73.6679L147.337 73.668ZM131.875 89.1299L131.875 88.1299V88.1299L131.875 89.1299ZM131.37 89.1299L131.37 88.1299L127.635 88.1299L130.87 89.9961L131.37 89.1299ZM131.809 89.3828L132.309 88.5168L132.308 88.5166L131.809 89.3828ZM137.468 110.503L138.334 111.003L138.334 111.003L137.468 110.503ZM116.347 116.162L115.846 117.028L115.847 117.028L116.347 116.162ZM115.909 115.909L116.41 115.043L113.171 113.171L115.043 116.41L115.909 115.909ZM116.162 116.347L117.028 115.847L117.028 115.846L116.162 116.347ZM110.503 137.468L111.003 138.334L111.003 138.334L110.503 137.468ZM89.3828 131.808L88.5167 132.308L88.5168 132.308L89.3828 131.808ZM89.1309 131.371L89.9969 130.871L88.1309 127.638L88.1309 131.371L89.1309 131.371ZM89.1309 131.876L90.1309 131.876L90.1309 131.876L89.1309 131.876ZM73.6699 147.337L73.6699 148.337L73.6699 148.337L73.6699 147.337ZM58.208 131.876L57.208 131.876L57.208 131.876L58.208 131.876ZM58.208 131.369L59.208 131.369L59.208 127.636L57.3419 130.869L58.208 131.369ZM57.9561 131.806L58.8221 132.306L58.8221 132.306L57.9561 131.806ZM36.8359 137.465L36.3359 138.331L36.336 138.331L36.8359 137.465ZM31.1768 116.344L32.0428 116.844L32.0429 116.843L31.1768 116.344ZM31.4258 115.912L32.292 116.412L34.1572 113.179L30.9254 115.046L31.4258 115.912ZM30.9932 116.162L31.4932 117.028L31.4935 117.028L30.9932 116.162ZM9.87207 110.503L9.00605 111.003L9.00606 111.003L9.87207 110.503ZM15.5313 89.3818L15.0314 88.5157L15.0312 88.5158L15.5313 89.3818ZM15.9678 89.1299L16.4677 89.996L19.7008 88.1299L15.9678 88.1299L15.9678 89.1299ZM15.4609 89.1299L15.4609 90.1299L15.4609 90.1299L15.4609 89.1299ZM3.22013e-06 73.668L1 73.668C1.00019 65.6816 7.47456 59.2073 15.461 59.207L15.4609 58.207L15.4609 57.207C6.36998 57.2073 -0.999779 64.577 -0.999997 73.668L3.22013e-06 73.668ZM15.4609 58.207L15.4609 59.207L15.9658 59.207L15.9658 58.207L15.9658 57.207L15.4609 57.207L15.4609 58.207ZM15.9658 58.207L16.4657 57.3409L16.0292 57.089L15.5293 57.9551L15.0294 58.8212L15.4659 59.0731L15.9658 58.207ZM15.5293 57.9551L16.0293 57.0891C9.11304 53.0958 6.74339 44.2515 10.7362 37.3349L9.87012 36.835L9.00407 36.335C4.45912 44.2081 7.1564 54.2755 15.0293 58.8211L15.5293 57.9551ZM9.87012 36.835L10.7361 37.335C14.7295 30.4183 23.5745 28.0485 30.4912 32.0418L30.9912 31.1758L31.4912 30.3098C23.6179 25.7642 13.5497 28.4617 9.00409 36.335L9.87012 36.835ZM30.9912 31.1758L30.4922 32.0424L30.9297 32.2943L31.4287 31.4277L31.9278 30.5612L31.4903 30.3092L30.9912 31.1758ZM31.4287 31.4277L32.2944 30.9272L32.0415 30.4897L31.1758 30.9902L30.31 31.4907L30.563 31.9282L31.4287 31.4277ZM31.1758 30.9902L32.0418 30.4902C28.0485 23.5737 30.4185 14.7296 37.335 10.7361L36.835 9.87012L36.3349 9.00411C28.4619 13.5498 25.7642 23.617 30.3098 31.4902L31.1758 30.9902ZM36.835 9.87012L37.3349 10.7362C44.2516 6.74303 53.0958 9.11272 57.0891 16.0293L57.9551 15.5293L58.8211 15.0293C54.2755 7.1561 44.2082 4.45873 36.335 9.00408L36.835 9.87012ZM57.9551 15.5293L57.0893 16.0298L57.3423 16.4673L58.208 15.9668L59.0737 15.4663L58.8208 15.0288L57.9551 15.5293ZM58.208 15.9668L59.208 15.9668L59.208 15.4619L58.208 15.4619L57.208 15.4619L57.208 15.9668L58.208 15.9668ZM58.208 15.4619L59.208 15.4619C59.208 7.47529 65.6833 1.00011 73.6699 1.00001L73.6699 5.56175e-06L73.6699 -0.999994C64.5787 -0.999872 57.208 6.37069 57.208 15.4619L58.208 15.4619ZM73.6699 5.56175e-06L73.6699 1.00001C81.6564 1.0002 88.1309 7.47525 88.1309 15.4619L89.1309 15.4619L90.1309 15.4619C90.1309 6.37081 82.7611 -0.999781 73.6699 -0.999994L73.6699 5.56175e-06ZM89.1309 15.4619L88.1309 15.4619L88.1309 15.9639L89.1309 15.9639L90.1309 15.9639L90.1309 15.4619L89.1309 15.4619ZM89.1309 15.9639L89.9966 16.4644L90.2495 16.0269L89.3838 15.5264L88.518 15.0259L88.2651 15.4634L89.1309 15.9639ZM89.3838 15.5264L90.2498 16.0264C94.2432 9.1099 103.087 6.74007 110.004 10.7332L110.504 9.86719L111.004 9.00116C103.131 4.45574 93.0634 7.15332 88.5178 15.0264L89.3838 15.5264ZM110.504 9.86719L110.004 10.7332C116.921 14.7265 119.29 23.5706 115.297 30.4873L116.163 30.9873L117.029 31.4873C121.575 23.6141 118.877 13.5468 111.004 9.00116L110.504 9.86719ZM116.163 30.9873L115.298 30.4858L115.042 30.9272L115.907 31.4287L116.772 31.9302L117.028 31.4888L116.163 30.9873ZM115.907 31.4287L116.406 32.2955L116.847 32.0416L116.349 31.1748L115.85 30.308L115.409 30.5619L115.907 31.4287ZM116.349 31.1748L116.849 32.0408C123.765 28.0475 132.61 30.4174 136.604 37.334L137.47 36.834L138.336 36.334C133.79 28.4608 123.722 25.7632 115.849 30.3088L116.349 31.1748ZM137.47 36.834L136.604 37.334C140.597 44.2506 138.227 53.0957 131.311 57.0891L131.811 57.9551L132.311 58.8211C140.184 54.2754 142.881 44.2072 138.336 36.334L137.47 36.834ZM131.811 57.9551L131.311 57.089L130.874 57.3409L131.374 58.207L131.874 59.0731L132.31 58.8212L131.811 57.9551ZM131.374 58.207L131.374 59.207L131.875 59.207L131.875 58.207L131.875 57.207L131.374 57.207L131.374 58.207ZM131.875 58.207L131.875 59.207C139.862 59.207 146.337 65.6815 146.337 73.668L147.337 73.668L148.337 73.6679C148.337 64.5768 140.966 57.207 131.875 57.207L131.875 58.207ZM147.337 73.668L146.337 73.668C146.337 81.6546 139.862 88.1299 131.875 88.1299L131.875 89.1299L131.875 90.1299C140.966 90.1299 148.337 82.7591 148.337 73.668L147.337 73.668ZM131.875 89.1299L131.875 88.1299L131.37 88.1299L131.37 89.1299L131.37 90.1299L131.875 90.1299L131.875 89.1299ZM131.37 89.1299L130.87 89.9961L131.309 90.249L131.809 89.3828L132.308 88.5166L131.87 88.2637L131.37 89.1299ZM131.809 89.3828L131.309 90.2488C138.225 94.2423 140.595 103.086 136.602 110.003L137.468 110.503L138.334 111.003C142.879 103.13 140.182 93.0625 132.309 88.5168L131.809 89.3828ZM137.468 110.503L136.602 110.003C132.608 116.919 123.763 119.289 116.847 115.296L116.347 116.162L115.847 117.028C123.72 121.574 133.788 118.876 138.334 111.003L137.468 110.503ZM116.347 116.162L116.847 115.296L116.41 115.043L115.909 115.909L115.409 116.775L115.846 117.028L116.347 116.162ZM115.909 115.909L115.043 116.41L115.296 116.847L116.162 116.347L117.028 115.846L116.775 115.409L115.909 115.909ZM116.162 116.347L115.296 116.847C119.289 123.763 116.92 132.608 110.003 136.602L110.503 137.468L111.003 138.334C118.876 133.788 121.574 123.72 117.028 115.847L116.162 116.347ZM110.503 137.468L110.003 136.602C103.086 140.595 94.2422 138.224 90.2488 131.308L89.3828 131.808L88.5168 132.308C93.0623 140.181 103.13 142.879 111.003 138.334L110.503 137.468ZM89.3828 131.808L90.2489 131.308L89.9969 130.871L89.1309 131.371L88.2648 131.871L88.5167 132.308L89.3828 131.808ZM89.1309 131.371L88.1309 131.371L88.1309 131.876L89.1309 131.876L90.1309 131.876L90.1309 131.371L89.1309 131.371ZM89.1309 131.876L88.1309 131.876C88.1305 139.862 81.6562 146.337 73.6699 146.337L73.6699 147.337L73.6699 148.337C82.7608 148.337 90.1304 140.967 90.1309 131.876L89.1309 131.876ZM73.6699 147.337L73.6699 146.337C65.6835 146.337 59.2084 139.862 59.208 131.876L58.208 131.876L57.208 131.876C57.2084 140.967 64.579 148.337 73.6699 148.337L73.6699 147.337ZM58.208 131.876L59.208 131.876L59.208 131.369L58.208 131.369L57.208 131.369L57.208 131.876L58.208 131.876ZM58.208 131.369L57.3419 130.869L57.09 131.306L57.9561 131.806L58.8221 132.306L59.0741 131.869L58.208 131.369ZM57.9561 131.806L57.0901 131.306C53.0966 138.222 44.2524 140.592 37.3359 136.599L36.8359 137.465L36.336 138.331C44.209 142.876 54.2763 140.178 58.8221 132.306L57.9561 131.806ZM36.8359 137.465L37.3359 136.599C30.4194 132.606 28.0496 123.76 32.0428 116.844L31.1768 116.344L30.3107 115.844C25.7654 123.717 28.4627 133.785 36.3359 138.331L36.8359 137.465ZM31.1768 116.344L32.0429 116.843L32.292 116.412L31.4258 115.912L30.5596 115.412L30.3106 115.844L31.1768 116.344ZM31.4258 115.912L30.9254 115.046L30.4928 115.296L30.9932 116.162L31.4935 117.028L31.9261 116.778L31.4258 115.912ZM30.9932 116.162L30.4932 115.296C23.5766 119.289 14.7315 116.919 10.7381 110.003L9.87207 110.503L9.00606 111.003C13.5517 118.876 23.62 121.573 31.4932 117.028L30.9932 116.162ZM9.87207 110.503L10.7381 110.003C6.74479 103.086 9.11476 94.2413 16.0313 90.2479L15.5313 89.3818L15.0312 88.5158C7.15817 93.0615 4.46046 103.13 9.00605 111.003L9.87207 110.503ZM15.5313 89.3818L16.0311 90.2479L16.4677 89.996L15.9678 89.1299L15.4679 88.2638L15.0314 88.5157L15.5313 89.3818ZM15.9678 89.1299L15.9678 88.1299L15.4609 88.1299L15.4609 89.1299L15.4609 90.1299L15.9678 90.1299L15.9678 89.1299ZM15.4609 89.1299L15.461 88.1299C7.4746 88.1296 1.00013 81.6545 1 73.668L3.22013e-06 73.668L-0.999997 73.668C-0.999847 82.7589 6.36988 90.1296 15.4609 90.1299L15.4609 89.1299Z" fill="#262626" mask="url(#path-1-inside-1_5908_917)"/>
</g>
<path id="Star 1" d="M68.2207 13.0169C70.3657 8.3693 76.9713 8.36929 79.1162 13.0169L82.9311 21.2827C84.5024 24.6872 88.7766 25.8325 91.8397 23.6697L99.2763 18.4188C103.458 15.4663 109.178 18.7691 108.712 23.8666L107.883 32.9323C107.542 36.6664 110.67 39.7954 114.405 39.4539L123.47 38.6247C128.568 38.1586 131.871 43.8792 128.918 48.0606L123.667 55.4972C121.504 58.5603 122.65 62.8345 126.054 64.4058L134.32 68.2206C138.968 70.3656 138.968 76.9712 134.32 79.1162L126.054 82.9311C122.65 84.5023 121.504 88.7766 123.667 91.8396L128.918 99.2763C131.871 103.458 128.568 109.178 123.47 108.712L114.405 107.883C110.67 107.541 107.542 110.67 107.883 114.405L108.712 123.47C109.178 128.568 103.458 131.871 99.2763 128.918L91.8397 123.667C88.7766 121.504 84.5024 122.65 82.9311 126.054L79.1162 134.32C76.9713 138.968 70.3657 138.968 68.2207 134.32L64.4058 126.054C62.8345 122.65 58.5603 121.504 55.4973 123.667L48.0606 128.918C43.8792 131.871 38.1586 128.568 38.6248 123.47L39.4539 114.405C39.7954 110.67 36.6664 107.541 32.9324 107.883L23.8666 108.712C18.7691 109.178 15.4663 103.458 18.4188 99.2763L23.6697 91.8396C25.8325 88.7766 24.6872 84.5023 21.2827 82.9311L13.0169 79.1162C8.36932 76.9712 8.36931 70.3656 13.0169 68.2206L21.2827 64.4058C24.6872 62.8345 25.8325 58.5603 23.6697 55.4972L18.4188 48.0606C15.4663 43.8792 18.7691 38.1586 23.8666 38.6247L32.9324 39.4539C36.6664 39.7954 39.7954 36.6664 39.4539 32.9324L38.6248 23.8666C38.1586 18.7691 43.8792 15.4663 48.0606 18.4188L55.4973 23.6697C58.5603 25.8325 62.8345 24.6872 64.4058 21.2827L68.2207 13.0169Z" fill="#FFE343" stroke="#262626"/>
</g>
</svg>
